<svg width="181" height="223" viewBox="0 0 181 223" fill="none" xmlns="http://www.w3.org/2000/svg">
<g id="M1_piso4" clip-path="url(#clip0_3_3)">
<rect width="181" height="223" fill="white"/>
<rect id="Rectangle 73" x="108" y="29" width="73" height="31" fill="#F5F0E8"/>
<g id="Laboratorio_3">
<rect id="Rectangle 62" width="73" height="35" fill="#BDD7EE"/>
<path id="Laboratorio 3" d="M8.38875 20.069V14.2508H9.0933V19.444H11.7978V20.069H8.38875ZM14.0819 20.1712C13.8054 20.1712 13.5545 20.1192 13.3291 20.015C13.1037 19.9089 12.9247 19.7565 12.7922 19.5576C12.6596 19.3568 12.5933 19.1144 12.5933 18.8303C12.5933 18.5803 12.6425 18.3777 12.741 18.2224C12.8395 18.0652 12.9711 17.9421 13.1359 17.8531C13.3007 17.764 13.4825 17.6978 13.6814 17.6542C13.8821 17.6087 14.0838 17.5728 14.2865 17.5462C14.5516 17.5122 14.7666 17.4866 14.9314 17.4695C15.098 17.4506 15.2192 17.4193 15.295 17.3758C15.3727 17.3322 15.4115 17.2565 15.4115 17.1485V17.1258C15.4115 16.8455 15.3348 16.6277 15.1814 16.4724C15.0298 16.3171 14.7997 16.2394 14.491 16.2394C14.1709 16.2394 13.92 16.3095 13.7382 16.4497C13.5564 16.5898 13.4285 16.7394 13.3547 16.8985L12.7183 16.6712C12.8319 16.4061 12.9834 16.1997 13.1728 16.0519C13.3641 15.9023 13.5725 15.7981 13.7978 15.7394C14.0251 15.6788 14.2486 15.6485 14.4683 15.6485C14.6084 15.6485 14.7694 15.6656 14.9512 15.6997C15.135 15.7318 15.312 15.7991 15.4825 15.9014C15.6548 16.0036 15.7978 16.158 15.9115 16.3644C16.0251 16.5709 16.0819 16.8474 16.0819 17.194V20.069H15.4115V19.4781H15.3774C15.3319 19.5728 15.2562 19.6741 15.1501 19.782C15.0441 19.89 14.903 19.9818 14.7268 20.0576C14.5507 20.1334 14.3357 20.1712 14.0819 20.1712ZM14.1842 19.569C14.4494 19.569 14.6728 19.5169 14.8547 19.4127C15.0384 19.3086 15.1766 19.1741 15.2694 19.0093C15.3641 18.8445 15.4115 18.6712 15.4115 18.4894V17.8758C15.3831 17.9099 15.3206 17.9411 15.224 17.9695C15.1293 17.9961 15.0194 18.0197 14.8944 18.0406C14.7713 18.0595 14.6511 18.0765 14.5336 18.0917C14.4181 18.105 14.3244 18.1163 14.2524 18.1258C14.0781 18.1485 13.9153 18.1854 13.7637 18.2366C13.6141 18.2858 13.4929 18.3606 13.4001 18.461C13.3092 18.5595 13.2637 18.694 13.2637 18.8644C13.2637 19.0974 13.3499 19.2735 13.5223 19.3928C13.6965 19.5103 13.9172 19.569 14.1842 19.569ZM17.3966 20.069V14.2508H18.067V16.3985H18.1238C18.1731 16.3228 18.2413 16.2262 18.3284 16.1087C18.4174 15.9894 18.5443 15.8834 18.7091 15.7906C18.8757 15.6959 19.1011 15.6485 19.3852 15.6485C19.7526 15.6485 20.0765 15.7404 20.3568 15.9241C20.6371 16.1078 20.8558 16.3682 21.013 16.7053C21.1702 17.0425 21.2488 17.4402 21.2488 17.8985C21.2488 18.3606 21.1702 18.7612 21.013 19.1002C20.8558 19.4373 20.638 19.6987 20.3596 19.8843C20.0812 20.068 19.7602 20.1599 19.3966 20.1599C19.1163 20.1599 18.8918 20.1135 18.7233 20.0207C18.5547 19.926 18.425 19.819 18.3341 19.6997C18.2432 19.5784 18.1731 19.4781 18.1238 19.3985H18.0443V20.069H17.3966ZM18.0557 17.8872C18.0557 18.2167 18.1039 18.5074 18.2005 18.7593C18.2971 19.0093 18.4382 19.2053 18.6238 19.3474C18.8094 19.4875 19.0367 19.5576 19.3057 19.5576C19.586 19.5576 19.8199 19.4837 20.0074 19.336C20.1968 19.1864 20.3388 18.9856 20.4335 18.7337C20.5301 18.48 20.5784 18.1978 20.5784 17.8872C20.5784 17.5803 20.531 17.3038 20.4363 17.0576C20.3435 16.8095 20.2024 16.6135 20.013 16.4695C19.8255 16.3237 19.5897 16.2508 19.3057 16.2508C19.0329 16.2508 18.8038 16.3199 18.6182 16.4582C18.4325 16.5945 18.2924 16.7858 18.1977 17.032C18.103 17.2764 18.0557 17.5614 18.0557 17.8872ZM24.0471 20.1599C23.6532 20.1599 23.3075 20.0661 23.0102 19.8786C22.7147 19.6911 22.4837 19.4288 22.317 19.0917C22.1522 18.7546 22.0699 18.3606 22.0699 17.9099C22.0699 17.4553 22.1522 17.0586 22.317 16.7195C22.4837 16.3805 22.7147 16.1173 23.0102 15.9298C23.3075 15.7423 23.6532 15.6485 24.0471 15.6485C24.4411 15.6485 24.7858 15.7423 25.0812 15.9298C25.3786 16.1173 25.6096 16.3805 25.7744 16.7195C25.9411 17.0586 26.0244 17.4553 26.0244 17.9099C26.0244 18.3606 25.9411 18.7546 25.7744 19.0917C25.6096 19.4288 25.3786 19.6911 25.0812 19.8786C24.7858 20.0661 24.4411 20.1599 24.0471 20.1599ZM24.0471 19.5576C24.3464 19.5576 24.5926 19.4809 24.7858 19.3275C24.9789 19.1741 25.1219 18.9724 25.2147 18.7224C25.3075 18.4724 25.3539 18.2015 25.3539 17.9099C25.3539 17.6182 25.3075 17.3464 25.2147 17.0945C25.1219 16.8426 24.9789 16.639 24.7858 16.4837C24.5926 16.3284 24.3464 16.2508 24.0471 16.2508C23.7479 16.2508 23.5017 16.3284 23.3085 16.4837C23.1153 16.639 22.9723 16.8426 22.8795 17.0945C22.7867 17.3464 22.7403 17.6182 22.7403 17.9099C22.7403 18.2015 22.7867 18.4724 22.8795 18.7224C22.9723 18.9724 23.1153 19.1741 23.3085 19.3275C23.5017 19.4809 23.7479 19.5576 24.0471 19.5576ZM27.0478 20.069V15.7053H27.6956V16.3644H27.741C27.8206 16.1485 27.9645 15.9733 28.1728 15.8389C28.3812 15.7044 28.616 15.6372 28.8774 15.6372C28.9266 15.6372 28.9882 15.6381 29.062 15.64C29.1359 15.6419 29.1918 15.6447 29.2297 15.6485V16.3303C29.2069 16.3247 29.1548 16.3161 29.0734 16.3048C28.9939 16.2915 28.9096 16.2849 28.8206 16.2849C28.6084 16.2849 28.4191 16.3294 28.2524 16.4184C28.0876 16.5055 27.9569 16.6267 27.8603 16.782C27.7656 16.9354 27.7183 17.1106 27.7183 17.3076V20.069H27.0478ZM31.3085 20.1712C31.032 20.1712 30.781 20.1192 30.5557 20.015C30.3303 19.9089 30.1513 19.7565 30.0187 19.5576C29.8861 19.3568 29.8199 19.1144 29.8199 18.8303C29.8199 18.5803 29.8691 18.3777 29.9676 18.2224C30.0661 18.0652 30.1977 17.9421 30.3625 17.8531C30.5272 17.764 30.7091 17.6978 30.9079 17.6542C31.1087 17.6087 31.3104 17.5728 31.513 17.5462C31.7782 17.5122 31.9932 17.4866 32.1579 17.4695C32.3246 17.4506 32.4458 17.4193 32.5216 17.3758C32.5992 17.3322 32.638 17.2565 32.638 17.1485V17.1258C32.638 16.8455 32.5613 16.6277 32.4079 16.4724C32.2564 16.3171 32.0263 16.2394 31.7176 16.2394C31.3975 16.2394 31.1466 16.3095 30.9647 16.4497C30.7829 16.5898 30.6551 16.7394 30.5812 16.8985L29.9449 16.6712C30.0585 16.4061 30.21 16.1997 30.3994 16.0519C30.5907 15.9023 30.799 15.7981 31.0244 15.7394C31.2517 15.6788 31.4752 15.6485 31.6949 15.6485C31.835 15.6485 31.996 15.6656 32.1778 15.6997C32.3615 15.7318 32.5386 15.7991 32.7091 15.9014C32.8814 16.0036 33.0244 16.158 33.138 16.3644C33.2517 16.5709 33.3085 16.8474 33.3085 17.194V20.069H32.638V19.4781H32.6039C32.5585 19.5728 32.4827 19.6741 32.3767 19.782C32.2706 19.89 32.1295 19.9818 31.9534 20.0576C31.7772 20.1334 31.5623 20.1712 31.3085 20.1712ZM31.4108 19.569C31.6759 19.569 31.8994 19.5169 32.0812 19.4127C32.2649 19.3086 32.4032 19.1741 32.496 19.0093C32.5907 18.8445 32.638 18.6712 32.638 18.4894V17.8758C32.6096 17.9099 32.5471 17.9411 32.4505 17.9695C32.3558 17.9961 32.246 18.0197 32.121 18.0406C31.9979 18.0595 31.8776 18.0765 31.7602 18.0917C31.6447 18.105 31.5509 18.1163 31.4789 18.1258C31.3047 18.1485 31.1418 18.1854 30.9903 18.2366C30.8407 18.2858 30.7195 18.3606 30.6267 18.461C30.5358 18.5595 30.4903 18.694 30.4903 18.8644C30.4903 19.0974 30.5765 19.2735 30.7488 19.3928C30.9231 19.5103 31.1437 19.569 31.4108 19.569ZM36.4299 15.7053V16.2735H34.1686V15.7053H36.4299ZM34.8277 14.6599H35.4981V18.819C35.4981 19.0084 35.5256 19.1504 35.5805 19.2451C35.6373 19.3379 35.7093 19.4004 35.7964 19.4326C35.8854 19.4629 35.9792 19.4781 36.0777 19.4781C36.1515 19.4781 36.2121 19.4743 36.2595 19.4667C36.3068 19.4572 36.3447 19.4497 36.3731 19.444L36.5095 20.0462C36.464 20.0633 36.4006 20.0803 36.3191 20.0974C36.2377 20.1163 36.1345 20.1258 36.0095 20.1258C35.8201 20.1258 35.6345 20.0851 35.4527 20.0036C35.2727 19.9222 35.1231 19.7981 35.0038 19.6315C34.8864 19.4648 34.8277 19.2546 34.8277 19.0008V14.6599ZM39.1643 20.1599C38.7704 20.1599 38.4247 20.0661 38.1274 19.8786C37.8319 19.6911 37.6009 19.4288 37.4342 19.0917C37.2694 18.7546 37.187 18.3606 37.187 17.9099C37.187 17.4553 37.2694 17.0586 37.4342 16.7195C37.6009 16.3805 37.8319 16.1173 38.1274 15.9298C38.4247 15.7423 38.7704 15.6485 39.1643 15.6485C39.5583 15.6485 39.903 15.7423 40.1984 15.9298C40.4958 16.1173 40.7268 16.3805 40.8916 16.7195C41.0583 17.0586 41.1416 17.4553 41.1416 17.9099C41.1416 18.3606 41.0583 18.7546 40.8916 19.0917C40.7268 19.4288 40.4958 19.6911 40.1984 19.8786C39.903 20.0661 39.5583 20.1599 39.1643 20.1599ZM39.1643 19.5576C39.4636 19.5576 39.7098 19.4809 39.903 19.3275C40.0961 19.1741 40.2391 18.9724 40.3319 18.7224C40.4247 18.4724 40.4711 18.2015 40.4711 17.9099C40.4711 17.6182 40.4247 17.3464 40.3319 17.0945C40.2391 16.8426 40.0961 16.639 39.903 16.4837C39.7098 16.3284 39.4636 16.2508 39.1643 16.2508C38.8651 16.2508 38.6189 16.3284 38.4257 16.4837C38.2325 16.639 38.0895 16.8426 37.9967 17.0945C37.9039 17.3464 37.8575 17.6182 37.8575 17.9099C37.8575 18.2015 37.9039 18.4724 37.9967 18.7224C38.0895 18.9724 38.2325 19.1741 38.4257 19.3275C38.6189 19.4809 38.8651 19.5576 39.1643 19.5576ZM42.165 20.069V15.7053H42.8128V16.3644H42.8582C42.9378 16.1485 43.0817 15.9733 43.29 15.8389C43.4984 15.7044 43.7332 15.6372 43.9946 15.6372C44.0438 15.6372 44.1054 15.6381 44.1792 15.64C44.2531 15.6419 44.309 15.6447 44.3468 15.6485V16.3303C44.3241 16.3247 44.272 16.3161 44.1906 16.3048C44.1111 16.2915 44.0268 16.2849 43.9378 16.2849C43.7256 16.2849 43.5362 16.3294 43.3696 16.4184C43.2048 16.5055 43.0741 16.6267 42.9775 16.782C42.8828 16.9354 42.8355 17.1106 42.8355 17.3076V20.069H42.165ZM45.1416 20.069V15.7053H45.812V20.069H45.1416ZM45.4825 14.9781C45.3518 14.9781 45.2391 14.9336 45.1444 14.8445C45.0516 14.7555 45.0052 14.6485 45.0052 14.5235C45.0052 14.3985 45.0516 14.2915 45.1444 14.2025C45.2391 14.1135 45.3518 14.069 45.4825 14.069C45.6132 14.069 45.7249 14.1135 45.8177 14.2025C45.9124 14.2915 45.9598 14.3985 45.9598 14.5235C45.9598 14.6485 45.9124 14.7555 45.8177 14.8445C45.7249 14.9336 45.6132 14.9781 45.4825 14.9781ZM48.8128 20.1599C48.4188 20.1599 48.0732 20.0661 47.7758 19.8786C47.4804 19.6911 47.2493 19.4288 47.0826 19.0917C46.9179 18.7546 46.8355 18.3606 46.8355 17.9099C46.8355 17.4553 46.9179 17.0586 47.0826 16.7195C47.2493 16.3805 47.4804 16.1173 47.7758 15.9298C48.0732 15.7423 48.4188 15.6485 48.8128 15.6485C49.2067 15.6485 49.5514 15.7423 49.8468 15.9298C50.1442 16.1173 50.3753 16.3805 50.54 16.7195C50.7067 17.0586 50.79 17.4553 50.79 17.9099C50.79 18.3606 50.7067 18.7546 50.54 19.0917C50.3753 19.4288 50.1442 19.6911 49.8468 19.8786C49.5514 20.0661 49.2067 20.1599 48.8128 20.1599ZM48.8128 19.5576C49.112 19.5576 49.3582 19.4809 49.5514 19.3275C49.7446 19.1741 49.8876 18.9724 49.9804 18.7224C50.0732 18.4724 50.1196 18.2015 50.1196 17.9099C50.1196 17.6182 50.0732 17.3464 49.9804 17.0945C49.8876 16.8426 49.7446 16.639 49.5514 16.4837C49.3582 16.3284 49.112 16.2508 48.8128 16.2508C48.5135 16.2508 48.2673 16.3284 48.0741 16.4837C47.8809 16.639 47.7379 16.8426 47.6451 17.0945C47.5523 17.3464 47.5059 17.6182 47.5059 17.9099C47.5059 18.2015 47.5523 18.4724 47.6451 18.7224C47.7379 18.9724 47.8809 19.1741 48.0741 19.3275C48.2673 19.4809 48.5135 19.5576 48.8128 19.5576ZM56.018 20.1485C55.643 20.1485 55.3087 20.0841 55.0152 19.9553C54.7235 19.8265 54.4915 19.6476 54.3191 19.4184C54.1487 19.1873 54.0559 18.9193 54.0407 18.6144H54.7566C54.7718 18.8019 54.8362 18.9639 54.9498 19.1002C55.0635 19.2347 55.2121 19.3389 55.3959 19.4127C55.5796 19.4866 55.7832 19.5235 56.0066 19.5235C56.2566 19.5235 56.4782 19.48 56.6714 19.3928C56.8646 19.3057 57.0161 19.1845 57.126 19.0292C57.2358 18.8739 57.2907 18.694 57.2907 18.4894C57.2907 18.2754 57.2377 18.087 57.1316 17.9241C57.0256 17.7593 56.8703 17.6305 56.6657 17.5377C56.4612 17.4449 56.2112 17.3985 55.9157 17.3985H55.4498V16.7735H55.9157C56.1468 16.7735 56.3495 16.7318 56.5237 16.6485C56.6998 16.5652 56.8371 16.4478 56.9356 16.2962C57.036 16.1447 57.0862 15.9667 57.0862 15.7622C57.0862 15.5652 57.0426 15.3938 56.9555 15.2479C56.8684 15.1021 56.7453 14.9885 56.5862 14.907C56.429 14.8256 56.2434 14.7849 56.0294 14.7849C55.8286 14.7849 55.6392 14.8218 55.4612 14.8957C55.2851 14.9676 55.1411 15.0728 55.0294 15.211C54.9176 15.3474 54.857 15.5122 54.8476 15.7053H54.1657C54.1771 15.4004 54.269 15.1334 54.4413 14.9042C54.6137 14.6731 54.839 14.4932 55.1174 14.3644C55.3977 14.2356 55.7055 14.1712 56.0407 14.1712C56.4006 14.1712 56.7093 14.2442 56.9669 14.39C57.2245 14.5339 57.4224 14.7243 57.5606 14.961C57.6989 15.1978 57.768 15.4534 57.768 15.7281C57.768 16.0557 57.6818 16.3351 57.5095 16.5661C57.339 16.7972 57.107 16.9572 56.8135 17.0462V17.0917C57.1809 17.1523 57.4678 17.3086 57.6743 17.5604C57.8807 17.8104 57.9839 18.1201 57.9839 18.4894C57.9839 18.8057 57.8977 19.0898 57.7254 19.3417C57.5549 19.5917 57.322 19.7887 57.0265 19.9326C56.7311 20.0765 56.3949 20.1485 56.018 20.1485Z" fill="black"/>
</g>
<g id="Laboratorio_1">
<rect id="Rectangle 62_2" y="105" width="73" height="35" fill="#BDD7EE"/>
<path id="Laboratorio 1" d="M8.38875 125.069V119.251H9.0933V124.444H11.7978V125.069H8.38875ZM14.0819 125.171C13.8054 125.171 13.5545 125.119 13.3291 125.015C13.1037 124.909 12.9247 124.756 12.7922 124.558C12.6596 124.357 12.5933 124.114 12.5933 123.83C12.5933 123.58 12.6425 123.378 12.741 123.222C12.8395 123.065 12.9711 122.942 13.1359 122.853C13.3007 122.764 13.4825 122.698 13.6814 122.654C13.8821 122.609 14.0838 122.573 14.2865 122.546C14.5516 122.512 14.7666 122.487 14.9314 122.47C15.098 122.451 15.2192 122.419 15.295 122.376C15.3727 122.332 15.4115 122.256 15.4115 122.148V122.126C15.4115 121.845 15.3348 121.628 15.1814 121.472C15.0298 121.317 14.7997 121.239 14.491 121.239C14.1709 121.239 13.92 121.309 13.7382 121.45C13.5564 121.59 13.4285 121.739 13.3547 121.898L12.7183 121.671C12.8319 121.406 12.9834 121.2 13.1728 121.052C13.3641 120.902 13.5725 120.798 13.7978 120.739C14.0251 120.679 14.2486 120.648 14.4683 120.648C14.6084 120.648 14.7694 120.666 14.9512 120.7C15.135 120.732 15.312 120.799 15.4825 120.901C15.6548 121.004 15.7978 121.158 15.9115 121.364C16.0251 121.571 16.0819 121.847 16.0819 122.194V125.069H15.4115V124.478H15.3774C15.3319 124.573 15.2562 124.674 15.1501 124.782C15.0441 124.89 14.903 124.982 14.7268 125.058C14.5507 125.133 14.3357 125.171 14.0819 125.171ZM14.1842 124.569C14.4494 124.569 14.6728 124.517 14.8547 124.413C15.0384 124.309 15.1766 124.174 15.2694 124.009C15.3641 123.845 15.4115 123.671 15.4115 123.489V122.876C15.3831 122.91 15.3206 122.941 15.224 122.97C15.1293 122.996 15.0194 123.02 14.8944 123.041C14.7713 123.059 14.6511 123.077 14.5336 123.092C14.4181 123.105 14.3244 123.116 14.2524 123.126C14.0781 123.148 13.9153 123.185 13.7637 123.237C13.6141 123.286 13.4929 123.361 13.4001 123.461C13.3092 123.559 13.2637 123.694 13.2637 123.864C13.2637 124.097 13.3499 124.273 13.5223 124.393C13.6965 124.51 13.9172 124.569 14.1842 124.569ZM17.3966 125.069V119.251H18.067V121.398H18.1238C18.1731 121.323 18.2413 121.226 18.3284 121.109C18.4174 120.989 18.5443 120.883 18.7091 120.791C18.8757 120.696 19.1011 120.648 19.3852 120.648C19.7526 120.648 20.0765 120.74 20.3568 120.924C20.6371 121.108 20.8558 121.368 21.013 121.705C21.1702 122.042 21.2488 122.44 21.2488 122.898C21.2488 123.361 21.1702 123.761 21.013 124.1C20.8558 124.437 20.638 124.699 20.3596 124.884C20.0812 125.068 19.7602 125.16 19.3966 125.16C19.1163 125.16 18.8918 125.113 18.7233 125.021C18.5547 124.926 18.425 124.819 18.3341 124.7C18.2432 124.578 18.1731 124.478 18.1238 124.398H18.0443V125.069H17.3966ZM18.0557 122.887C18.0557 123.217 18.1039 123.507 18.2005 123.759C18.2971 124.009 18.4382 124.205 18.6238 124.347C18.8094 124.487 19.0367 124.558 19.3057 124.558C19.586 124.558 19.8199 124.484 20.0074 124.336C20.1968 124.186 20.3388 123.986 20.4335 123.734C20.5301 123.48 20.5784 123.198 20.5784 122.887C20.5784 122.58 20.531 122.304 20.4363 122.058C20.3435 121.809 20.2024 121.613 20.013 121.47C19.8255 121.324 19.5897 121.251 19.3057 121.251C19.0329 121.251 18.8038 121.32 18.6182 121.458C18.4325 121.595 18.2924 121.786 18.1977 122.032C18.103 122.276 18.0557 122.561 18.0557 122.887ZM24.0471 125.16C23.6532 125.16 23.3075 125.066 23.0102 124.879C22.7147 124.691 22.4837 124.429 22.317 124.092C22.1522 123.755 22.0699 123.361 22.0699 122.91C22.0699 122.455 22.1522 122.059 22.317 121.72C22.4837 121.38 22.7147 121.117 23.0102 120.93C23.3075 120.742 23.6532 120.648 24.0471 120.648C24.4411 120.648 24.7858 120.742 25.0812 120.93C25.3786 121.117 25.6096 121.38 25.7744 121.72C25.9411 122.059 26.0244 122.455 26.0244 122.91C26.0244 123.361 25.9411 123.755 25.7744 124.092C25.6096 124.429 25.3786 124.691 25.0812 124.879C24.7858 125.066 24.4411 125.16 24.0471 125.16ZM24.0471 124.558C24.3464 124.558 24.5926 124.481 24.7858 124.327C24.9789 124.174 25.1219 123.972 25.2147 123.722C25.3075 123.472 25.3539 123.202 25.3539 122.91C25.3539 122.618 25.3075 122.346 25.2147 122.095C25.1219 121.843 24.9789 121.639 24.7858 121.484C24.5926 121.328 24.3464 121.251 24.0471 121.251C23.7479 121.251 23.5017 121.328 23.3085 121.484C23.1153 121.639 22.9723 121.843 22.8795 122.095C22.7867 122.346 22.7403 122.618 22.7403 122.91C22.7403 123.202 22.7867 123.472 22.8795 123.722C22.9723 123.972 23.1153 124.174 23.3085 124.327C23.5017 124.481 23.7479 124.558 24.0471 124.558ZM27.0478 125.069V120.705H27.6956V121.364H27.741C27.8206 121.148 27.9645 120.973 28.1728 120.839C28.3812 120.704 28.616 120.637 28.8774 120.637C28.9266 120.637 28.9882 120.638 29.062 120.64C29.1359 120.642 29.1918 120.645 29.2297 120.648V121.33C29.2069 121.325 29.1548 121.316 29.0734 121.305C28.9939 121.291 28.9096 121.285 28.8206 121.285C28.6084 121.285 28.4191 121.329 28.2524 121.418C28.0876 121.505 27.9569 121.627 27.8603 121.782C27.7656 121.935 27.7183 122.111 27.7183 122.308V125.069H27.0478ZM31.3085 125.171C31.032 125.171 30.781 125.119 30.5557 125.015C30.3303 124.909 30.1513 124.756 30.0187 124.558C29.8861 124.357 29.8199 124.114 29.8199 123.83C29.8199 123.58 29.8691 123.378 29.9676 123.222C30.0661 123.065 30.1977 122.942 30.3625 122.853C30.5272 122.764 30.7091 122.698 30.9079 122.654C31.1087 122.609 31.3104 122.573 31.513 122.546C31.7782 122.512 31.9932 122.487 32.1579 122.47C32.3246 122.451 32.4458 122.419 32.5216 122.376C32.5992 122.332 32.638 122.256 32.638 122.148V122.126C32.638 121.845 32.5613 121.628 32.4079 121.472C32.2564 121.317 32.0263 121.239 31.7176 121.239C31.3975 121.239 31.1466 121.309 30.9647 121.45C30.7829 121.59 30.6551 121.739 30.5812 121.898L29.9449 121.671C30.0585 121.406 30.21 121.2 30.3994 121.052C30.5907 120.902 30.799 120.798 31.0244 120.739C31.2517 120.679 31.4752 120.648 31.6949 120.648C31.835 120.648 31.996 120.666 32.1778 120.7C32.3615 120.732 32.5386 120.799 32.7091 120.901C32.8814 121.004 33.0244 121.158 33.138 121.364C33.2517 121.571 33.3085 121.847 33.3085 122.194V125.069H32.638V124.478H32.6039C32.5585 124.573 32.4827 124.674 32.3767 124.782C32.2706 124.89 32.1295 124.982 31.9534 125.058C31.7772 125.133 31.5623 125.171 31.3085 125.171ZM31.4108 124.569C31.6759 124.569 31.8994 124.517 32.0812 124.413C32.2649 124.309 32.4032 124.174 32.496 124.009C32.5907 123.845 32.638 123.671 32.638 123.489V122.876C32.6096 122.91 32.5471 122.941 32.4505 122.97C32.3558 122.996 32.246 123.02 32.121 123.041C31.9979 123.059 31.8776 123.077 31.7602 123.092C31.6447 123.105 31.5509 123.116 31.4789 123.126C31.3047 123.148 31.1418 123.185 30.9903 123.237C30.8407 123.286 30.7195 123.361 30.6267 123.461C30.5358 123.559 30.4903 123.694 30.4903 123.864C30.4903 124.097 30.5765 124.273 30.7488 124.393C30.9231 124.51 31.1437 124.569 31.4108 124.569ZM36.4299 120.705V121.273H34.1686V120.705H36.4299ZM34.8277 119.66H35.4981V123.819C35.4981 124.008 35.5256 124.15 35.5805 124.245C35.6373 124.338 35.7093 124.4 35.7964 124.433C35.8854 124.463 35.9792 124.478 36.0777 124.478C36.1515 124.478 36.2121 124.474 36.2595 124.467C36.3068 124.457 36.3447 124.45 36.3731 124.444L36.5095 125.046C36.464 125.063 36.4006 125.08 36.3191 125.097C36.2377 125.116 36.1345 125.126 36.0095 125.126C35.8201 125.126 35.6345 125.085 35.4527 125.004C35.2727 124.922 35.1231 124.798 35.0038 124.631C34.8864 124.465 34.8277 124.255 34.8277 124.001V119.66ZM39.1643 125.16C38.7704 125.16 38.4247 125.066 38.1274 124.879C37.8319 124.691 37.6009 124.429 37.4342 124.092C37.2694 123.755 37.187 123.361 37.187 122.91C37.187 122.455 37.2694 122.059 37.4342 121.72C37.6009 121.38 37.8319 121.117 38.1274 120.93C38.4247 120.742 38.7704 120.648 39.1643 120.648C39.5583 120.648 39.903 120.742 40.1984 120.93C40.4958 121.117 40.7268 121.38 40.8916 121.72C41.0583 122.059 41.1416 122.455 41.1416 122.91C41.1416 123.361 41.0583 123.755 40.8916 124.092C40.7268 124.429 40.4958 124.691 40.1984 124.879C39.903 125.066 39.5583 125.16 39.1643 125.16ZM39.1643 124.558C39.4636 124.558 39.7098 124.481 39.903 124.327C40.0961 124.174 40.2391 123.972 40.3319 123.722C40.4247 123.472 40.4711 123.202 40.4711 122.91C40.4711 122.618 40.4247 122.346 40.3319 122.095C40.2391 121.843 40.0961 121.639 39.903 121.484C39.7098 121.328 39.4636 121.251 39.1643 121.251C38.8651 121.251 38.6189 121.328 38.4257 121.484C38.2325 121.639 38.0895 121.843 37.9967 122.095C37.9039 122.346 37.8575 122.618 37.8575 122.91C37.8575 123.202 37.9039 123.472 37.9967 123.722C38.0895 123.972 38.2325 124.174 38.4257 124.327C38.6189 124.481 38.8651 124.558 39.1643 124.558ZM42.165 125.069V120.705H42.8128V121.364H42.8582C42.9378 121.148 43.0817 120.973 43.29 120.839C43.4984 120.704 43.7332 120.637 43.9946 120.637C44.0438 120.637 44.1054 120.638 44.1792 120.64C44.2531 120.642 44.309 120.645 44.3468 120.648V121.33C44.3241 121.325 44.272 121.316 44.1906 121.305C44.1111 121.291 44.0268 121.285 43.9378 121.285C43.7256 121.285 43.5362 121.329 43.3696 121.418C43.2048 121.505 43.0741 121.627 42.9775 121.782C42.8828 121.935 42.8355 122.111 42.8355 122.308V125.069H42.165ZM45.1416 125.069V120.705H45.812V125.069H45.1416ZM45.4825 119.978C45.3518 119.978 45.2391 119.934 45.1444 119.845C45.0516 119.755 45.0052 119.648 45.0052 119.523C45.0052 119.398 45.0516 119.291 45.1444 119.202C45.2391 119.113 45.3518 119.069 45.4825 119.069C45.6132 119.069 45.7249 119.113 45.8177 119.202C45.9124 119.291 45.9598 119.398 45.9598 119.523C45.9598 119.648 45.9124 119.755 45.8177 119.845C45.7249 119.934 45.6132 119.978 45.4825 119.978ZM48.8128 125.16C48.4188 125.16 48.0732 125.066 47.7758 124.879C47.4804 124.691 47.2493 124.429 47.0826 124.092C46.9179 123.755 46.8355 123.361 46.8355 122.91C46.8355 122.455 46.9179 122.059 47.0826 121.72C47.2493 121.38 47.4804 121.117 47.7758 120.93C48.0732 120.742 48.4188 120.648 48.8128 120.648C49.2067 120.648 49.5514 120.742 49.8468 120.93C50.1442 121.117 50.3753 121.38 50.54 121.72C50.7067 122.059 50.79 122.455 50.79 122.91C50.79 123.361 50.7067 123.755 50.54 124.092C50.3753 124.429 50.1442 124.691 49.8468 124.879C49.5514 125.066 49.2067 125.16 48.8128 125.16ZM48.8128 124.558C49.112 124.558 49.3582 124.481 49.5514 124.327C49.7446 124.174 49.8876 123.972 49.9804 123.722C50.0732 123.472 50.1196 123.202 50.1196 122.91C50.1196 122.618 50.0732 122.346 49.9804 122.095C49.8876 121.843 49.7446 121.639 49.5514 121.484C49.3582 121.328 49.112 121.251 48.8128 121.251C48.5135 121.251 48.2673 121.328 48.0741 121.484C47.8809 121.639 47.7379 121.843 47.6451 122.095C47.5523 122.346 47.5059 122.618 47.5059 122.91C47.5059 123.202 47.5523 123.472 47.6451 123.722C47.7379 123.972 47.8809 124.174 48.0741 124.327C48.2673 124.481 48.5135 124.558 48.8128 124.558ZM56.0976 119.251V125.069H55.393V119.989H55.3589L53.9385 120.933V120.217L55.393 119.251H56.0976Z" fill="black"/>
</g>
<g id="Laboratorio_4">
<rect id="Rectangle 62_3" y="70" width="73" height="35" fill="#BDD7EE"/>
<path id="Laboratorio 4" d="M8.38875 90.069V84.2508H9.0933V89.444H11.7978V90.069H8.38875ZM14.0819 90.1712C13.8054 90.1712 13.5545 90.1192 13.3291 90.015C13.1037 89.9089 12.9247 89.7565 12.7922 89.5576C12.6596 89.3568 12.5933 89.1144 12.5933 88.8303C12.5933 88.5803 12.6425 88.3777 12.741 88.2224C12.8395 88.0652 12.9711 87.9421 13.1359 87.8531C13.3007 87.764 13.4825 87.6978 13.6814 87.6542C13.8821 87.6087 14.0838 87.5728 14.2865 87.5462C14.5516 87.5122 14.7666 87.4866 14.9314 87.4695C15.098 87.4506 15.2192 87.4193 15.295 87.3758C15.3727 87.3322 15.4115 87.2565 15.4115 87.1485V87.1258C15.4115 86.8455 15.3348 86.6277 15.1814 86.4724C15.0298 86.3171 14.7997 86.2394 14.491 86.2394C14.1709 86.2394 13.92 86.3095 13.7382 86.4497C13.5564 86.5898 13.4285 86.7394 13.3547 86.8985L12.7183 86.6712C12.8319 86.4061 12.9834 86.1997 13.1728 86.0519C13.3641 85.9023 13.5725 85.7981 13.7978 85.7394C14.0251 85.6788 14.2486 85.6485 14.4683 85.6485C14.6084 85.6485 14.7694 85.6656 14.9512 85.6997C15.135 85.7318 15.312 85.7991 15.4825 85.9014C15.6548 86.0036 15.7978 86.158 15.9115 86.3644C16.0251 86.5709 16.0819 86.8474 16.0819 87.194V90.069H15.4115V89.4781H15.3774C15.3319 89.5728 15.2562 89.6741 15.1501 89.782C15.0441 89.89 14.903 89.9818 14.7268 90.0576C14.5507 90.1334 14.3357 90.1712 14.0819 90.1712ZM14.1842 89.569C14.4494 89.569 14.6728 89.5169 14.8547 89.4127C15.0384 89.3086 15.1766 89.1741 15.2694 89.0093C15.3641 88.8445 15.4115 88.6712 15.4115 88.4894V87.8758C15.3831 87.9099 15.3206 87.9411 15.224 87.9695C15.1293 87.9961 15.0194 88.0197 14.8944 88.0406C14.7713 88.0595 14.6511 88.0765 14.5336 88.0917C14.4181 88.105 14.3244 88.1163 14.2524 88.1258C14.0781 88.1485 13.9153 88.1854 13.7637 88.2366C13.6141 88.2858 13.4929 88.3606 13.4001 88.461C13.3092 88.5595 13.2637 88.694 13.2637 88.8644C13.2637 89.0974 13.3499 89.2735 13.5223 89.3928C13.6965 89.5103 13.9172 89.569 14.1842 89.569ZM17.3966 90.069V84.2508H18.067V86.3985H18.1238C18.1731 86.3228 18.2413 86.2262 18.3284 86.1087C18.4174 85.9894 18.5443 85.8834 18.7091 85.7906C18.8757 85.6959 19.1011 85.6485 19.3852 85.6485C19.7526 85.6485 20.0765 85.7404 20.3568 85.9241C20.6371 86.1078 20.8558 86.3682 21.013 86.7053C21.1702 87.0425 21.2488 87.4402 21.2488 87.8985C21.2488 88.3606 21.1702 88.7612 21.013 89.1002C20.8558 89.4373 20.638 89.6987 20.3596 89.8843C20.0812 90.068 19.7602 90.1599 19.3966 90.1599C19.1163 90.1599 18.8918 90.1135 18.7233 90.0207C18.5547 89.926 18.425 89.819 18.3341 89.6997C18.2432 89.5784 18.1731 89.4781 18.1238 89.3985H18.0443V90.069H17.3966ZM18.0557 87.8872C18.0557 88.2167 18.1039 88.5074 18.2005 88.7593C18.2971 89.0093 18.4382 89.2053 18.6238 89.3474C18.8094 89.4875 19.0367 89.5576 19.3057 89.5576C19.586 89.5576 19.8199 89.4837 20.0074 89.336C20.1968 89.1864 20.3388 88.9856 20.4335 88.7337C20.5301 88.48 20.5784 88.1978 20.5784 87.8872C20.5784 87.5803 20.531 87.3038 20.4363 87.0576C20.3435 86.8095 20.2024 86.6135 20.013 86.4695C19.8255 86.3237 19.5897 86.2508 19.3057 86.2508C19.0329 86.2508 18.8038 86.3199 18.6182 86.4582C18.4325 86.5945 18.2924 86.7858 18.1977 87.032C18.103 87.2764 18.0557 87.5614 18.0557 87.8872ZM24.0471 90.1599C23.6532 90.1599 23.3075 90.0661 23.0102 89.8786C22.7147 89.6911 22.4837 89.4288 22.317 89.0917C22.1522 88.7546 22.0699 88.3606 22.0699 87.9099C22.0699 87.4553 22.1522 87.0586 22.317 86.7195C22.4837 86.3805 22.7147 86.1173 23.0102 85.9298C23.3075 85.7423 23.6532 85.6485 24.0471 85.6485C24.4411 85.6485 24.7858 85.7423 25.0812 85.9298C25.3786 86.1173 25.6096 86.3805 25.7744 86.7195C25.9411 87.0586 26.0244 87.4553 26.0244 87.9099C26.0244 88.3606 25.9411 88.7546 25.7744 89.0917C25.6096 89.4288 25.3786 89.6911 25.0812 89.8786C24.7858 90.0661 24.4411 90.1599 24.0471 90.1599ZM24.0471 89.5576C24.3464 89.5576 24.5926 89.4809 24.7858 89.3275C24.9789 89.1741 25.1219 88.9724 25.2147 88.7224C25.3075 88.4724 25.3539 88.2015 25.3539 87.9099C25.3539 87.6182 25.3075 87.3464 25.2147 87.0945C25.1219 86.8426 24.9789 86.639 24.7858 86.4837C24.5926 86.3284 24.3464 86.2508 24.0471 86.2508C23.7479 86.2508 23.5017 86.3284 23.3085 86.4837C23.1153 86.639 22.9723 86.8426 22.8795 87.0945C22.7867 87.3464 22.7403 87.6182 22.7403 87.9099C22.7403 88.2015 22.7867 88.4724 22.8795 88.7224C22.9723 88.9724 23.1153 89.1741 23.3085 89.3275C23.5017 89.4809 23.7479 89.5576 24.0471 89.5576ZM27.0478 90.069V85.7053H27.6956V86.3644H27.741C27.8206 86.1485 27.9645 85.9733 28.1728 85.8389C28.3812 85.7044 28.616 85.6372 28.8774 85.6372C28.9266 85.6372 28.9882 85.6381 29.062 85.64C29.1359 85.6419 29.1918 85.6447 29.2297 85.6485V86.3303C29.2069 86.3247 29.1548 86.3161 29.0734 86.3048C28.9939 86.2915 28.9096 86.2849 28.8206 86.2849C28.6084 86.2849 28.4191 86.3294 28.2524 86.4184C28.0876 86.5055 27.9569 86.6267 27.8603 86.782C27.7656 86.9354 27.7183 87.1106 27.7183 87.3076V90.069H27.0478ZM31.3085 90.1712C31.032 90.1712 30.781 90.1192 30.5557 90.015C30.3303 89.9089 30.1513 89.7565 30.0187 89.5576C29.8861 89.3568 29.8199 89.1144 29.8199 88.8303C29.8199 88.5803 29.8691 88.3777 29.9676 88.2224C30.0661 88.0652 30.1977 87.9421 30.3625 87.8531C30.5272 87.764 30.7091 87.6978 30.9079 87.6542C31.1087 87.6087 31.3104 87.5728 31.513 87.5462C31.7782 87.5122 31.9932 87.4866 32.1579 87.4695C32.3246 87.4506 32.4458 87.4193 32.5216 87.3758C32.5992 87.3322 32.638 87.2565 32.638 87.1485V87.1258C32.638 86.8455 32.5613 86.6277 32.4079 86.4724C32.2564 86.3171 32.0263 86.2394 31.7176 86.2394C31.3975 86.2394 31.1466 86.3095 30.9647 86.4497C30.7829 86.5898 30.6551 86.7394 30.5812 86.8985L29.9449 86.6712C30.0585 86.4061 30.21 86.1997 30.3994 86.0519C30.5907 85.9023 30.799 85.7981 31.0244 85.7394C31.2517 85.6788 31.4752 85.6485 31.6949 85.6485C31.835 85.6485 31.996 85.6656 32.1778 85.6997C32.3615 85.7318 32.5386 85.7991 32.7091 85.9014C32.8814 86.0036 33.0244 86.158 33.138 86.3644C33.2517 86.5709 33.3085 86.8474 33.3085 87.194V90.069H32.638V89.4781H32.6039C32.5585 89.5728 32.4827 89.6741 32.3767 89.782C32.2706 89.89 32.1295 89.9818 31.9534 90.0576C31.7772 90.1334 31.5623 90.1712 31.3085 90.1712ZM31.4108 89.569C31.6759 89.569 31.8994 89.5169 32.0812 89.4127C32.2649 89.3086 32.4032 89.1741 32.496 89.0093C32.5907 88.8445 32.638 88.6712 32.638 88.4894V87.8758C32.6096 87.9099 32.5471 87.9411 32.4505 87.9695C32.3558 87.9961 32.246 88.0197 32.121 88.0406C31.9979 88.0595 31.8776 88.0765 31.7602 88.0917C31.6447 88.105 31.5509 88.1163 31.4789 88.1258C31.3047 88.1485 31.1418 88.1854 30.9903 88.2366C30.8407 88.2858 30.7195 88.3606 30.6267 88.461C30.5358 88.5595 30.4903 88.694 30.4903 88.8644C30.4903 89.0974 30.5765 89.2735 30.7488 89.3928C30.9231 89.5103 31.1437 89.569 31.4108 89.569ZM36.4299 85.7053V86.2735H34.1686V85.7053H36.4299ZM34.8277 84.6599H35.4981V88.819C35.4981 89.0084 35.5256 89.1504 35.5805 89.2451C35.6373 89.3379 35.7093 89.4004 35.7964 89.4326C35.8854 89.4629 35.9792 89.4781 36.0777 89.4781C36.1515 89.4781 36.2121 89.4743 36.2595 89.4667C36.3068 89.4572 36.3447 89.4497 36.3731 89.444L36.5095 90.0462C36.464 90.0633 36.4006 90.0803 36.3191 90.0974C36.2377 90.1163 36.1345 90.1258 36.0095 90.1258C35.8201 90.1258 35.6345 90.0851 35.4527 90.0036C35.2727 89.9222 35.1231 89.7981 35.0038 89.6315C34.8864 89.4648 34.8277 89.2546 34.8277 89.0008V84.6599ZM39.1643 90.1599C38.7704 90.1599 38.4247 90.0661 38.1274 89.8786C37.8319 89.6911 37.6009 89.4288 37.4342 89.0917C37.2694 88.7546 37.187 88.3606 37.187 87.9099C37.187 87.4553 37.2694 87.0586 37.4342 86.7195C37.6009 86.3805 37.8319 86.1173 38.1274 85.9298C38.4247 85.7423 38.7704 85.6485 39.1643 85.6485C39.5583 85.6485 39.903 85.7423 40.1984 85.9298C40.4958 86.1173 40.7268 86.3805 40.8916 86.7195C41.0583 87.0586 41.1416 87.4553 41.1416 87.9099C41.1416 88.3606 41.0583 88.7546 40.8916 89.0917C40.7268 89.4288 40.4958 89.6911 40.1984 89.8786C39.903 90.0661 39.5583 90.1599 39.1643 90.1599ZM39.1643 89.5576C39.4636 89.5576 39.7098 89.4809 39.903 89.3275C40.0961 89.1741 40.2391 88.9724 40.3319 88.7224C40.4247 88.4724 40.4711 88.2015 40.4711 87.9099C40.4711 87.6182 40.4247 87.3464 40.3319 87.0945C40.2391 86.8426 40.0961 86.639 39.903 86.4837C39.7098 86.3284 39.4636 86.2508 39.1643 86.2508C38.8651 86.2508 38.6189 86.3284 38.4257 86.4837C38.2325 86.639 38.0895 86.8426 37.9967 87.0945C37.9039 87.3464 37.8575 87.6182 37.8575 87.9099C37.8575 88.2015 37.9039 88.4724 37.9967 88.7224C38.0895 88.9724 38.2325 89.1741 38.4257 89.3275C38.6189 89.4809 38.8651 89.5576 39.1643 89.5576ZM42.165 90.069V85.7053H42.8128V86.3644H42.8582C42.9378 86.1485 43.0817 85.9733 43.29 85.8389C43.4984 85.7044 43.7332 85.6372 43.9946 85.6372C44.0438 85.6372 44.1054 85.6381 44.1792 85.64C44.2531 85.6419 44.309 85.6447 44.3468 85.6485V86.3303C44.3241 86.3247 44.272 86.3161 44.1906 86.3048C44.1111 86.2915 44.0268 86.2849 43.9378 86.2849C43.7256 86.2849 43.5362 86.3294 43.3696 86.4184C43.2048 86.5055 43.0741 86.6267 42.9775 86.782C42.8828 86.9354 42.8355 87.1106 42.8355 87.3076V90.069H42.165ZM45.1416 90.069V85.7053H45.812V90.069H45.1416ZM45.4825 84.9781C45.3518 84.9781 45.2391 84.9336 45.1444 84.8445C45.0516 84.7555 45.0052 84.6485 45.0052 84.5235C45.0052 84.3985 45.0516 84.2915 45.1444 84.2025C45.2391 84.1135 45.3518 84.069 45.4825 84.069C45.6132 84.069 45.7249 84.1135 45.8177 84.2025C45.9124 84.2915 45.9598 84.3985 45.9598 84.5235C45.9598 84.6485 45.9124 84.7555 45.8177 84.8445C45.7249 84.9336 45.6132 84.9781 45.4825 84.9781ZM48.8128 90.1599C48.4188 90.1599 48.0732 90.0661 47.7758 89.8786C47.4804 89.6911 47.2493 89.4288 47.0826 89.0917C46.9179 88.7546 46.8355 88.3606 46.8355 87.9099C46.8355 87.4553 46.9179 87.0586 47.0826 86.7195C47.2493 86.3805 47.4804 86.1173 47.7758 85.9298C48.0732 85.7423 48.4188 85.6485 48.8128 85.6485C49.2067 85.6485 49.5514 85.7423 49.8468 85.9298C50.1442 86.1173 50.3753 86.3805 50.54 86.7195C50.7067 87.0586 50.79 87.4553 50.79 87.9099C50.79 88.3606 50.7067 88.7546 50.54 89.0917C50.3753 89.4288 50.1442 89.6911 49.8468 89.8786C49.5514 90.0661 49.2067 90.1599 48.8128 90.1599ZM48.8128 89.5576C49.112 89.5576 49.3582 89.4809 49.5514 89.3275C49.7446 89.1741 49.8876 88.9724 49.9804 88.7224C50.0732 88.4724 50.1196 88.2015 50.1196 87.9099C50.1196 87.6182 50.0732 87.3464 49.9804 87.0945C49.8876 86.8426 49.7446 86.639 49.5514 86.4837C49.3582 86.3284 49.112 86.2508 48.8128 86.2508C48.5135 86.2508 48.2673 86.3284 48.0741 86.4837C47.8809 86.639 47.7379 86.8426 47.6451 87.0945C47.5523 87.3464 47.5059 87.6182 47.5059 87.9099C47.5059 88.2015 47.5523 88.4724 47.6451 88.7224C47.7379 88.9724 47.8809 89.1741 48.0741 89.3275C48.2673 89.4809 48.5135 89.5576 48.8128 89.5576ZM53.9157 88.8758V88.2962L56.4726 84.2508H56.893V85.1485H56.6089L54.6771 88.2053V88.2508H58.1203V88.8758H53.9157ZM56.6544 90.069V88.6997V88.4298V84.2508H57.3248V90.069H56.6544Z" fill="black"/>
</g>
<g id="Laboratorio_2">
<rect id="Rectangle 62_4" y="35" width="73" height="35" fill="#BDD7EE"/>
<path id="Laboratorio 2" d="M8.38875 55.069V49.2508H9.0933V54.444H11.7978V55.069H8.38875ZM14.0819 55.1712C13.8054 55.1712 13.5545 55.1192 13.3291 55.015C13.1037 54.9089 12.9247 54.7565 12.7922 54.5576C12.6596 54.3568 12.5933 54.1144 12.5933 53.8303C12.5933 53.5803 12.6425 53.3777 12.741 53.2224C12.8395 53.0652 12.9711 52.9421 13.1359 52.8531C13.3007 52.764 13.4825 52.6978 13.6814 52.6542C13.8821 52.6087 14.0838 52.5728 14.2865 52.5462C14.5516 52.5122 14.7666 52.4866 14.9314 52.4695C15.098 52.4506 15.2192 52.4193 15.295 52.3758C15.3727 52.3322 15.4115 52.2565 15.4115 52.1485V52.1258C15.4115 51.8455 15.3348 51.6277 15.1814 51.4724C15.0298 51.3171 14.7997 51.2394 14.491 51.2394C14.1709 51.2394 13.92 51.3095 13.7382 51.4497C13.5564 51.5898 13.4285 51.7394 13.3547 51.8985L12.7183 51.6712C12.8319 51.4061 12.9834 51.1997 13.1728 51.0519C13.3641 50.9023 13.5725 50.7981 13.7978 50.7394C14.0251 50.6788 14.2486 50.6485 14.4683 50.6485C14.6084 50.6485 14.7694 50.6656 14.9512 50.6997C15.135 50.7318 15.312 50.7991 15.4825 50.9014C15.6548 51.0036 15.7978 51.158 15.9115 51.3644C16.0251 51.5709 16.0819 51.8474 16.0819 52.194V55.069H15.4115V54.4781H15.3774C15.3319 54.5728 15.2562 54.6741 15.1501 54.782C15.0441 54.89 14.903 54.9818 14.7268 55.0576C14.5507 55.1334 14.3357 55.1712 14.0819 55.1712ZM14.1842 54.569C14.4494 54.569 14.6728 54.5169 14.8547 54.4127C15.0384 54.3086 15.1766 54.1741 15.2694 54.0093C15.3641 53.8445 15.4115 53.6712 15.4115 53.4894V52.8758C15.3831 52.9099 15.3206 52.9411 15.224 52.9695C15.1293 52.9961 15.0194 53.0197 14.8944 53.0406C14.7713 53.0595 14.6511 53.0765 14.5336 53.0917C14.4181 53.105 14.3244 53.1163 14.2524 53.1258C14.0781 53.1485 13.9153 53.1854 13.7637 53.2366C13.6141 53.2858 13.4929 53.3606 13.4001 53.461C13.3092 53.5595 13.2637 53.694 13.2637 53.8644C13.2637 54.0974 13.3499 54.2735 13.5223 54.3928C13.6965 54.5103 13.9172 54.569 14.1842 54.569ZM17.3966 55.069V49.2508H18.067V51.3985H18.1238C18.1731 51.3228 18.2413 51.2262 18.3284 51.1087C18.4174 50.9894 18.5443 50.8834 18.7091 50.7906C18.8757 50.6959 19.1011 50.6485 19.3852 50.6485C19.7526 50.6485 20.0765 50.7404 20.3568 50.9241C20.6371 51.1078 20.8558 51.3682 21.013 51.7053C21.1702 52.0425 21.2488 52.4402 21.2488 52.8985C21.2488 53.3606 21.1702 53.7612 21.013 54.1002C20.8558 54.4373 20.638 54.6987 20.3596 54.8843C20.0812 55.068 19.7602 55.1599 19.3966 55.1599C19.1163 55.1599 18.8918 55.1135 18.7233 55.0207C18.5547 54.926 18.425 54.819 18.3341 54.6997C18.2432 54.5784 18.1731 54.4781 18.1238 54.3985H18.0443V55.069H17.3966ZM18.0557 52.8872C18.0557 53.2167 18.1039 53.5074 18.2005 53.7593C18.2971 54.0093 18.4382 54.2053 18.6238 54.3474C18.8094 54.4875 19.0367 54.5576 19.3057 54.5576C19.586 54.5576 19.8199 54.4837 20.0074 54.336C20.1968 54.1864 20.3388 53.9856 20.4335 53.7337C20.5301 53.48 20.5784 53.1978 20.5784 52.8872C20.5784 52.5803 20.531 52.3038 20.4363 52.0576C20.3435 51.8095 20.2024 51.6135 20.013 51.4695C19.8255 51.3237 19.5897 51.2508 19.3057 51.2508C19.0329 51.2508 18.8038 51.3199 18.6182 51.4582C18.4325 51.5945 18.2924 51.7858 18.1977 52.032C18.103 52.2764 18.0557 52.5614 18.0557 52.8872ZM24.0471 55.1599C23.6532 55.1599 23.3075 55.0661 23.0102 54.8786C22.7147 54.6911 22.4837 54.4288 22.317 54.0917C22.1522 53.7546 22.0699 53.3606 22.0699 52.9099C22.0699 52.4553 22.1522 52.0586 22.317 51.7195C22.4837 51.3805 22.7147 51.1173 23.0102 50.9298C23.3075 50.7423 23.6532 50.6485 24.0471 50.6485C24.4411 50.6485 24.7858 50.7423 25.0812 50.9298C25.3786 51.1173 25.6096 51.3805 25.7744 51.7195C25.9411 52.0586 26.0244 52.4553 26.0244 52.9099C26.0244 53.3606 25.9411 53.7546 25.7744 54.0917C25.6096 54.4288 25.3786 54.6911 25.0812 54.8786C24.7858 55.0661 24.4411 55.1599 24.0471 55.1599ZM24.0471 54.5576C24.3464 54.5576 24.5926 54.4809 24.7858 54.3275C24.9789 54.1741 25.1219 53.9724 25.2147 53.7224C25.3075 53.4724 25.3539 53.2015 25.3539 52.9099C25.3539 52.6182 25.3075 52.3464 25.2147 52.0945C25.1219 51.8426 24.9789 51.639 24.7858 51.4837C24.5926 51.3284 24.3464 51.2508 24.0471 51.2508C23.7479 51.2508 23.5017 51.3284 23.3085 51.4837C23.1153 51.639 22.9723 51.8426 22.8795 52.0945C22.7867 52.3464 22.7403 52.6182 22.7403 52.9099C22.7403 53.2015 22.7867 53.4724 22.8795 53.7224C22.9723 53.9724 23.1153 54.1741 23.3085 54.3275C23.5017 54.4809 23.7479 54.5576 24.0471 54.5576ZM27.0478 55.069V50.7053H27.6956V51.3644H27.741C27.8206 51.1485 27.9645 50.9733 28.1728 50.8389C28.3812 50.7044 28.616 50.6372 28.8774 50.6372C28.9266 50.6372 28.9882 50.6381 29.062 50.64C29.1359 50.6419 29.1918 50.6447 29.2297 50.6485V51.3303C29.2069 51.3247 29.1548 51.3161 29.0734 51.3048C28.9939 51.2915 28.9096 51.2849 28.8206 51.2849C28.6084 51.2849 28.4191 51.3294 28.2524 51.4184C28.0876 51.5055 27.9569 51.6267 27.8603 51.782C27.7656 51.9354 27.7183 52.1106 27.7183 52.3076V55.069H27.0478ZM31.3085 55.1712C31.032 55.1712 30.781 55.1192 30.5557 55.015C30.3303 54.9089 30.1513 54.7565 30.0187 54.5576C29.8861 54.3568 29.8199 54.1144 29.8199 53.8303C29.8199 53.5803 29.8691 53.3777 29.9676 53.2224C30.0661 53.0652 30.1977 52.9421 30.3625 52.8531C30.5272 52.764 30.7091 52.6978 30.9079 52.6542C31.1087 52.6087 31.3104 52.5728 31.513 52.5462C31.7782 52.5122 31.9932 52.4866 32.1579 52.4695C32.3246 52.4506 32.4458 52.4193 32.5216 52.3758C32.5992 52.3322 32.638 52.2565 32.638 52.1485V52.1258C32.638 51.8455 32.5613 51.6277 32.4079 51.4724C32.2564 51.3171 32.0263 51.2394 31.7176 51.2394C31.3975 51.2394 31.1466 51.3095 30.9647 51.4497C30.7829 51.5898 30.6551 51.7394 30.5812 51.8985L29.9449 51.6712C30.0585 51.4061 30.21 51.1997 30.3994 51.0519C30.5907 50.9023 30.799 50.7981 31.0244 50.7394C31.2517 50.6788 31.4752 50.6485 31.6949 50.6485C31.835 50.6485 31.996 50.6656 32.1778 50.6997C32.3615 50.7318 32.5386 50.7991 32.7091 50.9014C32.8814 51.0036 33.0244 51.158 33.138 51.3644C33.2517 51.5709 33.3085 51.8474 33.3085 52.194V55.069H32.638V54.4781H32.6039C32.5585 54.5728 32.4827 54.6741 32.3767 54.782C32.2706 54.89 32.1295 54.9818 31.9534 55.0576C31.7772 55.1334 31.5623 55.1712 31.3085 55.1712ZM31.4108 54.569C31.6759 54.569 31.8994 54.5169 32.0812 54.4127C32.2649 54.3086 32.4032 54.1741 32.496 54.0093C32.5907 53.8445 32.638 53.6712 32.638 53.4894V52.8758C32.6096 52.9099 32.5471 52.9411 32.4505 52.9695C32.3558 52.9961 32.246 53.0197 32.121 53.0406C31.9979 53.0595 31.8776 53.0765 31.7602 53.0917C31.6447 53.105 31.5509 53.1163 31.4789 53.1258C31.3047 53.1485 31.1418 53.1854 30.9903 53.2366C30.8407 53.2858 30.7195 53.3606 30.6267 53.461C30.5358 53.5595 30.4903 53.694 30.4903 53.8644C30.4903 54.0974 30.5765 54.2735 30.7488 54.3928C30.9231 54.5103 31.1437 54.569 31.4108 54.569ZM36.4299 50.7053V51.2735H34.1686V50.7053H36.4299ZM34.8277 49.6599H35.4981V53.819C35.4981 54.0084 35.5256 54.1504 35.5805 54.2451C35.6373 54.3379 35.7093 54.4004 35.7964 54.4326C35.8854 54.4629 35.9792 54.4781 36.0777 54.4781C36.1515 54.4781 36.2121 54.4743 36.2595 54.4667C36.3068 54.4572 36.3447 54.4497 36.3731 54.444L36.5095 55.0462C36.464 55.0633 36.4006 55.0803 36.3191 55.0974C36.2377 55.1163 36.1345 55.1258 36.0095 55.1258C35.8201 55.1258 35.6345 55.0851 35.4527 55.0036C35.2727 54.9222 35.1231 54.7981 35.0038 54.6315C34.8864 54.4648 34.8277 54.2546 34.8277 54.0008V49.6599ZM39.1643 55.1599C38.7704 55.1599 38.4247 55.0661 38.1274 54.8786C37.8319 54.6911 37.6009 54.4288 37.4342 54.0917C37.2694 53.7546 37.187 53.3606 37.187 52.9099C37.187 52.4553 37.2694 52.0586 37.4342 51.7195C37.6009 51.3805 37.8319 51.1173 38.1274 50.9298C38.4247 50.7423 38.7704 50.6485 39.1643 50.6485C39.5583 50.6485 39.903 50.7423 40.1984 50.9298C40.4958 51.1173 40.7268 51.3805 40.8916 51.7195C41.0583 52.0586 41.1416 52.4553 41.1416 52.9099C41.1416 53.3606 41.0583 53.7546 40.8916 54.0917C40.7268 54.4288 40.4958 54.6911 40.1984 54.8786C39.903 55.0661 39.5583 55.1599 39.1643 55.1599ZM39.1643 54.5576C39.4636 54.5576 39.7098 54.4809 39.903 54.3275C40.0961 54.1741 40.2391 53.9724 40.3319 53.7224C40.4247 53.4724 40.4711 53.2015 40.4711 52.9099C40.4711 52.6182 40.4247 52.3464 40.3319 52.0945C40.2391 51.8426 40.0961 51.639 39.903 51.4837C39.7098 51.3284 39.4636 51.2508 39.1643 51.2508C38.8651 51.2508 38.6189 51.3284 38.4257 51.4837C38.2325 51.639 38.0895 51.8426 37.9967 52.0945C37.9039 52.3464 37.8575 52.6182 37.8575 52.9099C37.8575 53.2015 37.9039 53.4724 37.9967 53.7224C38.0895 53.9724 38.2325 54.1741 38.4257 54.3275C38.6189 54.4809 38.8651 54.5576 39.1643 54.5576ZM42.165 55.069V50.7053H42.8128V51.3644H42.8582C42.9378 51.1485 43.0817 50.9733 43.29 50.8389C43.4984 50.7044 43.7332 50.6372 43.9946 50.6372C44.0438 50.6372 44.1054 50.6381 44.1792 50.64C44.2531 50.6419 44.309 50.6447 44.3468 50.6485V51.3303C44.3241 51.3247 44.272 51.3161 44.1906 51.3048C44.1111 51.2915 44.0268 51.2849 43.9378 51.2849C43.7256 51.2849 43.5362 51.3294 43.3696 51.4184C43.2048 51.5055 43.0741 51.6267 42.9775 51.782C42.8828 51.9354 42.8355 52.1106 42.8355 52.3076V55.069H42.165ZM45.1416 55.069V50.7053H45.812V55.069H45.1416ZM45.4825 49.9781C45.3518 49.9781 45.2391 49.9336 45.1444 49.8445C45.0516 49.7555 45.0052 49.6485 45.0052 49.5235C45.0052 49.3985 45.0516 49.2915 45.1444 49.2025C45.2391 49.1135 45.3518 49.069 45.4825 49.069C45.6132 49.069 45.7249 49.1135 45.8177 49.2025C45.9124 49.2915 45.9598 49.3985 45.9598 49.5235C45.9598 49.6485 45.9124 49.7555 45.8177 49.8445C45.7249 49.9336 45.6132 49.9781 45.4825 49.9781ZM48.8128 55.1599C48.4188 55.1599 48.0732 55.0661 47.7758 54.8786C47.4804 54.6911 47.2493 54.4288 47.0826 54.0917C46.9179 53.7546 46.8355 53.3606 46.8355 52.9099C46.8355 52.4553 46.9179 52.0586 47.0826 51.7195C47.2493 51.3805 47.4804 51.1173 47.7758 50.9298C48.0732 50.7423 48.4188 50.6485 48.8128 50.6485C49.2067 50.6485 49.5514 50.7423 49.8468 50.9298C50.1442 51.1173 50.3753 51.3805 50.54 51.7195C50.7067 52.0586 50.79 52.4553 50.79 52.9099C50.79 53.3606 50.7067 53.7546 50.54 54.0917C50.3753 54.4288 50.1442 54.6911 49.8468 54.8786C49.5514 55.0661 49.2067 55.1599 48.8128 55.1599ZM48.8128 54.5576C49.112 54.5576 49.3582 54.4809 49.5514 54.3275C49.7446 54.1741 49.8876 53.9724 49.9804 53.7224C50.0732 53.4724 50.1196 53.2015 50.1196 52.9099C50.1196 52.6182 50.0732 52.3464 49.9804 52.0945C49.8876 51.8426 49.7446 51.639 49.5514 51.4837C49.3582 51.3284 49.112 51.2508 48.8128 51.2508C48.5135 51.2508 48.2673 51.3284 48.0741 51.4837C47.8809 51.639 47.7379 51.8426 47.6451 52.0945C47.5523 52.3464 47.5059 52.6182 47.5059 52.9099C47.5059 53.2015 47.5523 53.4724 47.6451 53.7224C47.7379 53.9724 47.8809 54.1741 48.0741 54.3275C48.2673 54.4809 48.5135 54.5576 48.8128 54.5576ZM54.0521 55.069V54.5576L55.9726 52.4553C56.1979 52.2091 56.3835 51.9951 56.5294 51.8133C56.6752 51.6296 56.7832 51.4572 56.8532 51.2962C56.9252 51.1334 56.9612 50.9629 56.9612 50.7849C56.9612 50.5803 56.912 50.4033 56.8135 50.2536C56.7169 50.104 56.5843 49.9885 56.4157 49.907C56.2472 49.8256 56.0578 49.7849 55.8476 49.7849C55.6241 49.7849 55.429 49.8313 55.2623 49.9241C55.0976 50.015 54.9697 50.1428 54.8788 50.3076C54.7898 50.4724 54.7453 50.6656 54.7453 50.8872H54.0748C54.0748 50.5462 54.1534 50.247 54.3106 49.9894C54.4678 49.7318 54.6818 49.5311 54.9527 49.3872C55.2254 49.2432 55.5313 49.1712 55.8703 49.1712C56.2112 49.1712 56.5133 49.2432 56.7765 49.3872C57.0398 49.5311 57.2462 49.7252 57.3959 49.9695C57.5455 50.2139 57.6203 50.4856 57.6203 50.7849C57.6203 50.9989 57.5815 51.2082 57.5038 51.4127C57.428 51.6154 57.2955 51.8417 57.1061 52.0917C56.9186 52.3398 56.6582 52.6428 56.3248 53.0008L55.018 54.3985V54.444H57.7226V55.069H54.0521Z" fill="black"/>
</g>
<g id="Laboratorio_6">
<rect id="Rectangle 62_5" x="108" y="60" width="73" height="40" fill="#BDD7EE"/>
<path id="Laboratorio 6" d="M116.389 81.7931V75.9749H117.093V81.1681H119.798V81.7931H116.389ZM122.082 81.8954C121.805 81.8954 121.554 81.8433 121.329 81.7391C121.104 81.6331 120.925 81.4806 120.792 81.2818C120.66 81.081 120.593 80.8386 120.593 80.5545C120.593 80.3045 120.643 80.1018 120.741 79.9465C120.84 79.7893 120.971 79.6662 121.136 79.5772C121.301 79.4882 121.482 79.4219 121.681 79.3783C121.882 79.3329 122.084 79.2969 122.286 79.2704C122.552 79.2363 122.767 79.2107 122.931 79.1937C123.098 79.1748 123.219 79.1435 123.295 79.0999C123.373 79.0564 123.411 78.9806 123.411 78.8727V78.8499C123.411 78.5696 123.335 78.3518 123.181 78.1965C123.03 78.0412 122.8 77.9636 122.491 77.9636C122.171 77.9636 121.92 78.0337 121.738 78.1738C121.556 78.314 121.429 78.4636 121.355 78.6227L120.718 78.3954C120.832 78.1302 120.983 77.9238 121.173 77.7761C121.364 77.6265 121.572 77.5223 121.798 77.4636C122.025 77.403 122.249 77.3727 122.468 77.3727C122.608 77.3727 122.769 77.3897 122.951 77.4238C123.135 77.456 123.312 77.5232 123.482 77.6255C123.655 77.7278 123.798 77.8821 123.911 78.0886C124.025 78.295 124.082 78.5715 124.082 78.9181V81.7931H123.411V81.2022H123.377C123.332 81.2969 123.256 81.3982 123.15 81.5062C123.044 81.6141 122.903 81.706 122.727 81.7818C122.551 81.8575 122.336 81.8954 122.082 81.8954ZM122.184 81.2931C122.449 81.2931 122.673 81.241 122.855 81.1369C123.038 81.0327 123.177 80.8982 123.269 80.7335C123.364 80.5687 123.411 80.3954 123.411 80.2136V79.5999C123.383 79.634 123.321 79.6653 123.224 79.6937C123.129 79.7202 123.019 79.7439 122.894 79.7647C122.771 79.7837 122.651 79.8007 122.534 79.8158C122.418 79.8291 122.324 79.8405 122.252 79.8499C122.078 79.8727 121.915 79.9096 121.764 79.9607C121.614 80.01 121.493 80.0848 121.4 80.1852C121.309 80.2837 121.264 80.4181 121.264 80.5886C121.264 80.8215 121.35 80.9977 121.522 81.117C121.697 81.2344 121.917 81.2931 122.184 81.2931ZM125.397 81.7931V75.9749H126.067V78.1227H126.124C126.173 78.0469 126.241 77.9503 126.328 77.8329C126.417 77.7136 126.544 77.6075 126.709 77.5147C126.876 77.42 127.101 77.3727 127.385 77.3727C127.753 77.3727 128.076 77.4645 128.357 77.6482C128.637 77.8319 128.856 78.0924 129.013 78.4295C129.17 78.7666 129.249 79.1643 129.249 79.6227C129.249 80.0848 129.17 80.4854 129.013 80.8244C128.856 81.1615 128.638 81.4229 128.36 81.6085C128.081 81.7922 127.76 81.884 127.397 81.884C127.116 81.884 126.892 81.8376 126.723 81.7448C126.555 81.6501 126.425 81.5431 126.334 81.4238C126.243 81.3026 126.173 81.2022 126.124 81.1227H126.044V81.7931H125.397ZM126.056 79.6113C126.056 79.9408 126.104 80.2316 126.201 80.4835C126.297 80.7335 126.438 80.9295 126.624 81.0715C126.809 81.2117 127.037 81.2818 127.306 81.2818C127.586 81.2818 127.82 81.2079 128.007 81.0602C128.197 80.9105 128.339 80.7098 128.433 80.4579C128.53 80.2041 128.578 79.9219 128.578 79.6113C128.578 79.3045 128.531 79.028 128.436 78.7818C128.344 78.5337 128.202 78.3376 128.013 78.1937C127.826 78.0479 127.59 77.9749 127.306 77.9749C127.033 77.9749 126.804 78.0441 126.618 78.1823C126.433 78.3187 126.292 78.51 126.198 78.7562C126.103 79.0005 126.056 79.2855 126.056 79.6113ZM132.047 81.884C131.653 81.884 131.308 81.7903 131.01 81.6028C130.715 81.4153 130.484 81.153 130.317 80.8158C130.152 80.4787 130.07 80.0848 130.07 79.634C130.07 79.1795 130.152 78.7827 130.317 78.4437C130.484 78.1047 130.715 77.8414 131.01 77.6539C131.308 77.4664 131.653 77.3727 132.047 77.3727C132.441 77.3727 132.786 77.4664 133.081 77.6539C133.379 77.8414 133.61 78.1047 133.774 78.4437C133.941 78.7827 134.024 79.1795 134.024 79.634C134.024 80.0848 133.941 80.4787 133.774 80.8158C133.61 81.153 133.379 81.4153 133.081 81.6028C132.786 81.7903 132.441 81.884 132.047 81.884ZM132.047 81.2818C132.346 81.2818 132.593 81.2051 132.786 81.0516C132.979 80.8982 133.122 80.6965 133.215 80.4465C133.308 80.1965 133.354 79.9257 133.354 79.634C133.354 79.3424 133.308 79.0706 133.215 78.8187C133.122 78.5668 132.979 78.3632 132.786 78.2079C132.593 78.0526 132.346 77.9749 132.047 77.9749C131.748 77.9749 131.502 78.0526 131.308 78.2079C131.115 78.3632 130.972 78.5668 130.88 78.8187C130.787 79.0706 130.74 79.3424 130.74 79.634C130.74 79.9257 130.787 80.1965 130.88 80.4465C130.972 80.6965 131.115 80.8982 131.308 81.0516C131.502 81.2051 131.748 81.2818 132.047 81.2818ZM135.048 81.7931V77.4295H135.696V78.0886H135.741C135.821 77.8727 135.965 77.6975 136.173 77.563C136.381 77.4285 136.616 77.3613 136.877 77.3613C136.927 77.3613 136.988 77.3622 137.062 77.3641C137.136 77.366 137.192 77.3689 137.23 77.3727V78.0545C137.207 78.0488 137.155 78.0403 137.073 78.0289C136.994 78.0157 136.91 78.009 136.821 78.009C136.608 78.009 136.419 78.0535 136.252 78.1426C136.088 78.2297 135.957 78.3509 135.86 78.5062C135.766 78.6596 135.718 78.8348 135.718 79.0318V81.7931H135.048ZM139.308 81.8954C139.032 81.8954 138.781 81.8433 138.556 81.7391C138.33 81.6331 138.151 81.4806 138.019 81.2818C137.886 81.081 137.82 80.8386 137.82 80.5545C137.82 80.3045 137.869 80.1018 137.968 79.9465C138.066 79.7893 138.198 79.6662 138.362 79.5772C138.527 79.4882 138.709 79.4219 138.908 79.3783C139.109 79.3329 139.31 79.2969 139.513 79.2704C139.778 79.2363 139.993 79.2107 140.158 79.1937C140.325 79.1748 140.446 79.1435 140.522 79.0999C140.599 79.0564 140.638 78.9806 140.638 78.8727V78.8499C140.638 78.5696 140.561 78.3518 140.408 78.1965C140.256 78.0412 140.026 77.9636 139.718 77.9636C139.398 77.9636 139.147 78.0337 138.965 78.1738C138.783 78.314 138.655 78.4636 138.581 78.6227L137.945 78.3954C138.058 78.1302 138.21 77.9238 138.399 77.7761C138.591 77.6265 138.799 77.5223 139.024 77.4636C139.252 77.403 139.475 77.3727 139.695 77.3727C139.835 77.3727 139.996 77.3897 140.178 77.4238C140.362 77.456 140.539 77.5232 140.709 77.6255C140.881 77.7278 141.024 77.8821 141.138 78.0886C141.252 78.295 141.308 78.5715 141.308 78.9181V81.7931H140.638V81.2022H140.604C140.558 81.2969 140.483 81.3982 140.377 81.5062C140.271 81.6141 140.13 81.706 139.953 81.7818C139.777 81.8575 139.562 81.8954 139.308 81.8954ZM139.411 81.2931C139.676 81.2931 139.899 81.241 140.081 81.1369C140.265 81.0327 140.403 80.8982 140.496 80.7335C140.591 80.5687 140.638 80.3954 140.638 80.2136V79.5999C140.61 79.634 140.547 79.6653 140.451 79.6937C140.356 79.7202 140.246 79.7439 140.121 79.7647C139.998 79.7837 139.878 79.8007 139.76 79.8158C139.645 79.8291 139.551 79.8405 139.479 79.8499C139.305 79.8727 139.142 79.9096 138.99 79.9607C138.841 80.01 138.719 80.0848 138.627 80.1852C138.536 80.2837 138.49 80.4181 138.49 80.5886C138.49 80.8215 138.576 80.9977 138.749 81.117C138.923 81.2344 139.144 81.2931 139.411 81.2931ZM144.43 77.4295V77.9977H142.169V77.4295H144.43ZM142.828 76.384H143.498V80.5431C143.498 80.7325 143.526 80.8746 143.581 80.9693C143.637 81.0621 143.709 81.1246 143.796 81.1568C143.885 81.1871 143.979 81.2022 144.078 81.2022C144.152 81.2022 144.212 81.1984 144.259 81.1908C144.307 81.1814 144.345 81.1738 144.373 81.1681L144.509 81.7704C144.464 81.7874 144.401 81.8045 144.319 81.8215C144.238 81.8405 144.134 81.8499 144.009 81.8499C143.82 81.8499 143.634 81.8092 143.453 81.7278C143.273 81.6463 143.123 81.5223 143.004 81.3556C142.886 81.189 142.828 80.9787 142.828 80.7249V76.384ZM147.164 81.884C146.77 81.884 146.425 81.7903 146.127 81.6028C145.832 81.4153 145.601 81.153 145.434 80.8158C145.269 80.4787 145.187 80.0848 145.187 79.634C145.187 79.1795 145.269 78.7827 145.434 78.4437C145.601 78.1047 145.832 77.8414 146.127 77.6539C146.425 77.4664 146.77 77.3727 147.164 77.3727C147.558 77.3727 147.903 77.4664 148.198 77.6539C148.496 77.8414 148.727 78.1047 148.892 78.4437C149.058 78.7827 149.142 79.1795 149.142 79.634C149.142 80.0848 149.058 80.4787 148.892 80.8158C148.727 81.153 148.496 81.4153 148.198 81.6028C147.903 81.7903 147.558 81.884 147.164 81.884ZM147.164 81.2818C147.464 81.2818 147.71 81.2051 147.903 81.0516C148.096 80.8982 148.239 80.6965 148.332 80.4465C148.425 80.1965 148.471 79.9257 148.471 79.634C148.471 79.3424 148.425 79.0706 148.332 78.8187C148.239 78.5668 148.096 78.3632 147.903 78.2079C147.71 78.0526 147.464 77.9749 147.164 77.9749C146.865 77.9749 146.619 78.0526 146.426 78.2079C146.232 78.3632 146.09 78.5668 145.997 78.8187C145.904 79.0706 145.857 79.3424 145.857 79.634C145.857 79.9257 145.904 80.1965 145.997 80.4465C146.09 80.6965 146.232 80.8982 146.426 81.0516C146.619 81.2051 146.865 81.2818 147.164 81.2818ZM150.165 81.7931V77.4295H150.813V78.0886H150.858C150.938 77.8727 151.082 77.6975 151.29 77.563C151.498 77.4285 151.733 77.3613 151.995 77.3613C152.044 77.3613 152.105 77.3622 152.179 77.3641C152.253 77.366 152.309 77.3689 152.347 77.3727V78.0545C152.324 78.0488 152.272 78.0403 152.191 78.0289C152.111 78.0157 152.027 78.009 151.938 78.009C151.726 78.009 151.536 78.0535 151.37 78.1426C151.205 78.2297 151.074 78.3509 150.978 78.5062C150.883 78.6596 150.835 78.8348 150.835 79.0318V81.7931H150.165ZM153.142 81.7931V77.4295H153.812V81.7931H153.142ZM153.482 76.7022C153.352 76.7022 153.239 76.6577 153.144 76.5687C153.052 76.4797 153.005 76.3727 153.005 76.2477C153.005 76.1227 153.052 76.0157 153.144 75.9266C153.239 75.8376 153.352 75.7931 153.482 75.7931C153.613 75.7931 153.725 75.8376 153.818 75.9266C153.912 76.0157 153.96 76.1227 153.96 76.2477C153.96 76.3727 153.912 76.4797 153.818 76.5687C153.725 76.6577 153.613 76.7022 153.482 76.7022ZM156.813 81.884C156.419 81.884 156.073 81.7903 155.776 81.6028C155.48 81.4153 155.249 81.153 155.083 80.8158C154.918 80.4787 154.835 80.0848 154.835 79.634C154.835 79.1795 154.918 78.7827 155.083 78.4437C155.249 78.1047 155.48 77.8414 155.776 77.6539C156.073 77.4664 156.419 77.3727 156.813 77.3727C157.207 77.3727 157.551 77.4664 157.847 77.6539C158.144 77.8414 158.375 78.1047 158.54 78.4437C158.707 78.7827 158.79 79.1795 158.79 79.634C158.79 80.0848 158.707 80.4787 158.54 80.8158C158.375 81.153 158.144 81.4153 157.847 81.6028C157.551 81.7903 157.207 81.884 156.813 81.884ZM156.813 81.2818C157.112 81.2818 157.358 81.2051 157.551 81.0516C157.745 80.8982 157.888 80.6965 157.98 80.4465C158.073 80.1965 158.12 79.9257 158.12 79.634C158.12 79.3424 158.073 79.0706 157.98 78.8187C157.888 78.5668 157.745 78.3632 157.551 78.2079C157.358 78.0526 157.112 77.9749 156.813 77.9749C156.514 77.9749 156.267 78.0526 156.074 78.2079C155.881 78.3632 155.738 78.5668 155.645 78.8187C155.552 79.0706 155.506 79.3424 155.506 79.634C155.506 79.9257 155.552 80.1965 155.645 80.4465C155.738 80.6965 155.881 80.8982 156.074 81.0516C156.267 81.2051 156.514 81.2818 156.813 81.2818ZM163.984 81.8727C163.745 81.8689 163.507 81.8234 163.268 81.7363C163.029 81.6492 162.812 81.5024 162.615 81.296C162.418 81.0876 162.259 80.8064 162.14 80.4522C162.021 80.0962 161.961 79.6492 161.961 79.1113C161.961 78.5962 162.009 78.1397 162.106 77.742C162.203 77.3424 162.343 77.0062 162.527 76.7335C162.71 76.4588 162.932 76.2505 163.191 76.1085C163.453 75.9664 163.747 75.8954 164.075 75.8954C164.401 75.8954 164.69 75.9607 164.944 76.0914C165.2 76.2202 165.408 76.4001 165.569 76.6312C165.73 76.8623 165.834 77.1283 165.882 77.4295H165.188C165.124 77.1681 164.999 76.9513 164.813 76.7789C164.628 76.6066 164.382 76.5204 164.075 76.5204C163.624 76.5204 163.269 76.7164 163.009 77.1085C162.752 77.5005 162.622 78.0507 162.62 78.759H162.666C162.772 78.598 162.898 78.4607 163.044 78.3471C163.191 78.2316 163.354 78.1426 163.532 78.0801C163.71 78.0176 163.899 77.9863 164.098 77.9863C164.431 77.9863 164.736 78.0696 165.012 78.2363C165.289 78.4011 165.51 78.6293 165.677 78.921C165.844 79.2107 165.927 79.5431 165.927 79.9181C165.927 80.278 165.847 80.6075 165.686 80.9068C165.525 81.2041 165.298 81.4408 165.007 81.617C164.717 81.7912 164.376 81.8765 163.984 81.8727ZM163.984 81.2477C164.223 81.2477 164.437 81.188 164.626 81.0687C164.817 80.9494 164.968 80.7893 165.078 80.5886C165.189 80.3878 165.245 80.1643 165.245 79.9181C165.245 79.6776 165.191 79.4588 165.083 79.2619C164.977 79.063 164.831 78.9049 164.643 78.7874C164.457 78.67 164.245 78.6113 164.007 78.6113C163.827 78.6113 163.659 78.6473 163.504 78.7193C163.349 78.7893 163.212 78.8859 163.095 79.009C162.979 79.1321 162.888 79.2732 162.822 79.4323C162.756 79.5895 162.723 79.7552 162.723 79.9295C162.723 80.1605 162.777 80.3765 162.884 80.5772C162.994 80.778 163.144 80.9399 163.333 81.063C163.525 81.1861 163.741 81.2477 163.984 81.2477Z" fill="black"/>
</g>
<g id="Laboratorio_5">
<rect id="Rectangle 62_6" x="108" y="100" width="73" height="40" fill="#BDD7EE"/>
<path id="Laboratorio 5" d="M116.389 121.793V115.975H117.093V121.168H119.798V121.793H116.389ZM122.082 121.895C121.805 121.895 121.554 121.843 121.329 121.739C121.104 121.633 120.925 121.481 120.792 121.282C120.66 121.081 120.593 120.839 120.593 120.554C120.593 120.304 120.643 120.102 120.741 119.947C120.84 119.789 120.971 119.666 121.136 119.577C121.301 119.488 121.482 119.422 121.681 119.378C121.882 119.333 122.084 119.297 122.286 119.27C122.552 119.236 122.767 119.211 122.931 119.194C123.098 119.175 123.219 119.144 123.295 119.1C123.373 119.056 123.411 118.981 123.411 118.873V118.85C123.411 118.57 123.335 118.352 123.181 118.197C123.03 118.041 122.8 117.964 122.491 117.964C122.171 117.964 121.92 118.034 121.738 118.174C121.556 118.314 121.429 118.464 121.355 118.623L120.718 118.395C120.832 118.13 120.983 117.924 121.173 117.776C121.364 117.626 121.572 117.522 121.798 117.464C122.025 117.403 122.249 117.373 122.468 117.373C122.608 117.373 122.769 117.39 122.951 117.424C123.135 117.456 123.312 117.523 123.482 117.626C123.655 117.728 123.798 117.882 123.911 118.089C124.025 118.295 124.082 118.572 124.082 118.918V121.793H123.411V121.202H123.377C123.332 121.297 123.256 121.398 123.15 121.506C123.044 121.614 122.903 121.706 122.727 121.782C122.551 121.858 122.336 121.895 122.082 121.895ZM122.184 121.293C122.449 121.293 122.673 121.241 122.855 121.137C123.038 121.033 123.177 120.898 123.269 120.733C123.364 120.569 123.411 120.395 123.411 120.214V119.6C123.383 119.634 123.321 119.665 123.224 119.694C123.129 119.72 123.019 119.744 122.894 119.765C122.771 119.784 122.651 119.801 122.534 119.816C122.418 119.829 122.324 119.84 122.252 119.85C122.078 119.873 121.915 119.91 121.764 119.961C121.614 120.01 121.493 120.085 121.4 120.185C121.309 120.284 121.264 120.418 121.264 120.589C121.264 120.822 121.35 120.998 121.522 121.117C121.697 121.234 121.917 121.293 122.184 121.293ZM125.397 121.793V115.975H126.067V118.123H126.124C126.173 118.047 126.241 117.95 126.328 117.833C126.417 117.714 126.544 117.608 126.709 117.515C126.876 117.42 127.101 117.373 127.385 117.373C127.753 117.373 128.076 117.465 128.357 117.648C128.637 117.832 128.856 118.092 129.013 118.429C129.17 118.767 129.249 119.164 129.249 119.623C129.249 120.085 129.17 120.485 129.013 120.824C128.856 121.161 128.638 121.423 128.36 121.608C128.081 121.792 127.76 121.884 127.397 121.884C127.116 121.884 126.892 121.838 126.723 121.745C126.555 121.65 126.425 121.543 126.334 121.424C126.243 121.303 126.173 121.202 126.124 121.123H126.044V121.793H125.397ZM126.056 119.611C126.056 119.941 126.104 120.232 126.201 120.483C126.297 120.733 126.438 120.929 126.624 121.072C126.809 121.212 127.037 121.282 127.306 121.282C127.586 121.282 127.82 121.208 128.007 121.06C128.197 120.911 128.339 120.71 128.433 120.458C128.53 120.204 128.578 119.922 128.578 119.611C128.578 119.304 128.531 119.028 128.436 118.782C128.344 118.534 128.202 118.338 128.013 118.194C127.826 118.048 127.59 117.975 127.306 117.975C127.033 117.975 126.804 118.044 126.618 118.182C126.433 118.319 126.292 118.51 126.198 118.756C126.103 119.001 126.056 119.286 126.056 119.611ZM132.047 121.884C131.653 121.884 131.308 121.79 131.01 121.603C130.715 121.415 130.484 121.153 130.317 120.816C130.152 120.479 130.07 120.085 130.07 119.634C130.07 119.179 130.152 118.783 130.317 118.444C130.484 118.105 130.715 117.841 131.01 117.654C131.308 117.466 131.653 117.373 132.047 117.373C132.441 117.373 132.786 117.466 133.081 117.654C133.379 117.841 133.61 118.105 133.774 118.444C133.941 118.783 134.024 119.179 134.024 119.634C134.024 120.085 133.941 120.479 133.774 120.816C133.61 121.153 133.379 121.415 133.081 121.603C132.786 121.79 132.441 121.884 132.047 121.884ZM132.047 121.282C132.346 121.282 132.593 121.205 132.786 121.052C132.979 120.898 133.122 120.697 133.215 120.447C133.308 120.197 133.354 119.926 133.354 119.634C133.354 119.342 133.308 119.071 133.215 118.819C133.122 118.567 132.979 118.363 132.786 118.208C132.593 118.053 132.346 117.975 132.047 117.975C131.748 117.975 131.502 118.053 131.308 118.208C131.115 118.363 130.972 118.567 130.88 118.819C130.787 119.071 130.74 119.342 130.74 119.634C130.74 119.926 130.787 120.197 130.88 120.447C130.972 120.697 131.115 120.898 131.308 121.052C131.502 121.205 131.748 121.282 132.047 121.282ZM135.048 121.793V117.429H135.696V118.089H135.741C135.821 117.873 135.965 117.697 136.173 117.563C136.381 117.429 136.616 117.361 136.877 117.361C136.927 117.361 136.988 117.362 137.062 117.364C137.136 117.366 137.192 117.369 137.23 117.373V118.054C137.207 118.049 137.155 118.04 137.073 118.029C136.994 118.016 136.91 118.009 136.821 118.009C136.608 118.009 136.419 118.054 136.252 118.143C136.088 118.23 135.957 118.351 135.86 118.506C135.766 118.66 135.718 118.835 135.718 119.032V121.793H135.048ZM139.308 121.895C139.032 121.895 138.781 121.843 138.556 121.739C138.33 121.633 138.151 121.481 138.019 121.282C137.886 121.081 137.82 120.839 137.82 120.554C137.82 120.304 137.869 120.102 137.968 119.947C138.066 119.789 138.198 119.666 138.362 119.577C138.527 119.488 138.709 119.422 138.908 119.378C139.109 119.333 139.31 119.297 139.513 119.27C139.778 119.236 139.993 119.211 140.158 119.194C140.325 119.175 140.446 119.144 140.522 119.1C140.599 119.056 140.638 118.981 140.638 118.873V118.85C140.638 118.57 140.561 118.352 140.408 118.197C140.256 118.041 140.026 117.964 139.718 117.964C139.398 117.964 139.147 118.034 138.965 118.174C138.783 118.314 138.655 118.464 138.581 118.623L137.945 118.395C138.058 118.13 138.21 117.924 138.399 117.776C138.591 117.626 138.799 117.522 139.024 117.464C139.252 117.403 139.475 117.373 139.695 117.373C139.835 117.373 139.996 117.39 140.178 117.424C140.362 117.456 140.539 117.523 140.709 117.626C140.881 117.728 141.024 117.882 141.138 118.089C141.252 118.295 141.308 118.572 141.308 118.918V121.793H140.638V121.202H140.604C140.558 121.297 140.483 121.398 140.377 121.506C140.271 121.614 140.13 121.706 139.953 121.782C139.777 121.858 139.562 121.895 139.308 121.895ZM139.411 121.293C139.676 121.293 139.899 121.241 140.081 121.137C140.265 121.033 140.403 120.898 140.496 120.733C140.591 120.569 140.638 120.395 140.638 120.214V119.6C140.61 119.634 140.547 119.665 140.451 119.694C140.356 119.72 140.246 119.744 140.121 119.765C139.998 119.784 139.878 119.801 139.76 119.816C139.645 119.829 139.551 119.84 139.479 119.85C139.305 119.873 139.142 119.91 138.99 119.961C138.841 120.01 138.719 120.085 138.627 120.185C138.536 120.284 138.49 120.418 138.49 120.589C138.49 120.822 138.576 120.998 138.749 121.117C138.923 121.234 139.144 121.293 139.411 121.293ZM144.43 117.429V117.998H142.169V117.429H144.43ZM142.828 116.384H143.498V120.543C143.498 120.733 143.526 120.875 143.581 120.969C143.637 121.062 143.709 121.125 143.796 121.157C143.885 121.187 143.979 121.202 144.078 121.202C144.152 121.202 144.212 121.198 144.259 121.191C144.307 121.181 144.345 121.174 144.373 121.168L144.509 121.77C144.464 121.787 144.401 121.804 144.319 121.822C144.238 121.84 144.134 121.85 144.009 121.85C143.82 121.85 143.634 121.809 143.453 121.728C143.273 121.646 143.123 121.522 143.004 121.356C142.886 121.189 142.828 120.979 142.828 120.725V116.384ZM147.164 121.884C146.77 121.884 146.425 121.79 146.127 121.603C145.832 121.415 145.601 121.153 145.434 120.816C145.269 120.479 145.187 120.085 145.187 119.634C145.187 119.179 145.269 118.783 145.434 118.444C145.601 118.105 145.832 117.841 146.127 117.654C146.425 117.466 146.77 117.373 147.164 117.373C147.558 117.373 147.903 117.466 148.198 117.654C148.496 117.841 148.727 118.105 148.892 118.444C149.058 118.783 149.142 119.179 149.142 119.634C149.142 120.085 149.058 120.479 148.892 120.816C148.727 121.153 148.496 121.415 148.198 121.603C147.903 121.79 147.558 121.884 147.164 121.884ZM147.164 121.282C147.464 121.282 147.71 121.205 147.903 121.052C148.096 120.898 148.239 120.697 148.332 120.447C148.425 120.197 148.471 119.926 148.471 119.634C148.471 119.342 148.425 119.071 148.332 118.819C148.239 118.567 148.096 118.363 147.903 118.208C147.71 118.053 147.464 117.975 147.164 117.975C146.865 117.975 146.619 118.053 146.426 118.208C146.232 118.363 146.09 118.567 145.997 118.819C145.904 119.071 145.857 119.342 145.857 119.634C145.857 119.926 145.904 120.197 145.997 120.447C146.09 120.697 146.232 120.898 146.426 121.052C146.619 121.205 146.865 121.282 147.164 121.282ZM150.165 121.793V117.429H150.813V118.089H150.858C150.938 117.873 151.082 117.697 151.29 117.563C151.498 117.429 151.733 117.361 151.995 117.361C152.044 117.361 152.105 117.362 152.179 117.364C152.253 117.366 152.309 117.369 152.347 117.373V118.054C152.324 118.049 152.272 118.04 152.191 118.029C152.111 118.016 152.027 118.009 151.938 118.009C151.726 118.009 151.536 118.054 151.37 118.143C151.205 118.23 151.074 118.351 150.978 118.506C150.883 118.66 150.835 118.835 150.835 119.032V121.793H150.165ZM153.142 121.793V117.429H153.812V121.793H153.142ZM153.482 116.702C153.352 116.702 153.239 116.658 153.144 116.569C153.052 116.48 153.005 116.373 153.005 116.248C153.005 116.123 153.052 116.016 153.144 115.927C153.239 115.838 153.352 115.793 153.482 115.793C153.613 115.793 153.725 115.838 153.818 115.927C153.912 116.016 153.96 116.123 153.96 116.248C153.96 116.373 153.912 116.48 153.818 116.569C153.725 116.658 153.613 116.702 153.482 116.702ZM156.813 121.884C156.419 121.884 156.073 121.79 155.776 121.603C155.48 121.415 155.249 121.153 155.083 120.816C154.918 120.479 154.835 120.085 154.835 119.634C154.835 119.179 154.918 118.783 155.083 118.444C155.249 118.105 155.48 117.841 155.776 117.654C156.073 117.466 156.419 117.373 156.813 117.373C157.207 117.373 157.551 117.466 157.847 117.654C158.144 117.841 158.375 118.105 158.54 118.444C158.707 118.783 158.79 119.179 158.79 119.634C158.79 120.085 158.707 120.479 158.54 120.816C158.375 121.153 158.144 121.415 157.847 121.603C157.551 121.79 157.207 121.884 156.813 121.884ZM156.813 121.282C157.112 121.282 157.358 121.205 157.551 121.052C157.745 120.898 157.888 120.697 157.98 120.447C158.073 120.197 158.12 119.926 158.12 119.634C158.12 119.342 158.073 119.071 157.98 118.819C157.888 118.567 157.745 118.363 157.551 118.208C157.358 118.053 157.112 117.975 156.813 117.975C156.514 117.975 156.267 118.053 156.074 118.208C155.881 118.363 155.738 118.567 155.645 118.819C155.552 119.071 155.506 119.342 155.506 119.634C155.506 119.926 155.552 120.197 155.645 120.447C155.738 120.697 155.881 120.898 156.074 121.052C156.267 121.205 156.514 121.282 156.813 121.282ZM163.87 121.873C163.537 121.873 163.237 121.806 162.97 121.674C162.703 121.541 162.489 121.359 162.328 121.128C162.167 120.897 162.079 120.634 162.063 120.339H162.745C162.772 120.602 162.891 120.82 163.103 120.992C163.317 121.162 163.573 121.248 163.87 121.248C164.109 121.248 164.321 121.192 164.507 121.08C164.694 120.968 164.841 120.815 164.947 120.62C165.055 120.423 165.109 120.2 165.109 119.952C165.109 119.698 165.053 119.472 164.941 119.273C164.831 119.072 164.68 118.914 164.487 118.799C164.294 118.683 164.073 118.625 163.825 118.623C163.647 118.621 163.464 118.648 163.277 118.705C163.089 118.76 162.935 118.831 162.813 118.918L162.154 118.839L162.507 115.975H165.529V116.6H163.098L162.893 118.316H162.927C163.046 118.221 163.196 118.143 163.376 118.08C163.556 118.018 163.743 117.986 163.938 117.986C164.295 117.986 164.612 118.072 164.89 118.242C165.17 118.411 165.39 118.642 165.549 118.935C165.71 119.229 165.791 119.564 165.791 119.941C165.791 120.312 165.707 120.644 165.541 120.935C165.376 121.225 165.149 121.454 164.859 121.623C164.569 121.789 164.24 121.873 163.87 121.873Z" fill="black"/>
</g>
<g id="Laboratorio_7">
<rect id="Rectangle 62_7" x="108" width="73" height="29" fill="#BDD7EE"/>
<path id="Laboratorio 7" d="M116.389 18V12.1818H117.093V17.375H119.798V18H116.389ZM122.082 18.1023C121.805 18.1023 121.554 18.0502 121.329 17.946C121.104 17.84 120.925 17.6875 120.792 17.4886C120.66 17.2879 120.593 17.0455 120.593 16.7614C120.593 16.5114 120.643 16.3087 120.741 16.1534C120.84 15.9962 120.971 15.8731 121.136 15.7841C121.301 15.6951 121.482 15.6288 121.681 15.5852C121.882 15.5398 122.084 15.5038 122.286 15.4773C122.552 15.4432 122.767 15.4176 122.931 15.4006C123.098 15.3816 123.219 15.3504 123.295 15.3068C123.373 15.2633 123.411 15.1875 123.411 15.0795V15.0568C123.411 14.7765 123.335 14.5587 123.181 14.4034C123.03 14.2481 122.8 14.1705 122.491 14.1705C122.171 14.1705 121.92 14.2405 121.738 14.3807C121.556 14.5208 121.429 14.6705 121.355 14.8295L120.718 14.6023C120.832 14.3371 120.983 14.1307 121.173 13.983C121.364 13.8333 121.572 13.7292 121.798 13.6705C122.025 13.6098 122.249 13.5795 122.468 13.5795C122.608 13.5795 122.769 13.5966 122.951 13.6307C123.135 13.6629 123.312 13.7301 123.482 13.8324C123.655 13.9347 123.798 14.089 123.911 14.2955C124.025 14.5019 124.082 14.7784 124.082 15.125V18H123.411V17.4091H123.377C123.332 17.5038 123.256 17.6051 123.15 17.7131C123.044 17.821 122.903 17.9129 122.727 17.9886C122.551 18.0644 122.336 18.1023 122.082 18.1023ZM122.184 17.5C122.449 17.5 122.673 17.4479 122.855 17.3438C123.038 17.2396 123.177 17.1051 123.269 16.9403C123.364 16.7756 123.411 16.6023 123.411 16.4205V15.8068C123.383 15.8409 123.321 15.8722 123.224 15.9006C123.129 15.9271 123.019 15.9508 122.894 15.9716C122.771 15.9905 122.651 16.0076 122.534 16.0227C122.418 16.036 122.324 16.0473 122.252 16.0568C122.078 16.0795 121.915 16.1165 121.764 16.1676C121.614 16.2169 121.493 16.2917 121.4 16.392C121.309 16.4905 121.264 16.625 121.264 16.7955C121.264 17.0284 121.35 17.2045 121.522 17.3239C121.697 17.4413 121.917 17.5 122.184 17.5ZM125.397 18V12.1818H126.067V14.3295H126.124C126.173 14.2538 126.241 14.1572 126.328 14.0398C126.417 13.9205 126.544 13.8144 126.709 13.7216C126.876 13.6269 127.101 13.5795 127.385 13.5795C127.753 13.5795 128.076 13.6714 128.357 13.8551C128.637 14.0388 128.856 14.2992 129.013 14.6364C129.17 14.9735 129.249 15.3712 129.249 15.8295C129.249 16.2917 129.17 16.6922 129.013 17.0312C128.856 17.3684 128.638 17.6297 128.36 17.8153C128.081 17.9991 127.76 18.0909 127.397 18.0909C127.116 18.0909 126.892 18.0445 126.723 17.9517C126.555 17.857 126.425 17.75 126.334 17.6307C126.243 17.5095 126.173 17.4091 126.124 17.3295H126.044V18H125.397ZM126.056 15.8182C126.056 16.1477 126.104 16.4384 126.201 16.6903C126.297 16.9403 126.438 17.1364 126.624 17.2784C126.809 17.4186 127.037 17.4886 127.306 17.4886C127.586 17.4886 127.82 17.4148 128.007 17.267C128.197 17.1174 128.339 16.9167 128.433 16.6648C128.53 16.411 128.578 16.1288 128.578 15.8182C128.578 15.5114 128.531 15.2348 128.436 14.9886C128.344 14.7405 128.202 14.5445 128.013 14.4006C127.826 14.2547 127.59 14.1818 127.306 14.1818C127.033 14.1818 126.804 14.2509 126.618 14.3892C126.433 14.5256 126.292 14.7169 126.198 14.9631C126.103 15.2074 126.056 15.4924 126.056 15.8182ZM132.047 18.0909C131.653 18.0909 131.308 17.9972 131.01 17.8097C130.715 17.6222 130.484 17.3598 130.317 17.0227C130.152 16.6856 130.07 16.2917 130.07 15.8409C130.07 15.3864 130.152 14.9896 130.317 14.6506C130.484 14.3116 130.715 14.0483 131.01 13.8608C131.308 13.6733 131.653 13.5795 132.047 13.5795C132.441 13.5795 132.786 13.6733 133.081 13.8608C133.379 14.0483 133.61 14.3116 133.774 14.6506C133.941 14.9896 134.024 15.3864 134.024 15.8409C134.024 16.2917 133.941 16.6856 133.774 17.0227C133.61 17.3598 133.379 17.6222 133.081 17.8097C132.786 17.9972 132.441 18.0909 132.047 18.0909ZM132.047 17.4886C132.346 17.4886 132.593 17.4119 132.786 17.2585C132.979 17.1051 133.122 16.9034 133.215 16.6534C133.308 16.4034 133.354 16.1326 133.354 15.8409C133.354 15.5492 133.308 15.2775 133.215 15.0256C133.122 14.7737 132.979 14.5701 132.786 14.4148C132.593 14.2595 132.346 14.1818 132.047 14.1818C131.748 14.1818 131.502 14.2595 131.308 14.4148C131.115 14.5701 130.972 14.7737 130.88 15.0256C130.787 15.2775 130.74 15.5492 130.74 15.8409C130.74 16.1326 130.787 16.4034 130.88 16.6534C130.972 16.9034 131.115 17.1051 131.308 17.2585C131.502 17.4119 131.748 17.4886 132.047 17.4886ZM135.048 18V13.6364H135.696V14.2955H135.741C135.821 14.0795 135.965 13.9044 136.173 13.7699C136.381 13.6354 136.616 13.5682 136.877 13.5682C136.927 13.5682 136.988 13.5691 137.062 13.571C137.136 13.5729 137.192 13.5758 137.23 13.5795V14.2614C137.207 14.2557 137.155 14.2472 137.073 14.2358C136.994 14.2225 136.91 14.2159 136.821 14.2159C136.608 14.2159 136.419 14.2604 136.252 14.3494C136.088 14.4366 135.957 14.5578 135.86 14.7131C135.766 14.8665 135.718 15.0417 135.718 15.2386V18H135.048ZM139.308 18.1023C139.032 18.1023 138.781 18.0502 138.556 17.946C138.33 17.84 138.151 17.6875 138.019 17.4886C137.886 17.2879 137.82 17.0455 137.82 16.7614C137.82 16.5114 137.869 16.3087 137.968 16.1534C138.066 15.9962 138.198 15.8731 138.362 15.7841C138.527 15.6951 138.709 15.6288 138.908 15.5852C139.109 15.5398 139.31 15.5038 139.513 15.4773C139.778 15.4432 139.993 15.4176 140.158 15.4006C140.325 15.3816 140.446 15.3504 140.522 15.3068C140.599 15.2633 140.638 15.1875 140.638 15.0795V15.0568C140.638 14.7765 140.561 14.5587 140.408 14.4034C140.256 14.2481 140.026 14.1705 139.718 14.1705C139.398 14.1705 139.147 14.2405 138.965 14.3807C138.783 14.5208 138.655 14.6705 138.581 14.8295L137.945 14.6023C138.058 14.3371 138.21 14.1307 138.399 13.983C138.591 13.8333 138.799 13.7292 139.024 13.6705C139.252 13.6098 139.475 13.5795 139.695 13.5795C139.835 13.5795 139.996 13.5966 140.178 13.6307C140.362 13.6629 140.539 13.7301 140.709 13.8324C140.881 13.9347 141.024 14.089 141.138 14.2955C141.252 14.5019 141.308 14.7784 141.308 15.125V18H140.638V17.4091H140.604C140.558 17.5038 140.483 17.6051 140.377 17.7131C140.271 17.821 140.13 17.9129 139.953 17.9886C139.777 18.0644 139.562 18.1023 139.308 18.1023ZM139.411 17.5C139.676 17.5 139.899 17.4479 140.081 17.3438C140.265 17.2396 140.403 17.1051 140.496 16.9403C140.591 16.7756 140.638 16.6023 140.638 16.4205V15.8068C140.61 15.8409 140.547 15.8722 140.451 15.9006C140.356 15.9271 140.246 15.9508 140.121 15.9716C139.998 15.9905 139.878 16.0076 139.76 16.0227C139.645 16.036 139.551 16.0473 139.479 16.0568C139.305 16.0795 139.142 16.1165 138.99 16.1676C138.841 16.2169 138.719 16.2917 138.627 16.392C138.536 16.4905 138.49 16.625 138.49 16.7955C138.49 17.0284 138.576 17.2045 138.749 17.3239C138.923 17.4413 139.144 17.5 139.411 17.5ZM144.43 13.6364V14.2045H142.169V13.6364H144.43ZM142.828 12.5909H143.498V16.75C143.498 16.9394 143.526 17.0814 143.581 17.1761C143.637 17.2689 143.709 17.3314 143.796 17.3636C143.885 17.3939 143.979 17.4091 144.078 17.4091C144.152 17.4091 144.212 17.4053 144.259 17.3977C144.307 17.3883 144.345 17.3807 144.373 17.375L144.509 17.9773C144.464 17.9943 144.401 18.0114 144.319 18.0284C144.238 18.0473 144.134 18.0568 144.009 18.0568C143.82 18.0568 143.634 18.0161 143.453 17.9347C143.273 17.8532 143.123 17.7292 143.004 17.5625C142.886 17.3958 142.828 17.1856 142.828 16.9318V12.5909ZM147.164 18.0909C146.77 18.0909 146.425 17.9972 146.127 17.8097C145.832 17.6222 145.601 17.3598 145.434 17.0227C145.269 16.6856 145.187 16.2917 145.187 15.8409C145.187 15.3864 145.269 14.9896 145.434 14.6506C145.601 14.3116 145.832 14.0483 146.127 13.8608C146.425 13.6733 146.77 13.5795 147.164 13.5795C147.558 13.5795 147.903 13.6733 148.198 13.8608C148.496 14.0483 148.727 14.3116 148.892 14.6506C149.058 14.9896 149.142 15.3864 149.142 15.8409C149.142 16.2917 149.058 16.6856 148.892 17.0227C148.727 17.3598 148.496 17.6222 148.198 17.8097C147.903 17.9972 147.558 18.0909 147.164 18.0909ZM147.164 17.4886C147.464 17.4886 147.71 17.4119 147.903 17.2585C148.096 17.1051 148.239 16.9034 148.332 16.6534C148.425 16.4034 148.471 16.1326 148.471 15.8409C148.471 15.5492 148.425 15.2775 148.332 15.0256C148.239 14.7737 148.096 14.5701 147.903 14.4148C147.71 14.2595 147.464 14.1818 147.164 14.1818C146.865 14.1818 146.619 14.2595 146.426 14.4148C146.232 14.5701 146.09 14.7737 145.997 15.0256C145.904 15.2775 145.857 15.5492 145.857 15.8409C145.857 16.1326 145.904 16.4034 145.997 16.6534C146.09 16.9034 146.232 17.1051 146.426 17.2585C146.619 17.4119 146.865 17.4886 147.164 17.4886ZM150.165 18V13.6364H150.813V14.2955H150.858C150.938 14.0795 151.082 13.9044 151.29 13.7699C151.498 13.6354 151.733 13.5682 151.995 13.5682C152.044 13.5682 152.105 13.5691 152.179 13.571C152.253 13.5729 152.309 13.5758 152.347 13.5795V14.2614C152.324 14.2557 152.272 14.2472 152.191 14.2358C152.111 14.2225 152.027 14.2159 151.938 14.2159C151.726 14.2159 151.536 14.2604 151.37 14.3494C151.205 14.4366 151.074 14.5578 150.978 14.7131C150.883 14.8665 150.835 15.0417 150.835 15.2386V18H150.165ZM153.142 18V13.6364H153.812V18H153.142ZM153.482 12.9091C153.352 12.9091 153.239 12.8646 153.144 12.7756C153.052 12.6866 153.005 12.5795 153.005 12.4545C153.005 12.3295 153.052 12.2225 153.144 12.1335C153.239 12.0445 153.352 12 153.482 12C153.613 12 153.725 12.0445 153.818 12.1335C153.912 12.2225 153.96 12.3295 153.96 12.4545C153.96 12.5795 153.912 12.6866 153.818 12.7756C153.725 12.8646 153.613 12.9091 153.482 12.9091ZM156.813 18.0909C156.419 18.0909 156.073 17.9972 155.776 17.8097C155.48 17.6222 155.249 17.3598 155.083 17.0227C154.918 16.6856 154.835 16.2917 154.835 15.8409C154.835 15.3864 154.918 14.9896 155.083 14.6506C155.249 14.3116 155.48 14.0483 155.776 13.8608C156.073 13.6733 156.419 13.5795 156.813 13.5795C157.207 13.5795 157.551 13.6733 157.847 13.8608C158.144 14.0483 158.375 14.3116 158.54 14.6506C158.707 14.9896 158.79 15.3864 158.79 15.8409C158.79 16.2917 158.707 16.6856 158.54 17.0227C158.375 17.3598 158.144 17.6222 157.847 17.8097C157.551 17.9972 157.207 18.0909 156.813 18.0909ZM156.813 17.4886C157.112 17.4886 157.358 17.4119 157.551 17.2585C157.745 17.1051 157.888 16.9034 157.98 16.6534C158.073 16.4034 158.12 16.1326 158.12 15.8409C158.12 15.5492 158.073 15.2775 157.98 15.0256C157.888 14.7737 157.745 14.5701 157.551 14.4148C157.358 14.2595 157.112 14.1818 156.813 14.1818C156.514 14.1818 156.267 14.2595 156.074 14.4148C155.881 14.5701 155.738 14.7737 155.645 15.0256C155.552 15.2775 155.506 15.5492 155.506 15.8409C155.506 16.1326 155.552 16.4034 155.645 16.6534C155.738 16.9034 155.881 17.1051 156.074 17.2585C156.267 17.4119 156.514 17.4886 156.813 17.4886ZM162.234 18L164.836 12.8523V12.8068H161.836V12.1818H165.563V12.8409L162.973 18H162.234Z" fill="black"/>
</g>
<rect id="Escaleras-m1-3-4" x="73" y="188" width="108" height="35" fill="#EF9A9A"/>
<g id="Group 12">
<rect id="Rectangle 60" x="140" y="164" width="42" height="24" fill="#B0C4DE"/>
<path id="&#226;&#153;&#130;" d="M160.256 184.439C159.696 184.439 159.176 184.299 158.696 184.019C158.226 183.739 157.846 183.364 157.556 182.894C157.276 182.414 157.136 181.889 157.136 181.319C157.136 180.759 157.276 180.249 157.556 179.789C157.846 179.319 158.226 178.944 158.696 178.664C159.176 178.384 159.696 178.244 160.256 178.244C160.596 178.244 160.921 178.299 161.231 178.409C161.541 178.509 161.836 178.659 162.116 178.859L163.511 177.299L162.326 176.714L164.846 176.429L164.861 178.964L164.126 177.839L162.701 179.429C162.931 179.709 163.101 180.009 163.211 180.329C163.321 180.639 163.376 180.969 163.376 181.319C163.376 181.889 163.236 182.414 162.956 182.894C162.676 183.364 162.296 183.739 161.816 184.019C161.346 184.299 160.826 184.439 160.256 184.439ZM160.256 183.689C160.686 183.689 161.081 183.584 161.441 183.374C161.801 183.154 162.086 182.864 162.296 182.504C162.516 182.144 162.626 181.749 162.626 181.319C162.626 180.899 162.516 180.514 162.296 180.164C162.086 179.804 161.801 179.519 161.441 179.309C161.081 179.099 160.686 178.994 160.256 178.994C159.826 178.994 159.431 179.099 159.071 179.309C158.711 179.519 158.421 179.804 158.201 180.164C157.991 180.514 157.886 180.899 157.886 181.319C157.886 181.749 157.991 182.144 158.201 182.504C158.421 182.864 158.711 183.154 159.071 183.374C159.431 183.584 159.826 183.689 160.256 183.689Z" fill="black"/>
</g>
<g id="Group 16">
<rect id="Rectangle 60_2" x="140" y="140" width="42" height="24" fill="#B0C4DE"/>
<path id="&#226;&#153;&#128;" d="M160.598 160.439V158.819H158.828V158.114H160.598V156.794C160.088 156.724 159.628 156.544 159.218 156.254C158.808 155.964 158.483 155.594 158.243 155.144C158.003 154.694 157.883 154.209 157.883 153.689C157.883 153.129 158.023 152.619 158.303 152.159C158.593 151.689 158.973 151.314 159.443 151.034C159.923 150.754 160.443 150.614 161.003 150.614C161.573 150.614 162.093 150.754 162.563 151.034C163.043 151.314 163.423 151.689 163.703 152.159C163.983 152.619 164.123 153.129 164.123 153.689C164.123 154.199 164.003 154.679 163.763 155.129C163.523 155.579 163.198 155.954 162.788 156.254C162.388 156.544 161.928 156.724 161.408 156.794V158.114H163.073V158.819H161.408V160.439H160.598ZM161.003 156.059C161.433 156.059 161.828 155.954 162.188 155.744C162.548 155.524 162.833 155.234 163.043 154.874C163.263 154.514 163.373 154.119 163.373 153.689C163.373 153.269 163.263 152.884 163.043 152.534C162.833 152.184 162.548 151.904 162.188 151.694C161.828 151.474 161.433 151.364 161.003 151.364C160.573 151.364 160.178 151.474 159.818 151.694C159.458 151.904 159.168 152.184 158.948 152.534C158.738 152.884 158.633 153.269 158.633 153.689C158.633 154.119 158.738 154.514 158.948 154.874C159.168 155.234 159.458 155.524 159.818 155.744C160.178 155.954 160.573 156.059 161.003 156.059Z" fill="black"/>
</g>
<rect id="Rectangle 68" x="177" y="37" width="4" height="20" fill="#388E3C"/>
<rect id="Rectangle 86" y="140" width="140" height="48" fill="#F5F0E8"/>
<rect id="Rectangle 87" x="73" width="35" height="140" fill="#F5F0E8"/>
</g>
<defs>
<clipPath id="clip0_3_3">
<rect width="181" height="223" fill="white"/>
</clipPath>
</defs>
</svg>
