<svg width="181" height="223" viewBox="0 0 181 223" fill="none" xmlns="http://www.w3.org/2000/svg">
<g id="M1_piso1" clip-path="url(#clip0_2_141)">
<rect width="181" height="223" fill="white"/>
<rect id="Rectangle 52" width="61" height="70" fill="#D9D9D9"/>
<rect id="Rectangle 53" x="93" width="61" height="70" fill="#D9D9D9"/>
<rect id="Rectangle 55" x="154" width="27" height="70" fill="#EF9A9A"/>
<rect id="Rectangle 56" x="61" y="55" width="32" height="15" fill="#EF9A9A"/>
<rect id="Rectangle 57" x="61" width="32" height="56" fill="#F5F0E8"/>
<path id="Desarrollo Estudiantil" d="M11.125 27H8.88068V19.7273H11.2244C11.9299 19.7273 12.5336 19.8729 13.0355 20.1641C13.5374 20.4529 13.9221 20.8684 14.1896 21.4105C14.4571 21.9503 14.5909 22.5966 14.5909 23.3494C14.5909 24.107 14.456 24.7592 14.1861 25.3061C13.9162 25.8506 13.5232 26.2696 13.0071 26.5632C12.491 26.8544 11.8636 27 11.125 27ZM9.76136 26.2188H11.0682C11.6695 26.2188 12.1679 26.1027 12.5632 25.8707C12.9586 25.6387 13.2533 25.3085 13.4474 24.88C13.6416 24.4515 13.7386 23.9413 13.7386 23.3494C13.7386 22.7623 13.6428 22.2569 13.451 21.8331C13.2592 21.407 12.9728 21.0803 12.5916 20.853C12.2105 20.6233 11.7358 20.5085 11.1676 20.5085H9.76136V26.2188ZM18.2415 27.1136C17.7159 27.1136 17.2625 26.9976 16.8814 26.7656C16.5026 26.5312 16.2102 26.2045 16.0043 25.7855C15.8007 25.3641 15.6989 24.8741 15.6989 24.3153C15.6989 23.7566 15.8007 23.2642 16.0043 22.8381C16.2102 22.4096 16.4967 22.0758 16.8636 21.8366C17.233 21.5952 17.6638 21.4744 18.1562 21.4744C18.4403 21.4744 18.7209 21.5218 18.9979 21.6165C19.2749 21.7112 19.527 21.8651 19.7543 22.0781C19.9815 22.2888 20.1626 22.5682 20.2976 22.9162C20.4325 23.2642 20.5 23.6927 20.5 24.2017V24.5568H16.2955V23.8324H19.6477C19.6477 23.5246 19.5862 23.25 19.4631 23.0085C19.3423 22.767 19.1695 22.5765 18.9446 22.4368C18.7221 22.2971 18.4593 22.2273 18.1562 22.2273C17.8224 22.2273 17.5336 22.3101 17.2898 22.4759C17.0483 22.6392 16.8625 22.8523 16.7322 23.1151C16.602 23.3778 16.5369 23.6596 16.5369 23.9602V24.4432C16.5369 24.8551 16.608 25.2043 16.75 25.4908C16.8944 25.7749 17.0945 25.9915 17.3501 26.1406C17.6058 26.2874 17.9029 26.3608 18.2415 26.3608C18.4616 26.3608 18.6605 26.33 18.8381 26.2685C19.018 26.2045 19.1731 26.1098 19.3033 25.9844C19.4335 25.8565 19.5341 25.6979 19.6051 25.5085L20.4148 25.7358C20.3295 26.0104 20.1863 26.2519 19.9851 26.4602C19.7839 26.6662 19.5353 26.8272 19.2393 26.9432C18.9434 27.0568 18.6108 27.1136 18.2415 27.1136ZM25.6385 22.767L24.8857 22.9801C24.8383 22.8546 24.7685 22.7327 24.6761 22.6143C24.5862 22.4936 24.4631 22.3942 24.3068 22.3161C24.1506 22.2379 23.9505 22.1989 23.7067 22.1989C23.3729 22.1989 23.0947 22.2758 22.8722 22.4297C22.652 22.5812 22.5419 22.7741 22.5419 23.0085C22.5419 23.2169 22.6177 23.3814 22.7692 23.5021C22.9207 23.6229 23.1574 23.7235 23.4794 23.804L24.2891 24.0028C24.7768 24.1212 25.1402 24.3023 25.3793 24.5462C25.6184 24.7876 25.7379 25.099 25.7379 25.4801C25.7379 25.7926 25.648 26.072 25.468 26.3182C25.2905 26.5644 25.0419 26.7585 24.7223 26.9006C24.4027 27.0426 24.031 27.1136 23.6072 27.1136C23.0509 27.1136 22.5904 26.9929 22.2259 26.7514C21.8613 26.5099 21.6304 26.1572 21.5334 25.6932L22.3288 25.4943C22.4046 25.7879 22.5478 26.008 22.7585 26.1548C22.9716 26.3016 23.2498 26.375 23.593 26.375C23.9837 26.375 24.2938 26.2921 24.5234 26.1264C24.7554 25.9583 24.8714 25.7571 24.8714 25.5227C24.8714 25.3333 24.8052 25.1747 24.6726 25.0469C24.54 24.9167 24.3364 24.8196 24.0618 24.7557L23.1527 24.5426C22.6532 24.4242 22.2862 24.2408 22.0518 23.9922C21.8198 23.7412 21.7038 23.4276 21.7038 23.0511C21.7038 22.7434 21.7902 22.4711 21.9631 22.2344C22.1383 21.9976 22.3762 21.8118 22.6768 21.6768C22.9799 21.5419 23.3232 21.4744 23.7067 21.4744C24.2464 21.4744 24.6702 21.5928 24.978 21.8295C25.2881 22.0663 25.5083 22.3788 25.6385 22.767ZM28.6046 27.1278C28.2589 27.1278 27.9453 27.0627 27.6635 26.9325C27.3818 26.8 27.1581 26.6094 26.9924 26.3608C26.8266 26.1098 26.7438 25.8068 26.7438 25.4517C26.7438 25.1392 26.8053 24.8859 26.9284 24.6918C27.0516 24.4953 27.2161 24.3414 27.4221 24.2301C27.628 24.1188 27.8553 24.036 28.1039 23.9815C28.3548 23.9247 28.6069 23.8797 28.8603 23.8466C29.1917 23.804 29.4604 23.772 29.6664 23.7507C29.8747 23.727 30.0262 23.688 30.1209 23.6335C30.218 23.5791 30.2665 23.4844 30.2665 23.3494V23.321C30.2665 22.9706 30.1706 22.6984 29.9789 22.5043C29.7895 22.3101 29.5018 22.2131 29.1159 22.2131C28.7158 22.2131 28.4022 22.3007 28.1749 22.4759C27.9476 22.651 27.7878 22.8381 27.6955 23.0369L26.9 22.7528C27.0421 22.4214 27.2315 22.1634 27.4682 21.9787C27.7073 21.7917 27.9677 21.6615 28.2495 21.5881C28.5336 21.5123 28.8129 21.4744 29.0875 21.4744C29.2627 21.4744 29.464 21.4957 29.6912 21.5384C29.9209 21.5786 30.1422 21.6626 30.3553 21.7905C30.5707 21.9183 30.7495 22.1113 30.8915 22.3693C31.0336 22.6274 31.1046 22.973 31.1046 23.4062V27H30.2665V26.2614H30.2239C30.1671 26.3797 30.0724 26.5064 29.9398 26.6413C29.8072 26.7763 29.6309 26.8911 29.4107 26.9858C29.1905 27.0805 28.9218 27.1278 28.6046 27.1278ZM28.7324 26.375C29.0639 26.375 29.3432 26.3099 29.5705 26.1797C29.8001 26.0495 29.973 25.8814 30.089 25.6754C30.2073 25.4695 30.2665 25.2528 30.2665 25.0256V24.2585C30.231 24.3011 30.1529 24.3402 30.0321 24.3757C29.9138 24.4089 29.7765 24.4384 29.6202 24.4645C29.4663 24.4882 29.316 24.5095 29.1692 24.5284C29.0248 24.545 28.9076 24.5592 28.8176 24.571C28.5998 24.5994 28.3962 24.6456 28.2069 24.7095C28.0198 24.7711 27.8683 24.8646 27.7523 24.9901C27.6387 25.1132 27.5819 25.2812 27.5819 25.4943C27.5819 25.7855 27.6896 26.0057 27.905 26.1548C28.1228 26.3016 28.3986 26.375 28.7324 26.375ZM32.6342 27V21.5455H33.4439V22.3693H33.5007C33.6001 22.0994 33.7801 21.8804 34.0405 21.7124C34.3009 21.5443 34.5945 21.4602 34.9212 21.4602C34.9827 21.4602 35.0597 21.4614 35.152 21.4638C35.2443 21.4661 35.3142 21.4697 35.3615 21.4744V22.3267C35.3331 22.3196 35.268 22.3089 35.1662 22.2947C35.0668 22.2782 34.9614 22.2699 34.8501 22.2699C34.585 22.2699 34.3482 22.3255 34.1399 22.4368C33.9339 22.5457 33.7706 22.6972 33.6499 22.8913C33.5315 23.0831 33.4723 23.3021 33.4723 23.5483V27H32.6342ZM36.3549 27V21.5455H37.1646V22.3693H37.2214C37.3208 22.0994 37.5008 21.8804 37.7612 21.7124C38.0216 21.5443 38.3152 21.4602 38.6419 21.4602C38.7034 21.4602 38.7804 21.4614 38.8727 21.4638C38.965 21.4661 39.0349 21.4697 39.0822 21.4744V22.3267C39.0538 22.3196 38.9887 22.3089 38.8869 22.2947C38.7875 22.2782 38.6821 22.2699 38.5708 22.2699C38.3057 22.2699 38.069 22.3255 37.8606 22.4368C37.6547 22.5457 37.4913 22.6972 37.3706 22.8913C37.2522 23.0831 37.193 23.3021 37.193 23.5483V27H36.3549ZM42.1255 27.1136C41.6331 27.1136 41.2011 26.9964 40.8294 26.7621C40.46 26.5277 40.1712 26.1998 39.9629 25.7784C39.7569 25.357 39.6539 24.8646 39.6539 24.3011C39.6539 23.733 39.7569 23.237 39.9629 22.8132C40.1712 22.3894 40.46 22.0604 40.8294 21.826C41.2011 21.5916 41.6331 21.4744 42.1255 21.4744C42.618 21.4744 43.0488 21.5916 43.4181 21.826C43.7898 22.0604 44.0787 22.3894 44.2846 22.8132C44.493 23.237 44.5971 23.733 44.5971 24.3011C44.5971 24.8646 44.493 25.357 44.2846 25.7784C44.0787 26.1998 43.7898 26.5277 43.4181 26.7621C43.0488 26.9964 42.618 27.1136 42.1255 27.1136ZM42.1255 26.3608C42.4996 26.3608 42.8074 26.2649 43.0488 26.0732C43.2903 25.8814 43.469 25.6293 43.585 25.3168C43.7011 25.0043 43.7591 24.6657 43.7591 24.3011C43.7591 23.9366 43.7011 23.5968 43.585 23.282C43.469 22.9671 43.2903 22.7126 43.0488 22.5185C42.8074 22.3243 42.4996 22.2273 42.1255 22.2273C41.7515 22.2273 41.4437 22.3243 41.2022 22.5185C40.9608 22.7126 40.782 22.9671 40.666 23.282C40.55 23.5968 40.492 23.9366 40.492 24.3011C40.492 24.6657 40.55 25.0043 40.666 25.3168C40.782 25.6293 40.9608 25.8814 41.2022 26.0732C41.4437 26.2649 41.7515 26.3608 42.1255 26.3608ZM46.7145 19.7273V27H45.8764V19.7273H46.7145ZM49.0875 19.7273V27H48.2495V19.7273H49.0875ZM52.8384 27.1136C52.346 27.1136 51.9139 26.9964 51.5423 26.7621C51.1729 26.5277 50.8841 26.1998 50.6758 25.7784C50.4698 25.357 50.3668 24.8646 50.3668 24.3011C50.3668 23.733 50.4698 23.237 50.6758 22.8132C50.8841 22.3894 51.1729 22.0604 51.5423 21.826C51.9139 21.5916 52.346 21.4744 52.8384 21.4744C53.3308 21.4744 53.7617 21.5916 54.131 21.826C54.5027 22.0604 54.7915 22.3894 54.9975 22.8132C55.2058 23.237 55.31 23.733 55.31 24.3011C55.31 24.8646 55.2058 25.357 54.9975 25.7784C54.7915 26.1998 54.5027 26.5277 54.131 26.7621C53.7617 26.9964 53.3308 27.1136 52.8384 27.1136ZM52.8384 26.3608C53.2125 26.3608 53.5202 26.2649 53.7617 26.0732C54.0032 25.8814 54.1819 25.6293 54.2979 25.3168C54.4139 25.0043 54.4719 24.6657 54.4719 24.3011C54.4719 23.9366 54.4139 23.5968 54.2979 23.282C54.1819 22.9671 54.0032 22.7126 53.7617 22.5185C53.5202 22.3243 53.2125 22.2273 52.8384 22.2273C52.4644 22.2273 52.1566 22.3243 51.9151 22.5185C51.6737 22.7126 51.4949 22.9671 51.3789 23.282C51.2629 23.5968 51.2049 23.9366 51.2049 24.3011C51.2049 24.6657 51.2629 25.0043 51.3789 25.3168C51.4949 25.6293 51.6737 25.8814 51.9151 26.0732C52.1566 26.2649 52.4644 26.3608 52.8384 26.3608ZM8.88068 39V31.7273H13.2699V32.5085H9.76136V34.9659H13.0426V35.7472H9.76136V38.2188H13.3267V39H8.88068ZM18.6072 34.767L17.8544 34.9801C17.8071 34.8546 17.7372 34.7327 17.6449 34.6143C17.5549 34.4936 17.4318 34.3942 17.2756 34.3161C17.1193 34.2379 16.9193 34.1989 16.6754 34.1989C16.3416 34.1989 16.0634 34.2758 15.8409 34.4297C15.6207 34.5812 15.5107 34.7741 15.5107 35.0085C15.5107 35.2169 15.5864 35.3814 15.7379 35.5021C15.8894 35.6229 16.1262 35.7235 16.4482 35.804L17.2578 36.0028C17.7455 36.1212 18.1089 36.3023 18.348 36.5462C18.5871 36.7876 18.7067 37.099 18.7067 37.4801C18.7067 37.7926 18.6167 38.072 18.4368 38.3182C18.2592 38.5644 18.0107 38.7585 17.6911 38.9006C17.3714 39.0426 16.9998 39.1136 16.576 39.1136C16.0196 39.1136 15.5592 38.9929 15.1946 38.7514C14.83 38.5099 14.5992 38.1572 14.5021 37.6932L15.2976 37.4943C15.3733 37.7879 15.5166 38.008 15.7273 38.1548C15.9403 38.3016 16.2185 38.375 16.5618 38.375C16.9524 38.375 17.2625 38.2921 17.4922 38.1264C17.7242 37.9583 17.8402 37.7571 17.8402 37.5227C17.8402 37.3333 17.7739 37.1747 17.6413 37.0469C17.5088 36.9167 17.3052 36.8196 17.0305 36.7557L16.1214 36.5426C15.6219 36.4242 15.255 36.2408 15.0206 35.9922C14.7886 35.7412 14.6726 35.4276 14.6726 35.0511C14.6726 34.7434 14.759 34.4711 14.9318 34.2344C15.107 33.9976 15.3449 33.8118 15.6456 33.6768C15.9486 33.5419 16.2919 33.4744 16.6754 33.4744C17.2152 33.4744 17.639 33.5928 17.9467 33.8295C18.2569 34.0663 18.477 34.3788 18.6072 34.767ZM22.3404 33.5455V34.2557H19.5137V33.5455H22.3404ZM20.3375 32.2386H21.1756V37.4375C21.1756 37.6742 21.2099 37.8518 21.2786 37.9702C21.3496 38.0862 21.4396 38.1643 21.5485 38.2045C21.6597 38.2424 21.7769 38.2614 21.9 38.2614C21.9924 38.2614 22.0681 38.2566 22.1273 38.2472C22.1865 38.2353 22.2338 38.2259 22.2694 38.2188L22.4398 38.9716C22.383 38.9929 22.3037 39.0142 22.2019 39.0355C22.1001 39.0592 21.9711 39.071 21.8148 39.071C21.5781 39.071 21.3461 39.0201 21.1188 38.9183C20.8939 38.8165 20.7069 38.6615 20.5577 38.4531C20.4109 38.2448 20.3375 37.982 20.3375 37.6648V32.2386ZM27.0385 36.7699V33.5455H27.8766V39H27.0385V38.0767H26.9817C26.8539 38.3537 26.655 38.5893 26.3851 38.7834C26.1152 38.9751 25.7743 39.071 25.3624 39.071C25.0215 39.071 24.7185 38.9964 24.4533 38.8473C24.1882 38.6958 23.9798 38.4685 23.8283 38.1655C23.6768 37.8601 23.601 37.4754 23.601 37.0114V33.5455H24.4391V36.9545C24.4391 37.3523 24.5504 37.6695 24.7729 37.9062C24.9978 38.143 25.2843 38.2614 25.6323 38.2614C25.8406 38.2614 26.0525 38.2081 26.2679 38.1016C26.4857 37.995 26.668 37.8317 26.8148 37.6115C26.964 37.3913 27.0385 37.1108 27.0385 36.7699ZM31.4712 39.1136C31.0167 39.1136 30.6154 38.9988 30.2674 38.7692C29.9194 38.5372 29.6471 38.2105 29.4506 37.7891C29.2541 37.3653 29.1559 36.8646 29.1559 36.2869C29.1559 35.714 29.2541 35.2169 29.4506 34.7955C29.6471 34.3741 29.9206 34.0485 30.271 33.8189C30.6213 33.5893 31.0262 33.4744 31.4854 33.4744C31.8406 33.4744 32.1211 33.5336 32.3271 33.652C32.5354 33.768 32.694 33.9006 32.8029 34.0497C32.9142 34.1965 33.0006 34.3172 33.0621 34.4119H33.1332V31.7273H33.9712V39H33.1616V38.1619H33.0621C33.0006 38.2614 32.913 38.3868 32.7994 38.5384C32.6857 38.6875 32.5236 38.8213 32.3129 38.9396C32.1022 39.0556 31.8216 39.1136 31.4712 39.1136ZM31.5849 38.3608C31.921 38.3608 32.2051 38.2732 32.4371 38.098C32.6692 37.9205 32.8455 37.6754 32.9663 37.3629C33.087 37.0481 33.1474 36.6847 33.1474 36.2727C33.1474 35.8655 33.0882 35.5092 32.9698 35.2038C32.8514 34.8961 32.6763 34.657 32.4442 34.4865C32.2122 34.3137 31.9258 34.2273 31.5849 34.2273C31.2298 34.2273 30.9338 34.3184 30.6971 34.5007C30.4627 34.6806 30.2863 34.9257 30.168 35.2358C30.052 35.5436 29.994 35.8892 29.994 36.2727C29.994 36.661 30.0531 37.0137 30.1715 37.331C30.2923 37.6458 30.4698 37.8968 30.7042 38.0838C30.9409 38.2685 31.2345 38.3608 31.5849 38.3608ZM35.6225 39V33.5455H36.4606V39H35.6225ZM36.0487 32.6364C35.8853 32.6364 35.7444 32.5807 35.6261 32.4695C35.5101 32.3582 35.4521 32.2244 35.4521 32.0682C35.4521 31.9119 35.5101 31.7782 35.6261 31.6669C35.7444 31.5556 35.8853 31.5 36.0487 31.5C36.212 31.5 36.3517 31.5556 36.4677 31.6669C36.5861 31.7782 36.6452 31.9119 36.6452 32.0682C36.6452 32.2244 36.5861 32.3582 36.4677 32.4695C36.3517 32.5807 36.212 32.6364 36.0487 32.6364ZM39.6007 39.1278C39.255 39.1278 38.9413 39.0627 38.6596 38.9325C38.3779 38.8 38.1542 38.6094 37.9885 38.3608C37.8227 38.1098 37.7399 37.8068 37.7399 37.4517C37.7399 37.1392 37.8014 36.8859 37.9245 36.6918C38.0476 36.4953 38.2122 36.3414 38.4181 36.2301C38.6241 36.1188 38.8514 36.036 39.1 35.9815C39.3509 35.9247 39.603 35.8797 39.8564 35.8466C40.1878 35.804 40.4565 35.772 40.6625 35.7507C40.8708 35.727 41.0223 35.688 41.117 35.6335C41.2141 35.5791 41.2626 35.4844 41.2626 35.3494V35.321C41.2626 34.9706 41.1667 34.6984 40.975 34.5043C40.7856 34.3101 40.4979 34.2131 40.112 34.2131C39.7119 34.2131 39.3983 34.3007 39.171 34.4759C38.9437 34.651 38.7839 34.8381 38.6916 35.0369L37.8961 34.7528C38.0382 34.4214 38.2276 34.1634 38.4643 33.9787C38.7034 33.7917 38.9638 33.6615 39.2456 33.5881C39.5297 33.5123 39.809 33.4744 40.0836 33.4744C40.2588 33.4744 40.46 33.4957 40.6873 33.5384C40.917 33.5786 41.1383 33.6626 41.3514 33.7905C41.5668 33.9183 41.7456 34.1113 41.8876 34.3693C42.0297 34.6274 42.1007 34.973 42.1007 35.4062V39H41.2626V38.2614H41.22C41.1632 38.3797 41.0685 38.5064 40.9359 38.6413C40.8033 38.7763 40.627 38.8911 40.4068 38.9858C40.1866 39.0805 39.9179 39.1278 39.6007 39.1278ZM39.7285 38.375C40.06 38.375 40.3393 38.3099 40.5666 38.1797C40.7962 38.0495 40.969 37.8814 41.085 37.6754C41.2034 37.4695 41.2626 37.2528 41.2626 37.0256V36.2585C41.2271 36.3011 41.149 36.3402 41.0282 36.3757C40.9099 36.4089 40.7725 36.4384 40.6163 36.4645C40.4624 36.4882 40.3121 36.5095 40.1653 36.5284C40.0209 36.545 39.9037 36.5592 39.8137 36.571C39.5959 36.5994 39.3923 36.6456 39.2029 36.7095C39.0159 36.7711 38.8644 36.8646 38.7484 36.9901C38.6348 37.1132 38.5779 37.2812 38.5779 37.4943C38.5779 37.7855 38.6857 38.0057 38.9011 38.1548C39.1189 38.3016 39.3947 38.375 39.7285 38.375ZM44.4684 35.7188V39H43.6303V33.5455H44.44V34.3977H44.511C44.6388 34.1207 44.833 33.8982 45.0934 33.7301C45.3538 33.5597 45.69 33.4744 46.1019 33.4744C46.4712 33.4744 46.7944 33.5502 47.0714 33.7017C47.3484 33.8509 47.5638 34.0781 47.7177 34.3835C47.8716 34.6866 47.9485 35.0701 47.9485 35.5341V39H47.1104V35.5909C47.1104 35.1624 46.9992 34.8286 46.7766 34.5895C46.5541 34.348 46.2487 34.2273 45.8604 34.2273C45.5929 34.2273 45.3538 34.2853 45.1431 34.4013C44.9348 34.5173 44.7702 34.6866 44.6495 34.9091C44.5288 35.1316 44.4684 35.4015 44.4684 35.7188ZM51.8521 33.5455V34.2557H49.0254V33.5455H51.8521ZM49.8493 32.2386H50.6873V37.4375C50.6873 37.6742 50.7217 37.8518 50.7903 37.9702C50.8613 38.0862 50.9513 38.1643 51.0602 38.2045C51.1715 38.2424 51.2886 38.2614 51.4118 38.2614C51.5041 38.2614 51.5798 38.2566 51.639 38.2472C51.6982 38.2353 51.7456 38.2259 51.7811 38.2188L51.9515 38.9716C51.8947 38.9929 51.8154 39.0142 51.7136 39.0355C51.6118 39.0592 51.4828 39.071 51.3265 39.071C51.0898 39.071 50.8578 39.0201 50.6305 38.9183C50.4056 38.8165 50.2186 38.6615 50.0694 38.4531C49.9226 38.2448 49.8493 37.982 49.8493 37.6648V32.2386ZM53.1127 39V33.5455H53.9508V39H53.1127ZM53.5389 32.6364C53.3755 32.6364 53.2347 32.5807 53.1163 32.4695C53.0003 32.3582 52.9423 32.2244 52.9423 32.0682C52.9423 31.9119 53.0003 31.7782 53.1163 31.6669C53.2347 31.5556 53.3755 31.5 53.5389 31.5C53.7022 31.5 53.8419 31.5556 53.9579 31.6669C54.0763 31.7782 54.1355 31.9119 54.1355 32.0682C54.1355 32.2244 54.0763 32.3582 53.9579 32.4695C53.8419 32.5807 53.7022 32.6364 53.5389 32.6364ZM56.3239 31.7273V39H55.4858V31.7273H56.3239Z" fill="black"/>
<path id="Bienestar Estudiantil" d="M98.8807 29V21.7273H101.423C101.93 21.7273 102.348 21.8149 102.677 21.9901C103.006 22.1629 103.251 22.3961 103.412 22.6896C103.573 22.9808 103.653 23.304 103.653 23.6591C103.653 23.9716 103.598 24.2296 103.487 24.4332C103.378 24.6368 103.233 24.7978 103.053 24.9162C102.876 25.0346 102.683 25.1222 102.474 25.179V25.25C102.697 25.2642 102.921 25.3423 103.146 25.4844C103.371 25.6264 103.559 25.83 103.71 26.0952C103.862 26.3603 103.938 26.6847 103.938 27.0682C103.938 27.4328 103.855 27.7607 103.689 28.0518C103.523 28.343 103.262 28.5739 102.904 28.7443C102.547 28.9148 102.081 29 101.509 29H98.8807ZM99.7614 28.2188H101.509C102.084 28.2188 102.492 28.1075 102.734 27.8849C102.978 27.66 103.099 27.3878 103.099 27.0682C103.099 26.822 103.037 26.5947 102.911 26.3864C102.786 26.1757 102.607 26.0076 102.375 25.8821C102.143 25.7543 101.868 25.6903 101.551 25.6903H99.7614V28.2188ZM99.7614 24.9233H101.395C101.66 24.9233 101.899 24.8712 102.112 24.767C102.328 24.6629 102.498 24.5161 102.624 24.3267C102.751 24.1373 102.815 23.9148 102.815 23.6591C102.815 23.3395 102.704 23.0684 102.482 22.8459C102.259 22.621 101.906 22.5085 101.423 22.5085H99.7614V24.9233ZM105.271 29V23.5455H106.109V29H105.271ZM105.697 22.6364C105.534 22.6364 105.393 22.5807 105.275 22.4695C105.158 22.3582 105.1 22.2244 105.1 22.0682C105.1 21.9119 105.158 21.7782 105.275 21.6669C105.393 21.5556 105.534 21.5 105.697 21.5C105.86 21.5 106 21.5556 106.116 21.6669C106.234 21.7782 106.294 21.9119 106.294 22.0682C106.294 22.2244 106.234 22.3582 106.116 22.4695C106 22.5807 105.86 22.6364 105.697 22.6364ZM109.931 29.1136C109.405 29.1136 108.952 28.9976 108.571 28.7656C108.192 28.5312 107.9 28.2045 107.694 27.7855C107.49 27.3641 107.388 26.8741 107.388 26.3153C107.388 25.7566 107.49 25.2642 107.694 24.8381C107.9 24.4096 108.186 24.0758 108.553 23.8366C108.922 23.5952 109.353 23.4744 109.846 23.4744C110.13 23.4744 110.41 23.5218 110.687 23.6165C110.964 23.7112 111.216 23.8651 111.444 24.0781C111.671 24.2888 111.852 24.5682 111.987 24.9162C112.122 25.2642 112.189 25.6927 112.189 26.2017V26.5568H107.985V25.8324H111.337C111.337 25.5246 111.276 25.25 111.153 25.0085C111.032 24.767 110.859 24.5765 110.634 24.4368C110.412 24.2971 110.149 24.2273 109.846 24.2273C109.512 24.2273 109.223 24.3101 108.979 24.4759C108.738 24.6392 108.552 24.8523 108.422 25.1151C108.291 25.3778 108.226 25.6596 108.226 25.9602V26.4432C108.226 26.8551 108.297 27.2043 108.439 27.4908C108.584 27.7749 108.784 27.9915 109.04 28.1406C109.295 28.2874 109.592 28.3608 109.931 28.3608C110.151 28.3608 110.35 28.33 110.528 28.2685C110.707 28.2045 110.863 28.1098 110.993 27.9844C111.123 27.8565 111.224 27.6979 111.295 27.5085L112.104 27.7358C112.019 28.0104 111.876 28.2519 111.675 28.4602C111.473 28.6662 111.225 28.8272 110.929 28.9432C110.633 29.0568 110.3 29.1136 109.931 29.1136ZM114.302 25.7188V29H113.464V23.5455H114.274V24.3977H114.345C114.473 24.1207 114.667 23.8982 114.927 23.7301C115.188 23.5597 115.524 23.4744 115.936 23.4744C116.305 23.4744 116.628 23.5502 116.905 23.7017C117.182 23.8509 117.398 24.0781 117.552 24.3835C117.706 24.6866 117.782 25.0701 117.782 25.5341V29H116.944V25.5909C116.944 25.1624 116.833 24.8286 116.611 24.5895C116.388 24.348 116.083 24.2273 115.694 24.2273C115.427 24.2273 115.188 24.2853 114.977 24.4013C114.769 24.5173 114.604 24.6866 114.483 24.9091C114.363 25.1316 114.302 25.4015 114.302 25.7188ZM121.601 29.1136C121.075 29.1136 120.622 28.9976 120.241 28.7656C119.862 28.5312 119.57 28.2045 119.364 27.7855C119.16 27.3641 119.058 26.8741 119.058 26.3153C119.058 25.7566 119.16 25.2642 119.364 24.8381C119.57 24.4096 119.856 24.0758 120.223 23.8366C120.592 23.5952 121.023 23.4744 121.516 23.4744C121.8 23.4744 122.08 23.5218 122.357 23.6165C122.634 23.7112 122.886 23.8651 123.114 24.0781C123.341 24.2888 123.522 24.5682 123.657 24.9162C123.792 25.2642 123.859 25.6927 123.859 26.2017V26.5568H119.655V25.8324H123.007C123.007 25.5246 122.946 25.25 122.822 25.0085C122.702 24.767 122.529 24.5765 122.304 24.4368C122.081 24.2971 121.819 24.2273 121.516 24.2273C121.182 24.2273 120.893 24.3101 120.649 24.4759C120.408 24.6392 120.222 24.8523 120.092 25.1151C119.961 25.3778 119.896 25.6596 119.896 25.9602V26.4432C119.896 26.8551 119.967 27.2043 120.109 27.4908C120.254 27.7749 120.454 27.9915 120.71 28.1406C120.965 28.2874 121.262 28.3608 121.601 28.3608C121.821 28.3608 122.02 28.33 122.197 28.2685C122.377 28.2045 122.532 28.1098 122.663 27.9844C122.793 27.8565 122.893 27.6979 122.964 27.5085L123.774 27.7358C123.689 28.0104 123.546 28.2519 123.344 28.4602C123.143 28.6662 122.895 28.8272 122.599 28.9432C122.303 29.0568 121.97 29.1136 121.601 29.1136ZM128.998 24.767L128.245 24.9801C128.198 24.8546 128.128 24.7327 128.036 24.6143C127.946 24.4936 127.822 24.3942 127.666 24.3161C127.51 24.2379 127.31 24.1989 127.066 24.1989C126.732 24.1989 126.454 24.2758 126.232 24.4297C126.011 24.5812 125.901 24.7741 125.901 25.0085C125.901 25.2169 125.977 25.3814 126.129 25.5021C126.28 25.6229 126.517 25.7235 126.839 25.804L127.648 26.0028C128.136 26.1212 128.5 26.3023 128.739 26.5462C128.978 26.7876 129.097 27.099 129.097 27.4801C129.097 27.7926 129.007 28.072 128.827 28.3182C128.65 28.5644 128.401 28.7585 128.082 28.9006C127.762 29.0426 127.39 29.1136 126.967 29.1136C126.41 29.1136 125.95 28.9929 125.585 28.7514C125.221 28.5099 124.99 28.1572 124.893 27.6932L125.688 27.4943C125.764 27.7879 125.907 28.008 126.118 28.1548C126.331 28.3016 126.609 28.375 126.952 28.375C127.343 28.375 127.653 28.2921 127.883 28.1264C128.115 27.9583 128.231 27.7571 128.231 27.5227C128.231 27.3333 128.165 27.1747 128.032 27.0469C127.899 26.9167 127.696 26.8196 127.421 26.7557L126.512 26.5426C126.013 26.4242 125.646 26.2408 125.411 25.9922C125.179 25.7412 125.063 25.4276 125.063 25.0511C125.063 24.7434 125.15 24.4711 125.322 24.2344C125.498 23.9976 125.736 23.8118 126.036 23.6768C126.339 23.5419 126.683 23.4744 127.066 23.4744C127.606 23.4744 128.03 23.5928 128.337 23.8295C128.647 24.0663 128.868 24.3788 128.998 24.767ZM132.731 23.5455V24.2557H129.904V23.5455H132.731ZM130.728 22.2386H131.566V27.4375C131.566 27.6742 131.601 27.8518 131.669 27.9702C131.74 28.0862 131.83 28.1643 131.939 28.2045C132.05 28.2424 132.168 28.2614 132.291 28.2614C132.383 28.2614 132.459 28.2566 132.518 28.2472C132.577 28.2353 132.624 28.2259 132.66 28.2188L132.83 28.9716C132.774 28.9929 132.694 29.0142 132.593 29.0355C132.491 29.0592 132.362 29.071 132.205 29.071C131.969 29.071 131.737 29.0201 131.509 28.9183C131.285 28.8165 131.097 28.6615 130.948 28.4531C130.802 28.2448 130.728 27.982 130.728 27.6648V22.2386ZM135.597 29.1278C135.251 29.1278 134.937 29.0627 134.656 28.9325C134.374 28.8 134.15 28.6094 133.985 28.3608C133.819 28.1098 133.736 27.8068 133.736 27.4517C133.736 27.1392 133.798 26.8859 133.921 26.6918C134.044 26.4953 134.208 26.3414 134.414 26.2301C134.62 26.1188 134.847 26.036 135.096 25.9815C135.347 25.9247 135.599 25.8797 135.852 25.8466C136.184 25.804 136.453 25.772 136.659 25.7507C136.867 25.727 137.018 25.688 137.113 25.6335C137.21 25.5791 137.259 25.4844 137.259 25.3494V25.321C137.259 24.9706 137.163 24.6984 136.971 24.5043C136.782 24.3101 136.494 24.2131 136.108 24.2131C135.708 24.2131 135.394 24.3007 135.167 24.4759C134.94 24.651 134.78 24.8381 134.688 25.0369L133.892 24.7528C134.034 24.4214 134.224 24.1634 134.46 23.9787C134.7 23.7917 134.96 23.6615 135.242 23.5881C135.526 23.5123 135.805 23.4744 136.08 23.4744C136.255 23.4744 136.456 23.4957 136.683 23.5384C136.913 23.5786 137.134 23.6626 137.347 23.7905C137.563 23.9183 137.742 24.1113 137.884 24.3693C138.026 24.6274 138.097 24.973 138.097 25.4062V29H137.259V28.2614H137.216C137.159 28.3797 137.065 28.5064 136.932 28.6413C136.799 28.7763 136.623 28.8911 136.403 28.9858C136.183 29.0805 135.914 29.1278 135.597 29.1278ZM135.725 28.375C136.056 28.375 136.335 28.3099 136.563 28.1797C136.792 28.0495 136.965 27.8814 137.081 27.6754C137.2 27.4695 137.259 27.2528 137.259 27.0256V26.2585C137.223 26.3011 137.145 26.3402 137.024 26.3757C136.906 26.4089 136.769 26.4384 136.612 26.4645C136.459 26.4882 136.308 26.5095 136.161 26.5284C136.017 26.545 135.9 26.5592 135.81 26.571C135.592 26.5994 135.388 26.6456 135.199 26.7095C135.012 26.7711 134.86 26.8646 134.744 26.9901C134.631 27.1132 134.574 27.2812 134.574 27.4943C134.574 27.7855 134.682 28.0057 134.897 28.1548C135.115 28.3016 135.391 28.375 135.725 28.375ZM139.626 29V23.5455H140.436V24.3693H140.493C140.592 24.0994 140.772 23.8804 141.033 23.7124C141.293 23.5443 141.587 23.4602 141.913 23.4602C141.975 23.4602 142.052 23.4614 142.144 23.4638C142.237 23.4661 142.306 23.4697 142.354 23.4744V24.3267C142.325 24.3196 142.26 24.3089 142.158 24.2947C142.059 24.2782 141.954 24.2699 141.842 24.2699C141.577 24.2699 141.34 24.3255 141.132 24.4368C140.926 24.5457 140.763 24.6972 140.642 24.8913C140.524 25.0831 140.464 25.3021 140.464 25.5483V29H139.626ZM98.8807 41V33.7273H103.27V34.5085H99.7614V36.9659H103.043V37.7472H99.7614V40.2188H103.327V41H98.8807ZM108.607 36.767L107.854 36.9801C107.807 36.8546 107.737 36.7327 107.645 36.6143C107.555 36.4936 107.432 36.3942 107.276 36.3161C107.119 36.2379 106.919 36.1989 106.675 36.1989C106.342 36.1989 106.063 36.2758 105.841 36.4297C105.621 36.5812 105.511 36.7741 105.511 37.0085C105.511 37.2169 105.586 37.3814 105.738 37.5021C105.889 37.6229 106.126 37.7235 106.448 37.804L107.258 38.0028C107.746 38.1212 108.109 38.3023 108.348 38.5462C108.587 38.7876 108.707 39.099 108.707 39.4801C108.707 39.7926 108.617 40.072 108.437 40.3182C108.259 40.5644 108.011 40.7585 107.691 40.9006C107.371 41.0426 107 41.1136 106.576 41.1136C106.02 41.1136 105.559 40.9929 105.195 40.7514C104.83 40.5099 104.599 40.1572 104.502 39.6932L105.298 39.4943C105.373 39.7879 105.517 40.008 105.727 40.1548C105.94 40.3016 106.219 40.375 106.562 40.375C106.952 40.375 107.263 40.2921 107.492 40.1264C107.724 39.9583 107.84 39.7571 107.84 39.5227C107.84 39.3333 107.774 39.1747 107.641 39.0469C107.509 38.9167 107.305 38.8196 107.031 38.7557L106.121 38.5426C105.622 38.4242 105.255 38.2408 105.021 37.9922C104.789 37.7412 104.673 37.4276 104.673 37.0511C104.673 36.7434 104.759 36.4711 104.932 36.2344C105.107 35.9976 105.345 35.8118 105.646 35.6768C105.949 35.5419 106.292 35.4744 106.675 35.4744C107.215 35.4744 107.639 35.5928 107.947 35.8295C108.257 36.0663 108.477 36.3788 108.607 36.767ZM112.34 35.5455V36.2557H109.514V35.5455H112.34ZM110.338 34.2386H111.176V39.4375C111.176 39.6742 111.21 39.8518 111.279 39.9702C111.35 40.0862 111.44 40.1643 111.548 40.2045C111.66 40.2424 111.777 40.2614 111.9 40.2614C111.992 40.2614 112.068 40.2566 112.127 40.2472C112.186 40.2353 112.234 40.2259 112.269 40.2188L112.44 40.9716C112.383 40.9929 112.304 41.0142 112.202 41.0355C112.1 41.0592 111.971 41.071 111.815 41.071C111.578 41.071 111.346 41.0201 111.119 40.9183C110.894 40.8165 110.707 40.6615 110.558 40.4531C110.411 40.2448 110.338 39.982 110.338 39.6648V34.2386ZM117.039 38.7699V35.5455H117.877V41H117.039V40.0767H116.982C116.854 40.3537 116.655 40.5893 116.385 40.7834C116.115 40.9751 115.774 41.071 115.362 41.071C115.021 41.071 114.718 40.9964 114.453 40.8473C114.188 40.6958 113.98 40.4685 113.828 40.1655C113.677 39.8601 113.601 39.4754 113.601 39.0114V35.5455H114.439V38.9545C114.439 39.3523 114.55 39.6695 114.773 39.9062C114.998 40.143 115.284 40.2614 115.632 40.2614C115.841 40.2614 116.052 40.2081 116.268 40.1016C116.486 39.995 116.668 39.8317 116.815 39.6115C116.964 39.3913 117.039 39.1108 117.039 38.7699ZM121.471 41.1136C121.017 41.1136 120.615 40.9988 120.267 40.7692C119.919 40.5372 119.647 40.2105 119.451 39.7891C119.254 39.3653 119.156 38.8646 119.156 38.2869C119.156 37.714 119.254 37.2169 119.451 36.7955C119.647 36.3741 119.921 36.0485 120.271 35.8189C120.621 35.5893 121.026 35.4744 121.485 35.4744C121.841 35.4744 122.121 35.5336 122.327 35.652C122.535 35.768 122.694 35.9006 122.803 36.0497C122.914 36.1965 123.001 36.3172 123.062 36.4119H123.133V33.7273H123.971V41H123.162V40.1619H123.062C123.001 40.2614 122.913 40.3868 122.799 40.5384C122.686 40.6875 122.524 40.8213 122.313 40.9396C122.102 41.0556 121.822 41.1136 121.471 41.1136ZM121.585 40.3608C121.921 40.3608 122.205 40.2732 122.437 40.098C122.669 39.9205 122.846 39.6754 122.966 39.3629C123.087 39.0481 123.147 38.6847 123.147 38.2727C123.147 37.8655 123.088 37.5092 122.97 37.2038C122.851 36.8961 122.676 36.657 122.444 36.4865C122.212 36.3137 121.926 36.2273 121.585 36.2273C121.23 36.2273 120.934 36.3184 120.697 36.5007C120.463 36.6806 120.286 36.9257 120.168 37.2358C120.052 37.5436 119.994 37.8892 119.994 38.2727C119.994 38.661 120.053 39.0137 120.172 39.331C120.292 39.6458 120.47 39.8968 120.704 40.0838C120.941 40.2685 121.234 40.3608 121.585 40.3608ZM125.623 41V35.5455H126.461V41H125.623ZM126.049 34.6364C125.885 34.6364 125.744 34.5807 125.626 34.4695C125.51 34.3582 125.452 34.2244 125.452 34.0682C125.452 33.9119 125.51 33.7782 125.626 33.6669C125.744 33.5556 125.885 33.5 126.049 33.5C126.212 33.5 126.352 33.5556 126.468 33.6669C126.586 33.7782 126.645 33.9119 126.645 34.0682C126.645 34.2244 126.586 34.3582 126.468 34.4695C126.352 34.5807 126.212 34.6364 126.049 34.6364ZM129.601 41.1278C129.255 41.1278 128.941 41.0627 128.66 40.9325C128.378 40.8 128.154 40.6094 127.988 40.3608C127.823 40.1098 127.74 39.8068 127.74 39.4517C127.74 39.1392 127.801 38.8859 127.925 38.6918C128.048 38.4953 128.212 38.3414 128.418 38.2301C128.624 38.1188 128.851 38.036 129.1 37.9815C129.351 37.9247 129.603 37.8797 129.856 37.8466C130.188 37.804 130.456 37.772 130.662 37.7507C130.871 37.727 131.022 37.688 131.117 37.6335C131.214 37.5791 131.263 37.4844 131.263 37.3494V37.321C131.263 36.9706 131.167 36.6984 130.975 36.5043C130.786 36.3101 130.498 36.2131 130.112 36.2131C129.712 36.2131 129.398 36.3007 129.171 36.4759C128.944 36.651 128.784 36.8381 128.692 37.0369L127.896 36.7528C128.038 36.4214 128.228 36.1634 128.464 35.9787C128.703 35.7917 128.964 35.6615 129.246 35.5881C129.53 35.5123 129.809 35.4744 130.084 35.4744C130.259 35.4744 130.46 35.4957 130.687 35.5384C130.917 35.5786 131.138 35.6626 131.351 35.7905C131.567 35.9183 131.746 36.1113 131.888 36.3693C132.03 36.6274 132.101 36.973 132.101 37.4062V41H131.263V40.2614H131.22C131.163 40.3797 131.068 40.5064 130.936 40.6413C130.803 40.7763 130.627 40.8911 130.407 40.9858C130.187 41.0805 129.918 41.1278 129.601 41.1278ZM129.729 40.375C130.06 40.375 130.339 40.3099 130.567 40.1797C130.796 40.0495 130.969 39.8814 131.085 39.6754C131.203 39.4695 131.263 39.2528 131.263 39.0256V38.2585C131.227 38.3011 131.149 38.3402 131.028 38.3757C130.91 38.4089 130.773 38.4384 130.616 38.4645C130.462 38.4882 130.312 38.5095 130.165 38.5284C130.021 38.545 129.904 38.5592 129.814 38.571C129.596 38.5994 129.392 38.6456 129.203 38.7095C129.016 38.7711 128.864 38.8646 128.748 38.9901C128.635 39.1132 128.578 39.2812 128.578 39.4943C128.578 39.7855 128.686 40.0057 128.901 40.1548C129.119 40.3016 129.395 40.375 129.729 40.375ZM134.468 37.7188V41H133.63V35.5455H134.44V36.3977H134.511C134.639 36.1207 134.833 35.8982 135.093 35.7301C135.354 35.5597 135.69 35.4744 136.102 35.4744C136.471 35.4744 136.794 35.5502 137.071 35.7017C137.348 35.8509 137.564 36.0781 137.718 36.3835C137.872 36.6866 137.949 37.0701 137.949 37.5341V41H137.11V37.5909C137.11 37.1624 136.999 36.8286 136.777 36.5895C136.554 36.348 136.249 36.2273 135.86 36.2273C135.593 36.2273 135.354 36.2853 135.143 36.4013C134.935 36.5173 134.77 36.6866 134.65 36.9091C134.529 37.1316 134.468 37.4015 134.468 37.7188ZM141.852 35.5455V36.2557H139.025V35.5455H141.852ZM139.849 34.2386H140.687V39.4375C140.687 39.6742 140.722 39.8518 140.79 39.9702C140.861 40.0862 140.951 40.1643 141.06 40.2045C141.171 40.2424 141.289 40.2614 141.412 40.2614C141.504 40.2614 141.58 40.2566 141.639 40.2472C141.698 40.2353 141.746 40.2259 141.781 40.2188L141.952 40.9716C141.895 40.9929 141.815 41.0142 141.714 41.0355C141.612 41.0592 141.483 41.071 141.327 41.071C141.09 41.071 140.858 41.0201 140.631 40.9183C140.406 40.8165 140.219 40.6615 140.069 40.4531C139.923 40.2448 139.849 39.982 139.849 39.6648V34.2386ZM143.113 41V35.5455H143.951V41H143.113ZM143.539 34.6364C143.376 34.6364 143.235 34.5807 143.116 34.4695C143 34.3582 142.942 34.2244 142.942 34.0682C142.942 33.9119 143 33.7782 143.116 33.6669C143.235 33.5556 143.376 33.5 143.539 33.5C143.702 33.5 143.842 33.5556 143.958 33.6669C144.076 33.7782 144.135 33.9119 144.135 34.0682C144.135 34.2244 144.076 34.3582 143.958 34.4695C143.842 34.5807 143.702 34.6364 143.539 34.6364ZM146.324 33.7273V41H145.486V33.7273H146.324Z" fill="black"/>
<path id="Escaleras Escuela de mecanica" d="M167 6.06472L172.091 6.06472V9.13716H171.544V6.6812L169.824 6.6812V8.97807H169.277V6.6812H167.547V9.17694H167V6.06472ZM169.963 12.8733L169.814 12.3463C169.902 12.3132 169.987 12.2643 170.07 12.1997C170.154 12.1367 170.224 12.0505 170.279 11.9411C170.333 11.8318 170.361 11.6917 170.361 11.521C170.361 11.2874 170.307 11.0927 170.199 10.9369C170.093 10.7828 169.958 10.7057 169.794 10.7057C169.648 10.7057 169.533 10.7587 169.449 10.8648C169.364 10.9709 169.294 11.1366 169.237 11.3619L169.098 11.9287C169.015 12.2701 168.888 12.5245 168.718 12.6919C168.549 12.8592 168.331 12.9429 168.064 12.9429C167.845 12.9429 167.65 12.8799 167.477 12.754C167.305 12.6297 167.169 12.4557 167.07 12.232C166.97 12.0083 166.92 11.7481 166.92 11.4514C166.92 11.062 167.005 10.7397 167.174 10.4845C167.343 10.2293 167.59 10.0677 167.915 9.99973L168.054 10.5566C167.848 10.6096 167.694 10.7098 167.592 10.8573C167.489 11.0065 167.438 11.2012 167.438 11.4415C167.438 11.7149 167.496 11.932 167.612 12.0928C167.729 12.2552 167.87 12.3364 168.034 12.3364C168.167 12.3364 168.278 12.29 168.367 12.1972C168.458 12.1044 168.526 11.9619 168.571 11.7696L168.72 11.1333C168.803 10.7836 168.931 10.5267 169.105 10.3627C169.281 10.2003 169.501 10.1191 169.764 10.1191C169.98 10.1191 170.17 10.1795 170.336 10.3005C170.502 10.4231 170.632 10.5897 170.726 10.8002C170.821 11.0123 170.868 11.2526 170.868 11.521C170.868 11.8989 170.785 12.1955 170.619 12.411C170.454 12.628 170.235 12.7822 169.963 12.8733ZM166.92 15.3771C166.92 15.0192 167.005 14.7109 167.174 14.4524C167.343 14.1939 167.576 13.995 167.873 13.8558C168.169 13.7166 168.508 13.647 168.889 13.647C169.277 13.647 169.619 13.7183 169.916 13.8608C170.214 14.005 170.447 14.2055 170.614 14.4624C170.783 14.7209 170.868 15.0225 170.868 15.3672C170.868 15.6357 170.818 15.8776 170.719 16.093C170.619 16.3085 170.48 16.485 170.301 16.6225C170.122 16.7601 169.913 16.8454 169.675 16.8786V16.2919C169.849 16.2472 170.003 16.1477 170.137 15.9936C170.273 15.8411 170.341 15.6357 170.341 15.3771C170.341 15.1484 170.281 14.9479 170.162 14.7756C170.044 14.6049 169.878 14.4715 169.662 14.3754C169.449 14.2809 169.197 14.2337 168.909 14.2337C168.614 14.2337 168.357 14.2801 168.138 14.3729C167.92 14.4673 167.75 14.5999 167.629 14.7706C167.508 14.9429 167.447 15.1451 167.447 15.3771C167.447 15.5296 167.474 15.668 167.527 15.7923C167.58 15.9165 167.656 16.0218 167.756 16.108C167.855 16.1941 167.974 16.2554 168.114 16.2919V16.8786C167.888 16.8454 167.685 16.7634 167.505 16.6325C167.326 16.5032 167.183 16.3317 167.077 16.1179C166.973 15.9058 166.92 15.6589 166.92 15.3771ZM166.911 18.8597C166.911 18.6178 166.956 18.3982 167.047 18.201C167.14 18.0038 167.273 17.8472 167.447 17.7312C167.623 17.6152 167.835 17.5572 168.084 17.5572C168.303 17.5572 168.48 17.6003 168.616 17.6864C168.753 17.7726 168.861 17.8878 168.939 18.032C169.017 18.1761 169.075 18.3352 169.113 18.5092C169.153 18.6849 169.184 18.8614 169.207 19.0387C169.237 19.2707 169.26 19.4588 169.275 19.603C169.291 19.7488 169.318 19.8549 169.357 19.9212C169.395 19.9891 169.461 20.0231 169.555 20.0231H169.575C169.821 20.0231 170.011 19.956 170.147 19.8217C170.283 19.6892 170.351 19.4878 170.351 19.2177C170.351 18.9376 170.29 18.718 170.167 18.5589C170.044 18.3999 169.913 18.288 169.774 18.2234L169.973 17.6665C170.205 17.766 170.386 17.8986 170.515 18.0643C170.646 18.2317 170.737 18.4139 170.788 18.6112C170.841 18.81 170.868 19.0056 170.868 19.1978C170.868 19.3204 170.853 19.4613 170.823 19.6204C170.795 19.7811 170.736 19.9361 170.647 20.0852C170.557 20.236 170.422 20.3612 170.241 20.4606C170.061 20.56 169.819 20.6097 169.516 20.6097H167V20.0231H167.517V19.9933C167.434 19.9535 167.346 19.8872 167.251 19.7944C167.157 19.7016 167.076 19.5781 167.01 19.424C166.944 19.2699 166.911 19.0818 166.911 18.8597ZM167.438 18.9492C167.438 19.1812 167.483 19.3768 167.574 19.5359C167.665 19.6966 167.783 19.8176 167.927 19.8988C168.071 19.9817 168.223 20.0231 168.382 20.0231H168.919C168.889 19.9982 168.862 19.9435 168.837 19.859C168.814 19.7762 168.793 19.68 168.775 19.5707C168.758 19.4629 168.743 19.3577 168.73 19.255C168.719 19.1539 168.709 19.0719 168.7 19.0089C168.68 18.8564 168.648 18.7139 168.603 18.5813C168.56 18.4504 168.495 18.3443 168.407 18.2631C168.321 18.1836 168.203 18.1438 168.054 18.1438C167.85 18.1438 167.696 18.2192 167.592 18.37C167.489 18.5225 167.438 18.7156 167.438 18.9492ZM172.091 22.2671H167V21.6805H172.091V22.2671ZM166.92 24.9425C166.92 24.5746 167.002 24.2572 167.164 23.9904C167.328 23.7253 167.557 23.5206 167.85 23.3764C168.145 23.2339 168.488 23.1626 168.879 23.1626C169.27 23.1626 169.615 23.2339 169.913 23.3764C170.213 23.5206 170.447 23.7211 170.614 23.978C170.783 24.2365 170.868 24.5381 170.868 24.8828C170.868 25.0817 170.835 25.2781 170.768 25.4719C170.702 25.6658 170.594 25.8423 170.445 26.0014C170.298 26.1605 170.102 26.2873 169.859 26.3817C169.615 26.4762 169.315 26.5234 168.959 26.5234H168.71V23.5803H169.217V25.9268C169.433 25.9268 169.625 25.8838 169.794 25.7976C169.963 25.7131 170.096 25.5921 170.194 25.4347C170.292 25.2789 170.341 25.0949 170.341 24.8828C170.341 24.6491 170.283 24.447 170.167 24.2763C170.053 24.1072 169.903 23.9772 169.719 23.886C169.536 23.7949 169.338 23.7493 169.128 23.7493H168.79C168.501 23.7493 168.257 23.799 168.056 23.8984C167.858 23.9995 167.706 24.1396 167.602 24.3185C167.499 24.4975 167.447 24.7055 167.447 24.9425C167.447 25.0966 167.469 25.2358 167.512 25.3601C167.557 25.486 167.623 25.5946 167.711 25.6857C167.8 25.7769 167.911 25.8473 168.044 25.897L167.885 26.4638C167.693 26.4041 167.524 26.3039 167.378 26.163C167.234 26.0221 167.121 25.8481 167.04 25.641C166.96 25.4338 166.92 25.201 166.92 24.9425ZM167 27.4158H170.818V27.9826H170.241V28.0224C170.43 28.092 170.584 28.2179 170.701 28.4002C170.819 28.5825 170.878 28.788 170.878 29.0167C170.878 29.0598 170.877 29.1136 170.875 29.1783C170.874 29.2429 170.871 29.2918 170.868 29.3249H170.271C170.276 29.305 170.284 29.2595 170.294 29.1882C170.305 29.1186 170.311 29.0449 170.311 28.967C170.311 28.7814 170.272 28.6156 170.194 28.4698C170.118 28.3256 170.012 28.2113 169.876 28.1268C169.742 28.0439 169.589 28.0025 169.416 28.0025H167V27.4158ZM166.911 31.1439C166.911 30.902 166.956 30.6824 167.047 30.4852C167.14 30.288 167.273 30.1314 167.447 30.0154C167.623 29.8994 167.835 29.8414 168.084 29.8414C168.303 29.8414 168.48 29.8844 168.616 29.9706C168.753 30.0568 168.861 30.172 168.939 30.3161C169.017 30.4603 169.075 30.6194 169.113 30.7934C169.153 30.9691 169.184 31.1456 169.207 31.3229C169.237 31.5549 169.26 31.743 169.275 31.8872C169.291 32.033 169.318 32.1391 169.357 32.2053C169.395 32.2733 169.461 32.3073 169.555 32.3073H169.575C169.821 32.3073 170.011 32.2401 170.147 32.1059C170.283 31.9733 170.351 31.772 170.351 31.5019C170.351 31.2218 170.29 31.0022 170.167 30.8431C170.044 30.684 169.913 30.5722 169.774 30.5075L169.973 29.9507C170.205 30.0502 170.386 30.1827 170.515 30.3485C170.646 30.5158 170.737 30.6981 170.788 30.8953C170.841 31.0942 170.868 31.2897 170.868 31.482C170.868 31.6046 170.853 31.7455 170.823 31.9046C170.795 32.0653 170.736 32.2203 170.647 32.3694C170.557 32.5202 170.422 32.6453 170.241 32.7448C170.061 32.8442 169.819 32.8939 169.516 32.8939H167V32.3073H167.517V32.2774C167.434 32.2377 167.346 32.1714 167.251 32.0786C167.157 31.9858 167.076 31.8623 167.01 31.7082C166.944 31.5541 166.911 31.366 166.911 31.1439ZM167.438 31.2334C167.438 31.4654 167.483 31.661 167.574 31.82C167.665 31.9808 167.783 32.1018 167.927 32.183C168.071 32.2658 168.223 32.3073 168.382 32.3073H168.919C168.889 32.2824 168.862 32.2277 168.837 32.1432C168.814 32.0603 168.793 31.9642 168.775 31.8548C168.758 31.7471 168.743 31.6419 168.73 31.5392C168.719 31.4381 168.709 31.356 168.7 31.2931C168.68 31.1406 168.648 30.9981 168.603 30.8655C168.56 30.7346 168.495 30.6285 168.407 30.5473C168.321 30.4678 168.203 30.428 168.054 30.428C167.85 30.428 167.696 30.5034 167.592 30.6542C167.489 30.8067 167.438 30.9997 167.438 31.2334ZM169.963 36.6692L169.814 36.1422C169.902 36.1091 169.987 36.0602 170.07 35.9956C170.154 35.9326 170.224 35.8464 170.279 35.737C170.333 35.6277 170.361 35.4876 170.361 35.3169C170.361 35.0833 170.307 34.8886 170.199 34.7328C170.093 34.5787 169.958 34.5016 169.794 34.5016C169.648 34.5016 169.533 34.5546 169.449 34.6607C169.364 34.7667 169.294 34.9325 169.237 35.1578L169.098 35.7246C169.015 36.066 168.888 36.3204 168.718 36.4877C168.549 36.6551 168.331 36.7388 168.064 36.7388C167.845 36.7388 167.65 36.6758 167.477 36.5499C167.305 36.4256 167.169 36.2516 167.07 36.0279C166.97 35.8042 166.92 35.544 166.92 35.2473C166.92 34.8579 167.005 34.5356 167.174 34.2804C167.343 34.0252 167.59 33.8636 167.915 33.7956L168.054 34.3525C167.848 34.4055 167.694 34.5057 167.592 34.6532C167.489 34.8024 167.438 34.9971 167.438 35.2374C167.438 35.5108 167.496 35.7279 167.612 35.8887C167.729 36.0511 167.87 36.1323 168.034 36.1323C168.167 36.1323 168.278 36.0859 168.367 35.9931C168.458 35.9003 168.526 35.7578 168.571 35.5655L168.72 34.9292C168.803 34.5795 168.931 34.3226 169.105 34.1586C169.281 33.9962 169.501 33.915 169.764 33.915C169.98 33.915 170.17 33.9754 170.336 34.0964C170.502 34.219 170.632 34.3856 170.726 34.5961C170.821 34.8082 170.868 35.0485 170.868 35.3169C170.868 35.6948 170.785 35.9914 170.619 36.2069C170.454 36.4239 170.235 36.5781 169.963 36.6692ZM167 39.6702H172.091V42.7426H171.544V40.2867H169.824V42.5835H169.277V40.2867H167.547V42.7824H167V39.6702ZM169.963 46.4788L169.814 45.9518C169.902 45.9186 169.987 45.8698 170.07 45.8051C170.154 45.7422 170.224 45.656 170.279 45.5466C170.333 45.4372 170.361 45.2972 170.361 45.1265C170.361 44.8928 170.307 44.6981 170.199 44.5423C170.093 44.3882 169.958 44.3112 169.794 44.3112C169.648 44.3112 169.533 44.3642 169.449 44.4703C169.364 44.5763 169.294 44.742 169.237 44.9674L169.098 45.5342C169.015 45.8756 168.888 46.1299 168.718 46.2973C168.549 46.4647 168.331 46.5484 168.064 46.5484C167.845 46.5484 167.65 46.4854 167.477 46.3595C167.305 46.2352 167.169 46.0612 167.07 45.8374C166.97 45.6137 166.92 45.3535 166.92 45.0569C166.92 44.6675 167.005 44.3451 167.174 44.0899C167.343 43.8347 167.59 43.6731 167.915 43.6052L168.054 44.162C167.848 44.2151 167.694 44.3153 167.592 44.4628C167.489 44.6119 167.438 44.8067 167.438 45.047C167.438 45.3204 167.496 45.5375 167.612 45.6982C167.729 45.8606 167.87 45.9419 168.034 45.9419C168.167 45.9419 168.278 45.8954 168.367 45.8026C168.458 45.7098 168.526 45.5673 168.571 45.3751L168.72 44.7387C168.803 44.3891 168.931 44.1322 169.105 43.9681C169.281 43.8057 169.501 43.7245 169.764 43.7245C169.98 43.7245 170.17 43.785 170.336 43.906C170.502 44.0286 170.632 44.1952 170.726 44.4056C170.821 44.6177 170.868 44.858 170.868 45.1265C170.868 45.5044 170.785 45.801 170.619 46.0164C170.454 46.2335 170.235 46.3876 169.963 46.4788ZM166.92 48.9826C166.92 48.6246 167.005 48.3164 167.174 48.0579C167.343 47.7994 167.576 47.6005 167.873 47.4613C168.169 47.3221 168.508 47.2525 168.889 47.2525C169.277 47.2525 169.619 47.3237 169.916 47.4663C170.214 47.6104 170.447 47.811 170.614 48.0678C170.783 48.3263 170.868 48.628 170.868 48.9727C170.868 49.2411 170.818 49.4831 170.719 49.6985C170.619 49.9139 170.48 50.0904 170.301 50.228C170.122 50.3655 169.913 50.4509 169.675 50.484V49.8974C169.849 49.8526 170.003 49.7532 170.137 49.5991C170.273 49.4466 170.341 49.2411 170.341 48.9826C170.341 48.7539 170.281 48.5534 170.162 48.381C170.044 48.2103 169.878 48.0769 169.662 47.9808C169.449 47.8864 169.197 47.8391 168.909 47.8391C168.614 47.8391 168.357 47.8855 168.138 47.9783C167.92 48.0728 167.75 48.2054 167.629 48.3761C167.508 48.5484 167.447 48.7506 167.447 48.9826C167.447 49.1351 167.474 49.2734 167.527 49.3977C167.58 49.522 167.656 49.6272 167.756 49.7134C167.855 49.7996 167.974 49.8609 168.114 49.8974V50.484C167.888 50.4509 167.685 50.3688 167.505 50.2379C167.326 50.1087 167.183 49.9371 167.077 49.7234C166.973 49.5112 166.92 49.2643 166.92 48.9826ZM168.561 53.7479H170.818V54.3345H167V53.7479H167.646V53.7081C167.452 53.6186 167.288 53.4794 167.152 53.2905C167.017 53.1016 166.95 52.8629 166.95 52.5746C166.95 52.3359 167.002 52.1238 167.107 51.9382C167.213 51.7526 167.372 51.6068 167.584 51.5007C167.798 51.3946 168.067 51.3416 168.392 51.3416H170.818V51.9283H168.432C168.153 51.9283 167.931 52.0062 167.766 52.1619C167.6 52.3194 167.517 52.5199 167.517 52.7635C167.517 52.9093 167.554 53.0576 167.629 53.2085C167.703 53.3609 167.818 53.4885 167.972 53.5913C168.126 53.6957 168.322 53.7479 168.561 53.7479ZM166.92 57.0099C166.92 56.642 167.002 56.3246 167.164 56.0578C167.328 55.7926 167.557 55.588 167.85 55.4438C168.145 55.3013 168.488 55.23 168.879 55.23C169.27 55.23 169.615 55.3013 169.913 55.4438C170.213 55.588 170.447 55.7885 170.614 56.0454C170.783 56.3039 170.868 56.6055 170.868 56.9502C170.868 57.1491 170.835 57.3454 170.768 57.5393C170.702 57.7332 170.594 57.9097 170.445 58.0688C170.298 58.2279 170.102 58.3547 169.859 58.4491C169.615 58.5436 169.315 58.5908 168.959 58.5908H168.71V55.6476H169.217V57.9942C169.433 57.9942 169.625 57.9511 169.794 57.865C169.963 57.7805 170.096 57.6595 170.194 57.502C170.292 57.3463 170.341 57.1623 170.341 56.9502C170.341 56.7165 170.283 56.5144 170.167 56.3437C170.053 56.1746 169.903 56.0445 169.719 55.9534C169.536 55.8622 169.338 55.8167 169.128 55.8167H168.79C168.501 55.8167 168.257 55.8664 168.056 55.9658C167.858 56.0669 167.706 56.2069 167.602 56.3859C167.499 56.5649 167.447 56.7729 167.447 57.0099C167.447 57.164 167.469 57.3032 167.512 57.4275C167.557 57.5534 167.623 57.662 167.711 57.7531C167.8 57.8443 167.911 57.9147 168.044 57.9644L167.885 58.5312C167.693 58.4715 167.524 58.3712 167.378 58.2304C167.234 58.0895 167.121 57.9155 167.04 57.7084C166.96 57.5012 166.92 57.2684 166.92 57.0099ZM172.091 60.0699H167V59.4832H172.091V60.0699ZM166.911 62.2679C166.911 62.026 166.956 61.8064 167.047 61.6092C167.14 61.412 167.273 61.2554 167.447 61.1394C167.623 61.0234 167.835 60.9654 168.084 60.9654C168.303 60.9654 168.48 61.0085 168.616 61.0946C168.753 61.1808 168.861 61.296 168.939 61.4402C169.017 61.5843 169.075 61.7434 169.113 61.9174C169.153 62.0931 169.184 62.2696 169.207 62.4469C169.237 62.6789 169.26 62.867 169.275 63.0112C169.291 63.157 169.318 63.2631 169.357 63.3294C169.395 63.3973 169.461 63.4313 169.555 63.4313H169.575C169.821 63.4313 170.011 63.3642 170.147 63.2299C170.283 63.0974 170.351 62.896 170.351 62.6259C170.351 62.3458 170.29 62.1262 170.167 61.9672C170.044 61.8081 169.913 61.6962 169.774 61.6316L169.973 61.0748C170.205 61.1742 170.386 61.3068 170.515 61.4725C170.646 61.6399 170.737 61.8221 170.788 62.0194C170.841 62.2182 170.868 62.4138 170.868 62.606C170.868 62.7286 170.853 62.8695 170.823 63.0286C170.795 63.1893 170.736 63.3443 170.647 63.4934C170.557 63.6442 170.422 63.7694 170.241 63.8688C170.061 63.9682 169.819 64.0179 169.516 64.0179H167V63.4313H167.517V63.4015C167.434 63.3617 167.346 63.2954 167.251 63.2026C167.157 63.1098 167.076 62.9863 167.01 62.8322C166.944 62.6781 166.911 62.49 166.911 62.2679ZM167.438 62.3574C167.438 62.5894 167.483 62.785 167.574 62.9441C167.665 63.1048 167.783 63.2258 167.927 63.307C168.071 63.3899 168.223 63.4313 168.382 63.4313H168.919C168.889 63.4064 168.862 63.3517 168.837 63.2672C168.814 63.1844 168.793 63.0882 168.775 62.9789C168.758 62.8712 168.743 62.7659 168.73 62.6632C168.719 62.5621 168.709 62.4801 168.7 62.4171C168.68 62.2646 168.648 62.1221 168.603 61.9895C168.56 61.8586 168.495 61.7525 168.407 61.6713C168.321 61.5918 168.203 61.552 168.054 61.552C167.85 61.552 167.696 61.6274 167.592 61.7782C167.489 61.9307 167.438 62.1238 167.438 62.3574ZM158.92 16.9562C158.92 16.6381 159.001 16.3572 159.162 16.1135C159.324 15.8699 159.553 15.6794 159.848 15.5418C160.144 15.4043 160.495 15.3355 160.899 15.3355C161.3 15.3355 161.648 15.4043 161.943 15.5418C162.238 15.6794 162.466 15.8708 162.627 16.116C162.788 16.3613 162.868 16.6447 162.868 16.9662C162.868 17.2148 162.826 17.4111 162.744 17.5553C162.662 17.7011 162.57 17.8122 162.465 17.8884C162.362 17.9663 162.278 18.0268 162.212 18.0699V18.1196H164.091V18.7062L159 18.7062V18.1395L159.587 18.1395V18.0699C159.517 18.0268 159.429 17.9655 159.323 17.8859C159.219 17.8064 159.125 17.6929 159.042 17.5454C158.961 17.3979 158.92 17.2015 158.92 16.9562ZM159.447 17.0358C159.447 17.2711 159.509 17.47 159.631 17.6324C159.756 17.7948 159.927 17.9182 160.146 18.0028C160.366 18.0873 160.621 18.1295 160.909 18.1295C161.194 18.1295 161.444 18.0881 161.657 18.0052C161.873 17.9224 162.04 17.7997 162.159 17.6373C162.28 17.4749 162.341 17.2744 162.341 17.0358C162.341 16.7872 162.277 16.58 162.15 16.4143C162.024 16.2503 161.852 16.1268 161.635 16.0439C161.42 15.9627 161.178 15.9221 160.909 15.9221C160.637 15.9221 160.39 15.9636 160.168 16.0464C159.948 16.1309 159.772 16.2552 159.641 16.4193C159.512 16.585 159.447 16.7905 159.447 17.0358ZM158.92 21.463C158.92 21.0951 159.002 20.7777 159.164 20.5109C159.328 20.2458 159.557 20.0411 159.85 19.8969C160.145 19.7544 160.488 19.6831 160.879 19.6831C161.27 19.6831 161.615 19.7544 161.913 19.8969C162.213 20.0411 162.447 20.2416 162.614 20.4985C162.783 20.757 162.868 21.0586 162.868 21.4033C162.868 21.6022 162.835 21.7986 162.768 21.9925C162.702 22.1863 162.594 22.3628 162.445 22.5219C162.298 22.681 162.102 22.8078 161.859 22.9023C161.615 22.9967 161.315 23.0439 160.959 23.0439H160.71V20.1008H161.217V22.4474C161.433 22.4474 161.625 22.4043 161.794 22.3181C161.963 22.2336 162.096 22.1126 162.194 21.9552C162.292 21.7994 162.341 21.6154 162.341 21.4033C162.341 21.1697 162.283 20.9675 162.167 20.7968C162.053 20.6278 161.903 20.4977 161.719 20.4065C161.536 20.3154 161.338 20.2698 161.128 20.2698H160.79C160.501 20.2698 160.257 20.3195 160.056 20.4189C159.858 20.52 159.706 20.6601 159.602 20.839C159.499 21.018 159.447 21.226 159.447 21.463C159.447 21.6171 159.469 21.7563 159.512 21.8806C159.557 22.0065 159.623 22.1151 159.711 22.2062C159.8 22.2974 159.911 22.3678 160.044 22.4175L159.885 22.9843C159.693 22.9246 159.524 22.8244 159.378 22.6835C159.234 22.5426 159.121 22.3686 159.04 22.1615C158.96 21.9543 158.92 21.7215 158.92 21.463ZM159 25.9051H162.818V26.4719H162.222V26.5216C162.425 26.6011 162.584 26.7296 162.696 26.9069C162.811 27.0842 162.868 27.2971 162.868 27.5457C162.868 27.7976 162.811 28.0073 162.696 28.1746C162.584 28.3437 162.425 28.4754 162.222 28.5699V28.6096C162.419 28.7074 162.575 28.8541 162.691 29.0496C162.809 29.2452 162.868 29.4797 162.868 29.7531C162.868 30.0945 162.761 30.3737 162.547 30.5908C162.335 30.8079 162.004 30.9165 161.555 30.9165H159V30.3298H161.555C161.837 30.3298 162.038 30.2528 162.159 30.0986C162.28 29.9445 162.341 29.7631 162.341 29.5542C162.341 29.2858 162.26 29.0778 162.097 28.9303C161.937 28.7828 161.733 28.7091 161.486 28.7091H159V28.1125H161.615C161.832 28.1125 162.007 28.0421 162.14 27.9012C162.274 27.7603 162.341 27.5789 162.341 27.3568C162.341 27.2043 162.3 27.0618 162.219 26.9292C162.138 26.7983 162.025 26.6923 161.881 26.6111C161.739 26.5315 161.574 26.4917 161.386 26.4917H159V25.9051ZM158.92 33.5899C158.92 33.222 159.002 32.9047 159.164 32.6379C159.328 32.3727 159.557 32.1681 159.85 32.0239C160.145 31.8814 160.488 31.8101 160.879 31.8101C161.27 31.8101 161.615 31.8814 161.913 32.0239C162.213 32.1681 162.447 32.3686 162.614 32.6254C162.783 32.884 162.868 33.1856 162.868 33.5303C162.868 33.7291 162.835 33.9255 162.768 34.1194C162.702 34.3133 162.594 34.4898 162.445 34.6489C162.298 34.808 162.102 34.9347 161.859 35.0292C161.615 35.1237 161.315 35.1709 160.959 35.1709H160.71V32.2277H161.217V34.5743C161.433 34.5743 161.625 34.5312 161.794 34.445C161.963 34.3605 162.096 34.2396 162.194 34.0821C162.292 33.9263 162.341 33.7424 162.341 33.5303C162.341 33.2966 162.283 33.0944 162.167 32.9237C162.053 32.7547 161.903 32.6246 161.719 32.5335C161.536 32.4423 161.338 32.3968 161.128 32.3968H160.79C160.501 32.3968 160.257 32.4465 160.056 32.5459C159.858 32.647 159.706 32.787 159.602 32.966C159.499 33.145 159.447 33.353 159.447 33.5899C159.447 33.7441 159.469 33.8833 159.512 34.0075C159.557 34.1335 159.623 34.242 159.711 34.3332C159.8 34.4243 159.911 34.4948 160.044 34.5445L159.885 35.1112C159.693 35.0516 159.524 34.9513 159.378 34.8105C159.234 34.6696 159.121 34.4956 159.04 34.2884C158.96 34.0813 158.92 33.8485 158.92 33.5899ZM158.92 37.6144C158.92 37.2565 159.005 36.9482 159.174 36.6897C159.343 36.4312 159.576 36.2323 159.873 36.0931C160.169 35.9539 160.508 35.8843 160.889 35.8843C161.277 35.8843 161.619 35.9556 161.916 36.0981C162.214 36.2423 162.447 36.4428 162.614 36.6997C162.783 36.9582 162.868 37.2598 162.868 37.6045C162.868 37.873 162.818 38.1149 162.719 38.3303C162.619 38.5458 162.48 38.7223 162.301 38.8598C162.122 38.9974 161.913 39.0827 161.675 39.1159V38.5292C161.849 38.4845 162.003 38.385 162.137 38.2309C162.273 38.0785 162.341 37.873 162.341 37.6144C162.341 37.3857 162.281 37.1852 162.162 37.0129C162.044 36.8422 161.878 36.7088 161.662 36.6127C161.449 36.5182 161.197 36.471 160.909 36.471C160.614 36.471 160.357 36.5174 160.138 36.6102C159.92 36.7046 159.75 36.8372 159.629 37.0079C159.508 37.1802 159.447 37.3824 159.447 37.6144C159.447 37.7669 159.474 37.9053 159.527 38.0296C159.58 38.1539 159.656 38.2591 159.756 38.3453C159.855 38.4314 159.974 38.4927 160.114 38.5292V39.1159C159.888 39.0827 159.685 39.0007 159.505 38.8698C159.326 38.7405 159.183 38.569 159.077 38.3552C158.973 38.1431 158.92 37.8962 158.92 37.6144ZM158.911 41.097C158.911 40.8551 158.956 40.6355 159.047 40.4383C159.14 40.2411 159.273 40.0845 159.447 39.9685C159.623 39.8525 159.835 39.7945 160.084 39.7945C160.303 39.7945 160.48 39.8376 160.616 39.9237C160.753 40.0099 160.861 40.1251 160.939 40.2693C161.017 40.4134 161.075 40.5725 161.113 40.7465C161.153 40.9222 161.184 41.0987 161.207 41.276C161.237 41.508 161.26 41.6961 161.275 41.8403C161.291 41.9861 161.318 42.0922 161.357 42.1585C161.395 42.2264 161.461 42.2604 161.555 42.2604H161.575C161.821 42.2604 162.011 42.1933 162.147 42.059C162.283 41.9265 162.351 41.7251 162.351 41.455C162.351 41.1749 162.29 40.9553 162.167 40.7963C162.044 40.6372 161.913 40.5253 161.774 40.4607L161.973 39.9039C162.205 40.0033 162.386 40.1359 162.515 40.3016C162.646 40.469 162.737 40.6512 162.788 40.8485C162.841 41.0473 162.868 41.2429 162.868 41.4351C162.868 41.5577 162.853 41.6986 162.823 41.8577C162.795 42.0184 162.736 42.1734 162.647 42.3225C162.557 42.4733 162.422 42.5985 162.241 42.6979C162.061 42.7973 161.819 42.847 161.516 42.847H159V42.2604H159.517V42.2306C159.434 42.1908 159.346 42.1245 159.251 42.0317C159.157 41.9389 159.076 41.8154 159.01 41.6613C158.944 41.5072 158.911 41.3191 158.911 41.097ZM159.438 41.1865C159.438 41.4185 159.483 41.6141 159.574 41.7732C159.665 41.9339 159.783 42.0549 159.927 42.1361C160.071 42.219 160.223 42.2604 160.382 42.2604H160.919C160.889 42.2355 160.862 42.1808 160.837 42.0963C160.814 42.0135 160.793 41.9173 160.775 41.808C160.758 41.7003 160.743 41.595 160.73 41.4923C160.719 41.3912 160.709 41.3092 160.7 41.2462C160.68 41.0937 160.648 40.9512 160.603 40.8186C160.56 40.6877 160.495 40.5816 160.407 40.5004C160.321 40.4209 160.203 40.3811 160.054 40.3811C159.85 40.3811 159.696 40.4565 159.592 40.6073C159.489 40.7598 159.438 40.9529 159.438 41.1865ZM161.297 44.5044H159V43.9178H162.818V44.4846H162.222V44.5343C162.415 44.6238 162.571 44.7596 162.689 44.9419C162.808 45.1242 162.868 45.3596 162.868 45.6479C162.868 45.9064 162.815 46.1326 162.709 46.3265C162.604 46.5204 162.445 46.6712 162.232 46.7789C162.019 46.8867 161.751 46.9405 161.426 46.9405H159V46.3539H161.386C161.686 46.3539 161.92 46.276 162.087 46.1202C162.256 45.9644 162.341 45.7507 162.341 45.4789C162.341 45.2916 162.3 45.1242 162.219 44.9767C162.138 44.8309 162.019 44.7157 161.864 44.6312C161.708 44.5467 161.519 44.5044 161.297 44.5044ZM159 48.0125H162.818V48.5992H159V48.0125ZM163.455 48.3108C163.455 48.1965 163.493 48.0979 163.571 48.015C163.649 47.9338 163.743 47.8932 163.852 47.8932C163.962 47.8932 164.055 47.9338 164.133 48.015C164.211 48.0979 164.25 48.1965 164.25 48.3108C164.25 48.4252 164.211 48.5229 164.133 48.6041C164.055 48.687 163.962 48.7284 163.852 48.7284C163.743 48.7284 163.649 48.687 163.571 48.6041C163.493 48.5229 163.455 48.4252 163.455 48.3108ZM158.92 51.2248C158.92 50.8668 159.005 50.5586 159.174 50.3001C159.343 50.0415 159.576 49.8427 159.873 49.7035C160.169 49.5643 160.508 49.4947 160.889 49.4947C161.277 49.4947 161.619 49.5659 161.916 49.7085C162.214 49.8526 162.447 50.0531 162.614 50.31C162.783 50.5685 162.868 50.8701 162.868 51.2148C162.868 51.4833 162.818 51.7253 162.719 51.9407C162.619 52.1561 162.48 52.3326 162.301 52.4702C162.122 52.6077 161.913 52.6931 161.675 52.7262V52.1396C161.849 52.0948 162.003 51.9954 162.137 51.8413C162.273 51.6888 162.341 51.4833 162.341 51.2248C162.341 50.9961 162.281 50.7956 162.162 50.6232C162.044 50.4525 161.878 50.3191 161.662 50.223C161.449 50.1286 161.197 50.0813 160.909 50.0813C160.614 50.0813 160.357 50.1277 160.138 50.2205C159.92 50.315 159.75 50.4476 159.629 50.6183C159.508 50.7906 159.447 50.9928 159.447 51.2248C159.447 51.3772 159.474 51.5156 159.527 51.6399C159.58 51.7642 159.656 51.8694 159.756 51.9556C159.855 52.0418 159.974 52.1031 160.114 52.1396V52.7262C159.888 52.6931 159.685 52.611 159.505 52.4801C159.326 52.3509 159.183 52.1793 159.077 51.9656C158.973 51.7534 158.92 51.5065 158.92 51.2248ZM158.911 54.7074C158.911 54.4654 158.956 54.2459 159.047 54.0487C159.14 53.8514 159.273 53.6948 159.447 53.5788C159.623 53.4628 159.835 53.4048 160.084 53.4048C160.303 53.4048 160.48 53.4479 160.616 53.5341C160.753 53.6203 160.861 53.7354 160.939 53.8796C161.017 54.0238 161.075 54.1829 161.113 54.3569C161.153 54.5326 161.184 54.709 161.207 54.8864C161.237 55.1184 161.26 55.3065 161.275 55.4506C161.291 55.5965 161.318 55.7025 161.357 55.7688C161.395 55.8368 161.461 55.8707 161.555 55.8707H161.575C161.821 55.8707 162.011 55.8036 162.147 55.6694C162.283 55.5368 162.351 55.3355 162.351 55.0653C162.351 54.7853 162.29 54.5657 162.167 54.4066C162.044 54.2475 161.913 54.1357 161.774 54.071L161.973 53.5142C162.205 53.6136 162.386 53.7462 162.515 53.9119C162.646 54.0793 162.737 54.2616 162.788 54.4588C162.841 54.6577 162.868 54.8532 162.868 55.0455C162.868 55.1681 162.853 55.3089 162.823 55.468C162.795 55.6288 162.736 55.7837 162.647 55.9329C162.557 56.0837 162.422 56.2088 162.241 56.3082C162.061 56.4077 161.819 56.4574 161.516 56.4574H159V55.8707H159.517V55.8409C159.434 55.8011 159.346 55.7348 159.251 55.642C159.157 55.5492 159.076 55.4258 159.01 55.2717C158.944 55.1175 158.911 54.9295 158.911 54.7074ZM159.438 54.7969C159.438 55.0289 159.483 55.2244 159.574 55.3835C159.665 55.5443 159.783 55.6652 159.927 55.7464C160.071 55.8293 160.223 55.8707 160.382 55.8707H160.919C160.889 55.8459 160.862 55.7912 160.837 55.7067C160.814 55.6238 160.793 55.5277 160.775 55.4183C160.758 55.3106 160.743 55.2054 160.73 55.1026C160.719 55.0015 160.709 54.9195 160.7 54.8565C160.68 54.7041 160.648 54.5616 160.603 54.429C160.56 54.2981 160.495 54.192 160.407 54.1108C160.321 54.0313 160.203 53.9915 160.054 53.9915C159.85 53.9915 159.696 54.0669 159.592 54.2177C159.489 54.3701 159.438 54.5632 159.438 54.7969Z" fill="black"/>
<rect id="Rectangle 58" y="70" width="181" height="101" fill="#F5F0E8"/>
<rect id="Escaleras-m1-1-2" x="73" y="171" width="88" height="53" fill="#EF9A9A"/>
<rect id="Rectangle 70" y="171" width="73" height="52" fill="#F5F0E8"/>
</g>
<defs>
<clipPath id="clip0_2_141">
<rect width="181" height="223" fill="white"/>
</clipPath>
</defs>
</svg>
