<svg width="181" height="223" viewBox="0 0 181 223" fill="none" xmlns="http://www.w3.org/2000/svg">
<g id="M1_piso3" clip-path="url(#clip0_2_288)">
<rect width="181" height="223" fill="white"/>
<g id="m1-304">
<rect id="Rectangle 62" width="73" height="55" fill="#BDD7EE"/>
<path id="M1-304" d="M8.38875 21.1473H9.22966L11.2069 25.9769H11.2751L13.2524 21.1473H14.0933V26.9655H13.4342V22.5451H13.3774L11.5592 26.9655H10.9228L9.10466 22.5451H9.04784V26.9655H8.38875V21.1473ZM17.4491 21.1473V26.9655H16.7446V21.886H16.7105L15.29 22.8292V22.1132L16.7446 21.1473H17.4491ZM21.6338 23.7439V24.3689H19.0883V23.7439H21.6338ZM24.6743 27.0451C24.2993 27.0451 23.965 26.9807 23.6714 26.8519C23.3798 26.7231 23.1477 26.5441 22.9754 26.3149C22.8049 26.0839 22.7121 25.8159 22.697 25.511H23.4129C23.428 25.6985 23.4924 25.8604 23.6061 25.9968C23.7197 26.1312 23.8684 26.2354 24.0521 26.3093C24.2358 26.3831 24.4394 26.4201 24.6629 26.4201C24.9129 26.4201 25.1345 26.3765 25.3277 26.2894C25.5209 26.2023 25.6724 26.081 25.7822 25.9257C25.8921 25.7704 25.947 25.5905 25.947 25.386C25.947 25.172 25.894 24.9835 25.7879 24.8206C25.6818 24.6559 25.5265 24.5271 25.322 24.4343C25.1174 24.3415 24.8674 24.2951 24.572 24.2951H24.1061V23.6701H24.572C24.803 23.6701 25.0057 23.6284 25.1799 23.5451C25.3561 23.4617 25.4934 23.3443 25.5919 23.1928C25.6923 23.0413 25.7424 22.8632 25.7424 22.6587C25.7424 22.4617 25.6989 22.2903 25.6118 22.1445C25.5246 21.9987 25.4015 21.885 25.2424 21.8036C25.0852 21.7221 24.8996 21.6814 24.6856 21.6814C24.4849 21.6814 24.2955 21.7184 24.1174 21.7922C23.9413 21.8642 23.7974 21.9693 23.6856 22.1076C23.5739 22.2439 23.5133 22.4087 23.5038 22.6019H22.822C22.8334 22.297 22.9252 22.0299 23.0976 21.8007C23.2699 21.5697 23.4953 21.3898 23.7737 21.261C24.054 21.1322 24.3618 21.0678 24.697 21.0678C25.0568 21.0678 25.3655 21.1407 25.6231 21.2865C25.8807 21.4305 26.0786 21.6208 26.2169 21.8576C26.3551 22.0943 26.4243 22.35 26.4243 22.6246C26.4243 22.9523 26.3381 23.2316 26.1657 23.4627C25.9953 23.6937 25.7633 23.8538 25.4697 23.9428V23.9882C25.8371 24.0488 26.1241 24.2051 26.3305 24.457C26.537 24.707 26.6402 25.0167 26.6402 25.386C26.6402 25.7023 26.554 25.9863 26.3816 26.2382C26.2112 26.4882 25.9782 26.6852 25.6828 26.8292C25.3873 26.9731 25.0512 27.0451 24.6743 27.0451ZM29.6998 27.0451C29.2718 27.0451 28.9072 26.9286 28.6061 26.6956C28.3049 26.4608 28.0748 26.1208 27.9157 25.6757C27.7566 25.2288 27.6771 24.689 27.6771 24.0564C27.6771 23.4276 27.7566 22.8907 27.9157 22.4456C28.0767 21.9987 28.3078 21.6577 28.6089 21.4229C28.912 21.1862 29.2756 21.0678 29.6998 21.0678C30.1241 21.0678 30.4868 21.1862 30.7879 21.4229C31.0909 21.6577 31.322 21.9987 31.4811 22.4456C31.6421 22.8907 31.7226 23.4276 31.7226 24.0564C31.7226 24.689 31.643 25.2288 31.4839 25.6757C31.3248 26.1208 31.0947 26.4608 30.7936 26.6956C30.4924 26.9286 30.1279 27.0451 29.6998 27.0451ZM29.6998 26.4201C30.1241 26.4201 30.4536 26.2155 30.6885 25.8064C30.9233 25.3973 31.0407 24.814 31.0407 24.0564C31.0407 23.5526 30.9868 23.1237 30.8788 22.7695C30.7727 22.4153 30.6193 22.1454 30.4186 21.9598C30.2197 21.7742 29.9801 21.6814 29.6998 21.6814C29.2794 21.6814 28.9508 21.8888 28.714 22.3036C28.4773 22.7165 28.3589 23.3007 28.3589 24.0564C28.3589 24.5602 28.412 24.9882 28.518 25.3405C28.6241 25.6928 28.7765 25.9608 28.9754 26.1445C29.1762 26.3282 29.4176 26.4201 29.6998 26.4201ZM32.6657 25.7723V25.1928L35.2226 21.1473H35.643V22.0451H35.3589L33.4271 25.1019V25.1473H36.8703V25.7723H32.6657ZM35.4044 26.9655V25.5962V25.3263V21.1473H36.0748V26.9655H35.4044Z" fill="black"/>
</g>
<g id="m1-301">
<rect id="Rectangle 62_2" y="163" width="73" height="60" fill="#BDD7EE"/>
<path id="M1-301" d="M8.38875 185.872H9.22966L11.2069 190.701H11.2751L13.2524 185.872H14.0933V191.69H13.4342V187.269H13.3774L11.5592 191.69H10.9228L9.10466 187.269H9.04784V191.69H8.38875V185.872ZM17.4491 185.872V191.69H16.7446V186.61H16.7105L15.29 187.553V186.837L16.7446 185.872H17.4491ZM21.6338 188.468V189.093H19.0883V188.468H21.6338ZM24.6743 191.769C24.2993 191.769 23.965 191.705 23.6714 191.576C23.3798 191.447 23.1477 191.268 22.9754 191.039C22.8049 190.808 22.7121 190.54 22.697 190.235H23.4129C23.428 190.423 23.4924 190.585 23.6061 190.721C23.7197 190.855 23.8684 190.96 24.0521 191.033C24.2358 191.107 24.4394 191.144 24.6629 191.144C24.9129 191.144 25.1345 191.101 25.3277 191.014C25.5209 190.926 25.6724 190.805 25.7822 190.65C25.8921 190.495 25.947 190.315 25.947 190.11C25.947 189.896 25.894 189.708 25.7879 189.545C25.6818 189.38 25.5265 189.251 25.322 189.158C25.1174 189.066 24.8674 189.019 24.572 189.019H24.1061V188.394H24.572C24.803 188.394 25.0057 188.353 25.1799 188.269C25.3561 188.186 25.4934 188.068 25.5919 187.917C25.6923 187.765 25.7424 187.587 25.7424 187.383C25.7424 187.186 25.6989 187.015 25.6118 186.869C25.5246 186.723 25.4015 186.609 25.2424 186.528C25.0852 186.446 24.8996 186.406 24.6856 186.406C24.4849 186.406 24.2955 186.443 24.1174 186.516C23.9413 186.588 23.7974 186.693 23.6856 186.832C23.5739 186.968 23.5133 187.133 23.5038 187.326H22.822C22.8334 187.021 22.9252 186.754 23.0976 186.525C23.2699 186.294 23.4953 186.114 23.7737 185.985C24.054 185.856 24.3618 185.792 24.697 185.792C25.0568 185.792 25.3655 185.865 25.6231 186.011C25.8807 186.155 26.0786 186.345 26.2169 186.582C26.3551 186.818 26.4243 187.074 26.4243 187.349C26.4243 187.676 26.3381 187.956 26.1657 188.187C25.9953 188.418 25.7633 188.578 25.4697 188.667V188.712C25.8371 188.773 26.1241 188.929 26.3305 189.181C26.537 189.431 26.6402 189.741 26.6402 190.11C26.6402 190.426 26.554 190.711 26.3816 190.962C26.2112 191.212 25.9782 191.409 25.6828 191.553C25.3873 191.697 25.0512 191.769 24.6743 191.769ZM29.6998 191.769C29.2718 191.769 28.9072 191.653 28.6061 191.42C28.3049 191.185 28.0748 190.845 27.9157 190.4C27.7566 189.953 27.6771 189.413 27.6771 188.781C27.6771 188.152 27.7566 187.615 27.9157 187.17C28.0767 186.723 28.3078 186.382 28.6089 186.147C28.912 185.91 29.2756 185.792 29.6998 185.792C30.1241 185.792 30.4868 185.91 30.7879 186.147C31.0909 186.382 31.322 186.723 31.4811 187.17C31.6421 187.615 31.7226 188.152 31.7226 188.781C31.7226 189.413 31.643 189.953 31.4839 190.4C31.3248 190.845 31.0947 191.185 30.7936 191.42C30.4924 191.653 30.1279 191.769 29.6998 191.769ZM29.6998 191.144C30.1241 191.144 30.4536 190.94 30.6885 190.531C30.9233 190.122 31.0407 189.538 31.0407 188.781C31.0407 188.277 30.9868 187.848 30.8788 187.494C30.7727 187.14 30.6193 186.87 30.4186 186.684C30.2197 186.498 29.9801 186.406 29.6998 186.406C29.2794 186.406 28.9508 186.613 28.714 187.028C28.4773 187.441 28.3589 188.025 28.3589 188.781C28.3589 189.284 28.412 189.712 28.518 190.065C28.6241 190.417 28.7765 190.685 28.9754 190.869C29.1762 191.052 29.4176 191.144 29.6998 191.144ZM34.8476 185.872V191.69H34.143V186.61H34.1089L32.6885 187.553V186.837L34.143 185.872H34.8476Z" fill="black"/>
</g>
<g id="m1-302">
<rect id="Rectangle 62_3" y="108" width="73" height="55" fill="#BDD7EE"/>
<path id="M1-302" d="M8.38875 129.147H9.22966L11.2069 133.977H11.2751L13.2524 129.147H14.0933V134.965H13.4342V130.545H13.3774L11.5592 134.965H10.9228L9.10466 130.545H9.04784V134.965H8.38875V129.147ZM17.4491 129.147V134.965H16.7446V129.886H16.7105L15.29 130.829V130.113L16.7446 129.147H17.4491ZM21.6338 131.744V132.369H19.0883V131.744H21.6338ZM24.6743 135.045C24.2993 135.045 23.965 134.981 23.6714 134.852C23.3798 134.723 23.1477 134.544 22.9754 134.315C22.8049 134.084 22.7121 133.816 22.697 133.511H23.4129C23.428 133.698 23.4924 133.86 23.6061 133.997C23.7197 134.131 23.8684 134.235 24.0521 134.309C24.2358 134.383 24.4394 134.42 24.6629 134.42C24.9129 134.42 25.1345 134.376 25.3277 134.289C25.5209 134.202 25.6724 134.081 25.7822 133.926C25.8921 133.77 25.947 133.59 25.947 133.386C25.947 133.172 25.894 132.983 25.7879 132.821C25.6818 132.656 25.5265 132.527 25.322 132.434C25.1174 132.341 24.8674 132.295 24.572 132.295H24.1061V131.67H24.572C24.803 131.67 25.0057 131.628 25.1799 131.545C25.3561 131.462 25.4934 131.344 25.5919 131.193C25.6923 131.041 25.7424 130.863 25.7424 130.659C25.7424 130.462 25.6989 130.29 25.6118 130.144C25.5246 129.999 25.4015 129.885 25.2424 129.804C25.0852 129.722 24.8996 129.681 24.6856 129.681C24.4849 129.681 24.2955 129.718 24.1174 129.792C23.9413 129.864 23.7974 129.969 23.6856 130.108C23.5739 130.244 23.5133 130.409 23.5038 130.602H22.822C22.8334 130.297 22.9252 130.03 23.0976 129.801C23.2699 129.57 23.4953 129.39 23.7737 129.261C24.054 129.132 24.3618 129.068 24.697 129.068C25.0568 129.068 25.3655 129.141 25.6231 129.287C25.8807 129.43 26.0786 129.621 26.2169 129.858C26.3551 130.094 26.4243 130.35 26.4243 130.625C26.4243 130.952 26.3381 131.232 26.1657 131.463C25.9953 131.694 25.7633 131.854 25.4697 131.943V131.988C25.8371 132.049 26.1241 132.205 26.3305 132.457C26.537 132.707 26.6402 133.017 26.6402 133.386C26.6402 133.702 26.554 133.986 26.3816 134.238C26.2112 134.488 25.9782 134.685 25.6828 134.829C25.3873 134.973 25.0512 135.045 24.6743 135.045ZM29.6998 135.045C29.2718 135.045 28.9072 134.929 28.6061 134.696C28.3049 134.461 28.0748 134.121 27.9157 133.676C27.7566 133.229 27.6771 132.689 27.6771 132.056C27.6771 131.428 27.7566 130.891 27.9157 130.446C28.0767 129.999 28.3078 129.658 28.6089 129.423C28.912 129.186 29.2756 129.068 29.6998 129.068C30.1241 129.068 30.4868 129.186 30.7879 129.423C31.0909 129.658 31.322 129.999 31.4811 130.446C31.6421 130.891 31.7226 131.428 31.7226 132.056C31.7226 132.689 31.643 133.229 31.4839 133.676C31.3248 134.121 31.0947 134.461 30.7936 134.696C30.4924 134.929 30.1279 135.045 29.6998 135.045ZM29.6998 134.42C30.1241 134.42 30.4536 134.215 30.6885 133.806C30.9233 133.397 31.0407 132.814 31.0407 132.056C31.0407 131.553 30.9868 131.124 30.8788 130.769C30.7727 130.415 30.6193 130.145 30.4186 129.96C30.2197 129.774 29.9801 129.681 29.6998 129.681C29.2794 129.681 28.9508 129.889 28.714 130.304C28.4773 130.716 28.3589 131.301 28.3589 132.056C28.3589 132.56 28.412 132.988 28.518 133.34C28.6241 133.693 28.7765 133.961 28.9754 134.144C29.1762 134.328 29.4176 134.42 29.6998 134.42ZM32.8021 134.965V134.454L34.7226 132.352C34.9479 132.106 35.1335 131.892 35.2794 131.71C35.4252 131.526 35.5332 131.354 35.6032 131.193C35.6752 131.03 35.7112 130.859 35.7112 130.681C35.7112 130.477 35.662 130.3 35.5635 130.15C35.4669 130.001 35.3343 129.885 35.1657 129.804C34.9972 129.722 34.8078 129.681 34.5976 129.681C34.3741 129.681 34.179 129.728 34.0123 129.821C33.8476 129.912 33.7197 130.039 33.6288 130.204C33.5398 130.369 33.4953 130.562 33.4953 130.784H32.8248C32.8248 130.443 32.9034 130.144 33.0606 129.886C33.2178 129.628 33.4318 129.428 33.7027 129.284C33.9754 129.14 34.2813 129.068 34.6203 129.068C34.9612 129.068 35.2633 129.14 35.5265 129.284C35.7898 129.428 35.9962 129.622 36.1459 129.866C36.2955 130.11 36.3703 130.382 36.3703 130.681C36.3703 130.895 36.3315 131.105 36.2538 131.309C36.178 131.512 36.0455 131.738 35.8561 131.988C35.6686 132.236 35.4082 132.539 35.0748 132.897L33.768 134.295V134.34H36.4726V134.965H32.8021Z" fill="black"/>
</g>
<g id="m1-305">
<rect id="Rectangle 62_4" x="108" y="101" width="73" height="34" fill="#BDD7EE"/>
<path id="M1-305" d="M116.389 114.906H117.23L119.207 119.736H119.275L121.252 114.906H122.093V120.724H121.434V116.304H121.377L119.559 120.724H118.923L117.105 116.304H117.048V120.724H116.389V114.906ZM125.449 114.906V120.724H124.745V115.645H124.71L123.29 116.588V115.872L124.745 114.906H125.449ZM129.634 117.503V118.128H127.088V117.503H129.634ZM132.674 120.804C132.299 120.804 131.965 120.739 131.671 120.611C131.38 120.482 131.148 120.303 130.975 120.074C130.805 119.843 130.712 119.575 130.697 119.27H131.413C131.428 119.457 131.492 119.619 131.606 119.755C131.72 119.89 131.868 119.994 132.052 120.068C132.236 120.142 132.439 120.179 132.663 120.179C132.913 120.179 133.134 120.135 133.328 120.048C133.521 119.961 133.672 119.84 133.782 119.684C133.892 119.529 133.947 119.349 133.947 119.145C133.947 118.931 133.894 118.742 133.788 118.579C133.682 118.414 133.527 118.286 133.322 118.193C133.117 118.1 132.867 118.054 132.572 118.054H132.106V117.429H132.572C132.803 117.429 133.006 117.387 133.18 117.304C133.356 117.22 133.493 117.103 133.592 116.951C133.692 116.8 133.742 116.622 133.742 116.417C133.742 116.22 133.699 116.049 133.612 115.903C133.525 115.757 133.402 115.644 133.242 115.562C133.085 115.481 132.9 115.44 132.686 115.44C132.485 115.44 132.295 115.477 132.117 115.551C131.941 115.623 131.797 115.728 131.686 115.866C131.574 116.003 131.513 116.167 131.504 116.361H130.822C130.833 116.056 130.925 115.789 131.098 115.559C131.27 115.328 131.495 115.148 131.774 115.02C132.054 114.891 132.362 114.826 132.697 114.826C133.057 114.826 133.366 114.899 133.623 115.045C133.881 115.189 134.079 115.379 134.217 115.616C134.355 115.853 134.424 116.109 134.424 116.383C134.424 116.711 134.338 116.99 134.166 117.221C133.995 117.452 133.763 117.612 133.47 117.701V117.747C133.837 117.807 134.124 117.964 134.331 118.216C134.537 118.466 134.64 118.775 134.64 119.145C134.64 119.461 134.554 119.745 134.382 119.997C134.211 120.247 133.978 120.444 133.683 120.588C133.387 120.732 133.051 120.804 132.674 120.804ZM137.7 120.804C137.272 120.804 136.907 120.687 136.606 120.454C136.305 120.219 136.075 119.879 135.916 119.434C135.757 118.987 135.677 118.448 135.677 117.815C135.677 117.186 135.757 116.649 135.916 116.204C136.077 115.757 136.308 115.416 136.609 115.182C136.912 114.945 137.276 114.826 137.7 114.826C138.124 114.826 138.487 114.945 138.788 115.182C139.091 115.416 139.322 115.757 139.481 116.204C139.642 116.649 139.723 117.186 139.723 117.815C139.723 118.448 139.643 118.987 139.484 119.434C139.325 119.879 139.095 120.219 138.794 120.454C138.492 120.687 138.128 120.804 137.7 120.804ZM137.7 120.179C138.124 120.179 138.454 119.974 138.688 119.565C138.923 119.156 139.041 118.573 139.041 117.815C139.041 117.311 138.987 116.882 138.879 116.528C138.773 116.174 138.619 115.904 138.419 115.718C138.22 115.533 137.98 115.44 137.7 115.44C137.279 115.44 136.951 115.647 136.714 116.062C136.477 116.475 136.359 117.059 136.359 117.815C136.359 118.319 136.412 118.747 136.518 119.099C136.624 119.451 136.777 119.719 136.975 119.903C137.176 120.087 137.418 120.179 137.7 120.179ZM142.62 120.804C142.287 120.804 141.987 120.737 141.72 120.605C141.453 120.472 141.239 120.29 141.078 120.059C140.917 119.828 140.829 119.565 140.813 119.27H141.495C141.522 119.533 141.641 119.751 141.853 119.923C142.067 120.093 142.323 120.179 142.62 120.179C142.859 120.179 143.071 120.123 143.257 120.011C143.444 119.899 143.591 119.746 143.697 119.551C143.805 119.354 143.859 119.131 143.859 118.883C143.859 118.629 143.803 118.403 143.691 118.204C143.581 118.004 143.43 117.845 143.237 117.73C143.044 117.614 142.823 117.556 142.575 117.554C142.397 117.552 142.214 117.579 142.027 117.636C141.839 117.691 141.685 117.762 141.563 117.849L140.904 117.77L141.257 114.906H144.279V115.531H141.848L141.643 117.247H141.677C141.796 117.152 141.946 117.074 142.126 117.011C142.306 116.949 142.493 116.917 142.688 116.917C143.045 116.917 143.362 117.003 143.64 117.173C143.92 117.342 144.14 117.573 144.299 117.866C144.46 118.16 144.541 118.495 144.541 118.872C144.541 119.243 144.457 119.575 144.291 119.866C144.126 120.156 143.899 120.385 143.609 120.554C143.319 120.72 142.99 120.804 142.62 120.804Z" fill="black"/>
</g>
<g id="m1-303">
<rect id="Rectangle 62_5" y="53" width="73" height="55" fill="#BDD7EE"/>
<path id="M1-303" d="M8.38875 74.1474H9.22966L11.2069 78.9769H11.2751L13.2524 74.1474H14.0933V79.9655H13.4342V75.5451H13.3774L11.5592 79.9655H10.9228L9.10466 75.5451H9.04784V79.9655H8.38875V74.1474ZM17.4491 74.1474V79.9655H16.7446V74.886H16.7105L15.29 75.8292V75.1133L16.7446 74.1474H17.4491ZM21.6338 76.744V77.369H19.0883V76.744H21.6338ZM24.6743 80.0451C24.2993 80.0451 23.965 79.9807 23.6714 79.8519C23.3798 79.7231 23.1477 79.5441 22.9754 79.315C22.8049 79.0839 22.7121 78.8159 22.697 78.511H23.4129C23.428 78.6985 23.4924 78.8604 23.6061 78.9968C23.7197 79.1313 23.8684 79.2354 24.0521 79.3093C24.2358 79.3832 24.4394 79.4201 24.6629 79.4201C24.9129 79.4201 25.1345 79.3765 25.3277 79.2894C25.5209 79.2023 25.6724 79.0811 25.7822 78.9258C25.8921 78.7705 25.947 78.5905 25.947 78.386C25.947 78.172 25.894 77.9835 25.7879 77.8207C25.6818 77.6559 25.5265 77.5271 25.322 77.4343C25.1174 77.3415 24.8674 77.2951 24.572 77.2951H24.1061V76.6701H24.572C24.803 76.6701 25.0057 76.6284 25.1799 76.5451C25.3561 76.4618 25.4934 76.3443 25.5919 76.1928C25.6923 76.0413 25.7424 75.8633 25.7424 75.6587C25.7424 75.4618 25.6989 75.2904 25.6118 75.1445C25.5246 74.9987 25.4015 74.8851 25.2424 74.8036C25.0852 74.7222 24.8996 74.6815 24.6856 74.6815C24.4849 74.6815 24.2955 74.7184 24.1174 74.7923C23.9413 74.8642 23.7974 74.9693 23.6856 75.1076C23.5739 75.244 23.5133 75.4087 23.5038 75.6019H22.822C22.8334 75.297 22.9252 75.0299 23.0976 74.8008C23.2699 74.5697 23.4953 74.3898 23.7737 74.261C24.054 74.1322 24.3618 74.0678 24.697 74.0678C25.0568 74.0678 25.3655 74.1407 25.6231 74.2866C25.8807 74.4305 26.0786 74.6208 26.2169 74.8576C26.3551 75.0943 26.4243 75.35 26.4243 75.6246C26.4243 75.9523 26.3381 76.2316 26.1657 76.4627C25.9953 76.6938 25.7633 76.8538 25.4697 76.9428V76.9883C25.8371 77.0489 26.1241 77.2051 26.3305 77.457C26.537 77.707 26.6402 78.0167 26.6402 78.386C26.6402 78.7023 26.554 78.9864 26.3816 79.2383C26.2112 79.4883 25.9782 79.6852 25.6828 79.8292C25.3873 79.9731 25.0512 80.0451 24.6743 80.0451ZM29.6998 80.0451C29.2718 80.0451 28.9072 79.9286 28.6061 79.6957C28.3049 79.4608 28.0748 79.1208 27.9157 78.6758C27.7566 78.2288 27.6771 77.689 27.6771 77.0565C27.6771 76.4277 27.7566 75.8907 27.9157 75.4457C28.0767 74.9987 28.3078 74.6578 28.6089 74.4229C28.912 74.1862 29.2756 74.0678 29.6998 74.0678C30.1241 74.0678 30.4868 74.1862 30.7879 74.4229C31.0909 74.6578 31.322 74.9987 31.4811 75.4457C31.6421 75.8907 31.7226 76.4277 31.7226 77.0565C31.7226 77.689 31.643 78.2288 31.4839 78.6758C31.3248 79.1208 31.0947 79.4608 30.7936 79.6957C30.4924 79.9286 30.1279 80.0451 29.6998 80.0451ZM29.6998 79.4201C30.1241 79.4201 30.4536 79.2155 30.6885 78.8065C30.9233 78.3974 31.0407 77.814 31.0407 77.0565C31.0407 76.5527 30.9868 76.1237 30.8788 75.7695C30.7727 75.4154 30.6193 75.1455 30.4186 74.9599C30.2197 74.7743 29.9801 74.6815 29.6998 74.6815C29.2794 74.6815 28.9508 74.8888 28.714 75.3036C28.4773 75.7165 28.3589 76.3008 28.3589 77.0565C28.3589 77.5602 28.412 77.9883 28.518 78.3405C28.6241 78.6928 28.7765 78.9608 28.9754 79.1445C29.1762 79.3282 29.4176 79.4201 29.6998 79.4201ZM34.768 80.0451C34.393 80.0451 34.0587 79.9807 33.7652 79.8519C33.4735 79.7231 33.2415 79.5441 33.0691 79.315C32.8987 79.0839 32.8059 78.8159 32.7907 78.511H33.5066C33.5218 78.6985 33.5862 78.8604 33.6998 78.9968C33.8135 79.1313 33.9621 79.2354 34.1459 79.3093C34.3296 79.3832 34.5332 79.4201 34.7566 79.4201C35.0066 79.4201 35.2282 79.3765 35.4214 79.2894C35.6146 79.2023 35.7661 79.0811 35.876 78.9258C35.9858 78.7705 36.0407 78.5905 36.0407 78.386C36.0407 78.172 35.9877 77.9835 35.8816 77.8207C35.7756 77.6559 35.6203 77.5271 35.4157 77.4343C35.2112 77.3415 34.9612 77.2951 34.6657 77.2951H34.1998V76.6701H34.6657C34.8968 76.6701 35.0995 76.6284 35.2737 76.5451C35.4498 76.4618 35.5871 76.3443 35.6856 76.1928C35.786 76.0413 35.8362 75.8633 35.8362 75.6587C35.8362 75.4618 35.7926 75.2904 35.7055 75.1445C35.6184 74.9987 35.4953 74.8851 35.3362 74.8036C35.179 74.7222 34.9934 74.6815 34.7794 74.6815C34.5786 74.6815 34.3892 74.7184 34.2112 74.7923C34.0351 74.8642 33.8911 74.9693 33.7794 75.1076C33.6676 75.244 33.607 75.4087 33.5976 75.6019H32.9157C32.9271 75.297 33.019 75.0299 33.1913 74.8008C33.3637 74.5697 33.589 74.3898 33.8674 74.261C34.1477 74.1322 34.4555 74.0678 34.7907 74.0678C35.1506 74.0678 35.4593 74.1407 35.7169 74.2866C35.9745 74.4305 36.1724 74.6208 36.3106 74.8576C36.4489 75.0943 36.518 75.35 36.518 75.6246C36.518 75.9523 36.4318 76.2316 36.2595 76.4627C36.089 76.6938 35.857 76.8538 35.5635 76.9428V76.9883C35.9309 77.0489 36.2178 77.2051 36.4243 77.457C36.6307 77.707 36.7339 78.0167 36.7339 78.386C36.7339 78.7023 36.6477 78.9864 36.4754 79.2383C36.3049 79.4883 36.072 79.6852 35.7765 79.8292C35.4811 79.9731 35.1449 80.0451 34.768 80.0451Z" fill="black"/>
</g>
<g id="m1-306">
<rect id="Rectangle 62_6" x="108" y="67" width="73" height="34" fill="#BDD7EE"/>
<path id="M1-306" d="M116.389 80.906H117.23L119.207 85.7355H119.275L121.252 80.906H122.093V86.7242H121.434V82.3037H121.377L119.559 86.7242H118.923L117.105 82.3037H117.048V86.7242H116.389V80.906ZM125.449 80.906V86.7242H124.745V81.6446H124.71L123.29 82.5878V81.8719L124.745 80.906H125.449ZM129.634 83.5026V84.1276H127.088V83.5026H129.634ZM132.674 86.8037C132.299 86.8037 131.965 86.7393 131.671 86.6105C131.38 86.4817 131.148 86.3028 130.975 86.0736C130.805 85.8425 130.712 85.5745 130.697 85.2696H131.413C131.428 85.4571 131.492 85.619 131.606 85.7554C131.72 85.8899 131.868 85.994 132.052 86.0679C132.236 86.1418 132.439 86.1787 132.663 86.1787C132.913 86.1787 133.134 86.1351 133.328 86.048C133.521 85.9609 133.672 85.8397 133.782 85.6844C133.892 85.5291 133.947 85.3492 133.947 85.1446C133.947 84.9306 133.894 84.7421 133.788 84.5793C133.682 84.4145 133.527 84.2857 133.322 84.1929C133.117 84.1001 132.867 84.0537 132.572 84.0537H132.106V83.4287H132.572C132.803 83.4287 133.006 83.387 133.18 83.3037C133.356 83.2204 133.493 83.1029 133.592 82.9514C133.692 82.7999 133.742 82.6219 133.742 82.4173C133.742 82.2204 133.699 82.049 133.612 81.9031C133.525 81.7573 133.402 81.6437 133.242 81.5622C133.085 81.4808 132.9 81.4401 132.686 81.4401C132.485 81.4401 132.295 81.477 132.117 81.5509C131.941 81.6228 131.797 81.7279 131.686 81.8662C131.574 82.0026 131.513 82.1673 131.504 82.3605H130.822C130.833 82.0556 130.925 81.7885 131.098 81.5594C131.27 81.3283 131.495 81.1484 131.774 81.0196C132.054 80.8908 132.362 80.8264 132.697 80.8264C133.057 80.8264 133.366 80.8993 133.623 81.0452C133.881 81.1891 134.079 81.3795 134.217 81.6162C134.355 81.8529 134.424 82.1086 134.424 82.3832C134.424 82.7109 134.338 82.9902 134.166 83.2213C133.995 83.4524 133.763 83.6124 133.47 83.7014V83.7469C133.837 83.8075 134.124 83.9637 134.331 84.2156C134.537 84.4656 134.64 84.7753 134.64 85.1446C134.64 85.4609 134.554 85.745 134.382 85.9969C134.211 86.2469 133.978 86.4438 133.683 86.5878C133.387 86.7317 133.051 86.8037 132.674 86.8037ZM137.7 86.8037C137.272 86.8037 136.907 86.6872 136.606 86.4543C136.305 86.2194 136.075 85.8795 135.916 85.4344C135.757 84.9874 135.677 84.4476 135.677 83.8151C135.677 83.1863 135.757 82.6493 135.916 82.2043C136.077 81.7573 136.308 81.4164 136.609 81.1815C136.912 80.9448 137.276 80.8264 137.7 80.8264C138.124 80.8264 138.487 80.9448 138.788 81.1815C139.091 81.4164 139.322 81.7573 139.481 82.2043C139.642 82.6493 139.723 83.1863 139.723 83.8151C139.723 84.4476 139.643 84.9874 139.484 85.4344C139.325 85.8795 139.095 86.2194 138.794 86.4543C138.492 86.6872 138.128 86.8037 137.7 86.8037ZM137.7 86.1787C138.124 86.1787 138.454 85.9742 138.688 85.5651C138.923 85.156 139.041 84.5726 139.041 83.8151C139.041 83.3113 138.987 82.8823 138.879 82.5281C138.773 82.174 138.619 81.9041 138.419 81.7185C138.22 81.5329 137.98 81.4401 137.7 81.4401C137.279 81.4401 136.951 81.6474 136.714 82.0622C136.477 82.4751 136.359 83.0594 136.359 83.8151C136.359 84.3188 136.412 84.7469 136.518 85.0992C136.624 85.4514 136.777 85.7194 136.975 85.9031C137.176 86.0868 137.418 86.1787 137.7 86.1787ZM142.734 86.8037C142.495 86.7999 142.257 86.7545 142.018 86.6673C141.779 86.5802 141.562 86.4334 141.365 86.227C141.168 86.0187 141.009 85.7374 140.89 85.3832C140.771 85.0272 140.711 84.5802 140.711 84.0423C140.711 83.5272 140.759 83.0707 140.856 82.673C140.953 82.2734 141.093 81.9372 141.277 81.6645C141.46 81.3899 141.682 81.1815 141.941 81.0395C142.203 80.8974 142.497 80.8264 142.825 80.8264C143.151 80.8264 143.44 80.8918 143.694 81.0224C143.95 81.1512 144.158 81.3312 144.319 81.5622C144.48 81.7933 144.584 82.0594 144.632 82.3605H143.938C143.874 82.0992 143.749 81.8823 143.563 81.7099C143.378 81.5376 143.132 81.4514 142.825 81.4514C142.374 81.4514 142.019 81.6474 141.759 82.0395C141.502 82.4315 141.372 82.9817 141.37 83.6901H141.416C141.522 83.5291 141.648 83.3918 141.794 83.2781C141.941 83.1626 142.104 83.0736 142.282 83.0111C142.46 82.9486 142.649 82.9173 142.848 82.9173C143.181 82.9173 143.486 83.0007 143.762 83.1673C144.039 83.3321 144.26 83.5603 144.427 83.852C144.594 84.1418 144.677 84.4742 144.677 84.8492C144.677 85.209 144.597 85.5385 144.436 85.8378C144.275 86.1351 144.048 86.3719 143.757 86.548C143.467 86.7223 143.126 86.8075 142.734 86.8037ZM142.734 86.1787C142.973 86.1787 143.187 86.119 143.376 85.9997C143.567 85.8804 143.718 85.7204 143.828 85.5196C143.939 85.3188 143.995 85.0954 143.995 84.8492C143.995 84.6086 143.941 84.3899 143.833 84.1929C143.727 83.994 143.581 83.8359 143.393 83.7185C143.207 83.601 142.995 83.5423 142.757 83.5423C142.577 83.5423 142.409 83.5783 142.254 83.6503C142.099 83.7204 141.962 83.817 141.845 83.9401C141.729 84.0632 141.638 84.2043 141.572 84.3634C141.506 84.5206 141.473 84.6863 141.473 84.8605C141.473 85.0916 141.527 85.3075 141.634 85.5082C141.744 85.709 141.894 85.8709 142.083 85.994C142.275 86.1171 142.491 86.1787 142.734 86.1787Z" fill="black"/>
</g>
<g id="m1-307">
<rect id="Rectangle 62_7" x="108" width="73" height="29" fill="#BDD7EE"/>
<path id="M1-307" d="M116.389 12.1818H117.23L119.207 17.0114H119.275L121.252 12.1818H122.093V18H121.434V13.5795H121.377L119.559 18H118.923L117.105 13.5795H117.048V18H116.389V12.1818ZM125.449 12.1818V18H124.745V12.9205H124.71L123.29 13.8636V13.1477L124.745 12.1818H125.449ZM129.634 14.7784V15.4034H127.088V14.7784H129.634ZM132.674 18.0795C132.299 18.0795 131.965 18.0152 131.671 17.8864C131.38 17.7576 131.148 17.5786 130.975 17.3494C130.805 17.1184 130.712 16.8504 130.697 16.5455H131.413C131.428 16.733 131.492 16.8949 131.606 17.0312C131.72 17.1657 131.868 17.2699 132.052 17.3438C132.236 17.4176 132.439 17.4545 132.663 17.4545C132.913 17.4545 133.134 17.411 133.328 17.3239C133.521 17.2367 133.672 17.1155 133.782 16.9602C133.892 16.8049 133.947 16.625 133.947 16.4205C133.947 16.2064 133.894 16.018 133.788 15.8551C133.682 15.6903 133.527 15.5616 133.322 15.4688C133.117 15.3759 132.867 15.3295 132.572 15.3295H132.106V14.7045H132.572C132.803 14.7045 133.006 14.6629 133.18 14.5795C133.356 14.4962 133.493 14.3788 133.592 14.2273C133.692 14.0758 133.742 13.8977 133.742 13.6932C133.742 13.4962 133.699 13.3248 133.612 13.179C133.525 13.0331 133.402 12.9195 133.242 12.8381C133.085 12.7566 132.9 12.7159 132.686 12.7159C132.485 12.7159 132.295 12.7528 132.117 12.8267C131.941 12.8987 131.797 13.0038 131.686 13.142C131.574 13.2784 131.513 13.4432 131.504 13.6364H130.822C130.833 13.3314 130.925 13.0644 131.098 12.8352C131.27 12.6042 131.495 12.4242 131.774 12.2955C132.054 12.1667 132.362 12.1023 132.697 12.1023C133.057 12.1023 133.366 12.1752 133.623 12.321C133.881 12.465 134.079 12.6553 134.217 12.892C134.355 13.1288 134.424 13.3845 134.424 13.6591C134.424 13.9867 134.338 14.2661 134.166 14.4972C133.995 14.7282 133.763 14.8883 133.47 14.9773V15.0227C133.837 15.0833 134.124 15.2396 134.331 15.4915C134.537 15.7415 134.64 16.0511 134.64 16.4205C134.64 16.7367 134.554 17.0208 134.382 17.2727C134.211 17.5227 133.978 17.7197 133.683 17.8636C133.387 18.0076 133.051 18.0795 132.674 18.0795ZM137.7 18.0795C137.272 18.0795 136.907 17.9631 136.606 17.7301C136.305 17.4953 136.075 17.1553 135.916 16.7102C135.757 16.2633 135.677 15.7235 135.677 15.0909C135.677 14.4621 135.757 13.9252 135.916 13.4801C136.077 13.0331 136.308 12.6922 136.609 12.4574C136.912 12.2206 137.276 12.1023 137.7 12.1023C138.124 12.1023 138.487 12.2206 138.788 12.4574C139.091 12.6922 139.322 13.0331 139.481 13.4801C139.642 13.9252 139.723 14.4621 139.723 15.0909C139.723 15.7235 139.643 16.2633 139.484 16.7102C139.325 17.1553 139.095 17.4953 138.794 17.7301C138.492 17.9631 138.128 18.0795 137.7 18.0795ZM137.7 17.4545C138.124 17.4545 138.454 17.25 138.688 16.8409C138.923 16.4318 139.041 15.8485 139.041 15.0909C139.041 14.5871 138.987 14.1581 138.879 13.804C138.773 13.4498 138.619 13.1799 138.419 12.9943C138.22 12.8087 137.98 12.7159 137.7 12.7159C137.279 12.7159 136.951 12.9233 136.714 13.3381C136.477 13.7509 136.359 14.3352 136.359 15.0909C136.359 15.5947 136.412 16.0227 136.518 16.375C136.624 16.7273 136.777 16.9953 136.975 17.179C137.176 17.3627 137.418 17.4545 137.7 17.4545ZM140.828 18L143.43 12.8523V12.8068H140.43V12.1818H144.157V12.8409L141.566 18H140.828Z" fill="black"/>
</g>
<rect id="Escaleras-m1-3-4" x="73" y="173" width="108" height="53" fill="#EF9A9A"/>
<g id="Group 12">
<rect id="Rectangle 60" x="139" y="135" width="42" height="38" fill="#B0C4DE"/>
<path id="&#226;&#153;&#130;" d="M159.256 159.195C158.696 159.195 158.176 159.055 157.696 158.775C157.226 158.495 156.846 158.12 156.556 157.65C156.276 157.17 156.136 156.645 156.136 156.075C156.136 155.515 156.276 155.005 156.556 154.545C156.846 154.075 157.226 153.7 157.696 153.42C158.176 153.14 158.696 153 159.256 153C159.596 153 159.921 153.055 160.231 153.165C160.541 153.265 160.836 153.415 161.116 153.615L162.511 152.055L161.326 151.47L163.846 151.185L163.861 153.72L163.126 152.595L161.701 154.185C161.931 154.465 162.101 154.765 162.211 155.085C162.321 155.395 162.376 155.725 162.376 156.075C162.376 156.645 162.236 157.17 161.956 157.65C161.676 158.12 161.296 158.495 160.816 158.775C160.346 159.055 159.826 159.195 159.256 159.195ZM159.256 158.445C159.686 158.445 160.081 158.34 160.441 158.13C160.801 157.91 161.086 157.62 161.296 157.26C161.516 156.9 161.626 156.505 161.626 156.075C161.626 155.655 161.516 155.27 161.296 154.92C161.086 154.56 160.801 154.275 160.441 154.065C160.081 153.855 159.686 153.75 159.256 153.75C158.826 153.75 158.431 153.855 158.071 154.065C157.711 154.275 157.421 154.56 157.201 154.92C156.991 155.27 156.886 155.655 156.886 156.075C156.886 156.505 156.991 156.9 157.201 157.26C157.421 157.62 157.711 157.91 158.071 158.13C158.431 158.34 158.826 158.445 159.256 158.445Z" fill="black"/>
</g>
<rect id="Rectangle 68" x="177" y="37" width="4" height="20" fill="#388E3C"/>
<g id="Group 12_2">
<rect id="Rectangle 63" x="73" width="35" height="29" fill="#B0C4DE"/>
<path id="&#226;&#153;&#128;" d="M90.5982 18V16.38H88.8282V15.675H90.5982V14.355C90.0882 14.285 89.6282 14.105 89.2182 13.815C88.8082 13.525 88.4832 13.155 88.2432 12.705C88.0032 12.255 87.8832 11.77 87.8832 11.25C87.8832 10.69 88.0232 10.18 88.3032 9.72C88.5932 9.25 88.9732 8.875 89.4432 8.595C89.9232 8.315 90.4432 8.175 91.0032 8.175C91.5732 8.175 92.0932 8.315 92.5632 8.595C93.0432 8.875 93.4232 9.25 93.7032 9.72C93.9832 10.18 94.1232 10.69 94.1232 11.25C94.1232 11.76 94.0032 12.24 93.7632 12.69C93.5232 13.14 93.1982 13.515 92.7882 13.815C92.3882 14.105 91.9282 14.285 91.4082 14.355V15.675H93.0732V16.38H91.4082V18H90.5982ZM91.0032 13.62C91.4332 13.62 91.8282 13.515 92.1882 13.305C92.5482 13.085 92.8332 12.795 93.0432 12.435C93.2632 12.075 93.3732 11.68 93.3732 11.25C93.3732 10.83 93.2632 10.445 93.0432 10.095C92.8332 9.745 92.5482 9.465 92.1882 9.255C91.8282 9.035 91.4332 8.925 91.0032 8.925C90.5732 8.925 90.1782 9.035 89.8182 9.255C89.4582 9.465 89.1682 9.745 88.9482 10.095C88.7382 10.445 88.6332 10.83 88.6332 11.25C88.6332 11.68 88.7382 12.075 88.9482 12.435C89.1682 12.795 89.4582 13.085 89.8182 13.305C90.1782 13.515 90.5732 13.62 91.0032 13.62Z" fill="black"/>
</g>
<rect id="Rectangle 70" x="73" y="135" width="66" height="38" fill="#F5F0E8"/>
<rect id="Rectangle 71" x="73" y="29" width="37" height="107" fill="#F5F0E8"/>
<rect id="Rectangle 72" x="110" y="29" width="71" height="39" fill="#F5F0E8"/>
</g>
<defs>
<clipPath id="clip0_2_288">
<rect width="181" height="223" fill="white"/>
</clipPath>
</defs>
</svg>
