<svg width="181" height="223" viewBox="0 0 181 223" fill="none" xmlns="http://www.w3.org/2000/svg">
<g id="M3_piso2" clip-path="url(#clip0_4_27)">
<rect width="181" height="223" fill="white"/>
<path id="M3-202" d="M85.7045 92.1818H86.5455L88.5227 97.0114H88.5909L90.5682 92.1818H91.4091V98H90.75V93.5795H90.6932L88.875 98H88.2386L86.4205 93.5795H86.3636V98H85.7045V92.1818ZM94.6854 98.0795C94.3104 98.0795 93.9761 98.0152 93.6825 97.8864C93.3909 97.7576 93.1589 97.5786 92.9865 97.3494C92.8161 97.1184 92.7232 96.8504 92.7081 96.5455H93.424C93.4392 96.733 93.5036 96.8949 93.6172 97.0312C93.7308 97.1657 93.8795 97.2699 94.0632 97.3438C94.2469 97.4176 94.4505 97.4545 94.674 97.4545C94.924 97.4545 95.1456 97.411 95.3388 97.3239C95.532 97.2367 95.6835 97.1155 95.7933 96.9602C95.9032 96.8049 95.9581 96.625 95.9581 96.4205C95.9581 96.2064 95.9051 96.018 95.799 95.8551C95.6929 95.6903 95.5376 95.5616 95.3331 95.4688C95.1286 95.3759 94.8786 95.3295 94.5831 95.3295H94.1172V94.7045H94.5831C94.8142 94.7045 95.0168 94.6629 95.1911 94.5795C95.3672 94.4962 95.5045 94.3788 95.603 94.2273C95.7034 94.0758 95.7536 93.8977 95.7536 93.6932C95.7536 93.4962 95.71 93.3248 95.6229 93.179C95.5357 93.0331 95.4126 92.9195 95.2536 92.8381C95.0964 92.7566 94.9107 92.7159 94.6967 92.7159C94.496 92.7159 94.3066 92.7528 94.1286 92.8267C93.9524 92.8987 93.8085 93.0038 93.6967 93.142C93.585 93.2784 93.5244 93.4432 93.5149 93.6364H92.8331C92.8445 93.3314 92.9363 93.0644 93.1087 92.8352C93.281 92.6042 93.5064 92.4242 93.7848 92.2955C94.0651 92.1667 94.3729 92.1023 94.7081 92.1023C95.0679 92.1023 95.3767 92.1752 95.6342 92.321C95.8918 92.465 96.0897 92.6553 96.228 92.892C96.3662 93.1288 96.4354 93.3845 96.4354 93.6591C96.4354 93.9867 96.3492 94.2661 96.1768 94.4972C96.0064 94.7282 95.7744 94.8883 95.4808 94.9773V95.0227C95.8482 95.0833 96.1352 95.2396 96.3416 95.4915C96.5481 95.7415 96.6513 96.0511 96.6513 96.4205C96.6513 96.7367 96.5651 97.0208 96.3928 97.2727C96.2223 97.5227 95.9893 97.7197 95.6939 97.8636C95.3984 98.0076 95.0623 98.0795 94.6854 98.0795ZM100.325 94.7784V95.4034H97.7791V94.7784H100.325ZM101.219 98V97.4886L103.14 95.3864C103.365 95.1402 103.551 94.9261 103.697 94.7443C103.843 94.5606 103.951 94.3883 104.021 94.2273C104.093 94.0644 104.129 93.8939 104.129 93.7159C104.129 93.5114 104.079 93.3343 103.981 93.1847C103.884 93.035 103.752 92.9195 103.583 92.8381C103.415 92.7566 103.225 92.7159 103.015 92.7159C102.791 92.7159 102.596 92.7623 102.43 92.8551C102.265 92.946 102.137 93.0739 102.046 93.2386C101.957 93.4034 101.913 93.5966 101.913 93.8182H101.242C101.242 93.4773 101.321 93.178 101.478 92.9205C101.635 92.6629 101.849 92.4621 102.12 92.3182C102.393 92.1742 102.699 92.1023 103.038 92.1023C103.379 92.1023 103.681 92.1742 103.944 92.3182C104.207 92.4621 104.414 92.6562 104.563 92.9006C104.713 93.1449 104.788 93.4167 104.788 93.7159C104.788 93.9299 104.749 94.1392 104.671 94.3438C104.595 94.5464 104.463 94.7727 104.273 95.0227C104.086 95.2708 103.826 95.5739 103.492 95.9318L102.185 97.3295V97.375H104.89V98H101.219ZM107.961 98.0795C107.533 98.0795 107.168 97.9631 106.867 97.7301C106.566 97.4953 106.336 97.1553 106.177 96.7102C106.018 96.2633 105.938 95.7235 105.938 95.0909C105.938 94.4621 106.018 93.9252 106.177 93.4801C106.338 93.0331 106.569 92.6922 106.87 92.4574C107.173 92.2206 107.537 92.1023 107.961 92.1023C108.385 92.1023 108.748 92.2206 109.049 92.4574C109.352 92.6922 109.583 93.0331 109.742 93.4801C109.903 93.9252 109.984 94.4621 109.984 95.0909C109.984 95.7235 109.904 96.2633 109.745 96.7102C109.586 97.1553 109.356 97.4953 109.055 97.7301C108.754 97.9631 108.389 98.0795 107.961 98.0795ZM107.961 97.4545C108.385 97.4545 108.715 97.25 108.95 96.8409C109.184 96.4318 109.302 95.8485 109.302 95.0909C109.302 94.5871 109.248 94.1581 109.14 93.804C109.034 93.4498 108.88 93.1799 108.68 92.9943C108.481 92.8087 108.241 92.7159 107.961 92.7159C107.54 92.7159 107.212 92.9233 106.975 93.3381C106.738 93.7509 106.62 94.3352 106.62 95.0909C106.62 95.5947 106.673 96.0227 106.779 96.375C106.885 96.7273 107.038 96.9953 107.237 97.179C107.437 97.3627 107.679 97.4545 107.961 97.4545ZM111.063 98V97.4886L112.984 95.3864C113.209 95.1402 113.395 94.9261 113.54 94.7443C113.686 94.5606 113.794 94.3883 113.864 94.2273C113.936 94.0644 113.972 93.8939 113.972 93.7159C113.972 93.5114 113.923 93.3343 113.825 93.1847C113.728 93.035 113.595 92.9195 113.427 92.8381C113.258 92.7566 113.069 92.7159 112.859 92.7159C112.635 92.7159 112.44 92.7623 112.273 92.8551C112.109 92.946 111.981 93.0739 111.89 93.2386C111.801 93.4034 111.756 93.5966 111.756 93.8182H111.086C111.086 93.4773 111.165 93.178 111.322 92.9205C111.479 92.6629 111.693 92.4621 111.964 92.3182C112.237 92.1742 112.542 92.1023 112.881 92.1023C113.222 92.1023 113.524 92.1742 113.788 92.3182C114.051 92.4621 114.257 92.6562 114.407 92.9006C114.557 93.1449 114.631 93.4167 114.631 93.7159C114.631 93.9299 114.593 94.1392 114.515 94.3438C114.439 94.5464 114.307 94.7727 114.117 95.0227C113.93 95.2708 113.669 95.5739 113.336 95.9318L112.029 97.3295V97.375H114.734V98H111.063Z" fill="black"/>
<path id="M3-201" d="M85.7045 129.182H86.5455L88.5227 134.011H88.5909L90.5682 129.182H91.4091V135H90.75V130.58H90.6932L88.875 135H88.2386L86.4205 130.58H86.3636V135H85.7045V129.182ZM94.6854 135.08C94.3104 135.08 93.9761 135.015 93.6825 134.886C93.3909 134.758 93.1589 134.579 92.9865 134.349C92.8161 134.118 92.7232 133.85 92.7081 133.545H93.424C93.4392 133.733 93.5036 133.895 93.6172 134.031C93.7308 134.166 93.8795 134.27 94.0632 134.344C94.2469 134.418 94.4505 134.455 94.674 134.455C94.924 134.455 95.1456 134.411 95.3388 134.324C95.532 134.237 95.6835 134.116 95.7933 133.96C95.9032 133.805 95.9581 133.625 95.9581 133.42C95.9581 133.206 95.9051 133.018 95.799 132.855C95.6929 132.69 95.5376 132.562 95.3331 132.469C95.1286 132.376 94.8786 132.33 94.5831 132.33H94.1172V131.705H94.5831C94.8142 131.705 95.0168 131.663 95.1911 131.58C95.3672 131.496 95.5045 131.379 95.603 131.227C95.7034 131.076 95.7536 130.898 95.7536 130.693C95.7536 130.496 95.71 130.325 95.6229 130.179C95.5357 130.033 95.4126 129.92 95.2536 129.838C95.0964 129.757 94.9107 129.716 94.6967 129.716C94.496 129.716 94.3066 129.753 94.1286 129.827C93.9524 129.899 93.8085 130.004 93.6967 130.142C93.585 130.278 93.5244 130.443 93.5149 130.636H92.8331C92.8445 130.331 92.9363 130.064 93.1087 129.835C93.281 129.604 93.5064 129.424 93.7848 129.295C94.0651 129.167 94.3729 129.102 94.7081 129.102C95.0679 129.102 95.3767 129.175 95.6342 129.321C95.8918 129.465 96.0897 129.655 96.228 129.892C96.3662 130.129 96.4354 130.384 96.4354 130.659C96.4354 130.987 96.3492 131.266 96.1768 131.497C96.0064 131.728 95.7744 131.888 95.4808 131.977V132.023C95.8482 132.083 96.1352 132.24 96.3416 132.491C96.5481 132.741 96.6513 133.051 96.6513 133.42C96.6513 133.737 96.5651 134.021 96.3928 134.273C96.2223 134.523 95.9893 134.72 95.6939 134.864C95.3984 135.008 95.0623 135.08 94.6854 135.08ZM100.325 131.778V132.403H97.7791V131.778H100.325ZM101.219 135V134.489L103.14 132.386C103.365 132.14 103.551 131.926 103.697 131.744C103.843 131.561 103.951 131.388 104.021 131.227C104.093 131.064 104.129 130.894 104.129 130.716C104.129 130.511 104.079 130.334 103.981 130.185C103.884 130.035 103.752 129.92 103.583 129.838C103.415 129.757 103.225 129.716 103.015 129.716C102.791 129.716 102.596 129.762 102.43 129.855C102.265 129.946 102.137 130.074 102.046 130.239C101.957 130.403 101.913 130.597 101.913 130.818H101.242C101.242 130.477 101.321 130.178 101.478 129.92C101.635 129.663 101.849 129.462 102.12 129.318C102.393 129.174 102.699 129.102 103.038 129.102C103.379 129.102 103.681 129.174 103.944 129.318C104.207 129.462 104.414 129.656 104.563 129.901C104.713 130.145 104.788 130.417 104.788 130.716C104.788 130.93 104.749 131.139 104.671 131.344C104.595 131.546 104.463 131.773 104.273 132.023C104.086 132.271 103.826 132.574 103.492 132.932L102.185 134.33V134.375H104.89V135H101.219ZM107.961 135.08C107.533 135.08 107.168 134.963 106.867 134.73C106.566 134.495 106.336 134.155 106.177 133.71C106.018 133.263 105.938 132.723 105.938 132.091C105.938 131.462 106.018 130.925 106.177 130.48C106.338 130.033 106.569 129.692 106.87 129.457C107.173 129.221 107.537 129.102 107.961 129.102C108.385 129.102 108.748 129.221 109.049 129.457C109.352 129.692 109.583 130.033 109.742 130.48C109.903 130.925 109.984 131.462 109.984 132.091C109.984 132.723 109.904 133.263 109.745 133.71C109.586 134.155 109.356 134.495 109.055 134.73C108.754 134.963 108.389 135.08 107.961 135.08ZM107.961 134.455C108.385 134.455 108.715 134.25 108.95 133.841C109.184 133.432 109.302 132.848 109.302 132.091C109.302 131.587 109.248 131.158 109.14 130.804C109.034 130.45 108.88 130.18 108.68 129.994C108.481 129.809 108.241 129.716 107.961 129.716C107.54 129.716 107.212 129.923 106.975 130.338C106.738 130.751 106.62 131.335 106.62 132.091C106.62 132.595 106.673 133.023 106.779 133.375C106.885 133.727 107.038 133.995 107.237 134.179C107.437 134.363 107.679 134.455 107.961 134.455ZM113.109 129.182V135H112.404V129.92H112.37L110.95 130.864V130.148L112.404 129.182H113.109Z" fill="black"/>
<path id="M3-203" d="M87.7045 47.1818H88.5455L90.5227 52.0114H90.5909L92.5682 47.1818H93.4091V53H92.75V48.5795H92.6932L90.875 53H90.2386L88.4205 48.5795H88.3636V53H87.7045V47.1818ZM96.6854 53.0795C96.3104 53.0795 95.9761 53.0152 95.6825 52.8864C95.3909 52.7576 95.1589 52.5786 94.9865 52.3494C94.8161 52.1184 94.7232 51.8504 94.7081 51.5455H95.424C95.4392 51.733 95.5036 51.8949 95.6172 52.0312C95.7308 52.1657 95.8795 52.2699 96.0632 52.3438C96.2469 52.4176 96.4505 52.4545 96.674 52.4545C96.924 52.4545 97.1456 52.411 97.3388 52.3239C97.532 52.2367 97.6835 52.1155 97.7933 51.9602C97.9032 51.8049 97.9581 51.625 97.9581 51.4205C97.9581 51.2064 97.9051 51.018 97.799 50.8551C97.6929 50.6903 97.5376 50.5616 97.3331 50.4688C97.1286 50.3759 96.8786 50.3295 96.5831 50.3295H96.1172V49.7045H96.5831C96.8142 49.7045 97.0168 49.6629 97.1911 49.5795C97.3672 49.4962 97.5045 49.3788 97.603 49.2273C97.7034 49.0758 97.7536 48.8977 97.7536 48.6932C97.7536 48.4962 97.71 48.3248 97.6229 48.179C97.5357 48.0331 97.4126 47.9195 97.2536 47.8381C97.0964 47.7566 96.9107 47.7159 96.6967 47.7159C96.496 47.7159 96.3066 47.7528 96.1286 47.8267C95.9524 47.8987 95.8085 48.0038 95.6967 48.142C95.585 48.2784 95.5244 48.4432 95.5149 48.6364H94.8331C94.8445 48.3314 94.9363 48.0644 95.1087 47.8352C95.281 47.6042 95.5064 47.4242 95.7848 47.2955C96.0651 47.1667 96.3729 47.1023 96.7081 47.1023C97.0679 47.1023 97.3767 47.1752 97.6342 47.321C97.8918 47.465 98.0897 47.6553 98.228 47.892C98.3662 48.1288 98.4354 48.3845 98.4354 48.6591C98.4354 48.9867 98.3492 49.2661 98.1768 49.4972C98.0064 49.7282 97.7744 49.8883 97.4808 49.9773V50.0227C97.8482 50.0833 98.1352 50.2396 98.3416 50.4915C98.5481 50.7415 98.6513 51.0511 98.6513 51.4205C98.6513 51.7367 98.5651 52.0208 98.3928 52.2727C98.2223 52.5227 97.9893 52.7197 97.6939 52.8636C97.3984 53.0076 97.0623 53.0795 96.6854 53.0795ZM102.325 49.7784V50.4034H99.7791V49.7784H102.325ZM103.219 53V52.4886L105.14 50.3864C105.365 50.1402 105.551 49.9261 105.697 49.7443C105.843 49.5606 105.951 49.3883 106.021 49.2273C106.093 49.0644 106.129 48.8939 106.129 48.7159C106.129 48.5114 106.079 48.3343 105.981 48.1847C105.884 48.035 105.752 47.9195 105.583 47.8381C105.415 47.7566 105.225 47.7159 105.015 47.7159C104.791 47.7159 104.596 47.7623 104.43 47.8551C104.265 47.946 104.137 48.0739 104.046 48.2386C103.957 48.4034 103.913 48.5966 103.913 48.8182H103.242C103.242 48.4773 103.321 48.178 103.478 47.9205C103.635 47.6629 103.849 47.4621 104.12 47.3182C104.393 47.1742 104.699 47.1023 105.038 47.1023C105.379 47.1023 105.681 47.1742 105.944 47.3182C106.207 47.4621 106.414 47.6562 106.563 47.9006C106.713 48.1449 106.788 48.4167 106.788 48.7159C106.788 48.9299 106.749 49.1392 106.671 49.3438C106.595 49.5464 106.463 49.7727 106.273 50.0227C106.086 50.2708 105.826 50.5739 105.492 50.9318L104.185 52.3295V52.375H106.89V53H103.219ZM109.961 53.0795C109.533 53.0795 109.168 52.9631 108.867 52.7301C108.566 52.4953 108.336 52.1553 108.177 51.7102C108.018 51.2633 107.938 50.7235 107.938 50.0909C107.938 49.4621 108.018 48.9252 108.177 48.4801C108.338 48.0331 108.569 47.6922 108.87 47.4574C109.173 47.2206 109.537 47.1023 109.961 47.1023C110.385 47.1023 110.748 47.2206 111.049 47.4574C111.352 47.6922 111.583 48.0331 111.742 48.4801C111.903 48.9252 111.984 49.4621 111.984 50.0909C111.984 50.7235 111.904 51.2633 111.745 51.7102C111.586 52.1553 111.356 52.4953 111.055 52.7301C110.754 52.9631 110.389 53.0795 109.961 53.0795ZM109.961 52.4545C110.385 52.4545 110.715 52.25 110.95 51.8409C111.184 51.4318 111.302 50.8485 111.302 50.0909C111.302 49.5871 111.248 49.1581 111.14 48.804C111.034 48.4498 110.88 48.1799 110.68 47.9943C110.481 47.8087 110.241 47.7159 109.961 47.7159C109.54 47.7159 109.212 47.9233 108.975 48.3381C108.738 48.7509 108.62 49.3352 108.62 50.0909C108.62 50.5947 108.673 51.0227 108.779 51.375C108.885 51.7273 109.038 51.9953 109.237 52.179C109.437 52.3627 109.679 52.4545 109.961 52.4545ZM115.029 53.0795C114.654 53.0795 114.32 53.0152 114.026 52.8864C113.735 52.7576 113.503 52.5786 113.33 52.3494C113.16 52.1184 113.067 51.8504 113.052 51.5455H113.768C113.783 51.733 113.847 51.8949 113.961 52.0312C114.075 52.1657 114.223 52.2699 114.407 52.3438C114.591 52.4176 114.794 52.4545 115.018 52.4545C115.268 52.4545 115.489 52.411 115.683 52.3239C115.876 52.2367 116.027 52.1155 116.137 51.9602C116.247 51.8049 116.302 51.625 116.302 51.4205C116.302 51.2064 116.249 51.018 116.143 50.8551C116.037 50.6903 115.881 50.5616 115.677 50.4688C115.472 50.3759 115.222 50.3295 114.927 50.3295H114.461V49.7045H114.927C115.158 49.7045 115.361 49.6629 115.535 49.5795C115.711 49.4962 115.848 49.3788 115.947 49.2273C116.047 49.0758 116.097 48.8977 116.097 48.6932C116.097 48.4962 116.054 48.3248 115.967 48.179C115.879 48.0331 115.756 47.9195 115.597 47.8381C115.44 47.7566 115.254 47.7159 115.04 47.7159C114.84 47.7159 114.65 47.7528 114.472 47.8267C114.296 47.8987 114.152 48.0038 114.04 48.142C113.929 48.2784 113.868 48.4432 113.859 48.6364H113.177C113.188 48.3314 113.28 48.0644 113.452 47.8352C113.625 47.6042 113.85 47.4242 114.129 47.2955C114.409 47.1667 114.717 47.1023 115.052 47.1023C115.412 47.1023 115.72 47.1752 115.978 47.321C116.236 47.465 116.433 47.6553 116.572 47.892C116.71 48.1288 116.779 48.3845 116.779 48.6591C116.779 48.9867 116.693 49.2661 116.521 49.4972C116.35 49.7282 116.118 49.8883 115.825 49.9773V50.0227C116.192 50.0833 116.479 50.2396 116.685 50.4915C116.892 50.7415 116.995 51.0511 116.995 51.4205C116.995 51.7367 116.909 52.0208 116.737 52.2727C116.566 52.5227 116.333 52.7197 116.038 52.8636C115.742 53.0076 115.406 53.0795 115.029 53.0795Z" fill="black"/>
<path id="M3-204" d="M87.7045 13.1818H88.5455L90.5227 18.0114H90.5909L92.5682 13.1818H93.4091V19H92.75V14.5795H92.6932L90.875 19H90.2386L88.4205 14.5795H88.3636V19H87.7045V13.1818ZM96.6854 19.0795C96.3104 19.0795 95.9761 19.0152 95.6825 18.8864C95.3909 18.7576 95.1589 18.5786 94.9865 18.3494C94.8161 18.1184 94.7232 17.8504 94.7081 17.5455H95.424C95.4392 17.733 95.5036 17.8949 95.6172 18.0312C95.7308 18.1657 95.8795 18.2699 96.0632 18.3438C96.2469 18.4176 96.4505 18.4545 96.674 18.4545C96.924 18.4545 97.1456 18.411 97.3388 18.3239C97.532 18.2367 97.6835 18.1155 97.7933 17.9602C97.9032 17.8049 97.9581 17.625 97.9581 17.4205C97.9581 17.2064 97.9051 17.018 97.799 16.8551C97.6929 16.6903 97.5376 16.5616 97.3331 16.4688C97.1286 16.3759 96.8786 16.3295 96.5831 16.3295H96.1172V15.7045H96.5831C96.8142 15.7045 97.0168 15.6629 97.1911 15.5795C97.3672 15.4962 97.5045 15.3788 97.603 15.2273C97.7034 15.0758 97.7536 14.8977 97.7536 14.6932C97.7536 14.4962 97.71 14.3248 97.6229 14.179C97.5357 14.0331 97.4126 13.9195 97.2536 13.8381C97.0964 13.7566 96.9107 13.7159 96.6967 13.7159C96.496 13.7159 96.3066 13.7528 96.1286 13.8267C95.9524 13.8987 95.8085 14.0038 95.6967 14.142C95.585 14.2784 95.5244 14.4432 95.5149 14.6364H94.8331C94.8445 14.3314 94.9363 14.0644 95.1087 13.8352C95.281 13.6042 95.5064 13.4242 95.7848 13.2955C96.0651 13.1667 96.3729 13.1023 96.7081 13.1023C97.0679 13.1023 97.3767 13.1752 97.6342 13.321C97.8918 13.465 98.0897 13.6553 98.228 13.892C98.3662 14.1288 98.4354 14.3845 98.4354 14.6591C98.4354 14.9867 98.3492 15.2661 98.1768 15.4972C98.0064 15.7282 97.7744 15.8883 97.4808 15.9773V16.0227C97.8482 16.0833 98.1352 16.2396 98.3416 16.4915C98.5481 16.7415 98.6513 17.0511 98.6513 17.4205C98.6513 17.7367 98.5651 18.0208 98.3928 18.2727C98.2223 18.5227 97.9893 18.7197 97.6939 18.8636C97.3984 19.0076 97.0623 19.0795 96.6854 19.0795ZM102.325 15.7784V16.4034H99.7791V15.7784H102.325ZM103.219 19V18.4886L105.14 16.3864C105.365 16.1402 105.551 15.9261 105.697 15.7443C105.843 15.5606 105.951 15.3883 106.021 15.2273C106.093 15.0644 106.129 14.8939 106.129 14.7159C106.129 14.5114 106.079 14.3343 105.981 14.1847C105.884 14.035 105.752 13.9195 105.583 13.8381C105.415 13.7566 105.225 13.7159 105.015 13.7159C104.791 13.7159 104.596 13.7623 104.43 13.8551C104.265 13.946 104.137 14.0739 104.046 14.2386C103.957 14.4034 103.913 14.5966 103.913 14.8182H103.242C103.242 14.4773 103.321 14.178 103.478 13.9205C103.635 13.6629 103.849 13.4621 104.12 13.3182C104.393 13.1742 104.699 13.1023 105.038 13.1023C105.379 13.1023 105.681 13.1742 105.944 13.3182C106.207 13.4621 106.414 13.6562 106.563 13.9006C106.713 14.1449 106.788 14.4167 106.788 14.7159C106.788 14.9299 106.749 15.1392 106.671 15.3438C106.595 15.5464 106.463 15.7727 106.273 16.0227C106.086 16.2708 105.826 16.5739 105.492 16.9318L104.185 18.3295V18.375H106.89V19H103.219ZM109.961 19.0795C109.533 19.0795 109.168 18.9631 108.867 18.7301C108.566 18.4953 108.336 18.1553 108.177 17.7102C108.018 17.2633 107.938 16.7235 107.938 16.0909C107.938 15.4621 108.018 14.9252 108.177 14.4801C108.338 14.0331 108.569 13.6922 108.87 13.4574C109.173 13.2206 109.537 13.1023 109.961 13.1023C110.385 13.1023 110.748 13.2206 111.049 13.4574C111.352 13.6922 111.583 14.0331 111.742 14.4801C111.903 14.9252 111.984 15.4621 111.984 16.0909C111.984 16.7235 111.904 17.2633 111.745 17.7102C111.586 18.1553 111.356 18.4953 111.055 18.7301C110.754 18.9631 110.389 19.0795 109.961 19.0795ZM109.961 18.4545C110.385 18.4545 110.715 18.25 110.95 17.8409C111.184 17.4318 111.302 16.8485 111.302 16.0909C111.302 15.5871 111.248 15.1581 111.14 14.804C111.034 14.4498 110.88 14.1799 110.68 13.9943C110.481 13.8087 110.241 13.7159 109.961 13.7159C109.54 13.7159 109.212 13.9233 108.975 14.3381C108.738 14.7509 108.62 15.3352 108.62 16.0909C108.62 16.5947 108.673 17.0227 108.779 17.375C108.885 17.7273 109.038 17.9953 109.237 18.179C109.437 18.3627 109.679 18.4545 109.961 18.4545ZM112.927 17.8068V17.2273L115.484 13.1818H115.904V14.0795H115.62L113.688 17.1364V17.1818H117.131V17.8068H112.927ZM115.665 19V17.6307V17.3608V13.1818H116.336V19H115.665Z" fill="black"/>
<g id="Group 15">
<rect id="Rectangle 63" width="72" height="26" fill="#B0C4DE"/>
<path id="&#226;&#154;&#165;" d="M35.8797 17.5862V15.9662H34.1097V15.2612H35.8797V13.9412C35.3697 13.8712 34.9097 13.6912 34.4997 13.4012C34.0897 13.1112 33.7647 12.7412 33.5247 12.2912C33.2847 11.8412 33.1647 11.3562 33.1647 10.8362C33.1647 10.2762 33.3047 9.76621 33.5847 9.30621C33.8747 8.83621 34.2547 8.46121 34.7247 8.18121C35.2047 7.90121 35.7247 7.76121 36.2847 7.76121C36.6347 7.76121 36.9647 7.81621 37.2747 7.92621C37.5847 8.02621 37.8747 8.17621 38.1447 8.37621L39.5397 6.81621L38.3547 6.23121L40.8747 5.94621L40.8897 8.48121L40.1547 7.35621L38.7297 8.94621C38.9597 9.21621 39.1297 9.51121 39.2397 9.83121C39.3497 10.1412 39.4047 10.4762 39.4047 10.8362C39.4047 11.3462 39.2847 11.8262 39.0447 12.2762C38.8047 12.7262 38.4797 13.1012 38.0697 13.4012C37.6697 13.6912 37.2097 13.8712 36.6897 13.9412V15.2612H38.3547V15.9662H36.6897V17.5862H35.8797ZM36.2847 13.2062C36.7147 13.2062 37.1097 13.1012 37.4697 12.8912C37.8297 12.6712 38.1147 12.3812 38.3247 12.0212C38.5447 11.6612 38.6547 11.2662 38.6547 10.8362C38.6547 10.4162 38.5447 10.0312 38.3247 9.68121C38.1147 9.33121 37.8297 9.05121 37.4697 8.84121C37.1097 8.62121 36.7147 8.51121 36.2847 8.51121C35.8547 8.51121 35.4597 8.62121 35.0997 8.84121C34.7397 9.05121 34.4497 9.33121 34.2297 9.68121C34.0197 10.0312 33.9147 10.4162 33.9147 10.8362C33.9147 11.2662 34.0197 11.6612 34.2297 12.0212C34.4497 12.3812 34.7397 12.6712 35.0997 12.8912C35.4597 13.1012 35.8547 13.2062 36.2847 13.2062Z" fill="black"/>
</g>
<g id="Group 15_2">
<rect id="Rectangle 60" x="139" y="154" width="42" height="38" fill="#B0C4DE"/>
<path id="&#226;&#153;&#130;" d="M159.256 178.195C158.696 178.195 158.176 178.055 157.696 177.775C157.226 177.495 156.846 177.12 156.556 176.65C156.276 176.17 156.136 175.645 156.136 175.075C156.136 174.515 156.276 174.005 156.556 173.545C156.846 173.075 157.226 172.7 157.696 172.42C158.176 172.14 158.696 172 159.256 172C159.596 172 159.921 172.055 160.231 172.165C160.541 172.265 160.836 172.415 161.116 172.615L162.511 171.055L161.326 170.47L163.846 170.185L163.861 172.72L163.126 171.595L161.701 173.185C161.931 173.465 162.101 173.765 162.211 174.085C162.321 174.395 162.376 174.725 162.376 175.075C162.376 175.645 162.236 176.17 161.956 176.65C161.676 177.12 161.296 177.495 160.816 177.775C160.346 178.055 159.826 178.195 159.256 178.195ZM159.256 177.445C159.686 177.445 160.081 177.34 160.441 177.13C160.801 176.91 161.086 176.62 161.296 176.26C161.516 175.9 161.626 175.505 161.626 175.075C161.626 174.655 161.516 174.27 161.296 173.92C161.086 173.56 160.801 173.275 160.441 173.065C160.081 172.855 159.686 172.75 159.256 172.75C158.826 172.75 158.431 172.855 158.071 173.065C157.711 173.275 157.421 173.56 157.201 173.92C156.991 174.27 156.886 174.655 156.886 175.075C156.886 175.505 156.991 175.9 157.201 176.26C157.421 176.62 157.711 176.91 158.071 177.13C158.431 177.34 158.826 177.445 159.256 177.445Z" fill="black"/>
</g>
<rect id="Rectangle 76" y="192" width="194" height="31" fill="#EF9A9A"/>
<path id="M3-204_2" d="M72 0H184V38H72V0Z" fill="#BDD7EE"/>
<rect id="M3-203_2" x="72" y="38" width="111" height="40" fill="#BDD7EE"/>
<rect id="M3-202_2" x="72" y="78" width="111" height="39" fill="#BDD7EE"/>
<path id="M3-202_3" d="M85.7045 92.1818H86.5455L88.5227 97.0114H88.5909L90.5682 92.1818H91.4091V98H90.75V93.5795H90.6932L88.875 98H88.2386L86.4205 93.5795H86.3636V98H85.7045V92.1818ZM94.6854 98.0795C94.3104 98.0795 93.9761 98.0152 93.6825 97.8864C93.3909 97.7576 93.1589 97.5786 92.9865 97.3494C92.8161 97.1184 92.7232 96.8504 92.7081 96.5455H93.424C93.4392 96.733 93.5036 96.8949 93.6172 97.0312C93.7308 97.1657 93.8795 97.2699 94.0632 97.3438C94.2469 97.4176 94.4505 97.4545 94.674 97.4545C94.924 97.4545 95.1456 97.411 95.3388 97.3239C95.532 97.2367 95.6835 97.1155 95.7933 96.9602C95.9032 96.8049 95.9581 96.625 95.9581 96.4205C95.9581 96.2064 95.9051 96.018 95.799 95.8551C95.6929 95.6903 95.5376 95.5616 95.3331 95.4688C95.1286 95.3759 94.8786 95.3295 94.5831 95.3295H94.1172V94.7045H94.5831C94.8142 94.7045 95.0168 94.6629 95.1911 94.5795C95.3672 94.4962 95.5045 94.3788 95.603 94.2273C95.7034 94.0758 95.7536 93.8977 95.7536 93.6932C95.7536 93.4962 95.71 93.3248 95.6229 93.179C95.5357 93.0331 95.4126 92.9195 95.2536 92.8381C95.0964 92.7566 94.9107 92.7159 94.6967 92.7159C94.496 92.7159 94.3066 92.7528 94.1286 92.8267C93.9524 92.8987 93.8085 93.0038 93.6967 93.142C93.585 93.2784 93.5244 93.4432 93.5149 93.6364H92.8331C92.8445 93.3314 92.9363 93.0644 93.1087 92.8352C93.281 92.6042 93.5064 92.4242 93.7848 92.2955C94.0651 92.1667 94.3729 92.1023 94.7081 92.1023C95.0679 92.1023 95.3767 92.1752 95.6342 92.321C95.8918 92.465 96.0897 92.6553 96.228 92.892C96.3662 93.1288 96.4354 93.3845 96.4354 93.6591C96.4354 93.9867 96.3492 94.2661 96.1768 94.4972C96.0064 94.7282 95.7744 94.8883 95.4808 94.9773V95.0227C95.8482 95.0833 96.1352 95.2396 96.3416 95.4915C96.5481 95.7415 96.6513 96.0511 96.6513 96.4205C96.6513 96.7367 96.5651 97.0208 96.3928 97.2727C96.2223 97.5227 95.9893 97.7197 95.6939 97.8636C95.3984 98.0076 95.0623 98.0795 94.6854 98.0795ZM100.325 94.7784V95.4034H97.7791V94.7784H100.325ZM101.219 98V97.4886L103.14 95.3864C103.365 95.1402 103.551 94.9261 103.697 94.7443C103.843 94.5606 103.951 94.3883 104.021 94.2273C104.093 94.0644 104.129 93.8939 104.129 93.7159C104.129 93.5114 104.079 93.3343 103.981 93.1847C103.884 93.035 103.752 92.9195 103.583 92.8381C103.415 92.7566 103.225 92.7159 103.015 92.7159C102.791 92.7159 102.596 92.7623 102.43 92.8551C102.265 92.946 102.137 93.0739 102.046 93.2386C101.957 93.4034 101.913 93.5966 101.913 93.8182H101.242C101.242 93.4773 101.321 93.178 101.478 92.9205C101.635 92.6629 101.849 92.4621 102.12 92.3182C102.393 92.1742 102.699 92.1023 103.038 92.1023C103.379 92.1023 103.681 92.1742 103.944 92.3182C104.207 92.4621 104.414 92.6562 104.563 92.9006C104.713 93.1449 104.788 93.4167 104.788 93.7159C104.788 93.9299 104.749 94.1392 104.671 94.3438C104.595 94.5464 104.463 94.7727 104.273 95.0227C104.086 95.2708 103.826 95.5739 103.492 95.9318L102.185 97.3295V97.375H104.89V98H101.219ZM107.961 98.0795C107.533 98.0795 107.168 97.9631 106.867 97.7301C106.566 97.4953 106.336 97.1553 106.177 96.7102C106.018 96.2633 105.938 95.7235 105.938 95.0909C105.938 94.4621 106.018 93.9252 106.177 93.4801C106.338 93.0331 106.569 92.6922 106.87 92.4574C107.173 92.2206 107.537 92.1023 107.961 92.1023C108.385 92.1023 108.748 92.2206 109.049 92.4574C109.352 92.6922 109.583 93.0331 109.742 93.4801C109.903 93.9252 109.984 94.4621 109.984 95.0909C109.984 95.7235 109.904 96.2633 109.745 96.7102C109.586 97.1553 109.356 97.4953 109.055 97.7301C108.754 97.9631 108.389 98.0795 107.961 98.0795ZM107.961 97.4545C108.385 97.4545 108.715 97.25 108.95 96.8409C109.184 96.4318 109.302 95.8485 109.302 95.0909C109.302 94.5871 109.248 94.1581 109.14 93.804C109.034 93.4498 108.88 93.1799 108.68 92.9943C108.481 92.8087 108.241 92.7159 107.961 92.7159C107.54 92.7159 107.212 92.9233 106.975 93.3381C106.738 93.7509 106.62 94.3352 106.62 95.0909C106.62 95.5947 106.673 96.0227 106.779 96.375C106.885 96.7273 107.038 96.9953 107.237 97.179C107.437 97.3627 107.679 97.4545 107.961 97.4545ZM111.063 98V97.4886L112.984 95.3864C113.209 95.1402 113.395 94.9261 113.54 94.7443C113.686 94.5606 113.794 94.3883 113.864 94.2273C113.936 94.0644 113.972 93.8939 113.972 93.7159C113.972 93.5114 113.923 93.3343 113.825 93.1847C113.728 93.035 113.595 92.9195 113.427 92.8381C113.258 92.7566 113.069 92.7159 112.859 92.7159C112.635 92.7159 112.44 92.7623 112.273 92.8551C112.109 92.946 111.981 93.0739 111.89 93.2386C111.801 93.4034 111.756 93.5966 111.756 93.8182H111.086C111.086 93.4773 111.165 93.178 111.322 92.9205C111.479 92.6629 111.693 92.4621 111.964 92.3182C112.237 92.1742 112.542 92.1023 112.881 92.1023C113.222 92.1023 113.524 92.1742 113.788 92.3182C114.051 92.4621 114.257 92.6562 114.407 92.9006C114.557 93.1449 114.631 93.4167 114.631 93.7159C114.631 93.9299 114.593 94.1392 114.515 94.3438C114.439 94.5464 114.307 94.7727 114.117 95.0227C113.93 95.2708 113.669 95.5739 113.336 95.9318L112.029 97.3295V97.375H114.734V98H111.063Z" fill="black"/>
<rect id="M3-201_2" x="72" y="117" width="110" height="37" fill="#BDD7EE"/>
<path id="M3-201_3" d="M85.7045 129.182H86.5455L88.5227 134.011H88.5909L90.5682 129.182H91.4091V135H90.75V130.58H90.6932L88.875 135H88.2386L86.4205 130.58H86.3636V135H85.7045V129.182ZM94.6854 135.08C94.3104 135.08 93.9761 135.015 93.6825 134.886C93.3909 134.758 93.1589 134.579 92.9865 134.349C92.8161 134.118 92.7232 133.85 92.7081 133.545H93.424C93.4392 133.733 93.5036 133.895 93.6172 134.031C93.7308 134.166 93.8795 134.27 94.0632 134.344C94.2469 134.418 94.4505 134.455 94.674 134.455C94.924 134.455 95.1456 134.411 95.3388 134.324C95.532 134.237 95.6835 134.116 95.7933 133.96C95.9032 133.805 95.9581 133.625 95.9581 133.42C95.9581 133.206 95.9051 133.018 95.799 132.855C95.6929 132.69 95.5376 132.562 95.3331 132.469C95.1286 132.376 94.8786 132.33 94.5831 132.33H94.1172V131.705H94.5831C94.8142 131.705 95.0168 131.663 95.1911 131.58C95.3672 131.496 95.5045 131.379 95.603 131.227C95.7034 131.076 95.7536 130.898 95.7536 130.693C95.7536 130.496 95.71 130.325 95.6229 130.179C95.5357 130.033 95.4126 129.92 95.2536 129.838C95.0964 129.757 94.9107 129.716 94.6967 129.716C94.496 129.716 94.3066 129.753 94.1286 129.827C93.9524 129.899 93.8085 130.004 93.6967 130.142C93.585 130.278 93.5244 130.443 93.5149 130.636H92.8331C92.8445 130.331 92.9363 130.064 93.1087 129.835C93.281 129.604 93.5064 129.424 93.7848 129.295C94.0651 129.167 94.3729 129.102 94.7081 129.102C95.0679 129.102 95.3767 129.175 95.6342 129.321C95.8918 129.465 96.0897 129.655 96.228 129.892C96.3662 130.129 96.4354 130.384 96.4354 130.659C96.4354 130.987 96.3492 131.266 96.1768 131.497C96.0064 131.728 95.7744 131.888 95.4808 131.977V132.023C95.8482 132.083 96.1352 132.24 96.3416 132.491C96.5481 132.741 96.6513 133.051 96.6513 133.42C96.6513 133.737 96.5651 134.021 96.3928 134.273C96.2223 134.523 95.9893 134.72 95.6939 134.864C95.3984 135.008 95.0623 135.08 94.6854 135.08ZM100.325 131.778V132.403H97.7791V131.778H100.325ZM101.219 135V134.489L103.14 132.386C103.365 132.14 103.551 131.926 103.697 131.744C103.843 131.561 103.951 131.388 104.021 131.227C104.093 131.064 104.129 130.894 104.129 130.716C104.129 130.511 104.079 130.334 103.981 130.185C103.884 130.035 103.752 129.92 103.583 129.838C103.415 129.757 103.225 129.716 103.015 129.716C102.791 129.716 102.596 129.762 102.43 129.855C102.265 129.946 102.137 130.074 102.046 130.239C101.957 130.403 101.913 130.597 101.913 130.818H101.242C101.242 130.477 101.321 130.178 101.478 129.92C101.635 129.663 101.849 129.462 102.12 129.318C102.393 129.174 102.699 129.102 103.038 129.102C103.379 129.102 103.681 129.174 103.944 129.318C104.207 129.462 104.414 129.656 104.563 129.901C104.713 130.145 104.788 130.417 104.788 130.716C104.788 130.93 104.749 131.139 104.671 131.344C104.595 131.546 104.463 131.773 104.273 132.023C104.086 132.271 103.826 132.574 103.492 132.932L102.185 134.33V134.375H104.89V135H101.219ZM107.961 135.08C107.533 135.08 107.168 134.963 106.867 134.73C106.566 134.495 106.336 134.155 106.177 133.71C106.018 133.263 105.938 132.723 105.938 132.091C105.938 131.462 106.018 130.925 106.177 130.48C106.338 130.033 106.569 129.692 106.87 129.457C107.173 129.221 107.537 129.102 107.961 129.102C108.385 129.102 108.748 129.221 109.049 129.457C109.352 129.692 109.583 130.033 109.742 130.48C109.903 130.925 109.984 131.462 109.984 132.091C109.984 132.723 109.904 133.263 109.745 133.71C109.586 134.155 109.356 134.495 109.055 134.73C108.754 134.963 108.389 135.08 107.961 135.08ZM107.961 134.455C108.385 134.455 108.715 134.25 108.95 133.841C109.184 133.432 109.302 132.848 109.302 132.091C109.302 131.587 109.248 131.158 109.14 130.804C109.034 130.45 108.88 130.18 108.68 129.994C108.481 129.809 108.241 129.716 107.961 129.716C107.54 129.716 107.212 129.923 106.975 130.338C106.738 130.751 106.62 131.335 106.62 132.091C106.62 132.595 106.673 133.023 106.779 133.375C106.885 133.727 107.038 133.995 107.237 134.179C107.437 134.363 107.679 134.455 107.961 134.455ZM113.109 129.182V135H112.404V129.92H112.37L110.95 130.864V130.148L112.404 129.182H113.109Z" fill="black"/>
<path id="M3-203_3" d="M87.7045 47.1818H88.5455L90.5227 52.0114H90.5909L92.5682 47.1818H93.4091V53H92.75V48.5795H92.6932L90.875 53H90.2386L88.4205 48.5795H88.3636V53H87.7045V47.1818ZM96.6854 53.0795C96.3104 53.0795 95.9761 53.0152 95.6825 52.8864C95.3909 52.7576 95.1589 52.5786 94.9865 52.3494C94.8161 52.1184 94.7232 51.8504 94.7081 51.5455H95.424C95.4392 51.733 95.5036 51.8949 95.6172 52.0312C95.7308 52.1657 95.8795 52.2699 96.0632 52.3438C96.2469 52.4176 96.4505 52.4545 96.674 52.4545C96.924 52.4545 97.1456 52.411 97.3388 52.3239C97.532 52.2367 97.6835 52.1155 97.7933 51.9602C97.9032 51.8049 97.9581 51.625 97.9581 51.4205C97.9581 51.2064 97.9051 51.018 97.799 50.8551C97.6929 50.6903 97.5376 50.5616 97.3331 50.4688C97.1286 50.3759 96.8786 50.3295 96.5831 50.3295H96.1172V49.7045H96.5831C96.8142 49.7045 97.0168 49.6629 97.1911 49.5795C97.3672 49.4962 97.5045 49.3788 97.603 49.2273C97.7034 49.0758 97.7536 48.8977 97.7536 48.6932C97.7536 48.4962 97.71 48.3248 97.6229 48.179C97.5357 48.0331 97.4126 47.9195 97.2536 47.8381C97.0964 47.7566 96.9107 47.7159 96.6967 47.7159C96.496 47.7159 96.3066 47.7528 96.1286 47.8267C95.9524 47.8987 95.8085 48.0038 95.6967 48.142C95.585 48.2784 95.5244 48.4432 95.5149 48.6364H94.8331C94.8445 48.3314 94.9363 48.0644 95.1087 47.8352C95.281 47.6042 95.5064 47.4242 95.7848 47.2955C96.0651 47.1667 96.3729 47.1023 96.7081 47.1023C97.0679 47.1023 97.3767 47.1752 97.6342 47.321C97.8918 47.465 98.0897 47.6553 98.228 47.892C98.3662 48.1288 98.4354 48.3845 98.4354 48.6591C98.4354 48.9867 98.3492 49.2661 98.1768 49.4972C98.0064 49.7282 97.7744 49.8883 97.4808 49.9773V50.0227C97.8482 50.0833 98.1352 50.2396 98.3416 50.4915C98.5481 50.7415 98.6513 51.0511 98.6513 51.4205C98.6513 51.7367 98.5651 52.0208 98.3928 52.2727C98.2223 52.5227 97.9893 52.7197 97.6939 52.8636C97.3984 53.0076 97.0623 53.0795 96.6854 53.0795ZM102.325 49.7784V50.4034H99.7791V49.7784H102.325ZM103.219 53V52.4886L105.14 50.3864C105.365 50.1402 105.551 49.9261 105.697 49.7443C105.843 49.5606 105.951 49.3883 106.021 49.2273C106.093 49.0644 106.129 48.8939 106.129 48.7159C106.129 48.5114 106.079 48.3343 105.981 48.1847C105.884 48.035 105.752 47.9195 105.583 47.8381C105.415 47.7566 105.225 47.7159 105.015 47.7159C104.791 47.7159 104.596 47.7623 104.43 47.8551C104.265 47.946 104.137 48.0739 104.046 48.2386C103.957 48.4034 103.913 48.5966 103.913 48.8182H103.242C103.242 48.4773 103.321 48.178 103.478 47.9205C103.635 47.6629 103.849 47.4621 104.12 47.3182C104.393 47.1742 104.699 47.1023 105.038 47.1023C105.379 47.1023 105.681 47.1742 105.944 47.3182C106.207 47.4621 106.414 47.6562 106.563 47.9006C106.713 48.1449 106.788 48.4167 106.788 48.7159C106.788 48.9299 106.749 49.1392 106.671 49.3438C106.595 49.5464 106.463 49.7727 106.273 50.0227C106.086 50.2708 105.826 50.5739 105.492 50.9318L104.185 52.3295V52.375H106.89V53H103.219ZM109.961 53.0795C109.533 53.0795 109.168 52.9631 108.867 52.7301C108.566 52.4953 108.336 52.1553 108.177 51.7102C108.018 51.2633 107.938 50.7235 107.938 50.0909C107.938 49.4621 108.018 48.9252 108.177 48.4801C108.338 48.0331 108.569 47.6922 108.87 47.4574C109.173 47.2206 109.537 47.1023 109.961 47.1023C110.385 47.1023 110.748 47.2206 111.049 47.4574C111.352 47.6922 111.583 48.0331 111.742 48.4801C111.903 48.9252 111.984 49.4621 111.984 50.0909C111.984 50.7235 111.904 51.2633 111.745 51.7102C111.586 52.1553 111.356 52.4953 111.055 52.7301C110.754 52.9631 110.389 53.0795 109.961 53.0795ZM109.961 52.4545C110.385 52.4545 110.715 52.25 110.95 51.8409C111.184 51.4318 111.302 50.8485 111.302 50.0909C111.302 49.5871 111.248 49.1581 111.14 48.804C111.034 48.4498 110.88 48.1799 110.68 47.9943C110.481 47.8087 110.241 47.7159 109.961 47.7159C109.54 47.7159 109.212 47.9233 108.975 48.3381C108.738 48.7509 108.62 49.3352 108.62 50.0909C108.62 50.5947 108.673 51.0227 108.779 51.375C108.885 51.7273 109.038 51.9953 109.237 52.179C109.437 52.3627 109.679 52.4545 109.961 52.4545ZM115.029 53.0795C114.654 53.0795 114.32 53.0152 114.026 52.8864C113.735 52.7576 113.503 52.5786 113.33 52.3494C113.16 52.1184 113.067 51.8504 113.052 51.5455H113.768C113.783 51.733 113.847 51.8949 113.961 52.0312C114.075 52.1657 114.223 52.2699 114.407 52.3438C114.591 52.4176 114.794 52.4545 115.018 52.4545C115.268 52.4545 115.489 52.411 115.683 52.3239C115.876 52.2367 116.027 52.1155 116.137 51.9602C116.247 51.8049 116.302 51.625 116.302 51.4205C116.302 51.2064 116.249 51.018 116.143 50.8551C116.037 50.6903 115.881 50.5616 115.677 50.4688C115.472 50.3759 115.222 50.3295 114.927 50.3295H114.461V49.7045H114.927C115.158 49.7045 115.361 49.6629 115.535 49.5795C115.711 49.4962 115.848 49.3788 115.947 49.2273C116.047 49.0758 116.097 48.8977 116.097 48.6932C116.097 48.4962 116.054 48.3248 115.967 48.179C115.879 48.0331 115.756 47.9195 115.597 47.8381C115.44 47.7566 115.254 47.7159 115.04 47.7159C114.84 47.7159 114.65 47.7528 114.472 47.8267C114.296 47.8987 114.152 48.0038 114.04 48.142C113.929 48.2784 113.868 48.4432 113.859 48.6364H113.177C113.188 48.3314 113.28 48.0644 113.452 47.8352C113.625 47.6042 113.85 47.4242 114.129 47.2955C114.409 47.1667 114.717 47.1023 115.052 47.1023C115.412 47.1023 115.72 47.1752 115.978 47.321C116.236 47.465 116.433 47.6553 116.572 47.892C116.71 48.1288 116.779 48.3845 116.779 48.6591C116.779 48.9867 116.693 49.2661 116.521 49.4972C116.35 49.7282 116.118 49.8883 115.825 49.9773V50.0227C116.192 50.0833 116.479 50.2396 116.685 50.4915C116.892 50.7415 116.995 51.0511 116.995 51.4205C116.995 51.7367 116.909 52.0208 116.737 52.2727C116.566 52.5227 116.333 52.7197 116.038 52.8636C115.742 53.0076 115.406 53.0795 115.029 53.0795Z" fill="black"/>
<path id="M3-204_3" d="M87.7045 13.1818H88.5455L90.5227 18.0114H90.5909L92.5682 13.1818H93.4091V19H92.75V14.5795H92.6932L90.875 19H90.2386L88.4205 14.5795H88.3636V19H87.7045V13.1818ZM96.6854 19.0795C96.3104 19.0795 95.9761 19.0152 95.6825 18.8864C95.3909 18.7576 95.1589 18.5786 94.9865 18.3494C94.8161 18.1184 94.7232 17.8504 94.7081 17.5455H95.424C95.4392 17.733 95.5036 17.8949 95.6172 18.0312C95.7308 18.1657 95.8795 18.2699 96.0632 18.3438C96.2469 18.4176 96.4505 18.4545 96.674 18.4545C96.924 18.4545 97.1456 18.411 97.3388 18.3239C97.532 18.2367 97.6835 18.1155 97.7933 17.9602C97.9032 17.8049 97.9581 17.625 97.9581 17.4205C97.9581 17.2064 97.9051 17.018 97.799 16.8551C97.6929 16.6903 97.5376 16.5616 97.3331 16.4688C97.1286 16.3759 96.8786 16.3295 96.5831 16.3295H96.1172V15.7045H96.5831C96.8142 15.7045 97.0168 15.6629 97.1911 15.5795C97.3672 15.4962 97.5045 15.3788 97.603 15.2273C97.7034 15.0758 97.7536 14.8977 97.7536 14.6932C97.7536 14.4962 97.71 14.3248 97.6229 14.179C97.5357 14.0331 97.4126 13.9195 97.2536 13.8381C97.0964 13.7566 96.9107 13.7159 96.6967 13.7159C96.496 13.7159 96.3066 13.7528 96.1286 13.8267C95.9524 13.8987 95.8085 14.0038 95.6967 14.142C95.585 14.2784 95.5244 14.4432 95.5149 14.6364H94.8331C94.8445 14.3314 94.9363 14.0644 95.1087 13.8352C95.281 13.6042 95.5064 13.4242 95.7848 13.2955C96.0651 13.1667 96.3729 13.1023 96.7081 13.1023C97.0679 13.1023 97.3767 13.1752 97.6342 13.321C97.8918 13.465 98.0897 13.6553 98.228 13.892C98.3662 14.1288 98.4354 14.3845 98.4354 14.6591C98.4354 14.9867 98.3492 15.2661 98.1768 15.4972C98.0064 15.7282 97.7744 15.8883 97.4808 15.9773V16.0227C97.8482 16.0833 98.1352 16.2396 98.3416 16.4915C98.5481 16.7415 98.6513 17.0511 98.6513 17.4205C98.6513 17.7367 98.5651 18.0208 98.3928 18.2727C98.2223 18.5227 97.9893 18.7197 97.6939 18.8636C97.3984 19.0076 97.0623 19.0795 96.6854 19.0795ZM102.325 15.7784V16.4034H99.7791V15.7784H102.325ZM103.219 19V18.4886L105.14 16.3864C105.365 16.1402 105.551 15.9261 105.697 15.7443C105.843 15.5606 105.951 15.3883 106.021 15.2273C106.093 15.0644 106.129 14.8939 106.129 14.7159C106.129 14.5114 106.079 14.3343 105.981 14.1847C105.884 14.035 105.752 13.9195 105.583 13.8381C105.415 13.7566 105.225 13.7159 105.015 13.7159C104.791 13.7159 104.596 13.7623 104.43 13.8551C104.265 13.946 104.137 14.0739 104.046 14.2386C103.957 14.4034 103.913 14.5966 103.913 14.8182H103.242C103.242 14.4773 103.321 14.178 103.478 13.9205C103.635 13.6629 103.849 13.4621 104.12 13.3182C104.393 13.1742 104.699 13.1023 105.038 13.1023C105.379 13.1023 105.681 13.1742 105.944 13.3182C106.207 13.4621 106.414 13.6562 106.563 13.9006C106.713 14.1449 106.788 14.4167 106.788 14.7159C106.788 14.9299 106.749 15.1392 106.671 15.3438C106.595 15.5464 106.463 15.7727 106.273 16.0227C106.086 16.2708 105.826 16.5739 105.492 16.9318L104.185 18.3295V18.375H106.89V19H103.219ZM109.961 19.0795C109.533 19.0795 109.168 18.9631 108.867 18.7301C108.566 18.4953 108.336 18.1553 108.177 17.7102C108.018 17.2633 107.938 16.7235 107.938 16.0909C107.938 15.4621 108.018 14.9252 108.177 14.4801C108.338 14.0331 108.569 13.6922 108.87 13.4574C109.173 13.2206 109.537 13.1023 109.961 13.1023C110.385 13.1023 110.748 13.2206 111.049 13.4574C111.352 13.6922 111.583 14.0331 111.742 14.4801C111.903 14.9252 111.984 15.4621 111.984 16.0909C111.984 16.7235 111.904 17.2633 111.745 17.7102C111.586 18.1553 111.356 18.4953 111.055 18.7301C110.754 18.9631 110.389 19.0795 109.961 19.0795ZM109.961 18.4545C110.385 18.4545 110.715 18.25 110.95 17.8409C111.184 17.4318 111.302 16.8485 111.302 16.0909C111.302 15.5871 111.248 15.1581 111.14 14.804C111.034 14.4498 110.88 14.1799 110.68 13.9943C110.481 13.8087 110.241 13.7159 109.961 13.7159C109.54 13.7159 109.212 13.9233 108.975 14.3381C108.738 14.7509 108.62 15.3352 108.62 16.0909C108.62 16.5947 108.673 17.0227 108.779 17.375C108.885 17.7273 109.038 17.9953 109.237 18.179C109.437 18.3627 109.679 18.4545 109.961 18.4545ZM112.927 17.8068V17.2273L115.484 13.1818H115.904V14.0795H115.62L113.688 17.1364V17.1818H117.131V17.8068H112.927ZM115.665 19V17.6307V17.3608V13.1818H116.336V19H115.665Z" fill="black"/>
<g id="Group 16">
<rect id="Rectangle 63_2" width="72" height="26" fill="#B0C4DE"/>
<path id="&#226;&#154;&#165;_2" d="M35.8797 17.5862V15.9662H34.1097V15.2612H35.8797V13.9412C35.3697 13.8712 34.9097 13.6912 34.4997 13.4012C34.0897 13.1112 33.7647 12.7412 33.5247 12.2912C33.2847 11.8412 33.1647 11.3562 33.1647 10.8362C33.1647 10.2762 33.3047 9.76621 33.5847 9.30621C33.8747 8.83621 34.2547 8.46121 34.7247 8.18121C35.2047 7.90121 35.7247 7.76121 36.2847 7.76121C36.6347 7.76121 36.9647 7.81621 37.2747 7.92621C37.5847 8.02621 37.8747 8.17621 38.1447 8.37621L39.5397 6.81621L38.3547 6.23121L40.8747 5.94621L40.8897 8.48121L40.1547 7.35621L38.7297 8.94621C38.9597 9.21621 39.1297 9.51121 39.2397 9.83121C39.3497 10.1412 39.4047 10.4762 39.4047 10.8362C39.4047 11.3462 39.2847 11.8262 39.0447 12.2762C38.8047 12.7262 38.4797 13.1012 38.0697 13.4012C37.6697 13.6912 37.2097 13.8712 36.6897 13.9412V15.2612H38.3547V15.9662H36.6897V17.5862H35.8797ZM36.2847 13.2062C36.7147 13.2062 37.1097 13.1012 37.4697 12.8912C37.8297 12.6712 38.1147 12.3812 38.3247 12.0212C38.5447 11.6612 38.6547 11.2662 38.6547 10.8362C38.6547 10.4162 38.5447 10.0312 38.3247 9.68121C38.1147 9.33121 37.8297 9.05121 37.4697 8.84121C37.1097 8.62121 36.7147 8.51121 36.2847 8.51121C35.8547 8.51121 35.4597 8.62121 35.0997 8.84121C34.7397 9.05121 34.4497 9.33121 34.2297 9.68121C34.0197 10.0312 33.9147 10.4162 33.9147 10.8362C33.9147 11.2662 34.0197 11.6612 34.2297 12.0212C34.4497 12.3812 34.7397 12.6712 35.0997 12.8912C35.4597 13.1012 35.8547 13.2062 36.2847 13.2062Z" fill="black"/>
</g>
<rect id="Escaleras-m3-2-3" y="192" width="194" height="31" fill="#EF9A9A"/>
<rect id="Rectangle 90" y="26" width="72" height="166" fill="#F5F0E8"/>
<rect id="Rectangle 91" x="66" y="154" width="73" height="37" fill="#F5F0E8"/>
</g>
<defs>
<clipPath id="clip0_4_27">
<rect width="181" height="223" fill="white"/>
</clipPath>
</defs>
</svg>
