<svg width="181" height="223" viewBox="0 0 181 223" fill="none" xmlns="http://www.w3.org/2000/svg">
<g id="M3_piso4" clip-path="url(#clip0_4_64)">
<rect width="181" height="223" fill="white"/>
<rect id="Sala-de-computacion-1" width="181" height="79" fill="#BDD7EE"/>
<rect id="Sala-de-computacion-2" y="148" width="181" height="79" fill="#BDD7EE"/>
<rect id="Escaleras-m3-3-4" x="129" y="79" width="52" height="69" fill="#EF9A9A"/>
<path id="Sala de computaci&#195;&#179;n 2" d="M53.8864 185.636C53.8523 185.348 53.714 185.125 53.4716 184.966C53.2292 184.807 52.9318 184.727 52.5795 184.727C52.322 184.727 52.0966 184.769 51.9034 184.852C51.7121 184.936 51.5625 185.05 51.4545 185.196C51.3485 185.342 51.2955 185.508 51.2955 185.693C51.2955 185.848 51.3324 185.982 51.4062 186.094C51.482 186.204 51.5786 186.295 51.696 186.369C51.8134 186.441 51.9366 186.501 52.0653 186.548C52.1941 186.594 52.3125 186.631 52.4205 186.659L53.0114 186.818C53.1629 186.858 53.3314 186.913 53.517 186.983C53.7045 187.053 53.8835 187.149 54.054 187.27C54.2263 187.389 54.3684 187.543 54.4801 187.73C54.5919 187.918 54.6477 188.148 54.6477 188.42C54.6477 188.735 54.5653 189.019 54.4006 189.273C54.2377 189.527 53.9991 189.728 53.6847 189.878C53.3722 190.027 52.9924 190.102 52.5455 190.102C52.1288 190.102 51.768 190.035 51.4631 189.901C51.16 189.766 50.9214 189.579 50.7472 189.338C50.5748 189.098 50.4773 188.818 50.4545 188.5H51.1818C51.2008 188.72 51.2746 188.902 51.4034 189.045C51.5341 189.187 51.6989 189.294 51.8977 189.364C52.0985 189.432 52.3144 189.466 52.5455 189.466C52.8144 189.466 53.0559 189.422 53.2699 189.335C53.4839 189.246 53.6534 189.123 53.7784 188.966C53.9034 188.807 53.9659 188.621 53.9659 188.409C53.9659 188.216 53.9119 188.059 53.804 187.938C53.696 187.816 53.554 187.718 53.3778 187.642C53.2017 187.566 53.0114 187.5 52.8068 187.443L52.0909 187.239C51.6364 187.108 51.2765 186.921 51.0114 186.679C50.7462 186.437 50.6136 186.119 50.6136 185.727C50.6136 185.402 50.7017 185.117 50.8778 184.875C51.0559 184.631 51.2945 184.441 51.5938 184.307C51.8949 184.17 52.2311 184.102 52.6023 184.102C52.9773 184.102 53.3106 184.17 53.6023 184.304C53.8939 184.437 54.125 184.618 54.2955 184.849C54.4678 185.08 54.5587 185.343 54.5682 185.636H53.8864ZM56.9993 190.102C56.7228 190.102 56.4718 190.05 56.2464 189.946C56.0211 189.84 55.8421 189.688 55.7095 189.489C55.5769 189.288 55.5107 189.045 55.5107 188.761C55.5107 188.511 55.5599 188.309 55.6584 188.153C55.7569 187.996 55.8885 187.873 56.0533 187.784C56.218 187.695 56.3999 187.629 56.5987 187.585C56.7995 187.54 57.0012 187.504 57.2038 187.477C57.469 187.443 57.6839 187.418 57.8487 187.401C58.0154 187.382 58.1366 187.35 58.2124 187.307C58.29 187.263 58.3288 187.187 58.3288 187.08V187.057C58.3288 186.777 58.2521 186.559 58.0987 186.403C57.9472 186.248 57.7171 186.17 57.4084 186.17C57.0883 186.17 56.8374 186.241 56.6555 186.381C56.4737 186.521 56.3459 186.67 56.272 186.83L55.6357 186.602C55.7493 186.337 55.9008 186.131 56.0902 185.983C56.2815 185.833 56.4898 185.729 56.7152 185.67C56.9425 185.61 57.166 185.58 57.3857 185.58C57.5258 185.58 57.6868 185.597 57.8686 185.631C58.0523 185.663 58.2294 185.73 58.3999 185.832C58.5722 185.935 58.7152 186.089 58.8288 186.295C58.9425 186.502 58.9993 186.778 58.9993 187.125V190H58.3288V189.409H58.2947C58.2493 189.504 58.1735 189.605 58.0675 189.713C57.9614 189.821 57.8203 189.913 57.6442 189.989C57.468 190.064 57.2531 190.102 56.9993 190.102ZM57.1016 189.5C57.3667 189.5 57.5902 189.448 57.772 189.344C57.9557 189.24 58.094 189.105 58.1868 188.94C58.2815 188.776 58.3288 188.602 58.3288 188.42V187.807C58.3004 187.841 58.2379 187.872 58.1413 187.901C58.0466 187.927 57.9368 187.951 57.8118 187.972C57.6887 187.991 57.5684 188.008 57.451 188.023C57.3355 188.036 57.2417 188.047 57.1697 188.057C56.9955 188.08 56.8326 188.116 56.6811 188.168C56.5315 188.217 56.4103 188.292 56.3175 188.392C56.2266 188.491 56.1811 188.625 56.1811 188.795C56.1811 189.028 56.2673 189.205 56.4396 189.324C56.6139 189.441 56.8345 189.5 57.1016 189.5ZM60.8935 184.182V190H60.223V184.182H60.8935ZM63.4055 190.102C63.129 190.102 62.8781 190.05 62.6527 189.946C62.4273 189.84 62.2483 189.688 62.1158 189.489C61.9832 189.288 61.9169 189.045 61.9169 188.761C61.9169 188.511 61.9661 188.309 62.0646 188.153C62.1631 187.996 62.2947 187.873 62.4595 187.784C62.6243 187.695 62.8061 187.629 63.005 187.585C63.2057 187.54 63.4074 187.504 63.6101 187.477C63.8752 187.443 64.0902 187.418 64.255 187.401C64.4216 187.382 64.5429 187.35 64.6186 187.307C64.6963 187.263 64.7351 187.187 64.7351 187.08V187.057C64.7351 186.777 64.6584 186.559 64.505 186.403C64.3535 186.248 64.1233 186.17 63.8146 186.17C63.4946 186.17 63.2436 186.241 63.0618 186.381C62.88 186.521 62.7521 186.67 62.6783 186.83L62.0419 186.602C62.1555 186.337 62.3071 186.131 62.4964 185.983C62.6877 185.833 62.8961 185.729 63.1214 185.67C63.3487 185.61 63.5722 185.58 63.7919 185.58C63.9321 185.58 64.093 185.597 64.2749 185.631C64.4586 185.663 64.6357 185.73 64.8061 185.832C64.9785 185.935 65.1214 186.089 65.2351 186.295C65.3487 186.502 65.4055 186.778 65.4055 187.125V190H64.7351V189.409H64.701C64.6555 189.504 64.5798 189.605 64.4737 189.713C64.3677 189.821 64.2266 189.913 64.0504 189.989C63.8743 190.064 63.6593 190.102 63.4055 190.102ZM63.5078 189.5C63.773 189.5 63.9964 189.448 64.1783 189.344C64.362 189.24 64.5002 189.105 64.593 188.94C64.6877 188.776 64.7351 188.602 64.7351 188.42V187.807C64.7067 187.841 64.6442 187.872 64.5476 187.901C64.4529 187.927 64.343 187.951 64.218 187.972C64.0949 187.991 63.9747 188.008 63.8572 188.023C63.7417 188.036 63.648 188.047 63.576 188.057C63.4018 188.08 63.2389 188.116 63.0874 188.168C62.9377 188.217 62.8165 188.292 62.7237 188.392C62.6328 188.491 62.5874 188.625 62.5874 188.795C62.5874 189.028 62.6735 189.205 62.8459 189.324C63.0201 189.441 63.2408 189.5 63.5078 189.5ZM70.527 190.091C70.1634 190.091 69.8423 189.999 69.5639 189.815C69.2855 189.63 69.0677 189.368 68.9105 189.031C68.7533 188.692 68.6747 188.292 68.6747 187.83C68.6747 187.371 68.7533 186.973 68.9105 186.636C69.0677 186.299 69.2865 186.039 69.5668 185.855C69.8471 185.671 70.1709 185.58 70.5384 185.58C70.8224 185.58 71.0469 185.627 71.2116 185.722C71.3783 185.814 71.5052 185.92 71.5923 186.04C71.6813 186.157 71.7505 186.254 71.7997 186.33H71.8565V184.182H72.527V190H71.8793V189.33H71.7997C71.7505 189.409 71.6804 189.509 71.5895 189.631C71.4986 189.75 71.3688 189.857 71.2003 189.952C71.0317 190.045 70.8073 190.091 70.527 190.091ZM70.6179 189.489C70.8868 189.489 71.1141 189.419 71.2997 189.278C71.4853 189.136 71.6264 188.94 71.723 188.69C71.8196 188.438 71.8679 188.148 71.8679 187.818C71.8679 187.492 71.8205 187.207 71.7259 186.963C71.6312 186.717 71.491 186.526 71.3054 186.389C71.1198 186.251 70.8906 186.182 70.6179 186.182C70.3338 186.182 70.0971 186.255 69.9077 186.401C69.7202 186.545 69.5791 186.741 69.4844 186.989C69.3916 187.235 69.3452 187.511 69.3452 187.818C69.3452 188.129 69.3925 188.411 69.4872 188.665C69.5838 188.917 69.7259 189.117 69.9134 189.267C70.1027 189.415 70.3376 189.489 70.6179 189.489ZM75.6776 190.091C75.2571 190.091 74.8944 189.998 74.5895 189.812C74.2865 189.625 74.0526 189.364 73.8878 189.028C73.7249 188.691 73.6435 188.299 73.6435 187.852C73.6435 187.405 73.7249 187.011 73.8878 186.67C74.0526 186.328 74.2817 186.061 74.5753 185.869C74.8707 185.676 75.2154 185.58 75.6094 185.58C75.8366 185.58 76.0611 185.617 76.2827 185.693C76.5043 185.769 76.706 185.892 76.8878 186.062C77.0696 186.231 77.2145 186.455 77.3224 186.733C77.4304 187.011 77.4844 187.354 77.4844 187.761V188.045H74.1207V187.466H76.8026C76.8026 187.22 76.7533 187 76.6548 186.807C76.5582 186.614 76.42 186.461 76.2401 186.349C76.062 186.238 75.8518 186.182 75.6094 186.182C75.3423 186.182 75.1113 186.248 74.9162 186.381C74.723 186.511 74.5743 186.682 74.4702 186.892C74.366 187.102 74.3139 187.328 74.3139 187.568V187.955C74.3139 188.284 74.3707 188.563 74.4844 188.793C74.5999 189.02 74.7599 189.193 74.9645 189.312C75.169 189.43 75.4067 189.489 75.6776 189.489C75.8537 189.489 76.0128 189.464 76.1548 189.415C76.2988 189.364 76.4228 189.288 76.527 189.188C76.6312 189.085 76.7116 188.958 76.7685 188.807L77.4162 188.989C77.348 189.208 77.2334 189.402 77.0724 189.568C76.9115 189.733 76.7126 189.862 76.4759 189.955C76.2391 190.045 75.973 190.091 75.6776 190.091ZM82.527 190.091C82.1179 190.091 81.7656 189.994 81.4702 189.801C81.1747 189.608 80.9474 189.342 80.7884 189.003C80.6293 188.664 80.5497 188.277 80.5497 187.841C80.5497 187.398 80.6312 187.007 80.794 186.668C80.9588 186.327 81.188 186.061 81.4815 185.869C81.777 185.676 82.1217 185.58 82.5156 185.58C82.8224 185.58 83.099 185.636 83.3452 185.75C83.5914 185.864 83.7931 186.023 83.9503 186.227C84.1075 186.432 84.205 186.67 84.2429 186.943H83.5724C83.5213 186.744 83.4077 186.568 83.2315 186.415C83.0573 186.259 82.8224 186.182 82.527 186.182C82.2656 186.182 82.0365 186.25 81.8395 186.386C81.6444 186.521 81.492 186.711 81.3821 186.957C81.2741 187.202 81.2202 187.489 81.2202 187.818C81.2202 188.155 81.2732 188.449 81.3793 188.699C81.4872 188.949 81.6387 189.143 81.8338 189.281C82.0308 189.42 82.2618 189.489 82.527 189.489C82.7012 189.489 82.8594 189.458 83.0014 189.398C83.1435 189.337 83.2637 189.25 83.3622 189.136C83.4607 189.023 83.5308 188.886 83.5724 188.727H84.2429C84.205 188.985 84.1113 189.217 83.9616 189.423C83.8139 189.628 83.6179 189.791 83.3736 189.912C83.1312 190.031 82.849 190.091 82.527 190.091ZM86.9957 190.091C86.6018 190.091 86.2562 189.997 85.9588 189.81C85.6634 189.622 85.4323 189.36 85.2656 189.023C85.1009 188.686 85.0185 188.292 85.0185 187.841C85.0185 187.386 85.1009 186.99 85.2656 186.651C85.4323 186.312 85.6634 186.048 85.9588 185.861C86.2562 185.673 86.6018 185.58 86.9957 185.58C87.3897 185.58 87.7344 185.673 88.0298 185.861C88.3272 186.048 88.5582 186.312 88.723 186.651C88.8897 186.99 88.973 187.386 88.973 187.841C88.973 188.292 88.8897 188.686 88.723 189.023C88.5582 189.36 88.3272 189.622 88.0298 189.81C87.7344 189.997 87.3897 190.091 86.9957 190.091ZM86.9957 189.489C87.295 189.489 87.5412 189.412 87.7344 189.259C87.9276 189.105 88.0705 188.903 88.1634 188.653C88.2562 188.403 88.3026 188.133 88.3026 187.841C88.3026 187.549 88.2562 187.277 88.1634 187.026C88.0705 186.774 87.9276 186.57 87.7344 186.415C87.5412 186.259 87.295 186.182 86.9957 186.182C86.6965 186.182 86.4503 186.259 86.2571 186.415C86.0639 186.57 85.9209 186.774 85.8281 187.026C85.7353 187.277 85.6889 187.549 85.6889 187.841C85.6889 188.133 85.7353 188.403 85.8281 188.653C85.9209 188.903 86.0639 189.105 86.2571 189.259C86.4503 189.412 86.6965 189.489 86.9957 189.489ZM89.9964 190V185.636H90.6442V186.318H90.701C90.7919 186.085 90.9387 185.904 91.1413 185.776C91.344 185.645 91.5874 185.58 91.8714 185.58C92.1593 185.58 92.3989 185.645 92.5902 185.776C92.7834 185.904 92.9339 186.085 93.0419 186.318H93.0874C93.1991 186.093 93.3667 185.914 93.5902 185.781C93.8137 185.647 94.0817 185.58 94.3942 185.58C94.7843 185.58 95.1035 185.702 95.3516 185.946C95.5997 186.188 95.7237 186.566 95.7237 187.08V190H95.0533V187.08C95.0533 186.758 94.9652 186.527 94.7891 186.389C94.6129 186.251 94.4055 186.182 94.1669 186.182C93.8601 186.182 93.6224 186.275 93.4538 186.46C93.2853 186.644 93.201 186.877 93.201 187.159V190H92.5192V187.011C92.5192 186.763 92.4387 186.563 92.2777 186.412C92.1167 186.259 91.9093 186.182 91.6555 186.182C91.4813 186.182 91.3184 186.228 91.1669 186.321C91.0173 186.414 90.8961 186.543 90.8033 186.707C90.7124 186.87 90.6669 187.059 90.6669 187.273V190H89.9964ZM96.9496 191.636V185.636H97.5973V186.33H97.6768C97.7261 186.254 97.7943 186.157 97.8814 186.04C97.9704 185.92 98.0973 185.814 98.2621 185.722C98.4287 185.627 98.6541 185.58 98.9382 185.58C99.3056 185.58 99.6295 185.671 99.9098 185.855C100.19 186.039 100.409 186.299 100.566 186.636C100.723 186.973 100.802 187.371 100.802 187.83C100.802 188.292 100.723 188.692 100.566 189.031C100.409 189.368 100.191 189.63 99.9126 189.815C99.6342 189.999 99.3132 190.091 98.9496 190.091C98.6693 190.091 98.4448 190.045 98.2763 189.952C98.1077 189.857 97.978 189.75 97.8871 189.631C97.7962 189.509 97.7261 189.409 97.6768 189.33H97.62V191.636H96.9496ZM97.6087 187.818C97.6087 188.148 97.657 188.438 97.7536 188.69C97.8501 188.94 97.9912 189.136 98.1768 189.278C98.3625 189.419 98.5897 189.489 98.8587 189.489C99.139 189.489 99.3729 189.415 99.5604 189.267C99.7498 189.117 99.8918 188.917 99.9865 188.665C100.083 188.411 100.131 188.129 100.131 187.818C100.131 187.511 100.084 187.235 99.9893 186.989C99.8965 186.741 99.7554 186.545 99.5661 186.401C99.3786 186.255 99.1428 186.182 98.8587 186.182C98.5859 186.182 98.3568 186.251 98.1712 186.389C97.9856 186.526 97.8454 186.717 97.7507 186.963C97.656 187.207 97.6087 187.492 97.6087 187.818ZM104.575 188.216V185.636H105.245V190H104.575V189.261H104.529C104.427 189.483 104.268 189.671 104.052 189.827C103.836 189.98 103.563 190.057 103.234 190.057C102.961 190.057 102.719 189.997 102.506 189.878C102.294 189.757 102.128 189.575 102.006 189.332C101.885 189.088 101.825 188.78 101.825 188.409V185.636H102.495V188.364C102.495 188.682 102.584 188.936 102.762 189.125C102.942 189.314 103.171 189.409 103.45 189.409C103.616 189.409 103.786 189.366 103.958 189.281C104.132 189.196 104.278 189.065 104.396 188.889C104.515 188.713 104.575 188.489 104.575 188.216ZM108.371 185.636V186.205H106.109V185.636H108.371ZM106.768 184.591H107.439V188.75C107.439 188.939 107.466 189.081 107.521 189.176C107.578 189.269 107.65 189.331 107.737 189.364C107.826 189.394 107.92 189.409 108.018 189.409C108.092 189.409 108.153 189.405 108.2 189.398C108.248 189.388 108.286 189.381 108.314 189.375L108.45 189.977C108.405 189.994 108.341 190.011 108.26 190.028C108.179 190.047 108.075 190.057 107.95 190.057C107.761 190.057 107.575 190.016 107.393 189.935C107.214 189.853 107.064 189.729 106.945 189.562C106.827 189.396 106.768 189.186 106.768 188.932V184.591ZM110.663 190.102C110.387 190.102 110.136 190.05 109.911 189.946C109.685 189.84 109.506 189.688 109.374 189.489C109.241 189.288 109.175 189.045 109.175 188.761C109.175 188.511 109.224 188.309 109.322 188.153C109.421 187.996 109.553 187.873 109.717 187.784C109.882 187.695 110.064 187.629 110.263 187.585C110.464 187.54 110.665 187.504 110.868 187.477C111.133 187.443 111.348 187.418 111.513 187.401C111.679 187.382 111.801 187.35 111.876 187.307C111.954 187.263 111.993 187.187 111.993 187.08V187.057C111.993 186.777 111.916 186.559 111.763 186.403C111.611 186.248 111.381 186.17 111.072 186.17C110.752 186.17 110.501 186.241 110.32 186.381C110.138 186.521 110.01 186.67 109.936 186.83L109.3 186.602C109.413 186.337 109.565 186.131 109.754 185.983C109.946 185.833 110.154 185.729 110.379 185.67C110.607 185.61 110.83 185.58 111.05 185.58C111.19 185.58 111.351 185.597 111.533 185.631C111.716 185.663 111.893 185.73 112.064 185.832C112.236 185.935 112.379 186.089 112.493 186.295C112.607 186.502 112.663 186.778 112.663 187.125V190H111.993V189.409H111.959C111.913 189.504 111.838 189.605 111.732 189.713C111.625 189.821 111.484 189.913 111.308 189.989C111.132 190.064 110.917 190.102 110.663 190.102ZM110.766 189.5C111.031 189.5 111.254 189.448 111.436 189.344C111.62 189.24 111.758 189.105 111.851 188.94C111.946 188.776 111.993 188.602 111.993 188.42V187.807C111.964 187.841 111.902 187.872 111.805 187.901C111.711 187.927 111.601 187.951 111.476 187.972C111.353 187.991 111.232 188.008 111.115 188.023C111 188.036 110.906 188.047 110.834 188.057C110.66 188.08 110.497 188.116 110.345 188.168C110.196 188.217 110.074 188.292 109.982 188.392C109.891 188.491 109.845 188.625 109.845 188.795C109.845 189.028 109.931 189.205 110.104 189.324C110.278 189.441 110.499 189.5 110.766 189.5ZM115.66 190.091C115.251 190.091 114.898 189.994 114.603 189.801C114.308 189.608 114.08 189.342 113.921 189.003C113.762 188.664 113.683 188.277 113.683 187.841C113.683 187.398 113.764 187.007 113.927 186.668C114.092 186.327 114.321 186.061 114.614 185.869C114.91 185.676 115.254 185.58 115.648 185.58C115.955 185.58 116.232 185.636 116.478 185.75C116.724 185.864 116.926 186.023 117.083 186.227C117.24 186.432 117.338 186.67 117.376 186.943H116.705C116.654 186.744 116.54 186.568 116.364 186.415C116.19 186.259 115.955 186.182 115.66 186.182C115.398 186.182 115.169 186.25 114.972 186.386C114.777 186.521 114.625 186.711 114.515 186.957C114.407 187.202 114.353 187.489 114.353 187.818C114.353 188.155 114.406 188.449 114.512 188.699C114.62 188.949 114.772 189.143 114.967 189.281C115.164 189.42 115.395 189.489 115.66 189.489C115.834 189.489 115.992 189.458 116.134 189.398C116.276 189.337 116.397 189.25 116.495 189.136C116.594 189.023 116.664 188.886 116.705 188.727H117.376C117.338 188.985 117.244 189.217 117.094 189.423C116.947 189.628 116.751 189.791 116.506 189.912C116.264 190.031 115.982 190.091 115.66 190.091ZM118.356 190V185.636H119.026V190H118.356ZM118.697 184.909C118.566 184.909 118.453 184.865 118.359 184.776C118.266 184.687 118.219 184.58 118.219 184.455C118.219 184.33 118.266 184.223 118.359 184.134C118.453 184.045 118.566 184 118.697 184C118.827 184 118.939 184.045 119.032 184.134C119.127 184.223 119.174 184.33 119.174 184.455C119.174 184.58 119.127 184.687 119.032 184.776C118.939 184.865 118.827 184.909 118.697 184.909ZM122.027 190.091C121.633 190.091 121.287 189.997 120.99 189.81C120.695 189.622 120.464 189.36 120.297 189.023C120.132 188.686 120.05 188.292 120.05 187.841C120.05 187.386 120.132 186.99 120.297 186.651C120.464 186.312 120.695 186.048 120.99 185.861C121.287 185.673 121.633 185.58 122.027 185.58C122.421 185.58 122.766 185.673 123.061 185.861C123.358 186.048 123.589 186.312 123.754 186.651C123.921 186.99 124.004 187.386 124.004 187.841C124.004 188.292 123.921 188.686 123.754 189.023C123.589 189.36 123.358 189.622 123.061 189.81C122.766 189.997 122.421 190.091 122.027 190.091ZM122.027 189.489C122.326 189.489 122.572 189.412 122.766 189.259C122.959 189.105 123.102 188.903 123.195 188.653C123.287 188.403 123.334 188.133 123.334 187.841C123.334 187.549 123.287 187.277 123.195 187.026C123.102 186.774 122.959 186.57 122.766 186.415C122.572 186.259 122.326 186.182 122.027 186.182C121.728 186.182 121.482 186.259 121.288 186.415C121.095 186.57 120.952 186.774 120.859 187.026C120.767 187.277 120.72 187.549 120.72 187.841C120.72 188.133 120.767 188.403 120.859 188.653C120.952 188.903 121.095 189.105 121.288 189.259C121.482 189.412 121.728 189.489 122.027 189.489ZM121.72 185.045L122.413 183.727H123.197L122.311 185.045H121.72ZM125.698 187.375V190H125.028V185.636H125.675V186.318H125.732C125.835 186.097 125.99 185.919 126.198 185.784C126.406 185.648 126.675 185.58 127.005 185.58C127.3 185.58 127.559 185.64 127.781 185.761C128.002 185.881 128.174 186.062 128.298 186.307C128.421 186.549 128.482 186.856 128.482 187.227V190H127.812V187.273C127.812 186.93 127.723 186.663 127.545 186.472C127.367 186.278 127.122 186.182 126.812 186.182C126.598 186.182 126.406 186.228 126.238 186.321C126.071 186.414 125.94 186.549 125.843 186.727C125.746 186.905 125.698 187.121 125.698 187.375ZM131.946 190V189.489L133.866 187.386C134.092 187.14 134.277 186.926 134.423 186.744C134.569 186.561 134.677 186.388 134.747 186.227C134.819 186.064 134.855 185.894 134.855 185.716C134.855 185.511 134.806 185.334 134.707 185.185C134.611 185.035 134.478 184.92 134.31 184.838C134.141 184.757 133.952 184.716 133.741 184.716C133.518 184.716 133.323 184.762 133.156 184.855C132.991 184.946 132.864 185.074 132.773 185.239C132.684 185.403 132.639 185.597 132.639 185.818H131.969C131.969 185.477 132.047 185.178 132.205 184.92C132.362 184.663 132.576 184.462 132.847 184.318C133.119 184.174 133.425 184.102 133.764 184.102C134.105 184.102 134.407 184.174 134.67 184.318C134.934 184.462 135.14 184.656 135.29 184.901C135.439 185.145 135.514 185.417 135.514 185.716C135.514 185.93 135.475 186.139 135.398 186.344C135.322 186.546 135.189 186.773 135 187.023C134.812 187.271 134.552 187.574 134.219 187.932L132.912 189.33V189.375H135.616V190H131.946Z" fill="black"/>
<path id="Sala de computaci&#195;&#179;n 1" d="M53.8864 36.6364C53.8523 36.3485 53.714 36.125 53.4716 35.9659C53.2292 35.8068 52.9318 35.7273 52.5795 35.7273C52.322 35.7273 52.0966 35.7689 51.9034 35.8523C51.7121 35.9356 51.5625 36.0502 51.4545 36.196C51.3485 36.3419 51.2955 36.5076 51.2955 36.6932C51.2955 36.8485 51.3324 36.982 51.4062 37.0938C51.482 37.2036 51.5786 37.2955 51.696 37.3693C51.8134 37.4413 51.9366 37.5009 52.0653 37.5483C52.1941 37.5937 52.3125 37.6307 52.4205 37.6591L53.0114 37.8182C53.1629 37.858 53.3314 37.9129 53.517 37.983C53.7045 38.053 53.8835 38.1487 54.054 38.2699C54.2263 38.3892 54.3684 38.5426 54.4801 38.7301C54.5919 38.9176 54.6477 39.1477 54.6477 39.4205C54.6477 39.7348 54.5653 40.0189 54.4006 40.2727C54.2377 40.5265 53.9991 40.7282 53.6847 40.8778C53.3722 41.0275 52.9924 41.1023 52.5455 41.1023C52.1288 41.1023 51.768 41.035 51.4631 40.9006C51.16 40.7661 50.9214 40.5786 50.7472 40.3381C50.5748 40.0975 50.4773 39.8182 50.4545 39.5H51.1818C51.2008 39.7197 51.2746 39.9015 51.4034 40.0455C51.5341 40.1875 51.6989 40.2936 51.8977 40.3636C52.0985 40.4318 52.3144 40.4659 52.5455 40.4659C52.8144 40.4659 53.0559 40.4223 53.2699 40.3352C53.4839 40.2462 53.6534 40.1231 53.7784 39.9659C53.9034 39.8068 53.9659 39.6212 53.9659 39.4091C53.9659 39.2159 53.9119 39.0587 53.804 38.9375C53.696 38.8163 53.554 38.7178 53.3778 38.642C53.2017 38.5663 53.0114 38.5 52.8068 38.4432L52.0909 38.2386C51.6364 38.108 51.2765 37.9214 51.0114 37.679C50.7462 37.4366 50.6136 37.1193 50.6136 36.7273C50.6136 36.4015 50.7017 36.1174 50.8778 35.875C51.0559 35.6307 51.2945 35.4413 51.5938 35.3068C51.8949 35.1705 52.2311 35.1023 52.6023 35.1023C52.9773 35.1023 53.3106 35.1695 53.6023 35.304C53.8939 35.4366 54.125 35.6184 54.2955 35.8494C54.4678 36.0805 54.5587 36.3428 54.5682 36.6364H53.8864ZM56.9993 41.1023C56.7228 41.1023 56.4718 41.0502 56.2464 40.946C56.0211 40.84 55.8421 40.6875 55.7095 40.4886C55.5769 40.2879 55.5107 40.0455 55.5107 39.7614C55.5107 39.5114 55.5599 39.3087 55.6584 39.1534C55.7569 38.9962 55.8885 38.8731 56.0533 38.7841C56.218 38.6951 56.3999 38.6288 56.5987 38.5852C56.7995 38.5398 57.0012 38.5038 57.2038 38.4773C57.469 38.4432 57.6839 38.4176 57.8487 38.4006C58.0154 38.3816 58.1366 38.3504 58.2124 38.3068C58.29 38.2633 58.3288 38.1875 58.3288 38.0795V38.0568C58.3288 37.7765 58.2521 37.5587 58.0987 37.4034C57.9472 37.2481 57.7171 37.1705 57.4084 37.1705C57.0883 37.1705 56.8374 37.2405 56.6555 37.3807C56.4737 37.5208 56.3459 37.6705 56.272 37.8295L55.6357 37.6023C55.7493 37.3371 55.9008 37.1307 56.0902 36.983C56.2815 36.8333 56.4898 36.7292 56.7152 36.6705C56.9425 36.6098 57.166 36.5795 57.3857 36.5795C57.5258 36.5795 57.6868 36.5966 57.8686 36.6307C58.0523 36.6629 58.2294 36.7301 58.3999 36.8324C58.5722 36.9347 58.7152 37.089 58.8288 37.2955C58.9425 37.5019 58.9993 37.7784 58.9993 38.125V41H58.3288V40.4091H58.2947C58.2493 40.5038 58.1735 40.6051 58.0675 40.7131C57.9614 40.821 57.8203 40.9129 57.6442 40.9886C57.468 41.0644 57.2531 41.1023 56.9993 41.1023ZM57.1016 40.5C57.3667 40.5 57.5902 40.4479 57.772 40.3438C57.9557 40.2396 58.094 40.1051 58.1868 39.9403C58.2815 39.7756 58.3288 39.6023 58.3288 39.4205V38.8068C58.3004 38.8409 58.2379 38.8722 58.1413 38.9006C58.0466 38.9271 57.9368 38.9508 57.8118 38.9716C57.6887 38.9905 57.5684 39.0076 57.451 39.0227C57.3355 39.036 57.2417 39.0473 57.1697 39.0568C56.9955 39.0795 56.8326 39.1165 56.6811 39.1676C56.5315 39.2169 56.4103 39.2917 56.3175 39.392C56.2266 39.4905 56.1811 39.625 56.1811 39.7955C56.1811 40.0284 56.2673 40.2045 56.4396 40.3239C56.6139 40.4413 56.8345 40.5 57.1016 40.5ZM60.8935 35.1818V41H60.223V35.1818H60.8935ZM63.4055 41.1023C63.129 41.1023 62.8781 41.0502 62.6527 40.946C62.4273 40.84 62.2483 40.6875 62.1158 40.4886C61.9832 40.2879 61.9169 40.0455 61.9169 39.7614C61.9169 39.5114 61.9661 39.3087 62.0646 39.1534C62.1631 38.9962 62.2947 38.8731 62.4595 38.7841C62.6243 38.6951 62.8061 38.6288 63.005 38.5852C63.2057 38.5398 63.4074 38.5038 63.6101 38.4773C63.8752 38.4432 64.0902 38.4176 64.255 38.4006C64.4216 38.3816 64.5429 38.3504 64.6186 38.3068C64.6963 38.2633 64.7351 38.1875 64.7351 38.0795V38.0568C64.7351 37.7765 64.6584 37.5587 64.505 37.4034C64.3535 37.2481 64.1233 37.1705 63.8146 37.1705C63.4946 37.1705 63.2436 37.2405 63.0618 37.3807C62.88 37.5208 62.7521 37.6705 62.6783 37.8295L62.0419 37.6023C62.1555 37.3371 62.3071 37.1307 62.4964 36.983C62.6877 36.8333 62.8961 36.7292 63.1214 36.6705C63.3487 36.6098 63.5722 36.5795 63.7919 36.5795C63.9321 36.5795 64.093 36.5966 64.2749 36.6307C64.4586 36.6629 64.6357 36.7301 64.8061 36.8324C64.9785 36.9347 65.1214 37.089 65.2351 37.2955C65.3487 37.5019 65.4055 37.7784 65.4055 38.125V41H64.7351V40.4091H64.701C64.6555 40.5038 64.5798 40.6051 64.4737 40.7131C64.3677 40.821 64.2266 40.9129 64.0504 40.9886C63.8743 41.0644 63.6593 41.1023 63.4055 41.1023ZM63.5078 40.5C63.773 40.5 63.9964 40.4479 64.1783 40.3438C64.362 40.2396 64.5002 40.1051 64.593 39.9403C64.6877 39.7756 64.7351 39.6023 64.7351 39.4205V38.8068C64.7067 38.8409 64.6442 38.8722 64.5476 38.9006C64.4529 38.9271 64.343 38.9508 64.218 38.9716C64.0949 38.9905 63.9747 39.0076 63.8572 39.0227C63.7417 39.036 63.648 39.0473 63.576 39.0568C63.4018 39.0795 63.2389 39.1165 63.0874 39.1676C62.9377 39.2169 62.8165 39.2917 62.7237 39.392C62.6328 39.4905 62.5874 39.625 62.5874 39.7955C62.5874 40.0284 62.6735 40.2045 62.8459 40.3239C63.0201 40.4413 63.2408 40.5 63.5078 40.5ZM70.527 41.0909C70.1634 41.0909 69.8423 40.9991 69.5639 40.8153C69.2855 40.6297 69.0677 40.3684 68.9105 40.0312C68.7533 39.6922 68.6747 39.2917 68.6747 38.8295C68.6747 38.3712 68.7533 37.9735 68.9105 37.6364C69.0677 37.2992 69.2865 37.0388 69.5668 36.8551C69.8471 36.6714 70.1709 36.5795 70.5384 36.5795C70.8224 36.5795 71.0469 36.6269 71.2116 36.7216C71.3783 36.8144 71.5052 36.9205 71.5923 37.0398C71.6813 37.1572 71.7505 37.2538 71.7997 37.3295H71.8565V35.1818H72.527V41H71.8793V40.3295H71.7997C71.7505 40.4091 71.6804 40.5095 71.5895 40.6307C71.4986 40.75 71.3688 40.857 71.2003 40.9517C71.0317 41.0445 70.8073 41.0909 70.527 41.0909ZM70.6179 40.4886C70.8868 40.4886 71.1141 40.4186 71.2997 40.2784C71.4853 40.1364 71.6264 39.9403 71.723 39.6903C71.8196 39.4384 71.8679 39.1477 71.8679 38.8182C71.8679 38.4924 71.8205 38.2074 71.7259 37.9631C71.6312 37.7169 71.491 37.5256 71.3054 37.3892C71.1198 37.2509 70.8906 37.1818 70.6179 37.1818C70.3338 37.1818 70.0971 37.2547 69.9077 37.4006C69.7202 37.5445 69.5791 37.7405 69.4844 37.9886C69.3916 38.2348 69.3452 38.5114 69.3452 38.8182C69.3452 39.1288 69.3925 39.411 69.4872 39.6648C69.5838 39.9167 69.7259 40.1174 69.9134 40.267C70.1027 40.4148 70.3376 40.4886 70.6179 40.4886ZM75.6776 41.0909C75.2571 41.0909 74.8944 40.9981 74.5895 40.8125C74.2865 40.625 74.0526 40.3636 73.8878 40.0284C73.7249 39.6913 73.6435 39.2992 73.6435 38.8523C73.6435 38.4053 73.7249 38.0114 73.8878 37.6705C74.0526 37.3277 74.2817 37.0606 74.5753 36.8693C74.8707 36.6761 75.2154 36.5795 75.6094 36.5795C75.8366 36.5795 76.0611 36.6174 76.2827 36.6932C76.5043 36.7689 76.706 36.892 76.8878 37.0625C77.0696 37.2311 77.2145 37.4545 77.3224 37.733C77.4304 38.0114 77.4844 38.3542 77.4844 38.7614V39.0455H74.1207V38.4659H76.8026C76.8026 38.2197 76.7533 38 76.6548 37.8068C76.5582 37.6136 76.42 37.4612 76.2401 37.3494C76.062 37.2377 75.8518 37.1818 75.6094 37.1818C75.3423 37.1818 75.1113 37.2481 74.9162 37.3807C74.723 37.5114 74.5743 37.6818 74.4702 37.892C74.366 38.1023 74.3139 38.3277 74.3139 38.5682V38.9545C74.3139 39.2841 74.3707 39.5634 74.4844 39.7926C74.5999 40.0199 74.7599 40.1932 74.9645 40.3125C75.169 40.4299 75.4067 40.4886 75.6776 40.4886C75.8537 40.4886 76.0128 40.464 76.1548 40.4148C76.2988 40.3636 76.4228 40.2879 76.527 40.1875C76.6312 40.0852 76.7116 39.9583 76.7685 39.8068L77.4162 39.9886C77.348 40.2083 77.2334 40.4015 77.0724 40.5682C76.9115 40.733 76.7126 40.8617 76.4759 40.9545C76.2391 41.0455 75.973 41.0909 75.6776 41.0909ZM82.527 41.0909C82.1179 41.0909 81.7656 40.9943 81.4702 40.8011C81.1747 40.608 80.9474 40.3419 80.7884 40.0028C80.6293 39.6638 80.5497 39.2765 80.5497 38.8409C80.5497 38.3977 80.6312 38.0066 80.794 37.6676C80.9588 37.3267 81.188 37.0606 81.4815 36.8693C81.777 36.6761 82.1217 36.5795 82.5156 36.5795C82.8224 36.5795 83.099 36.6364 83.3452 36.75C83.5914 36.8636 83.7931 37.0227 83.9503 37.2273C84.1075 37.4318 84.205 37.6705 84.2429 37.9432H83.5724C83.5213 37.7443 83.4077 37.5682 83.2315 37.4148C83.0573 37.2595 82.8224 37.1818 82.527 37.1818C82.2656 37.1818 82.0365 37.25 81.8395 37.3864C81.6444 37.5208 81.492 37.7112 81.3821 37.9574C81.2741 38.2017 81.2202 38.4886 81.2202 38.8182C81.2202 39.1553 81.2732 39.4489 81.3793 39.6989C81.4872 39.9489 81.6387 40.143 81.8338 40.2812C82.0308 40.4195 82.2618 40.4886 82.527 40.4886C82.7012 40.4886 82.8594 40.4583 83.0014 40.3977C83.1435 40.3371 83.2637 40.25 83.3622 40.1364C83.4607 40.0227 83.5308 39.8864 83.5724 39.7273H84.2429C84.205 39.9848 84.1113 40.2169 83.9616 40.4233C83.8139 40.6278 83.6179 40.7907 83.3736 40.9119C83.1312 41.0312 82.849 41.0909 82.527 41.0909ZM86.9957 41.0909C86.6018 41.0909 86.2562 40.9972 85.9588 40.8097C85.6634 40.6222 85.4323 40.3598 85.2656 40.0227C85.1009 39.6856 85.0185 39.2917 85.0185 38.8409C85.0185 38.3864 85.1009 37.9896 85.2656 37.6506C85.4323 37.3116 85.6634 37.0483 85.9588 36.8608C86.2562 36.6733 86.6018 36.5795 86.9957 36.5795C87.3897 36.5795 87.7344 36.6733 88.0298 36.8608C88.3272 37.0483 88.5582 37.3116 88.723 37.6506C88.8897 37.9896 88.973 38.3864 88.973 38.8409C88.973 39.2917 88.8897 39.6856 88.723 40.0227C88.5582 40.3598 88.3272 40.6222 88.0298 40.8097C87.7344 40.9972 87.3897 41.0909 86.9957 41.0909ZM86.9957 40.4886C87.295 40.4886 87.5412 40.4119 87.7344 40.2585C87.9276 40.1051 88.0705 39.9034 88.1634 39.6534C88.2562 39.4034 88.3026 39.1326 88.3026 38.8409C88.3026 38.5492 88.2562 38.2775 88.1634 38.0256C88.0705 37.7737 87.9276 37.5701 87.7344 37.4148C87.5412 37.2595 87.295 37.1818 86.9957 37.1818C86.6965 37.1818 86.4503 37.2595 86.2571 37.4148C86.0639 37.5701 85.9209 37.7737 85.8281 38.0256C85.7353 38.2775 85.6889 38.5492 85.6889 38.8409C85.6889 39.1326 85.7353 39.4034 85.8281 39.6534C85.9209 39.9034 86.0639 40.1051 86.2571 40.2585C86.4503 40.4119 86.6965 40.4886 86.9957 40.4886ZM89.9964 41V36.6364H90.6442V37.3182H90.701C90.7919 37.0852 90.9387 36.9044 91.1413 36.7756C91.344 36.6449 91.5874 36.5795 91.8714 36.5795C92.1593 36.5795 92.3989 36.6449 92.5902 36.7756C92.7834 36.9044 92.9339 37.0852 93.0419 37.3182H93.0874C93.1991 37.0928 93.3667 36.9138 93.5902 36.7812C93.8137 36.6468 94.0817 36.5795 94.3942 36.5795C94.7843 36.5795 95.1035 36.7017 95.3516 36.946C95.5997 37.1884 95.7237 37.5663 95.7237 38.0795V41H95.0533V38.0795C95.0533 37.7576 94.9652 37.5275 94.7891 37.3892C94.6129 37.2509 94.4055 37.1818 94.1669 37.1818C93.8601 37.1818 93.6224 37.2746 93.4538 37.4602C93.2853 37.6439 93.201 37.8769 93.201 38.1591V41H92.5192V38.0114C92.5192 37.7633 92.4387 37.5634 92.2777 37.4119C92.1167 37.2585 91.9093 37.1818 91.6555 37.1818C91.4813 37.1818 91.3184 37.2282 91.1669 37.321C91.0173 37.4138 90.8961 37.5426 90.8033 37.7074C90.7124 37.8703 90.6669 38.0587 90.6669 38.2727V41H89.9964ZM96.9496 42.6364V36.6364H97.5973V37.3295H97.6768C97.7261 37.2538 97.7943 37.1572 97.8814 37.0398C97.9704 36.9205 98.0973 36.8144 98.2621 36.7216C98.4287 36.6269 98.6541 36.5795 98.9382 36.5795C99.3056 36.5795 99.6295 36.6714 99.9098 36.8551C100.19 37.0388 100.409 37.2992 100.566 37.6364C100.723 37.9735 100.802 38.3712 100.802 38.8295C100.802 39.2917 100.723 39.6922 100.566 40.0312C100.409 40.3684 100.191 40.6297 99.9126 40.8153C99.6342 40.9991 99.3132 41.0909 98.9496 41.0909C98.6693 41.0909 98.4448 41.0445 98.2763 40.9517C98.1077 40.857 97.978 40.75 97.8871 40.6307C97.7962 40.5095 97.7261 40.4091 97.6768 40.3295H97.62V42.6364H96.9496ZM97.6087 38.8182C97.6087 39.1477 97.657 39.4384 97.7536 39.6903C97.8501 39.9403 97.9912 40.1364 98.1768 40.2784C98.3625 40.4186 98.5897 40.4886 98.8587 40.4886C99.139 40.4886 99.3729 40.4148 99.5604 40.267C99.7498 40.1174 99.8918 39.9167 99.9865 39.6648C100.083 39.411 100.131 39.1288 100.131 38.8182C100.131 38.5114 100.084 38.2348 99.9893 37.9886C99.8965 37.7405 99.7554 37.5445 99.5661 37.4006C99.3786 37.2547 99.1428 37.1818 98.8587 37.1818C98.5859 37.1818 98.3568 37.2509 98.1712 37.3892C97.9856 37.5256 97.8454 37.7169 97.7507 37.9631C97.656 38.2074 97.6087 38.4924 97.6087 38.8182ZM104.575 39.2159V36.6364H105.245V41H104.575V40.2614H104.529C104.427 40.483 104.268 40.6714 104.052 40.8267C103.836 40.9801 103.563 41.0568 103.234 41.0568C102.961 41.0568 102.719 40.9972 102.506 40.8778C102.294 40.7566 102.128 40.5748 102.006 40.3324C101.885 40.0881 101.825 39.7803 101.825 39.4091V36.6364H102.495V39.3636C102.495 39.6818 102.584 39.9356 102.762 40.125C102.942 40.3144 103.171 40.4091 103.45 40.4091C103.616 40.4091 103.786 40.3665 103.958 40.2812C104.132 40.196 104.278 40.0653 104.396 39.8892C104.515 39.7131 104.575 39.4886 104.575 39.2159ZM108.371 36.6364V37.2045H106.109V36.6364H108.371ZM106.768 35.5909H107.439V39.75C107.439 39.9394 107.466 40.0814 107.521 40.1761C107.578 40.2689 107.65 40.3314 107.737 40.3636C107.826 40.3939 107.92 40.4091 108.018 40.4091C108.092 40.4091 108.153 40.4053 108.2 40.3977C108.248 40.3883 108.286 40.3807 108.314 40.375L108.45 40.9773C108.405 40.9943 108.341 41.0114 108.26 41.0284C108.179 41.0473 108.075 41.0568 107.95 41.0568C107.761 41.0568 107.575 41.0161 107.393 40.9347C107.214 40.8532 107.064 40.7292 106.945 40.5625C106.827 40.3958 106.768 40.1856 106.768 39.9318V35.5909ZM110.663 41.1023C110.387 41.1023 110.136 41.0502 109.911 40.946C109.685 40.84 109.506 40.6875 109.374 40.4886C109.241 40.2879 109.175 40.0455 109.175 39.7614C109.175 39.5114 109.224 39.3087 109.322 39.1534C109.421 38.9962 109.553 38.8731 109.717 38.7841C109.882 38.6951 110.064 38.6288 110.263 38.5852C110.464 38.5398 110.665 38.5038 110.868 38.4773C111.133 38.4432 111.348 38.4176 111.513 38.4006C111.679 38.3816 111.801 38.3504 111.876 38.3068C111.954 38.2633 111.993 38.1875 111.993 38.0795V38.0568C111.993 37.7765 111.916 37.5587 111.763 37.4034C111.611 37.2481 111.381 37.1705 111.072 37.1705C110.752 37.1705 110.501 37.2405 110.32 37.3807C110.138 37.5208 110.01 37.6705 109.936 37.8295L109.3 37.6023C109.413 37.3371 109.565 37.1307 109.754 36.983C109.946 36.8333 110.154 36.7292 110.379 36.6705C110.607 36.6098 110.83 36.5795 111.05 36.5795C111.19 36.5795 111.351 36.5966 111.533 36.6307C111.716 36.6629 111.893 36.7301 112.064 36.8324C112.236 36.9347 112.379 37.089 112.493 37.2955C112.607 37.5019 112.663 37.7784 112.663 38.125V41H111.993V40.4091H111.959C111.913 40.5038 111.838 40.6051 111.732 40.7131C111.625 40.821 111.484 40.9129 111.308 40.9886C111.132 41.0644 110.917 41.1023 110.663 41.1023ZM110.766 40.5C111.031 40.5 111.254 40.4479 111.436 40.3438C111.62 40.2396 111.758 40.1051 111.851 39.9403C111.946 39.7756 111.993 39.6023 111.993 39.4205V38.8068C111.964 38.8409 111.902 38.8722 111.805 38.9006C111.711 38.9271 111.601 38.9508 111.476 38.9716C111.353 38.9905 111.232 39.0076 111.115 39.0227C111 39.036 110.906 39.0473 110.834 39.0568C110.66 39.0795 110.497 39.1165 110.345 39.1676C110.196 39.2169 110.074 39.2917 109.982 39.392C109.891 39.4905 109.845 39.625 109.845 39.7955C109.845 40.0284 109.931 40.2045 110.104 40.3239C110.278 40.4413 110.499 40.5 110.766 40.5ZM115.66 41.0909C115.251 41.0909 114.898 40.9943 114.603 40.8011C114.308 40.608 114.08 40.3419 113.921 40.0028C113.762 39.6638 113.683 39.2765 113.683 38.8409C113.683 38.3977 113.764 38.0066 113.927 37.6676C114.092 37.3267 114.321 37.0606 114.614 36.8693C114.91 36.6761 115.254 36.5795 115.648 36.5795C115.955 36.5795 116.232 36.6364 116.478 36.75C116.724 36.8636 116.926 37.0227 117.083 37.2273C117.24 37.4318 117.338 37.6705 117.376 37.9432H116.705C116.654 37.7443 116.54 37.5682 116.364 37.4148C116.19 37.2595 115.955 37.1818 115.66 37.1818C115.398 37.1818 115.169 37.25 114.972 37.3864C114.777 37.5208 114.625 37.7112 114.515 37.9574C114.407 38.2017 114.353 38.4886 114.353 38.8182C114.353 39.1553 114.406 39.4489 114.512 39.6989C114.62 39.9489 114.772 40.143 114.967 40.2812C115.164 40.4195 115.395 40.4886 115.66 40.4886C115.834 40.4886 115.992 40.4583 116.134 40.3977C116.276 40.3371 116.397 40.25 116.495 40.1364C116.594 40.0227 116.664 39.8864 116.705 39.7273H117.376C117.338 39.9848 117.244 40.2169 117.094 40.4233C116.947 40.6278 116.751 40.7907 116.506 40.9119C116.264 41.0312 115.982 41.0909 115.66 41.0909ZM118.356 41V36.6364H119.026V41H118.356ZM118.697 35.9091C118.566 35.9091 118.453 35.8646 118.359 35.7756C118.266 35.6866 118.219 35.5795 118.219 35.4545C118.219 35.3295 118.266 35.2225 118.359 35.1335C118.453 35.0445 118.566 35 118.697 35C118.827 35 118.939 35.0445 119.032 35.1335C119.127 35.2225 119.174 35.3295 119.174 35.4545C119.174 35.5795 119.127 35.6866 119.032 35.7756C118.939 35.8646 118.827 35.9091 118.697 35.9091ZM122.027 41.0909C121.633 41.0909 121.287 40.9972 120.99 40.8097C120.695 40.6222 120.464 40.3598 120.297 40.0227C120.132 39.6856 120.05 39.2917 120.05 38.8409C120.05 38.3864 120.132 37.9896 120.297 37.6506C120.464 37.3116 120.695 37.0483 120.99 36.8608C121.287 36.6733 121.633 36.5795 122.027 36.5795C122.421 36.5795 122.766 36.6733 123.061 36.8608C123.358 37.0483 123.589 37.3116 123.754 37.6506C123.921 37.9896 124.004 38.3864 124.004 38.8409C124.004 39.2917 123.921 39.6856 123.754 40.0227C123.589 40.3598 123.358 40.6222 123.061 40.8097C122.766 40.9972 122.421 41.0909 122.027 41.0909ZM122.027 40.4886C122.326 40.4886 122.572 40.4119 122.766 40.2585C122.959 40.1051 123.102 39.9034 123.195 39.6534C123.287 39.4034 123.334 39.1326 123.334 38.8409C123.334 38.5492 123.287 38.2775 123.195 38.0256C123.102 37.7737 122.959 37.5701 122.766 37.4148C122.572 37.2595 122.326 37.1818 122.027 37.1818C121.728 37.1818 121.482 37.2595 121.288 37.4148C121.095 37.5701 120.952 37.7737 120.859 38.0256C120.767 38.2775 120.72 38.5492 120.72 38.8409C120.72 39.1326 120.767 39.4034 120.859 39.6534C120.952 39.9034 121.095 40.1051 121.288 40.2585C121.482 40.4119 121.728 40.4886 122.027 40.4886ZM121.72 36.0455L122.413 34.7273H123.197L122.311 36.0455H121.72ZM125.698 38.375V41H125.028V36.6364H125.675V37.3182H125.732C125.835 37.0966 125.99 36.9186 126.198 36.7841C126.406 36.6477 126.675 36.5795 127.005 36.5795C127.3 36.5795 127.559 36.6402 127.781 36.7614C128.002 36.8807 128.174 37.0625 128.298 37.3068C128.421 37.5492 128.482 37.8561 128.482 38.2273V41H127.812V38.2727C127.812 37.9299 127.723 37.6629 127.545 37.4716C127.367 37.2784 127.122 37.1818 126.812 37.1818C126.598 37.1818 126.406 37.2282 126.238 37.321C126.071 37.4138 125.94 37.5492 125.843 37.7273C125.746 37.9053 125.698 38.1212 125.698 38.375ZM133.991 35.1818V41H133.287V35.9205H133.253L131.832 36.8636V36.1477L133.287 35.1818H133.991Z" fill="black"/>
<rect id="Rectangle 85" y="79" width="129" height="69" fill="#F5F0E8"/>
</g>
<defs>
<clipPath id="clip0_4_64">
<rect width="181" height="223" fill="white"/>
</clipPath>
</defs>
</svg>
