<svg width="181" height="223" viewBox="0 0 181 223" fill="none" xmlns="http://www.w3.org/2000/svg">
<g id="M3_piso1" clip-path="url(#clip0_4_2)">
<rect width="181" height="223" fill="white"/>
<path id="M3-104" d="M76 0H182V40H76V0Z" fill="#BDD7EE"/>
<rect id="M3-103" x="76" y="40" width="105" height="41" fill="#BDD7EE"/>
<rect id="M3-102" x="76" y="81" width="105" height="39" fill="#BDD7EE"/>
<path id="M3-102_2" d="M89.7045 95.1818H90.5455L92.5227 100.011H92.5909L94.5682 95.1818H95.4091V101H94.75V96.5795H94.6932L92.875 101H92.2386L90.4205 96.5795H90.3636V101H89.7045V95.1818ZM98.6854 101.08C98.3104 101.08 97.9761 101.015 97.6825 100.886C97.3909 100.758 97.1589 100.579 96.9865 100.349C96.8161 100.118 96.7232 99.8504 96.7081 99.5455H97.424C97.4392 99.733 97.5036 99.8949 97.6172 100.031C97.7308 100.166 97.8795 100.27 98.0632 100.344C98.2469 100.418 98.4505 100.455 98.674 100.455C98.924 100.455 99.1456 100.411 99.3388 100.324C99.532 100.237 99.6835 100.116 99.7933 99.9602C99.9032 99.8049 99.9581 99.625 99.9581 99.4205C99.9581 99.2064 99.9051 99.018 99.799 98.8551C99.6929 98.6903 99.5376 98.5616 99.3331 98.4688C99.1286 98.3759 98.8786 98.3295 98.5831 98.3295H98.1172V97.7045H98.5831C98.8142 97.7045 99.0168 97.6629 99.1911 97.5795C99.3672 97.4962 99.5045 97.3788 99.603 97.2273C99.7034 97.0758 99.7536 96.8977 99.7536 96.6932C99.7536 96.4962 99.71 96.3248 99.6229 96.179C99.5357 96.0331 99.4126 95.9195 99.2536 95.8381C99.0964 95.7566 98.9107 95.7159 98.6967 95.7159C98.496 95.7159 98.3066 95.7528 98.1286 95.8267C97.9524 95.8987 97.8085 96.0038 97.6967 96.142C97.585 96.2784 97.5244 96.4432 97.5149 96.6364H96.8331C96.8445 96.3314 96.9363 96.0644 97.1087 95.8352C97.281 95.6042 97.5064 95.4242 97.7848 95.2955C98.0651 95.1667 98.3729 95.1023 98.7081 95.1023C99.0679 95.1023 99.3767 95.1752 99.6342 95.321C99.8918 95.465 100.09 95.6553 100.228 95.892C100.366 96.1288 100.435 96.3845 100.435 96.6591C100.435 96.9867 100.349 97.2661 100.177 97.4972C100.006 97.7282 99.7744 97.8883 99.4808 97.9773V98.0227C99.8482 98.0833 100.135 98.2396 100.342 98.4915C100.548 98.7415 100.651 99.0511 100.651 99.4205C100.651 99.7367 100.565 100.021 100.393 100.273C100.222 100.523 99.9893 100.72 99.6939 100.864C99.3984 101.008 99.0623 101.08 98.6854 101.08ZM104.325 97.7784V98.4034H101.779V97.7784H104.325ZM107.538 95.1818V101H106.834V95.9205H106.8L105.379 96.8636V96.1477L106.834 95.1818H107.538ZM111.109 101.08C110.681 101.08 110.317 100.963 110.016 100.73C109.714 100.495 109.484 100.155 109.325 99.7102C109.166 99.2633 109.087 98.7235 109.087 98.0909C109.087 97.4621 109.166 96.9252 109.325 96.4801C109.486 96.0331 109.717 95.6922 110.018 95.4574C110.321 95.2206 110.685 95.1023 111.109 95.1023C111.534 95.1023 111.896 95.2206 112.197 95.4574C112.5 95.6922 112.732 96.0331 112.891 96.4801C113.052 96.9252 113.132 97.4621 113.132 98.0909C113.132 98.7235 113.053 99.2633 112.893 99.7102C112.734 100.155 112.504 100.495 112.203 100.73C111.902 100.963 111.537 101.08 111.109 101.08ZM111.109 100.455C111.534 100.455 111.863 100.25 112.098 99.8409C112.333 99.4318 112.45 98.8485 112.45 98.0909C112.45 97.5871 112.396 97.1581 112.288 96.804C112.182 96.4498 112.029 96.1799 111.828 95.9943C111.629 95.8087 111.39 95.7159 111.109 95.7159C110.689 95.7159 110.36 95.9233 110.124 96.3381C109.887 96.7509 109.768 97.3352 109.768 98.0909C109.768 98.5947 109.821 99.0227 109.928 99.375C110.034 99.7273 110.186 99.9953 110.385 100.179C110.586 100.363 110.827 100.455 111.109 100.455ZM114.212 101V100.489L116.132 98.3864C116.357 98.1402 116.543 97.9261 116.689 97.7443C116.835 97.5606 116.943 97.3883 117.013 97.2273C117.085 97.0644 117.121 96.8939 117.121 96.7159C117.121 96.5114 117.071 96.3343 116.973 96.1847C116.876 96.035 116.744 95.9195 116.575 95.8381C116.407 95.7566 116.217 95.7159 116.007 95.7159C115.784 95.7159 115.589 95.7623 115.422 95.8551C115.257 95.946 115.129 96.0739 115.038 96.2386C114.949 96.4034 114.905 96.5966 114.905 96.8182H114.234C114.234 96.4773 114.313 96.178 114.47 95.9205C114.627 95.6629 114.841 95.4621 115.112 95.3182C115.385 95.1742 115.691 95.1023 116.03 95.1023C116.371 95.1023 116.673 95.1742 116.936 95.3182C117.199 95.4621 117.406 95.6562 117.555 95.9006C117.705 96.1449 117.78 96.4167 117.78 96.7159C117.78 96.9299 117.741 97.1392 117.663 97.3438C117.588 97.5464 117.455 97.7727 117.266 98.0227C117.078 98.2708 116.818 98.5739 116.484 98.9318L115.178 100.33V100.375H117.882V101H114.212Z" fill="black"/>
<rect id="M3-101" x="76" y="120" width="104" height="39" fill="#BDD7EE"/>
<rect id="Escaleras-m3-1-2" x="76" y="175" width="107" height="48" fill="#EF9A9A"/>
<rect id="Rectangle 75" width="76" height="30" fill="#D9D9D9"/>
<path id="M3-104_2" d="M89.7045 12.1818H90.5455L92.5227 17.0114H92.5909L94.5682 12.1818H95.4091V18H94.75V13.5795H94.6932L92.875 18H92.2386L90.4205 13.5795H90.3636V18H89.7045V12.1818ZM98.6854 18.0795C98.3104 18.0795 97.9761 18.0152 97.6825 17.8864C97.3909 17.7576 97.1589 17.5786 96.9865 17.3494C96.8161 17.1184 96.7232 16.8504 96.7081 16.5455H97.424C97.4392 16.733 97.5036 16.8949 97.6172 17.0312C97.7308 17.1657 97.8795 17.2699 98.0632 17.3438C98.2469 17.4176 98.4505 17.4545 98.674 17.4545C98.924 17.4545 99.1456 17.411 99.3388 17.3239C99.532 17.2367 99.6835 17.1155 99.7933 16.9602C99.9032 16.8049 99.9581 16.625 99.9581 16.4205C99.9581 16.2064 99.9051 16.018 99.799 15.8551C99.6929 15.6903 99.5376 15.5616 99.3331 15.4688C99.1286 15.3759 98.8786 15.3295 98.5831 15.3295H98.1172V14.7045H98.5831C98.8142 14.7045 99.0168 14.6629 99.1911 14.5795C99.3672 14.4962 99.5045 14.3788 99.603 14.2273C99.7034 14.0758 99.7536 13.8977 99.7536 13.6932C99.7536 13.4962 99.71 13.3248 99.6229 13.179C99.5357 13.0331 99.4126 12.9195 99.2536 12.8381C99.0964 12.7566 98.9107 12.7159 98.6967 12.7159C98.496 12.7159 98.3066 12.7528 98.1286 12.8267C97.9524 12.8987 97.8085 13.0038 97.6967 13.142C97.585 13.2784 97.5244 13.4432 97.5149 13.6364H96.8331C96.8445 13.3314 96.9363 13.0644 97.1087 12.8352C97.281 12.6042 97.5064 12.4242 97.7848 12.2955C98.0651 12.1667 98.3729 12.1023 98.7081 12.1023C99.0679 12.1023 99.3767 12.1752 99.6342 12.321C99.8918 12.465 100.09 12.6553 100.228 12.892C100.366 13.1288 100.435 13.3845 100.435 13.6591C100.435 13.9867 100.349 14.2661 100.177 14.4972C100.006 14.7282 99.7744 14.8883 99.4808 14.9773V15.0227C99.8482 15.0833 100.135 15.2396 100.342 15.4915C100.548 15.7415 100.651 16.0511 100.651 16.4205C100.651 16.7367 100.565 17.0208 100.393 17.2727C100.222 17.5227 99.9893 17.7197 99.6939 17.8636C99.3984 18.0076 99.0623 18.0795 98.6854 18.0795ZM104.325 14.7784V15.4034H101.779V14.7784H104.325ZM107.538 12.1818V18H106.834V12.9205H106.8L105.379 13.8636V13.1477L106.834 12.1818H107.538ZM111.109 18.0795C110.681 18.0795 110.317 17.9631 110.016 17.7301C109.714 17.4953 109.484 17.1553 109.325 16.7102C109.166 16.2633 109.087 15.7235 109.087 15.0909C109.087 14.4621 109.166 13.9252 109.325 13.4801C109.486 13.0331 109.717 12.6922 110.018 12.4574C110.321 12.2206 110.685 12.1023 111.109 12.1023C111.534 12.1023 111.896 12.2206 112.197 12.4574C112.5 12.6922 112.732 13.0331 112.891 13.4801C113.052 13.9252 113.132 14.4621 113.132 15.0909C113.132 15.7235 113.053 16.2633 112.893 16.7102C112.734 17.1553 112.504 17.4953 112.203 17.7301C111.902 17.9631 111.537 18.0795 111.109 18.0795ZM111.109 17.4545C111.534 17.4545 111.863 17.25 112.098 16.8409C112.333 16.4318 112.45 15.8485 112.45 15.0909C112.45 14.5871 112.396 14.1581 112.288 13.804C112.182 13.4498 112.029 13.1799 111.828 12.9943C111.629 12.8087 111.39 12.7159 111.109 12.7159C110.689 12.7159 110.36 12.9233 110.124 13.3381C109.887 13.7509 109.768 14.3352 109.768 15.0909C109.768 15.5947 109.821 16.0227 109.928 16.375C110.034 16.7273 110.186 16.9953 110.385 17.179C110.586 17.3627 110.827 17.4545 111.109 17.4545ZM114.075 16.8068V16.2273L116.632 12.1818H117.053V13.0795H116.768L114.837 16.1364V16.1818H118.28V16.8068H114.075ZM116.814 18V16.6307V16.3608V12.1818H117.484V18H116.814Z" fill="black"/>
<path id="M3-101_2" d="M89.7045 134.182H90.5455L92.5227 139.011H92.5909L94.5682 134.182H95.4091V140H94.75V135.58H94.6932L92.875 140H92.2386L90.4205 135.58H90.3636V140H89.7045V134.182ZM98.6854 140.08C98.3104 140.08 97.9761 140.015 97.6825 139.886C97.3909 139.758 97.1589 139.579 96.9865 139.349C96.8161 139.118 96.7232 138.85 96.7081 138.545H97.424C97.4392 138.733 97.5036 138.895 97.6172 139.031C97.7308 139.166 97.8795 139.27 98.0632 139.344C98.2469 139.418 98.4505 139.455 98.674 139.455C98.924 139.455 99.1456 139.411 99.3388 139.324C99.532 139.237 99.6835 139.116 99.7933 138.96C99.9032 138.805 99.9581 138.625 99.9581 138.42C99.9581 138.206 99.9051 138.018 99.799 137.855C99.6929 137.69 99.5376 137.562 99.3331 137.469C99.1286 137.376 98.8786 137.33 98.5831 137.33H98.1172V136.705H98.5831C98.8142 136.705 99.0168 136.663 99.1911 136.58C99.3672 136.496 99.5045 136.379 99.603 136.227C99.7034 136.076 99.7536 135.898 99.7536 135.693C99.7536 135.496 99.71 135.325 99.6229 135.179C99.5357 135.033 99.4126 134.92 99.2536 134.838C99.0964 134.757 98.9107 134.716 98.6967 134.716C98.496 134.716 98.3066 134.753 98.1286 134.827C97.9524 134.899 97.8085 135.004 97.6967 135.142C97.585 135.278 97.5244 135.443 97.5149 135.636H96.8331C96.8445 135.331 96.9363 135.064 97.1087 134.835C97.281 134.604 97.5064 134.424 97.7848 134.295C98.0651 134.167 98.3729 134.102 98.7081 134.102C99.0679 134.102 99.3767 134.175 99.6342 134.321C99.8918 134.465 100.09 134.655 100.228 134.892C100.366 135.129 100.435 135.384 100.435 135.659C100.435 135.987 100.349 136.266 100.177 136.497C100.006 136.728 99.7744 136.888 99.4808 136.977V137.023C99.8482 137.083 100.135 137.24 100.342 137.491C100.548 137.741 100.651 138.051 100.651 138.42C100.651 138.737 100.565 139.021 100.393 139.273C100.222 139.523 99.9893 139.72 99.6939 139.864C99.3984 140.008 99.0623 140.08 98.6854 140.08ZM104.325 136.778V137.403H101.779V136.778H104.325ZM107.538 134.182V140H106.834V134.92H106.8L105.379 135.864V135.148L106.834 134.182H107.538ZM111.109 140.08C110.681 140.08 110.317 139.963 110.016 139.73C109.714 139.495 109.484 139.155 109.325 138.71C109.166 138.263 109.087 137.723 109.087 137.091C109.087 136.462 109.166 135.925 109.325 135.48C109.486 135.033 109.717 134.692 110.018 134.457C110.321 134.221 110.685 134.102 111.109 134.102C111.534 134.102 111.896 134.221 112.197 134.457C112.5 134.692 112.732 135.033 112.891 135.48C113.052 135.925 113.132 136.462 113.132 137.091C113.132 137.723 113.053 138.263 112.893 138.71C112.734 139.155 112.504 139.495 112.203 139.73C111.902 139.963 111.537 140.08 111.109 140.08ZM111.109 139.455C111.534 139.455 111.863 139.25 112.098 138.841C112.333 138.432 112.45 137.848 112.45 137.091C112.45 136.587 112.396 136.158 112.288 135.804C112.182 135.45 112.029 135.18 111.828 134.994C111.629 134.809 111.39 134.716 111.109 134.716C110.689 134.716 110.36 134.923 110.124 135.338C109.887 135.751 109.768 136.335 109.768 137.091C109.768 137.595 109.821 138.023 109.928 138.375C110.034 138.727 110.186 138.995 110.385 139.179C110.586 139.363 110.827 139.455 111.109 139.455ZM116.257 134.182V140H115.553V134.92H115.518L114.098 135.864V135.148L115.553 134.182H116.257Z" fill="black"/>
<path id="M3-103_2" d="M91.7045 48.1818H92.5455L94.5227 53.0114H94.5909L96.5682 48.1818H97.4091V54H96.75V49.5795H96.6932L94.875 54H94.2386L92.4205 49.5795H92.3636V54H91.7045V48.1818ZM100.685 54.0795C100.31 54.0795 99.9761 54.0152 99.6825 53.8864C99.3909 53.7576 99.1589 53.5786 98.9865 53.3494C98.8161 53.1184 98.7232 52.8504 98.7081 52.5455H99.424C99.4392 52.733 99.5036 52.8949 99.6172 53.0312C99.7308 53.1657 99.8795 53.2699 100.063 53.3438C100.247 53.4176 100.451 53.4545 100.674 53.4545C100.924 53.4545 101.146 53.411 101.339 53.3239C101.532 53.2367 101.683 53.1155 101.793 52.9602C101.903 52.8049 101.958 52.625 101.958 52.4205C101.958 52.2064 101.905 52.018 101.799 51.8551C101.693 51.6903 101.538 51.5616 101.333 51.4688C101.129 51.3759 100.879 51.3295 100.583 51.3295H100.117V50.7045H100.583C100.814 50.7045 101.017 50.6629 101.191 50.5795C101.367 50.4962 101.504 50.3788 101.603 50.2273C101.703 50.0758 101.754 49.8977 101.754 49.6932C101.754 49.4962 101.71 49.3248 101.623 49.179C101.536 49.0331 101.413 48.9195 101.254 48.8381C101.096 48.7566 100.911 48.7159 100.697 48.7159C100.496 48.7159 100.307 48.7528 100.129 48.8267C99.9524 48.8987 99.8085 49.0038 99.6967 49.142C99.585 49.2784 99.5244 49.4432 99.5149 49.6364H98.8331C98.8445 49.3314 98.9363 49.0644 99.1087 48.8352C99.281 48.6042 99.5064 48.4242 99.7848 48.2955C100.065 48.1667 100.373 48.1023 100.708 48.1023C101.068 48.1023 101.377 48.1752 101.634 48.321C101.892 48.465 102.09 48.6553 102.228 48.892C102.366 49.1288 102.435 49.3845 102.435 49.6591C102.435 49.9867 102.349 50.2661 102.177 50.4972C102.006 50.7282 101.774 50.8883 101.481 50.9773V51.0227C101.848 51.0833 102.135 51.2396 102.342 51.4915C102.548 51.7415 102.651 52.0511 102.651 52.4205C102.651 52.7367 102.565 53.0208 102.393 53.2727C102.222 53.5227 101.989 53.7197 101.694 53.8636C101.398 54.0076 101.062 54.0795 100.685 54.0795ZM106.325 50.7784V51.4034H103.779V50.7784H106.325ZM109.538 48.1818V54H108.834V48.9205H108.8L107.379 49.8636V49.1477L108.834 48.1818H109.538ZM113.109 54.0795C112.681 54.0795 112.317 53.9631 112.016 53.7301C111.714 53.4953 111.484 53.1553 111.325 52.7102C111.166 52.2633 111.087 51.7235 111.087 51.0909C111.087 50.4621 111.166 49.9252 111.325 49.4801C111.486 49.0331 111.717 48.6922 112.018 48.4574C112.321 48.2206 112.685 48.1023 113.109 48.1023C113.534 48.1023 113.896 48.2206 114.197 48.4574C114.5 48.6922 114.732 49.0331 114.891 49.4801C115.052 49.9252 115.132 50.4621 115.132 51.0909C115.132 51.7235 115.053 52.2633 114.893 52.7102C114.734 53.1553 114.504 53.4953 114.203 53.7301C113.902 53.9631 113.537 54.0795 113.109 54.0795ZM113.109 53.4545C113.534 53.4545 113.863 53.25 114.098 52.8409C114.333 52.4318 114.45 51.8485 114.45 51.0909C114.45 50.5871 114.396 50.1581 114.288 49.804C114.182 49.4498 114.029 49.1799 113.828 48.9943C113.629 48.8087 113.39 48.7159 113.109 48.7159C112.689 48.7159 112.36 48.9233 112.124 49.3381C111.887 49.7509 111.768 50.3352 111.768 51.0909C111.768 51.5947 111.821 52.0227 111.928 52.375C112.034 52.7273 112.186 52.9953 112.385 53.179C112.586 53.3627 112.827 53.4545 113.109 53.4545ZM118.178 54.0795C117.803 54.0795 117.468 54.0152 117.175 53.8864C116.883 53.7576 116.651 53.5786 116.479 53.3494C116.308 53.1184 116.215 52.8504 116.2 52.5455H116.916C116.931 52.733 116.996 52.8949 117.109 53.0312C117.223 53.1657 117.372 53.2699 117.555 53.3438C117.739 53.4176 117.943 53.4545 118.166 53.4545C118.416 53.4545 118.638 53.411 118.831 53.3239C119.024 53.2367 119.176 53.1155 119.286 52.9602C119.395 52.8049 119.45 52.625 119.45 52.4205C119.45 52.2064 119.397 52.018 119.291 51.8551C119.185 51.6903 119.03 51.5616 118.825 51.4688C118.621 51.3759 118.371 51.3295 118.075 51.3295H117.609V50.7045H118.075C118.306 50.7045 118.509 50.6629 118.683 50.5795C118.859 50.4962 118.997 50.3788 119.095 50.2273C119.196 50.0758 119.246 49.8977 119.246 49.6932C119.246 49.4962 119.202 49.3248 119.115 49.179C119.028 49.0331 118.905 48.9195 118.746 48.8381C118.589 48.7566 118.403 48.7159 118.189 48.7159C117.988 48.7159 117.799 48.7528 117.621 48.8267C117.445 48.8987 117.301 49.0038 117.189 49.142C117.077 49.2784 117.017 49.4432 117.007 49.6364H116.325C116.337 49.3314 116.429 49.0644 116.601 48.8352C116.773 48.6042 116.999 48.4242 117.277 48.2955C117.557 48.1667 117.865 48.1023 118.2 48.1023C118.56 48.1023 118.869 48.1752 119.126 48.321C119.384 48.465 119.582 48.6553 119.72 48.892C119.858 49.1288 119.928 49.3845 119.928 49.6591C119.928 49.9867 119.841 50.2661 119.669 50.4972C119.499 50.7282 119.267 50.8883 118.973 50.9773V51.0227C119.34 51.0833 119.627 51.2396 119.834 51.4915C120.04 51.7415 120.143 52.0511 120.143 52.4205C120.143 52.7367 120.057 53.0208 119.885 53.2727C119.714 53.5227 119.482 53.7197 119.186 53.8636C118.891 54.0076 118.554 54.0795 118.178 54.0795Z" fill="black"/>
<rect id="Rectangle 92" y="30" width="76" height="193" fill="#F5F0E8"/>
<rect id="Rectangle 93" x="76" y="159" width="105" height="17" fill="#F5F0E8"/>
<path id="Sala de Industria" d="M9.88636 13.6364C9.85227 13.3485 9.71402 13.125 9.47159 12.9659C9.22917 12.8068 8.93182 12.7273 8.57955 12.7273C8.32197 12.7273 8.09659 12.7689 7.90341 12.8523C7.71212 12.9356 7.5625 13.0502 7.45455 13.196C7.34848 13.3419 7.29545 13.5076 7.29545 13.6932C7.29545 13.8485 7.33239 13.982 7.40625 14.0938C7.48201 14.2036 7.5786 14.2955 7.69602 14.3693C7.81345 14.4413 7.93655 14.5009 8.06534 14.5483C8.19413 14.5937 8.3125 14.6307 8.42045 14.6591L9.01136 14.8182C9.16288 14.858 9.33144 14.9129 9.51705 14.983C9.70455 15.053 9.88352 15.1487 10.054 15.2699C10.2263 15.3892 10.3684 15.5426 10.4801 15.7301C10.5919 15.9176 10.6477 16.1477 10.6477 16.4205C10.6477 16.7348 10.5653 17.0189 10.4006 17.2727C10.2377 17.5265 9.99905 17.7282 9.68466 17.8778C9.37216 18.0275 8.99242 18.1023 8.54545 18.1023C8.12879 18.1023 7.76799 18.035 7.46307 17.9006C7.16004 17.7661 6.9214 17.5786 6.74716 17.3381C6.57481 17.0975 6.47727 16.8182 6.45455 16.5H7.18182C7.20076 16.7197 7.27462 16.9015 7.40341 17.0455C7.53409 17.1875 7.69886 17.2936 7.89773 17.3636C8.09848 17.4318 8.31439 17.4659 8.54545 17.4659C8.81439 17.4659 9.05587 17.4223 9.26989 17.3352C9.4839 17.2462 9.65341 17.1231 9.77841 16.9659C9.90341 16.8068 9.96591 16.6212 9.96591 16.4091C9.96591 16.2159 9.91193 16.0587 9.80398 15.9375C9.69602 15.8163 9.55398 15.7178 9.37784 15.642C9.2017 15.5663 9.01136 15.5 8.80682 15.4432L8.09091 15.2386C7.63636 15.108 7.27652 14.9214 7.01136 14.679C6.74621 14.4366 6.61364 14.1193 6.61364 13.7273C6.61364 13.4015 6.7017 13.1174 6.87784 12.875C7.05587 12.6307 7.29451 12.4413 7.59375 12.3068C7.89489 12.1705 8.23106 12.1023 8.60227 12.1023C8.97727 12.1023 9.31061 12.1695 9.60227 12.304C9.89394 12.4366 10.125 12.6184 10.2955 12.8494C10.4678 13.0805 10.5587 13.3428 10.5682 13.6364H9.88636ZM12.9993 18.1023C12.7228 18.1023 12.4718 18.0502 12.2464 17.946C12.0211 17.84 11.8421 17.6875 11.7095 17.4886C11.5769 17.2879 11.5107 17.0455 11.5107 16.7614C11.5107 16.5114 11.5599 16.3087 11.6584 16.1534C11.7569 15.9962 11.8885 15.8731 12.0533 15.7841C12.218 15.6951 12.3999 15.6288 12.5987 15.5852C12.7995 15.5398 13.0012 15.5038 13.2038 15.4773C13.469 15.4432 13.6839 15.4176 13.8487 15.4006C14.0154 15.3816 14.1366 15.3504 14.2124 15.3068C14.29 15.2633 14.3288 15.1875 14.3288 15.0795V15.0568C14.3288 14.7765 14.2521 14.5587 14.0987 14.4034C13.9472 14.2481 13.7171 14.1705 13.4084 14.1705C13.0883 14.1705 12.8374 14.2405 12.6555 14.3807C12.4737 14.5208 12.3459 14.6705 12.272 14.8295L11.6357 14.6023C11.7493 14.3371 11.9008 14.1307 12.0902 13.983C12.2815 13.8333 12.4898 13.7292 12.7152 13.6705C12.9425 13.6098 13.166 13.5795 13.3857 13.5795C13.5258 13.5795 13.6868 13.5966 13.8686 13.6307C14.0523 13.6629 14.2294 13.7301 14.3999 13.8324C14.5722 13.9347 14.7152 14.089 14.8288 14.2955C14.9425 14.5019 14.9993 14.7784 14.9993 15.125V18H14.3288V17.4091H14.2947C14.2493 17.5038 14.1735 17.6051 14.0675 17.7131C13.9614 17.821 13.8203 17.9129 13.6442 17.9886C13.468 18.0644 13.2531 18.1023 12.9993 18.1023ZM13.1016 17.5C13.3667 17.5 13.5902 17.4479 13.772 17.3438C13.9557 17.2396 14.094 17.1051 14.1868 16.9403C14.2815 16.7756 14.3288 16.6023 14.3288 16.4205V15.8068C14.3004 15.8409 14.2379 15.8722 14.1413 15.9006C14.0466 15.9271 13.9368 15.9508 13.8118 15.9716C13.6887 15.9905 13.5684 16.0076 13.451 16.0227C13.3355 16.036 13.2417 16.0473 13.1697 16.0568C12.9955 16.0795 12.8326 16.1165 12.6811 16.1676C12.5315 16.2169 12.4103 16.2917 12.3175 16.392C12.2266 16.4905 12.1811 16.625 12.1811 16.7955C12.1811 17.0284 12.2673 17.2045 12.4396 17.3239C12.6139 17.4413 12.8345 17.5 13.1016 17.5ZM16.8935 12.1818V18H16.223V12.1818H16.8935ZM19.4055 18.1023C19.129 18.1023 18.8781 18.0502 18.6527 17.946C18.4273 17.84 18.2483 17.6875 18.1158 17.4886C17.9832 17.2879 17.9169 17.0455 17.9169 16.7614C17.9169 16.5114 17.9661 16.3087 18.0646 16.1534C18.1631 15.9962 18.2947 15.8731 18.4595 15.7841C18.6243 15.6951 18.8061 15.6288 19.005 15.5852C19.2057 15.5398 19.4074 15.5038 19.6101 15.4773C19.8752 15.4432 20.0902 15.4176 20.255 15.4006C20.4216 15.3816 20.5429 15.3504 20.6186 15.3068C20.6963 15.2633 20.7351 15.1875 20.7351 15.0795V15.0568C20.7351 14.7765 20.6584 14.5587 20.505 14.4034C20.3535 14.2481 20.1233 14.1705 19.8146 14.1705C19.4946 14.1705 19.2436 14.2405 19.0618 14.3807C18.88 14.5208 18.7521 14.6705 18.6783 14.8295L18.0419 14.6023C18.1555 14.3371 18.3071 14.1307 18.4964 13.983C18.6877 13.8333 18.8961 13.7292 19.1214 13.6705C19.3487 13.6098 19.5722 13.5795 19.7919 13.5795C19.9321 13.5795 20.093 13.5966 20.2749 13.6307C20.4586 13.6629 20.6357 13.7301 20.8061 13.8324C20.9785 13.9347 21.1214 14.089 21.2351 14.2955C21.3487 14.5019 21.4055 14.7784 21.4055 15.125V18H20.7351V17.4091H20.701C20.6555 17.5038 20.5798 17.6051 20.4737 17.7131C20.3677 17.821 20.2266 17.9129 20.0504 17.9886C19.8743 18.0644 19.6593 18.1023 19.4055 18.1023ZM19.5078 17.5C19.773 17.5 19.9964 17.4479 20.1783 17.3438C20.362 17.2396 20.5002 17.1051 20.593 16.9403C20.6877 16.7756 20.7351 16.6023 20.7351 16.4205V15.8068C20.7067 15.8409 20.6442 15.8722 20.5476 15.9006C20.4529 15.9271 20.343 15.9508 20.218 15.9716C20.0949 15.9905 19.9747 16.0076 19.8572 16.0227C19.7417 16.036 19.648 16.0473 19.576 16.0568C19.4018 16.0795 19.2389 16.1165 19.0874 16.1676C18.9377 16.2169 18.8165 16.2917 18.7237 16.392C18.6328 16.4905 18.5874 16.625 18.5874 16.7955C18.5874 17.0284 18.6735 17.2045 18.8459 17.3239C19.0201 17.4413 19.2408 17.5 19.5078 17.5ZM26.527 18.0909C26.1634 18.0909 25.8423 17.9991 25.5639 17.8153C25.2855 17.6297 25.0677 17.3684 24.9105 17.0312C24.7533 16.6922 24.6747 16.2917 24.6747 15.8295C24.6747 15.3712 24.7533 14.9735 24.9105 14.6364C25.0677 14.2992 25.2865 14.0388 25.5668 13.8551C25.8471 13.6714 26.1709 13.5795 26.5384 13.5795C26.8224 13.5795 27.0469 13.6269 27.2116 13.7216C27.3783 13.8144 27.5052 13.9205 27.5923 14.0398C27.6813 14.1572 27.7505 14.2538 27.7997 14.3295H27.8565V12.1818H28.527V18H27.8793V17.3295H27.7997C27.7505 17.4091 27.6804 17.5095 27.5895 17.6307C27.4986 17.75 27.3688 17.857 27.2003 17.9517C27.0317 18.0445 26.8073 18.0909 26.527 18.0909ZM26.6179 17.4886C26.8868 17.4886 27.1141 17.4186 27.2997 17.2784C27.4853 17.1364 27.6264 16.9403 27.723 16.6903C27.8196 16.4384 27.8679 16.1477 27.8679 15.8182C27.8679 15.4924 27.8205 15.2074 27.7259 14.9631C27.6312 14.7169 27.491 14.5256 27.3054 14.3892C27.1198 14.2509 26.8906 14.1818 26.6179 14.1818C26.3338 14.1818 26.0971 14.2547 25.9077 14.4006C25.7202 14.5445 25.5791 14.7405 25.4844 14.9886C25.3916 15.2348 25.3452 15.5114 25.3452 15.8182C25.3452 16.1288 25.3925 16.411 25.4872 16.6648C25.5838 16.9167 25.7259 17.1174 25.9134 17.267C26.1027 17.4148 26.3376 17.4886 26.6179 17.4886ZM31.6776 18.0909C31.2571 18.0909 30.8944 17.9981 30.5895 17.8125C30.2865 17.625 30.0526 17.3636 29.8878 17.0284C29.7249 16.6913 29.6435 16.2992 29.6435 15.8523C29.6435 15.4053 29.7249 15.0114 29.8878 14.6705C30.0526 14.3277 30.2817 14.0606 30.5753 13.8693C30.8707 13.6761 31.2154 13.5795 31.6094 13.5795C31.8366 13.5795 32.0611 13.6174 32.2827 13.6932C32.5043 13.7689 32.706 13.892 32.8878 14.0625C33.0696 14.2311 33.2145 14.4545 33.3224 14.733C33.4304 15.0114 33.4844 15.3542 33.4844 15.7614V16.0455H30.1207V15.4659H32.8026C32.8026 15.2197 32.7533 15 32.6548 14.8068C32.5582 14.6136 32.42 14.4612 32.2401 14.3494C32.062 14.2377 31.8518 14.1818 31.6094 14.1818C31.3423 14.1818 31.1113 14.2481 30.9162 14.3807C30.723 14.5114 30.5743 14.6818 30.4702 14.892C30.366 15.1023 30.3139 15.3277 30.3139 15.5682V15.9545C30.3139 16.2841 30.3707 16.5634 30.4844 16.7926C30.5999 17.0199 30.7599 17.1932 30.9645 17.3125C31.169 17.4299 31.4067 17.4886 31.6776 17.4886C31.8537 17.4886 32.0128 17.464 32.1548 17.4148C32.2988 17.3636 32.4228 17.2879 32.527 17.1875C32.6312 17.0852 32.7116 16.9583 32.7685 16.8068L33.4162 16.9886C33.348 17.2083 33.2334 17.4015 33.0724 17.5682C32.9115 17.733 32.7126 17.8617 32.4759 17.9545C32.2391 18.0455 31.973 18.0909 31.6776 18.0909ZM37.5497 12.1818V18H36.8452V12.1818H37.5497ZM39.5419 15.375V18H38.8714V13.6364H39.5192V14.3182H39.576C39.6783 14.0966 39.8336 13.9186 40.0419 13.7841C40.2502 13.6477 40.5192 13.5795 40.8487 13.5795C41.1442 13.5795 41.4027 13.6402 41.6243 13.7614C41.8459 13.8807 42.0182 14.0625 42.1413 14.3068C42.2644 14.5492 42.326 14.8561 42.326 15.2273V18H41.6555V15.2727C41.6555 14.9299 41.5665 14.6629 41.3885 14.4716C41.2105 14.2784 40.9661 14.1818 40.6555 14.1818C40.4415 14.1818 40.2502 14.2282 40.0817 14.321C39.915 14.4138 39.7834 14.5492 39.6868 14.7273C39.5902 14.9053 39.5419 15.1212 39.5419 15.375ZM45.1989 18.0909C44.8352 18.0909 44.5142 17.9991 44.2358 17.8153C43.9574 17.6297 43.7396 17.3684 43.5824 17.0312C43.4252 16.6922 43.3466 16.2917 43.3466 15.8295C43.3466 15.3712 43.4252 14.9735 43.5824 14.6364C43.7396 14.2992 43.9583 14.0388 44.2386 13.8551C44.5189 13.6714 44.8428 13.5795 45.2102 13.5795C45.4943 13.5795 45.7188 13.6269 45.8835 13.7216C46.0502 13.8144 46.1771 13.9205 46.2642 14.0398C46.3532 14.1572 46.4223 14.2538 46.4716 14.3295H46.5284V12.1818H47.1989V18H46.5511V17.3295H46.4716C46.4223 17.4091 46.3523 17.5095 46.2614 17.6307C46.1705 17.75 46.0407 17.857 45.8722 17.9517C45.7036 18.0445 45.4792 18.0909 45.1989 18.0909ZM45.2898 17.4886C45.5587 17.4886 45.786 17.4186 45.9716 17.2784C46.1572 17.1364 46.2983 16.9403 46.3949 16.6903C46.4915 16.4384 46.5398 16.1477 46.5398 15.8182C46.5398 15.4924 46.4924 15.2074 46.3977 14.9631C46.303 14.7169 46.1629 14.5256 45.9773 14.3892C45.7917 14.2509 45.5625 14.1818 45.2898 14.1818C45.0057 14.1818 44.7689 14.2547 44.5795 14.4006C44.392 14.5445 44.2509 14.7405 44.1562 14.9886C44.0634 15.2348 44.017 15.5114 44.017 15.8182C44.017 16.1288 44.0644 16.411 44.1591 16.6648C44.2557 16.9167 44.3977 17.1174 44.5852 17.267C44.7746 17.4148 45.0095 17.4886 45.2898 17.4886ZM51.2699 16.2159V13.6364H51.9403V18H51.2699V17.2614H51.2244C51.1222 17.483 50.9631 17.6714 50.7472 17.8267C50.5313 17.9801 50.2585 18.0568 49.929 18.0568C49.6562 18.0568 49.4138 17.9972 49.2017 17.8778C48.9896 17.7566 48.8229 17.5748 48.7017 17.3324C48.5805 17.0881 48.5199 16.7803 48.5199 16.4091V13.6364H49.1903V16.3636C49.1903 16.6818 49.2794 16.9356 49.4574 17.125C49.6373 17.3144 49.8665 17.4091 50.1449 17.4091C50.3116 17.4091 50.4811 17.3665 50.6534 17.2812C50.8277 17.196 50.9735 17.0653 51.0909 16.8892C51.2102 16.7131 51.2699 16.4886 51.2699 16.2159ZM56.2592 14.6136L55.657 14.7841C55.6191 14.6837 55.5632 14.5862 55.4893 14.4915C55.4174 14.3949 55.3189 14.3153 55.1939 14.2528C55.0689 14.1903 54.9089 14.1591 54.7138 14.1591C54.4467 14.1591 54.2242 14.2206 54.0462 14.3438C53.87 14.465 53.782 14.6193 53.782 14.8068C53.782 14.9735 53.8426 15.1051 53.9638 15.2017C54.085 15.2983 54.2744 15.3788 54.532 15.4432L55.1797 15.6023C55.5698 15.697 55.8606 15.8419 56.0518 16.0369C56.2431 16.2301 56.3388 16.4792 56.3388 16.7841C56.3388 17.0341 56.2668 17.2576 56.1229 17.4545C55.9808 17.6515 55.782 17.8068 55.5263 17.9205C55.2706 18.0341 54.9732 18.0909 54.6342 18.0909C54.1892 18.0909 53.8208 17.9943 53.5291 17.8011C53.2375 17.608 53.0528 17.3258 52.9751 16.9545L53.6115 16.7955C53.6721 17.0303 53.7867 17.2064 53.9553 17.3239C54.1257 17.4413 54.3482 17.5 54.6229 17.5C54.9354 17.5 55.1835 17.4337 55.3672 17.3011C55.5528 17.1667 55.6456 17.0057 55.6456 16.8182C55.6456 16.6667 55.5926 16.5398 55.4865 16.4375C55.3804 16.3333 55.2176 16.2557 54.9979 16.2045L54.2706 16.0341C53.871 15.9394 53.5774 15.7926 53.3899 15.5938C53.2043 15.393 53.1115 15.142 53.1115 14.8409C53.1115 14.5947 53.1806 14.3769 53.3189 14.1875C53.459 13.9981 53.6494 13.8494 53.8899 13.7415C54.1323 13.6335 54.407 13.5795 54.7138 13.5795C55.1456 13.5795 55.4846 13.6742 55.7308 13.8636C55.9789 14.053 56.1551 14.303 56.2592 14.6136ZM59.2457 13.6364V14.2045H56.9844V13.6364H59.2457ZM57.6435 12.5909H58.3139V16.75C58.3139 16.9394 58.3414 17.0814 58.3963 17.1761C58.4531 17.2689 58.5251 17.3314 58.6122 17.3636C58.7012 17.3939 58.795 17.4091 58.8935 17.4091C58.9673 17.4091 59.0279 17.4053 59.0753 17.3977C59.1226 17.3883 59.1605 17.3807 59.1889 17.375L59.3253 17.9773C59.2798 17.9943 59.2164 18.0114 59.1349 18.0284C59.0535 18.0473 58.9503 18.0568 58.8253 18.0568C58.6359 18.0568 58.4503 18.0161 58.2685 17.9347C58.0885 17.8532 57.9389 17.7292 57.8196 17.5625C57.7022 17.3958 57.6435 17.1856 57.6435 16.9318V12.5909ZM60.2543 18V13.6364H60.902V14.2955H60.9474C61.027 14.0795 61.1709 13.9044 61.3793 13.7699C61.5876 13.6354 61.8224 13.5682 62.0838 13.5682C62.133 13.5682 62.1946 13.5691 62.2685 13.571C62.3423 13.5729 62.3982 13.5758 62.4361 13.5795V14.2614C62.4134 14.2557 62.3613 14.2472 62.2798 14.2358C62.2003 14.2225 62.116 14.2159 62.027 14.2159C61.8149 14.2159 61.6255 14.2604 61.4588 14.3494C61.294 14.4366 61.1634 14.5578 61.0668 14.7131C60.9721 14.8665 60.9247 15.0417 60.9247 15.2386V18H60.2543ZM63.2308 18V13.6364H63.9013V18H63.2308ZM63.5717 12.9091C63.4411 12.9091 63.3284 12.8646 63.2337 12.7756C63.1409 12.6866 63.0945 12.5795 63.0945 12.4545C63.0945 12.3295 63.1409 12.2225 63.2337 12.1335C63.3284 12.0445 63.4411 12 63.5717 12C63.7024 12 63.8142 12.0445 63.907 12.1335C64.0017 12.2225 64.049 12.3295 64.049 12.4545C64.049 12.5795 64.0017 12.6866 63.907 12.7756C63.8142 12.8646 63.7024 12.9091 63.5717 12.9091ZM66.4134 18.1023C66.1368 18.1023 65.8859 18.0502 65.6605 17.946C65.4351 17.84 65.2562 17.6875 65.1236 17.4886C64.991 17.2879 64.9247 17.0455 64.9247 16.7614C64.9247 16.5114 64.974 16.3087 65.0724 16.1534C65.1709 15.9962 65.3026 15.8731 65.4673 15.7841C65.6321 15.6951 65.8139 15.6288 66.0128 15.5852C66.2135 15.5398 66.4152 15.5038 66.6179 15.4773C66.883 15.4432 67.098 15.4176 67.2628 15.4006C67.4295 15.3816 67.5507 15.3504 67.6264 15.3068C67.7041 15.2633 67.7429 15.1875 67.7429 15.0795V15.0568C67.7429 14.7765 67.6662 14.5587 67.5128 14.4034C67.3613 14.2481 67.1312 14.1705 66.8224 14.1705C66.5024 14.1705 66.2514 14.2405 66.0696 14.3807C65.8878 14.5208 65.7599 14.6705 65.6861 14.8295L65.0497 14.6023C65.1634 14.3371 65.3149 14.1307 65.5043 13.983C65.6955 13.8333 65.9039 13.7292 66.1293 13.6705C66.3565 13.6098 66.58 13.5795 66.7997 13.5795C66.9399 13.5795 67.1009 13.5966 67.2827 13.6307C67.4664 13.6629 67.6435 13.7301 67.8139 13.8324C67.9863 13.9347 68.1293 14.089 68.2429 14.2955C68.3565 14.5019 68.4134 14.7784 68.4134 15.125V18H67.7429V17.4091H67.7088C67.6634 17.5038 67.5876 17.6051 67.4815 17.7131C67.3755 17.821 67.2344 17.9129 67.0582 17.9886C66.8821 18.0644 66.6671 18.1023 66.4134 18.1023ZM66.5156 17.5C66.7808 17.5 67.0043 17.4479 67.1861 17.3438C67.3698 17.2396 67.508 17.1051 67.6009 16.9403C67.6955 16.7756 67.7429 16.6023 67.7429 16.4205V15.8068C67.7145 15.8409 67.652 15.8722 67.5554 15.9006C67.4607 15.9271 67.3509 15.9508 67.2259 15.9716C67.1027 15.9905 66.9825 16.0076 66.8651 16.0227C66.7495 16.036 66.6558 16.0473 66.5838 16.0568C66.4096 16.0795 66.2467 16.1165 66.0952 16.1676C65.9455 16.2169 65.8243 16.2917 65.7315 16.392C65.6406 16.4905 65.5952 16.625 65.5952 16.7955C65.5952 17.0284 65.6813 17.2045 65.8537 17.3239C66.0279 17.4413 66.2486 17.5 66.5156 17.5Z" fill="black"/>
</g>
<defs>
<clipPath id="clip0_4_2">
<rect width="181" height="223" fill="white"/>
</clipPath>
</defs>
</svg>
