<svg width="181" height="223" viewBox="0 0 181 223" fill="none" xmlns="http://www.w3.org/2000/svg">
<g id="M3_piso3" clip-path="url(#clip0_3_42)">
<rect width="181" height="223" fill="white"/>
<path id="M3-202" d="M94.7045 98.1818H95.5455L97.5227 103.011H97.5909L99.5682 98.1818H100.409V104H99.75V99.5795H99.6932L97.875 104H97.2386L95.4205 99.5795H95.3636V104H94.7045V98.1818ZM103.685 104.08C103.31 104.08 102.976 104.015 102.683 103.886C102.391 103.758 102.159 103.579 101.987 103.349C101.816 103.118 101.723 102.85 101.708 102.545H102.424C102.439 102.733 102.504 102.895 102.617 103.031C102.731 103.166 102.879 103.27 103.063 103.344C103.247 103.418 103.451 103.455 103.674 103.455C103.924 103.455 104.146 103.411 104.339 103.324C104.532 103.237 104.683 103.116 104.793 102.96C104.903 102.805 104.958 102.625 104.958 102.42C104.958 102.206 104.905 102.018 104.799 101.855C104.693 101.69 104.538 101.562 104.333 101.469C104.129 101.376 103.879 101.33 103.583 101.33H103.117V100.705H103.583C103.814 100.705 104.017 100.663 104.191 100.58C104.367 100.496 104.504 100.379 104.603 100.227C104.703 100.076 104.754 99.8977 104.754 99.6932C104.754 99.4962 104.71 99.3248 104.623 99.179C104.536 99.0331 104.413 98.9195 104.254 98.8381C104.096 98.7566 103.911 98.7159 103.697 98.7159C103.496 98.7159 103.307 98.7528 103.129 98.8267C102.952 98.8987 102.808 99.0038 102.697 99.142C102.585 99.2784 102.524 99.4432 102.515 99.6364H101.833C101.844 99.3314 101.936 99.0644 102.109 98.8352C102.281 98.6042 102.506 98.4242 102.785 98.2955C103.065 98.1667 103.373 98.1023 103.708 98.1023C104.068 98.1023 104.377 98.1752 104.634 98.321C104.892 98.465 105.09 98.6553 105.228 98.892C105.366 99.1288 105.435 99.3845 105.435 99.6591C105.435 99.9867 105.349 100.266 105.177 100.497C105.006 100.728 104.774 100.888 104.481 100.977V101.023C104.848 101.083 105.135 101.24 105.342 101.491C105.548 101.741 105.651 102.051 105.651 102.42C105.651 102.737 105.565 103.021 105.393 103.273C105.222 103.523 104.989 103.72 104.694 103.864C104.398 104.008 104.062 104.08 103.685 104.08ZM109.325 100.778V101.403H106.779V100.778H109.325ZM110.219 104V103.489L112.14 101.386C112.365 101.14 112.551 100.926 112.697 100.744C112.843 100.561 112.951 100.388 113.021 100.227C113.093 100.064 113.129 99.8939 113.129 99.7159C113.129 99.5114 113.079 99.3343 112.981 99.1847C112.884 99.035 112.752 98.9195 112.583 98.8381C112.415 98.7566 112.225 98.7159 112.015 98.7159C111.791 98.7159 111.596 98.7623 111.43 98.8551C111.265 98.946 111.137 99.0739 111.046 99.2386C110.957 99.4034 110.913 99.5966 110.913 99.8182H110.242C110.242 99.4773 110.321 99.178 110.478 98.9205C110.635 98.6629 110.849 98.4621 111.12 98.3182C111.393 98.1742 111.699 98.1023 112.038 98.1023C112.379 98.1023 112.681 98.1742 112.944 98.3182C113.207 98.4621 113.414 98.6562 113.563 98.9006C113.713 99.1449 113.788 99.4167 113.788 99.7159C113.788 99.9299 113.749 100.139 113.671 100.344C113.595 100.546 113.463 100.773 113.273 101.023C113.086 101.271 112.826 101.574 112.492 101.932L111.185 103.33V103.375H113.89V104H110.219ZM116.961 104.08C116.533 104.08 116.168 103.963 115.867 103.73C115.566 103.495 115.336 103.155 115.177 102.71C115.018 102.263 114.938 101.723 114.938 101.091C114.938 100.462 115.018 99.9252 115.177 99.4801C115.338 99.0331 115.569 98.6922 115.87 98.4574C116.173 98.2206 116.537 98.1023 116.961 98.1023C117.385 98.1023 117.748 98.2206 118.049 98.4574C118.352 98.6922 118.583 99.0331 118.742 99.4801C118.903 99.9252 118.984 100.462 118.984 101.091C118.984 101.723 118.904 102.263 118.745 102.71C118.586 103.155 118.356 103.495 118.055 103.73C117.754 103.963 117.389 104.08 116.961 104.08ZM116.961 103.455C117.385 103.455 117.715 103.25 117.95 102.841C118.184 102.432 118.302 101.848 118.302 101.091C118.302 100.587 118.248 100.158 118.14 99.804C118.034 99.4498 117.88 99.1799 117.68 98.9943C117.481 98.8087 117.241 98.7159 116.961 98.7159C116.54 98.7159 116.212 98.9233 115.975 99.3381C115.738 99.7509 115.62 100.335 115.62 101.091C115.62 101.595 115.673 102.023 115.779 102.375C115.885 102.727 116.038 102.995 116.237 103.179C116.437 103.363 116.679 103.455 116.961 103.455ZM120.063 104V103.489L121.984 101.386C122.209 101.14 122.395 100.926 122.54 100.744C122.686 100.561 122.794 100.388 122.864 100.227C122.936 100.064 122.972 99.8939 122.972 99.7159C122.972 99.5114 122.923 99.3343 122.825 99.1847C122.728 99.035 122.595 98.9195 122.427 98.8381C122.258 98.7566 122.069 98.7159 121.859 98.7159C121.635 98.7159 121.44 98.7623 121.273 98.8551C121.109 98.946 120.981 99.0739 120.89 99.2386C120.801 99.4034 120.756 99.5966 120.756 99.8182H120.086C120.086 99.4773 120.165 99.178 120.322 98.9205C120.479 98.6629 120.693 98.4621 120.964 98.3182C121.237 98.1742 121.542 98.1023 121.881 98.1023C122.222 98.1023 122.524 98.1742 122.788 98.3182C123.051 98.4621 123.257 98.6562 123.407 98.9006C123.557 99.1449 123.631 99.4167 123.631 99.7159C123.631 99.9299 123.593 100.139 123.515 100.344C123.439 100.546 123.307 100.773 123.117 101.023C122.93 101.271 122.669 101.574 122.336 101.932L121.029 103.33V103.375H123.734V104H120.063Z" fill="black"/>
<path id="M3-201" d="M94.7045 132.182H95.5455L97.5227 137.011H97.5909L99.5682 132.182H100.409V138H99.75V133.58H99.6932L97.875 138H97.2386L95.4205 133.58H95.3636V138H94.7045V132.182ZM103.685 138.08C103.31 138.08 102.976 138.015 102.683 137.886C102.391 137.758 102.159 137.579 101.987 137.349C101.816 137.118 101.723 136.85 101.708 136.545H102.424C102.439 136.733 102.504 136.895 102.617 137.031C102.731 137.166 102.879 137.27 103.063 137.344C103.247 137.418 103.451 137.455 103.674 137.455C103.924 137.455 104.146 137.411 104.339 137.324C104.532 137.237 104.683 137.116 104.793 136.96C104.903 136.805 104.958 136.625 104.958 136.42C104.958 136.206 104.905 136.018 104.799 135.855C104.693 135.69 104.538 135.562 104.333 135.469C104.129 135.376 103.879 135.33 103.583 135.33H103.117V134.705H103.583C103.814 134.705 104.017 134.663 104.191 134.58C104.367 134.496 104.504 134.379 104.603 134.227C104.703 134.076 104.754 133.898 104.754 133.693C104.754 133.496 104.71 133.325 104.623 133.179C104.536 133.033 104.413 132.92 104.254 132.838C104.096 132.757 103.911 132.716 103.697 132.716C103.496 132.716 103.307 132.753 103.129 132.827C102.952 132.899 102.808 133.004 102.697 133.142C102.585 133.278 102.524 133.443 102.515 133.636H101.833C101.844 133.331 101.936 133.064 102.109 132.835C102.281 132.604 102.506 132.424 102.785 132.295C103.065 132.167 103.373 132.102 103.708 132.102C104.068 132.102 104.377 132.175 104.634 132.321C104.892 132.465 105.09 132.655 105.228 132.892C105.366 133.129 105.435 133.384 105.435 133.659C105.435 133.987 105.349 134.266 105.177 134.497C105.006 134.728 104.774 134.888 104.481 134.977V135.023C104.848 135.083 105.135 135.24 105.342 135.491C105.548 135.741 105.651 136.051 105.651 136.42C105.651 136.737 105.565 137.021 105.393 137.273C105.222 137.523 104.989 137.72 104.694 137.864C104.398 138.008 104.062 138.08 103.685 138.08ZM109.325 134.778V135.403H106.779V134.778H109.325ZM110.219 138V137.489L112.14 135.386C112.365 135.14 112.551 134.926 112.697 134.744C112.843 134.561 112.951 134.388 113.021 134.227C113.093 134.064 113.129 133.894 113.129 133.716C113.129 133.511 113.079 133.334 112.981 133.185C112.884 133.035 112.752 132.92 112.583 132.838C112.415 132.757 112.225 132.716 112.015 132.716C111.791 132.716 111.596 132.762 111.43 132.855C111.265 132.946 111.137 133.074 111.046 133.239C110.957 133.403 110.913 133.597 110.913 133.818H110.242C110.242 133.477 110.321 133.178 110.478 132.92C110.635 132.663 110.849 132.462 111.12 132.318C111.393 132.174 111.699 132.102 112.038 132.102C112.379 132.102 112.681 132.174 112.944 132.318C113.207 132.462 113.414 132.656 113.563 132.901C113.713 133.145 113.788 133.417 113.788 133.716C113.788 133.93 113.749 134.139 113.671 134.344C113.595 134.546 113.463 134.773 113.273 135.023C113.086 135.271 112.826 135.574 112.492 135.932L111.185 137.33V137.375H113.89V138H110.219ZM116.961 138.08C116.533 138.08 116.168 137.963 115.867 137.73C115.566 137.495 115.336 137.155 115.177 136.71C115.018 136.263 114.938 135.723 114.938 135.091C114.938 134.462 115.018 133.925 115.177 133.48C115.338 133.033 115.569 132.692 115.87 132.457C116.173 132.221 116.537 132.102 116.961 132.102C117.385 132.102 117.748 132.221 118.049 132.457C118.352 132.692 118.583 133.033 118.742 133.48C118.903 133.925 118.984 134.462 118.984 135.091C118.984 135.723 118.904 136.263 118.745 136.71C118.586 137.155 118.356 137.495 118.055 137.73C117.754 137.963 117.389 138.08 116.961 138.08ZM116.961 137.455C117.385 137.455 117.715 137.25 117.95 136.841C118.184 136.432 118.302 135.848 118.302 135.091C118.302 134.587 118.248 134.158 118.14 133.804C118.034 133.45 117.88 133.18 117.68 132.994C117.481 132.809 117.241 132.716 116.961 132.716C116.54 132.716 116.212 132.923 115.975 133.338C115.738 133.751 115.62 134.335 115.62 135.091C115.62 135.595 115.673 136.023 115.779 136.375C115.885 136.727 116.038 136.995 116.237 137.179C116.437 137.363 116.679 137.455 116.961 137.455ZM122.109 132.182V138H121.404V132.92H121.37L119.95 133.864V133.148L121.404 132.182H122.109Z" fill="black"/>
<path id="M3-203" d="M96.7045 43.1818H97.5455L99.5227 48.0114H99.5909L101.568 43.1818H102.409V49H101.75V44.5795H101.693L99.875 49H99.2386L97.4205 44.5795H97.3636V49H96.7045V43.1818ZM105.685 49.0795C105.31 49.0795 104.976 49.0152 104.683 48.8864C104.391 48.7576 104.159 48.5786 103.987 48.3494C103.816 48.1184 103.723 47.8504 103.708 47.5455H104.424C104.439 47.733 104.504 47.8949 104.617 48.0312C104.731 48.1657 104.879 48.2699 105.063 48.3438C105.247 48.4176 105.451 48.4545 105.674 48.4545C105.924 48.4545 106.146 48.411 106.339 48.3239C106.532 48.2367 106.683 48.1155 106.793 47.9602C106.903 47.8049 106.958 47.625 106.958 47.4205C106.958 47.2064 106.905 47.018 106.799 46.8551C106.693 46.6903 106.538 46.5616 106.333 46.4688C106.129 46.3759 105.879 46.3295 105.583 46.3295H105.117V45.7045H105.583C105.814 45.7045 106.017 45.6629 106.191 45.5795C106.367 45.4962 106.504 45.3788 106.603 45.2273C106.703 45.0758 106.754 44.8977 106.754 44.6932C106.754 44.4962 106.71 44.3248 106.623 44.179C106.536 44.0331 106.413 43.9195 106.254 43.8381C106.096 43.7566 105.911 43.7159 105.697 43.7159C105.496 43.7159 105.307 43.7528 105.129 43.8267C104.952 43.8987 104.808 44.0038 104.697 44.142C104.585 44.2784 104.524 44.4432 104.515 44.6364H103.833C103.844 44.3314 103.936 44.0644 104.109 43.8352C104.281 43.6042 104.506 43.4242 104.785 43.2955C105.065 43.1667 105.373 43.1023 105.708 43.1023C106.068 43.1023 106.377 43.1752 106.634 43.321C106.892 43.465 107.09 43.6553 107.228 43.892C107.366 44.1288 107.435 44.3845 107.435 44.6591C107.435 44.9867 107.349 45.2661 107.177 45.4972C107.006 45.7282 106.774 45.8883 106.481 45.9773V46.0227C106.848 46.0833 107.135 46.2396 107.342 46.4915C107.548 46.7415 107.651 47.0511 107.651 47.4205C107.651 47.7367 107.565 48.0208 107.393 48.2727C107.222 48.5227 106.989 48.7197 106.694 48.8636C106.398 49.0076 106.062 49.0795 105.685 49.0795ZM111.325 45.7784V46.4034H108.779V45.7784H111.325ZM112.219 49V48.4886L114.14 46.3864C114.365 46.1402 114.551 45.9261 114.697 45.7443C114.843 45.5606 114.951 45.3883 115.021 45.2273C115.093 45.0644 115.129 44.8939 115.129 44.7159C115.129 44.5114 115.079 44.3343 114.981 44.1847C114.884 44.035 114.752 43.9195 114.583 43.8381C114.415 43.7566 114.225 43.7159 114.015 43.7159C113.791 43.7159 113.596 43.7623 113.43 43.8551C113.265 43.946 113.137 44.0739 113.046 44.2386C112.957 44.4034 112.913 44.5966 112.913 44.8182H112.242C112.242 44.4773 112.321 44.178 112.478 43.9205C112.635 43.6629 112.849 43.4621 113.12 43.3182C113.393 43.1742 113.699 43.1023 114.038 43.1023C114.379 43.1023 114.681 43.1742 114.944 43.3182C115.207 43.4621 115.414 43.6562 115.563 43.9006C115.713 44.1449 115.788 44.4167 115.788 44.7159C115.788 44.9299 115.749 45.1392 115.671 45.3438C115.595 45.5464 115.463 45.7727 115.273 46.0227C115.086 46.2708 114.826 46.5739 114.492 46.9318L113.185 48.3295V48.375H115.89V49H112.219ZM118.961 49.0795C118.533 49.0795 118.168 48.9631 117.867 48.7301C117.566 48.4953 117.336 48.1553 117.177 47.7102C117.018 47.2633 116.938 46.7235 116.938 46.0909C116.938 45.4621 117.018 44.9252 117.177 44.4801C117.338 44.0331 117.569 43.6922 117.87 43.4574C118.173 43.2206 118.537 43.1023 118.961 43.1023C119.385 43.1023 119.748 43.2206 120.049 43.4574C120.352 43.6922 120.583 44.0331 120.742 44.4801C120.903 44.9252 120.984 45.4621 120.984 46.0909C120.984 46.7235 120.904 47.2633 120.745 47.7102C120.586 48.1553 120.356 48.4953 120.055 48.7301C119.754 48.9631 119.389 49.0795 118.961 49.0795ZM118.961 48.4545C119.385 48.4545 119.715 48.25 119.95 47.8409C120.184 47.4318 120.302 46.8485 120.302 46.0909C120.302 45.5871 120.248 45.1581 120.14 44.804C120.034 44.4498 119.88 44.1799 119.68 43.9943C119.481 43.8087 119.241 43.7159 118.961 43.7159C118.54 43.7159 118.212 43.9233 117.975 44.3381C117.738 44.7509 117.62 45.3352 117.62 46.0909C117.62 46.5947 117.673 47.0227 117.779 47.375C117.885 47.7273 118.038 47.9953 118.237 48.179C118.437 48.3627 118.679 48.4545 118.961 48.4545ZM124.029 49.0795C123.654 49.0795 123.32 49.0152 123.026 48.8864C122.735 48.7576 122.503 48.5786 122.33 48.3494C122.16 48.1184 122.067 47.8504 122.052 47.5455H122.768C122.783 47.733 122.847 47.8949 122.961 48.0312C123.075 48.1657 123.223 48.2699 123.407 48.3438C123.591 48.4176 123.794 48.4545 124.018 48.4545C124.268 48.4545 124.489 48.411 124.683 48.3239C124.876 48.2367 125.027 48.1155 125.137 47.9602C125.247 47.8049 125.302 47.625 125.302 47.4205C125.302 47.2064 125.249 47.018 125.143 46.8551C125.037 46.6903 124.881 46.5616 124.677 46.4688C124.472 46.3759 124.222 46.3295 123.927 46.3295H123.461V45.7045H123.927C124.158 45.7045 124.361 45.6629 124.535 45.5795C124.711 45.4962 124.848 45.3788 124.947 45.2273C125.047 45.0758 125.097 44.8977 125.097 44.6932C125.097 44.4962 125.054 44.3248 124.967 44.179C124.879 44.0331 124.756 43.9195 124.597 43.8381C124.44 43.7566 124.254 43.7159 124.04 43.7159C123.84 43.7159 123.65 43.7528 123.472 43.8267C123.296 43.8987 123.152 44.0038 123.04 44.142C122.929 44.2784 122.868 44.4432 122.859 44.6364H122.177C122.188 44.3314 122.28 44.0644 122.452 43.8352C122.625 43.6042 122.85 43.4242 123.129 43.2955C123.409 43.1667 123.717 43.1023 124.052 43.1023C124.412 43.1023 124.72 43.1752 124.978 43.321C125.236 43.465 125.433 43.6553 125.572 43.892C125.71 44.1288 125.779 44.3845 125.779 44.6591C125.779 44.9867 125.693 45.2661 125.521 45.4972C125.35 45.7282 125.118 45.8883 124.825 45.9773V46.0227C125.192 46.0833 125.479 46.2396 125.685 46.4915C125.892 46.7415 125.995 47.0511 125.995 47.4205C125.995 47.7367 125.909 48.0208 125.737 48.2727C125.566 48.5227 125.333 48.7197 125.038 48.8636C124.742 49.0076 124.406 49.0795 124.029 49.0795Z" fill="black"/>
<path id="M3-204" d="M87.7045 13.1818H88.5455L90.5227 18.0114H90.5909L92.5682 13.1818H93.4091V19H92.75V14.5795H92.6932L90.875 19H90.2386L88.4205 14.5795H88.3636V19H87.7045V13.1818ZM96.6854 19.0795C96.3104 19.0795 95.9761 19.0152 95.6825 18.8864C95.3909 18.7576 95.1589 18.5786 94.9865 18.3494C94.8161 18.1184 94.7232 17.8504 94.7081 17.5455H95.424C95.4392 17.733 95.5036 17.8949 95.6172 18.0312C95.7308 18.1657 95.8795 18.2699 96.0632 18.3438C96.2469 18.4176 96.4505 18.4545 96.674 18.4545C96.924 18.4545 97.1456 18.411 97.3388 18.3239C97.532 18.2367 97.6835 18.1155 97.7933 17.9602C97.9032 17.8049 97.9581 17.625 97.9581 17.4205C97.9581 17.2064 97.9051 17.018 97.799 16.8551C97.6929 16.6903 97.5376 16.5616 97.3331 16.4688C97.1286 16.3759 96.8786 16.3295 96.5831 16.3295H96.1172V15.7045H96.5831C96.8142 15.7045 97.0168 15.6629 97.1911 15.5795C97.3672 15.4962 97.5045 15.3788 97.603 15.2273C97.7034 15.0758 97.7536 14.8977 97.7536 14.6932C97.7536 14.4962 97.71 14.3248 97.6229 14.179C97.5357 14.0331 97.4126 13.9195 97.2536 13.8381C97.0964 13.7566 96.9107 13.7159 96.6967 13.7159C96.496 13.7159 96.3066 13.7528 96.1286 13.8267C95.9524 13.8987 95.8085 14.0038 95.6967 14.142C95.585 14.2784 95.5244 14.4432 95.5149 14.6364H94.8331C94.8445 14.3314 94.9363 14.0644 95.1087 13.8352C95.281 13.6042 95.5064 13.4242 95.7848 13.2955C96.0651 13.1667 96.3729 13.1023 96.7081 13.1023C97.0679 13.1023 97.3767 13.1752 97.6342 13.321C97.8918 13.465 98.0897 13.6553 98.228 13.892C98.3662 14.1288 98.4354 14.3845 98.4354 14.6591C98.4354 14.9867 98.3492 15.2661 98.1768 15.4972C98.0064 15.7282 97.7744 15.8883 97.4808 15.9773V16.0227C97.8482 16.0833 98.1352 16.2396 98.3416 16.4915C98.5481 16.7415 98.6513 17.0511 98.6513 17.4205C98.6513 17.7367 98.5651 18.0208 98.3928 18.2727C98.2223 18.5227 97.9893 18.7197 97.6939 18.8636C97.3984 19.0076 97.0623 19.0795 96.6854 19.0795ZM102.325 15.7784V16.4034H99.7791V15.7784H102.325ZM103.219 19V18.4886L105.14 16.3864C105.365 16.1402 105.551 15.9261 105.697 15.7443C105.843 15.5606 105.951 15.3883 106.021 15.2273C106.093 15.0644 106.129 14.8939 106.129 14.7159C106.129 14.5114 106.079 14.3343 105.981 14.1847C105.884 14.035 105.752 13.9195 105.583 13.8381C105.415 13.7566 105.225 13.7159 105.015 13.7159C104.791 13.7159 104.596 13.7623 104.43 13.8551C104.265 13.946 104.137 14.0739 104.046 14.2386C103.957 14.4034 103.913 14.5966 103.913 14.8182H103.242C103.242 14.4773 103.321 14.178 103.478 13.9205C103.635 13.6629 103.849 13.4621 104.12 13.3182C104.393 13.1742 104.699 13.1023 105.038 13.1023C105.379 13.1023 105.681 13.1742 105.944 13.3182C106.207 13.4621 106.414 13.6562 106.563 13.9006C106.713 14.1449 106.788 14.4167 106.788 14.7159C106.788 14.9299 106.749 15.1392 106.671 15.3438C106.595 15.5464 106.463 15.7727 106.273 16.0227C106.086 16.2708 105.826 16.5739 105.492 16.9318L104.185 18.3295V18.375H106.89V19H103.219ZM109.961 19.0795C109.533 19.0795 109.168 18.9631 108.867 18.7301C108.566 18.4953 108.336 18.1553 108.177 17.7102C108.018 17.2633 107.938 16.7235 107.938 16.0909C107.938 15.4621 108.018 14.9252 108.177 14.4801C108.338 14.0331 108.569 13.6922 108.87 13.4574C109.173 13.2206 109.537 13.1023 109.961 13.1023C110.385 13.1023 110.748 13.2206 111.049 13.4574C111.352 13.6922 111.583 14.0331 111.742 14.4801C111.903 14.9252 111.984 15.4621 111.984 16.0909C111.984 16.7235 111.904 17.2633 111.745 17.7102C111.586 18.1553 111.356 18.4953 111.055 18.7301C110.754 18.9631 110.389 19.0795 109.961 19.0795ZM109.961 18.4545C110.385 18.4545 110.715 18.25 110.95 17.8409C111.184 17.4318 111.302 16.8485 111.302 16.0909C111.302 15.5871 111.248 15.1581 111.14 14.804C111.034 14.4498 110.88 14.1799 110.68 13.9943C110.481 13.8087 110.241 13.7159 109.961 13.7159C109.54 13.7159 109.212 13.9233 108.975 14.3381C108.738 14.7509 108.62 15.3352 108.62 16.0909C108.62 16.5947 108.673 17.0227 108.779 17.375C108.885 17.7273 109.038 17.9953 109.237 18.179C109.437 18.3627 109.679 18.4545 109.961 18.4545ZM112.927 17.8068V17.2273L115.484 13.1818H115.904V14.0795H115.62L113.688 17.1364V17.1818H117.131V17.8068H112.927ZM115.665 19V17.6307V17.3608V13.1818H116.336V19H115.665Z" fill="black"/>
<g id="Group 15">
<rect id="Rectangle 63" width="72" height="26" fill="#B0C4DE"/>
<path id="&#226;&#154;&#165;" d="M35.8797 17.5862V15.9662H34.1097V15.2612H35.8797V13.9412C35.3697 13.8712 34.9097 13.6912 34.4997 13.4012C34.0897 13.1112 33.7647 12.7412 33.5247 12.2912C33.2847 11.8412 33.1647 11.3562 33.1647 10.8362C33.1647 10.2762 33.3047 9.76621 33.5847 9.30621C33.8747 8.83621 34.2547 8.46121 34.7247 8.18121C35.2047 7.90121 35.7247 7.76121 36.2847 7.76121C36.6347 7.76121 36.9647 7.81621 37.2747 7.92621C37.5847 8.02621 37.8747 8.17621 38.1447 8.37621L39.5397 6.81621L38.3547 6.23121L40.8747 5.94621L40.8897 8.48121L40.1547 7.35621L38.7297 8.94621C38.9597 9.21621 39.1297 9.51121 39.2397 9.83121C39.3497 10.1412 39.4047 10.4762 39.4047 10.8362C39.4047 11.3462 39.2847 11.8262 39.0447 12.2762C38.8047 12.7262 38.4797 13.1012 38.0697 13.4012C37.6697 13.6912 37.2097 13.8712 36.6897 13.9412V15.2612H38.3547V15.9662H36.6897V17.5862H35.8797ZM36.2847 13.2062C36.7147 13.2062 37.1097 13.1012 37.4697 12.8912C37.8297 12.6712 38.1147 12.3812 38.3247 12.0212C38.5447 11.6612 38.6547 11.2662 38.6547 10.8362C38.6547 10.4162 38.5447 10.0312 38.3247 9.68121C38.1147 9.33121 37.8297 9.05121 37.4697 8.84121C37.1097 8.62121 36.7147 8.51121 36.2847 8.51121C35.8547 8.51121 35.4597 8.62121 35.0997 8.84121C34.7397 9.05121 34.4497 9.33121 34.2297 9.68121C34.0197 10.0312 33.9147 10.4162 33.9147 10.8362C33.9147 11.2662 34.0197 11.6612 34.2297 12.0212C34.4497 12.3812 34.7397 12.6712 35.0997 12.8912C35.4597 13.1012 35.8547 13.2062 36.2847 13.2062Z" fill="black"/>
</g>
<g id="Group 15_2">
<rect id="Rectangle 60" x="139" y="154" width="42" height="38" fill="#B0C4DE"/>
<path id="&#226;&#153;&#130;" d="M159.256 178.195C158.696 178.195 158.176 178.055 157.696 177.775C157.226 177.495 156.846 177.12 156.556 176.65C156.276 176.17 156.136 175.645 156.136 175.075C156.136 174.515 156.276 174.005 156.556 173.545C156.846 173.075 157.226 172.7 157.696 172.42C158.176 172.14 158.696 172 159.256 172C159.596 172 159.921 172.055 160.231 172.165C160.541 172.265 160.836 172.415 161.116 172.615L162.511 171.055L161.326 170.47L163.846 170.185L163.861 172.72L163.126 171.595L161.701 173.185C161.931 173.465 162.101 173.765 162.211 174.085C162.321 174.395 162.376 174.725 162.376 175.075C162.376 175.645 162.236 176.17 161.956 176.65C161.676 177.12 161.296 177.495 160.816 177.775C160.346 178.055 159.826 178.195 159.256 178.195ZM159.256 177.445C159.686 177.445 160.081 177.34 160.441 177.13C160.801 176.91 161.086 176.62 161.296 176.26C161.516 175.9 161.626 175.505 161.626 175.075C161.626 174.655 161.516 174.27 161.296 173.92C161.086 173.56 160.801 173.275 160.441 173.065C160.081 172.855 159.686 172.75 159.256 172.75C158.826 172.75 158.431 172.855 158.071 173.065C157.711 173.275 157.421 173.56 157.201 173.92C156.991 174.27 156.886 174.655 156.886 175.075C156.886 175.505 156.991 175.9 157.201 176.26C157.421 176.62 157.711 176.91 158.071 177.13C158.431 177.34 158.826 177.445 159.256 177.445Z" fill="black"/>
</g>
<rect id="Rectangle 76" y="192" width="194" height="31" fill="#EF9A9A"/>
<path id="M3-304" d="M82 0H184V34H82V0Z" fill="#BDD7EE"/>
<rect id="M3-303" x="82" y="34" width="101" height="36" fill="#BDD7EE"/>
<rect id="M3-302" x="82" y="85" width="101" height="36" fill="#BDD7EE"/>
<path id="M3-302_2" d="M94.7045 98.1818H95.5455L97.5227 103.011H97.5909L99.5682 98.1818H100.409V104H99.75V99.5795H99.6932L97.875 104H97.2386L95.4205 99.5795H95.3636V104H94.7045V98.1818ZM103.685 104.08C103.31 104.08 102.976 104.015 102.683 103.886C102.391 103.758 102.159 103.579 101.987 103.349C101.816 103.118 101.723 102.85 101.708 102.545H102.424C102.439 102.733 102.504 102.895 102.617 103.031C102.731 103.166 102.879 103.27 103.063 103.344C103.247 103.418 103.451 103.455 103.674 103.455C103.924 103.455 104.146 103.411 104.339 103.324C104.532 103.237 104.683 103.116 104.793 102.96C104.903 102.805 104.958 102.625 104.958 102.42C104.958 102.206 104.905 102.018 104.799 101.855C104.693 101.69 104.538 101.562 104.333 101.469C104.129 101.376 103.879 101.33 103.583 101.33H103.117V100.705H103.583C103.814 100.705 104.017 100.663 104.191 100.58C104.367 100.496 104.504 100.379 104.603 100.227C104.703 100.076 104.754 99.8977 104.754 99.6932C104.754 99.4962 104.71 99.3248 104.623 99.179C104.536 99.0331 104.413 98.9195 104.254 98.8381C104.096 98.7566 103.911 98.7159 103.697 98.7159C103.496 98.7159 103.307 98.7528 103.129 98.8267C102.952 98.8987 102.808 99.0038 102.697 99.142C102.585 99.2784 102.524 99.4432 102.515 99.6364H101.833C101.844 99.3314 101.936 99.0644 102.109 98.8352C102.281 98.6042 102.506 98.4242 102.785 98.2955C103.065 98.1667 103.373 98.1023 103.708 98.1023C104.068 98.1023 104.377 98.1752 104.634 98.321C104.892 98.465 105.09 98.6553 105.228 98.892C105.366 99.1288 105.435 99.3845 105.435 99.6591C105.435 99.9867 105.349 100.266 105.177 100.497C105.006 100.728 104.774 100.888 104.481 100.977V101.023C104.848 101.083 105.135 101.24 105.342 101.491C105.548 101.741 105.651 102.051 105.651 102.42C105.651 102.737 105.565 103.021 105.393 103.273C105.222 103.523 104.989 103.72 104.694 103.864C104.398 104.008 104.062 104.08 103.685 104.08ZM109.325 100.778V101.403H106.779V100.778H109.325ZM112.365 104.08C111.99 104.08 111.656 104.015 111.362 103.886C111.071 103.758 110.839 103.579 110.666 103.349C110.496 103.118 110.403 102.85 110.388 102.545H111.104C111.119 102.733 111.183 102.895 111.297 103.031C111.411 103.166 111.559 103.27 111.743 103.344C111.927 103.418 112.13 103.455 112.354 103.455C112.604 103.455 112.825 103.411 113.018 103.324C113.212 103.237 113.363 103.116 113.473 102.96C113.583 102.805 113.638 102.625 113.638 102.42C113.638 102.206 113.585 102.018 113.479 101.855C113.373 101.69 113.217 101.562 113.013 101.469C112.808 101.376 112.558 101.33 112.263 101.33H111.797V100.705H112.263C112.494 100.705 112.696 100.663 112.871 100.58C113.047 100.496 113.184 100.379 113.283 100.227C113.383 100.076 113.433 99.8977 113.433 99.6932C113.433 99.4962 113.39 99.3248 113.303 99.179C113.215 99.0331 113.092 98.9195 112.933 98.8381C112.776 98.7566 112.59 98.7159 112.376 98.7159C112.176 98.7159 111.986 98.7528 111.808 98.8267C111.632 98.8987 111.488 99.0038 111.376 99.142C111.265 99.2784 111.204 99.4432 111.195 99.6364H110.513C110.524 99.3314 110.616 99.0644 110.788 98.8352C110.961 98.6042 111.186 98.4242 111.464 98.2955C111.745 98.1667 112.053 98.1023 112.388 98.1023C112.748 98.1023 113.056 98.1752 113.314 98.321C113.571 98.465 113.769 98.6553 113.908 98.892C114.046 99.1288 114.115 99.3845 114.115 99.6591C114.115 99.9867 114.029 100.266 113.857 100.497C113.686 100.728 113.454 100.888 113.161 100.977V101.023C113.528 101.083 113.815 101.24 114.021 101.491C114.228 101.741 114.331 102.051 114.331 102.42C114.331 102.737 114.245 103.021 114.072 103.273C113.902 103.523 113.669 103.72 113.374 103.864C113.078 104.008 112.742 104.08 112.365 104.08ZM117.391 104.08C116.963 104.08 116.598 103.963 116.297 103.73C115.996 103.495 115.766 103.155 115.607 102.71C115.447 102.263 115.368 101.723 115.368 101.091C115.368 100.462 115.447 99.9252 115.607 99.4801C115.768 99.0331 115.999 98.6922 116.3 98.4574C116.603 98.2206 116.966 98.1023 117.391 98.1023C117.815 98.1023 118.178 98.2206 118.479 98.4574C118.782 98.6922 119.013 99.0331 119.172 99.4801C119.333 99.9252 119.413 100.462 119.413 101.091C119.413 101.723 119.334 102.263 119.175 102.71C119.016 103.155 118.786 103.495 118.484 103.73C118.183 103.963 117.819 104.08 117.391 104.08ZM117.391 103.455C117.815 103.455 118.144 103.25 118.379 102.841C118.614 102.432 118.732 101.848 118.732 101.091C118.732 100.587 118.678 100.158 118.57 99.804C118.464 99.4498 118.31 99.1799 118.109 98.9943C117.911 98.8087 117.671 98.7159 117.391 98.7159C116.97 98.7159 116.642 98.9233 116.405 99.3381C116.168 99.7509 116.05 100.335 116.05 101.091C116.05 101.595 116.103 102.023 116.209 102.375C116.315 102.727 116.467 102.995 116.666 103.179C116.867 103.363 117.108 103.455 117.391 103.455ZM120.493 104V103.489L122.413 101.386C122.639 101.14 122.824 100.926 122.97 100.744C123.116 100.561 123.224 100.388 123.294 100.227C123.366 100.064 123.402 99.8939 123.402 99.7159C123.402 99.5114 123.353 99.3343 123.254 99.1847C123.158 99.035 123.025 98.9195 122.857 98.8381C122.688 98.7566 122.499 98.7159 122.288 98.7159C122.065 98.7159 121.87 98.7623 121.703 98.8551C121.538 98.946 121.411 99.0739 121.32 99.2386C121.231 99.4034 121.186 99.5966 121.186 99.8182H120.516C120.516 99.4773 120.594 99.178 120.751 98.9205C120.909 98.6629 121.123 98.4621 121.393 98.3182C121.666 98.1742 121.972 98.1023 122.311 98.1023C122.652 98.1023 122.954 98.1742 123.217 98.3182C123.481 98.4621 123.687 98.6562 123.837 98.9006C123.986 99.1449 124.061 99.4167 124.061 99.7159C124.061 99.9299 124.022 100.139 123.945 100.344C123.869 100.546 123.736 100.773 123.547 101.023C123.359 101.271 123.099 101.574 122.766 101.932L121.459 103.33V103.375H124.163V104H120.493Z" fill="black"/>
<rect id="M3-301" x="82" y="121" width="100" height="33" fill="#BDD7EE"/>
<path id="M3-301_2" d="M94.7045 132.182H95.5455L97.5227 137.011H97.5909L99.5682 132.182H100.409V138H99.75V133.58H99.6932L97.875 138H97.2386L95.4205 133.58H95.3636V138H94.7045V132.182ZM103.685 138.08C103.31 138.08 102.976 138.015 102.683 137.886C102.391 137.758 102.159 137.579 101.987 137.349C101.816 137.118 101.723 136.85 101.708 136.545H102.424C102.439 136.733 102.504 136.895 102.617 137.031C102.731 137.166 102.879 137.27 103.063 137.344C103.247 137.418 103.451 137.455 103.674 137.455C103.924 137.455 104.146 137.411 104.339 137.324C104.532 137.237 104.683 137.116 104.793 136.96C104.903 136.805 104.958 136.625 104.958 136.42C104.958 136.206 104.905 136.018 104.799 135.855C104.693 135.69 104.538 135.562 104.333 135.469C104.129 135.376 103.879 135.33 103.583 135.33H103.117V134.705H103.583C103.814 134.705 104.017 134.663 104.191 134.58C104.367 134.496 104.504 134.379 104.603 134.227C104.703 134.076 104.754 133.898 104.754 133.693C104.754 133.496 104.71 133.325 104.623 133.179C104.536 133.033 104.413 132.92 104.254 132.838C104.096 132.757 103.911 132.716 103.697 132.716C103.496 132.716 103.307 132.753 103.129 132.827C102.952 132.899 102.808 133.004 102.697 133.142C102.585 133.278 102.524 133.443 102.515 133.636H101.833C101.844 133.331 101.936 133.064 102.109 132.835C102.281 132.604 102.506 132.424 102.785 132.295C103.065 132.167 103.373 132.102 103.708 132.102C104.068 132.102 104.377 132.175 104.634 132.321C104.892 132.465 105.09 132.655 105.228 132.892C105.366 133.129 105.435 133.384 105.435 133.659C105.435 133.987 105.349 134.266 105.177 134.497C105.006 134.728 104.774 134.888 104.481 134.977V135.023C104.848 135.083 105.135 135.24 105.342 135.491C105.548 135.741 105.651 136.051 105.651 136.42C105.651 136.737 105.565 137.021 105.393 137.273C105.222 137.523 104.989 137.72 104.694 137.864C104.398 138.008 104.062 138.08 103.685 138.08ZM109.325 134.778V135.403H106.779V134.778H109.325ZM112.365 138.08C111.99 138.08 111.656 138.015 111.362 137.886C111.071 137.758 110.839 137.579 110.666 137.349C110.496 137.118 110.403 136.85 110.388 136.545H111.104C111.119 136.733 111.183 136.895 111.297 137.031C111.411 137.166 111.559 137.27 111.743 137.344C111.927 137.418 112.13 137.455 112.354 137.455C112.604 137.455 112.825 137.411 113.018 137.324C113.212 137.237 113.363 137.116 113.473 136.96C113.583 136.805 113.638 136.625 113.638 136.42C113.638 136.206 113.585 136.018 113.479 135.855C113.373 135.69 113.217 135.562 113.013 135.469C112.808 135.376 112.558 135.33 112.263 135.33H111.797V134.705H112.263C112.494 134.705 112.696 134.663 112.871 134.58C113.047 134.496 113.184 134.379 113.283 134.227C113.383 134.076 113.433 133.898 113.433 133.693C113.433 133.496 113.39 133.325 113.303 133.179C113.215 133.033 113.092 132.92 112.933 132.838C112.776 132.757 112.59 132.716 112.376 132.716C112.176 132.716 111.986 132.753 111.808 132.827C111.632 132.899 111.488 133.004 111.376 133.142C111.265 133.278 111.204 133.443 111.195 133.636H110.513C110.524 133.331 110.616 133.064 110.788 132.835C110.961 132.604 111.186 132.424 111.464 132.295C111.745 132.167 112.053 132.102 112.388 132.102C112.748 132.102 113.056 132.175 113.314 132.321C113.571 132.465 113.769 132.655 113.908 132.892C114.046 133.129 114.115 133.384 114.115 133.659C114.115 133.987 114.029 134.266 113.857 134.497C113.686 134.728 113.454 134.888 113.161 134.977V135.023C113.528 135.083 113.815 135.24 114.021 135.491C114.228 135.741 114.331 136.051 114.331 136.42C114.331 136.737 114.245 137.021 114.072 137.273C113.902 137.523 113.669 137.72 113.374 137.864C113.078 138.008 112.742 138.08 112.365 138.08ZM117.391 138.08C116.963 138.08 116.598 137.963 116.297 137.73C115.996 137.495 115.766 137.155 115.607 136.71C115.447 136.263 115.368 135.723 115.368 135.091C115.368 134.462 115.447 133.925 115.607 133.48C115.768 133.033 115.999 132.692 116.3 132.457C116.603 132.221 116.966 132.102 117.391 132.102C117.815 132.102 118.178 132.221 118.479 132.457C118.782 132.692 119.013 133.033 119.172 133.48C119.333 133.925 119.413 134.462 119.413 135.091C119.413 135.723 119.334 136.263 119.175 136.71C119.016 137.155 118.786 137.495 118.484 137.73C118.183 137.963 117.819 138.08 117.391 138.08ZM117.391 137.455C117.815 137.455 118.144 137.25 118.379 136.841C118.614 136.432 118.732 135.848 118.732 135.091C118.732 134.587 118.678 134.158 118.57 133.804C118.464 133.45 118.31 133.18 118.109 132.994C117.911 132.809 117.671 132.716 117.391 132.716C116.97 132.716 116.642 132.923 116.405 133.338C116.168 133.751 116.05 134.335 116.05 135.091C116.05 135.595 116.103 136.023 116.209 136.375C116.315 136.727 116.467 136.995 116.666 137.179C116.867 137.363 117.108 137.455 117.391 137.455ZM122.538 132.182V138H121.834V132.92H121.8L120.379 133.864V133.148L121.834 132.182H122.538Z" fill="black"/>
<path id="M3-303_2" d="M96.7045 43.1818H97.5455L99.5227 48.0114H99.5909L101.568 43.1818H102.409V49H101.75V44.5795H101.693L99.875 49H99.2386L97.4205 44.5795H97.3636V49H96.7045V43.1818ZM105.685 49.0795C105.31 49.0795 104.976 49.0152 104.683 48.8864C104.391 48.7576 104.159 48.5786 103.987 48.3494C103.816 48.1184 103.723 47.8504 103.708 47.5455H104.424C104.439 47.733 104.504 47.8949 104.617 48.0312C104.731 48.1657 104.879 48.2699 105.063 48.3438C105.247 48.4176 105.451 48.4545 105.674 48.4545C105.924 48.4545 106.146 48.411 106.339 48.3239C106.532 48.2367 106.683 48.1155 106.793 47.9602C106.903 47.8049 106.958 47.625 106.958 47.4205C106.958 47.2064 106.905 47.018 106.799 46.8551C106.693 46.6903 106.538 46.5616 106.333 46.4688C106.129 46.3759 105.879 46.3295 105.583 46.3295H105.117V45.7045H105.583C105.814 45.7045 106.017 45.6629 106.191 45.5795C106.367 45.4962 106.504 45.3788 106.603 45.2273C106.703 45.0758 106.754 44.8977 106.754 44.6932C106.754 44.4962 106.71 44.3248 106.623 44.179C106.536 44.0331 106.413 43.9195 106.254 43.8381C106.096 43.7566 105.911 43.7159 105.697 43.7159C105.496 43.7159 105.307 43.7528 105.129 43.8267C104.952 43.8987 104.808 44.0038 104.697 44.142C104.585 44.2784 104.524 44.4432 104.515 44.6364H103.833C103.844 44.3314 103.936 44.0644 104.109 43.8352C104.281 43.6042 104.506 43.4242 104.785 43.2955C105.065 43.1667 105.373 43.1023 105.708 43.1023C106.068 43.1023 106.377 43.1752 106.634 43.321C106.892 43.465 107.09 43.6553 107.228 43.892C107.366 44.1288 107.435 44.3845 107.435 44.6591C107.435 44.9867 107.349 45.2661 107.177 45.4972C107.006 45.7282 106.774 45.8883 106.481 45.9773V46.0227C106.848 46.0833 107.135 46.2396 107.342 46.4915C107.548 46.7415 107.651 47.0511 107.651 47.4205C107.651 47.7367 107.565 48.0208 107.393 48.2727C107.222 48.5227 106.989 48.7197 106.694 48.8636C106.398 49.0076 106.062 49.0795 105.685 49.0795ZM111.325 45.7784V46.4034H108.779V45.7784H111.325ZM114.365 49.0795C113.99 49.0795 113.656 49.0152 113.362 48.8864C113.071 48.7576 112.839 48.5786 112.666 48.3494C112.496 48.1184 112.403 47.8504 112.388 47.5455H113.104C113.119 47.733 113.183 47.8949 113.297 48.0312C113.411 48.1657 113.559 48.2699 113.743 48.3438C113.927 48.4176 114.13 48.4545 114.354 48.4545C114.604 48.4545 114.825 48.411 115.018 48.3239C115.212 48.2367 115.363 48.1155 115.473 47.9602C115.583 47.8049 115.638 47.625 115.638 47.4205C115.638 47.2064 115.585 47.018 115.479 46.8551C115.373 46.6903 115.217 46.5616 115.013 46.4688C114.808 46.3759 114.558 46.3295 114.263 46.3295H113.797V45.7045H114.263C114.494 45.7045 114.696 45.6629 114.871 45.5795C115.047 45.4962 115.184 45.3788 115.283 45.2273C115.383 45.0758 115.433 44.8977 115.433 44.6932C115.433 44.4962 115.39 44.3248 115.303 44.179C115.215 44.0331 115.092 43.9195 114.933 43.8381C114.776 43.7566 114.59 43.7159 114.376 43.7159C114.176 43.7159 113.986 43.7528 113.808 43.8267C113.632 43.8987 113.488 44.0038 113.376 44.142C113.265 44.2784 113.204 44.4432 113.195 44.6364H112.513C112.524 44.3314 112.616 44.0644 112.788 43.8352C112.961 43.6042 113.186 43.4242 113.464 43.2955C113.745 43.1667 114.053 43.1023 114.388 43.1023C114.748 43.1023 115.056 43.1752 115.314 43.321C115.571 43.465 115.769 43.6553 115.908 43.892C116.046 44.1288 116.115 44.3845 116.115 44.6591C116.115 44.9867 116.029 45.2661 115.857 45.4972C115.686 45.7282 115.454 45.8883 115.161 45.9773V46.0227C115.528 46.0833 115.815 46.2396 116.021 46.4915C116.228 46.7415 116.331 47.0511 116.331 47.4205C116.331 47.7367 116.245 48.0208 116.072 48.2727C115.902 48.5227 115.669 48.7197 115.374 48.8636C115.078 49.0076 114.742 49.0795 114.365 49.0795ZM119.391 49.0795C118.963 49.0795 118.598 48.9631 118.297 48.7301C117.996 48.4953 117.766 48.1553 117.607 47.7102C117.447 47.2633 117.368 46.7235 117.368 46.0909C117.368 45.4621 117.447 44.9252 117.607 44.4801C117.768 44.0331 117.999 43.6922 118.3 43.4574C118.603 43.2206 118.966 43.1023 119.391 43.1023C119.815 43.1023 120.178 43.2206 120.479 43.4574C120.782 43.6922 121.013 44.0331 121.172 44.4801C121.333 44.9252 121.413 45.4621 121.413 46.0909C121.413 46.7235 121.334 47.2633 121.175 47.7102C121.016 48.1553 120.786 48.4953 120.484 48.7301C120.183 48.9631 119.819 49.0795 119.391 49.0795ZM119.391 48.4545C119.815 48.4545 120.144 48.25 120.379 47.8409C120.614 47.4318 120.732 46.8485 120.732 46.0909C120.732 45.5871 120.678 45.1581 120.57 44.804C120.464 44.4498 120.31 44.1799 120.109 43.9943C119.911 43.8087 119.671 43.7159 119.391 43.7159C118.97 43.7159 118.642 43.9233 118.405 44.3381C118.168 44.7509 118.05 45.3352 118.05 46.0909C118.05 46.5947 118.103 47.0227 118.209 47.375C118.315 47.7273 118.467 47.9953 118.666 48.179C118.867 48.3627 119.108 48.4545 119.391 48.4545ZM124.459 49.0795C124.084 49.0795 123.75 49.0152 123.456 48.8864C123.164 48.7576 122.932 48.5786 122.76 48.3494C122.589 48.1184 122.497 47.8504 122.482 47.5455H123.197C123.213 47.733 123.277 47.8949 123.391 48.0312C123.504 48.1657 123.653 48.2699 123.837 48.3438C124.02 48.4176 124.224 48.4545 124.447 48.4545C124.697 48.4545 124.919 48.411 125.112 48.3239C125.305 48.2367 125.457 48.1155 125.567 47.9602C125.677 47.8049 125.732 47.625 125.732 47.4205C125.732 47.2064 125.679 47.018 125.572 46.8551C125.466 46.6903 125.311 46.5616 125.107 46.4688C124.902 46.3759 124.652 46.3295 124.357 46.3295H123.891V45.7045H124.357C124.588 45.7045 124.79 45.6629 124.964 45.5795C125.141 45.4962 125.278 45.3788 125.376 45.2273C125.477 45.0758 125.527 44.8977 125.527 44.6932C125.527 44.4962 125.483 44.3248 125.396 44.179C125.309 44.0331 125.186 43.9195 125.027 43.8381C124.87 43.7566 124.684 43.7159 124.47 43.7159C124.269 43.7159 124.08 43.7528 123.902 43.8267C123.726 43.8987 123.582 44.0038 123.47 44.142C123.358 44.2784 123.298 44.4432 123.288 44.6364H122.607C122.618 44.3314 122.71 44.0644 122.882 43.8352C123.054 43.6042 123.28 43.4242 123.558 43.2955C123.839 43.1667 124.146 43.1023 124.482 43.1023C124.841 43.1023 125.15 43.1752 125.408 43.321C125.665 43.465 125.863 43.6553 126.001 43.892C126.14 44.1288 126.209 44.3845 126.209 44.6591C126.209 44.9867 126.123 45.2661 125.95 45.4972C125.78 45.7282 125.548 45.8883 125.254 45.9773V46.0227C125.622 46.0833 125.909 46.2396 126.115 46.4915C126.321 46.7415 126.425 47.0511 126.425 47.4205C126.425 47.7367 126.339 48.0208 126.166 48.2727C125.996 48.5227 125.763 48.7197 125.467 48.8636C125.172 49.0076 124.836 49.0795 124.459 49.0795Z" fill="black"/>
<path id="M3-304_2" d="M96.7045 15.1818H97.5455L99.5227 20.0114H99.5909L101.568 15.1818H102.409V21H101.75V16.5795H101.693L99.875 21H99.2386L97.4205 16.5795H97.3636V21H96.7045V15.1818ZM105.685 21.0795C105.31 21.0795 104.976 21.0152 104.683 20.8864C104.391 20.7576 104.159 20.5786 103.987 20.3494C103.816 20.1184 103.723 19.8504 103.708 19.5455H104.424C104.439 19.733 104.504 19.8949 104.617 20.0312C104.731 20.1657 104.879 20.2699 105.063 20.3438C105.247 20.4176 105.451 20.4545 105.674 20.4545C105.924 20.4545 106.146 20.411 106.339 20.3239C106.532 20.2367 106.683 20.1155 106.793 19.9602C106.903 19.8049 106.958 19.625 106.958 19.4205C106.958 19.2064 106.905 19.018 106.799 18.8551C106.693 18.6903 106.538 18.5616 106.333 18.4688C106.129 18.3759 105.879 18.3295 105.583 18.3295H105.117V17.7045H105.583C105.814 17.7045 106.017 17.6629 106.191 17.5795C106.367 17.4962 106.504 17.3788 106.603 17.2273C106.703 17.0758 106.754 16.8977 106.754 16.6932C106.754 16.4962 106.71 16.3248 106.623 16.179C106.536 16.0331 106.413 15.9195 106.254 15.8381C106.096 15.7566 105.911 15.7159 105.697 15.7159C105.496 15.7159 105.307 15.7528 105.129 15.8267C104.952 15.8987 104.808 16.0038 104.697 16.142C104.585 16.2784 104.524 16.4432 104.515 16.6364H103.833C103.844 16.3314 103.936 16.0644 104.109 15.8352C104.281 15.6042 104.506 15.4242 104.785 15.2955C105.065 15.1667 105.373 15.1023 105.708 15.1023C106.068 15.1023 106.377 15.1752 106.634 15.321C106.892 15.465 107.09 15.6553 107.228 15.892C107.366 16.1288 107.435 16.3845 107.435 16.6591C107.435 16.9867 107.349 17.2661 107.177 17.4972C107.006 17.7282 106.774 17.8883 106.481 17.9773V18.0227C106.848 18.0833 107.135 18.2396 107.342 18.4915C107.548 18.7415 107.651 19.0511 107.651 19.4205C107.651 19.7367 107.565 20.0208 107.393 20.2727C107.222 20.5227 106.989 20.7197 106.694 20.8636C106.398 21.0076 106.062 21.0795 105.685 21.0795ZM111.325 17.7784V18.4034H108.779V17.7784H111.325ZM114.365 21.0795C113.99 21.0795 113.656 21.0152 113.362 20.8864C113.071 20.7576 112.839 20.5786 112.666 20.3494C112.496 20.1184 112.403 19.8504 112.388 19.5455H113.104C113.119 19.733 113.183 19.8949 113.297 20.0312C113.411 20.1657 113.559 20.2699 113.743 20.3438C113.927 20.4176 114.13 20.4545 114.354 20.4545C114.604 20.4545 114.825 20.411 115.018 20.3239C115.212 20.2367 115.363 20.1155 115.473 19.9602C115.583 19.8049 115.638 19.625 115.638 19.4205C115.638 19.2064 115.585 19.018 115.479 18.8551C115.373 18.6903 115.217 18.5616 115.013 18.4688C114.808 18.3759 114.558 18.3295 114.263 18.3295H113.797V17.7045H114.263C114.494 17.7045 114.696 17.6629 114.871 17.5795C115.047 17.4962 115.184 17.3788 115.283 17.2273C115.383 17.0758 115.433 16.8977 115.433 16.6932C115.433 16.4962 115.39 16.3248 115.303 16.179C115.215 16.0331 115.092 15.9195 114.933 15.8381C114.776 15.7566 114.59 15.7159 114.376 15.7159C114.176 15.7159 113.986 15.7528 113.808 15.8267C113.632 15.8987 113.488 16.0038 113.376 16.142C113.265 16.2784 113.204 16.4432 113.195 16.6364H112.513C112.524 16.3314 112.616 16.0644 112.788 15.8352C112.961 15.6042 113.186 15.4242 113.464 15.2955C113.745 15.1667 114.053 15.1023 114.388 15.1023C114.748 15.1023 115.056 15.1752 115.314 15.321C115.571 15.465 115.769 15.6553 115.908 15.892C116.046 16.1288 116.115 16.3845 116.115 16.6591C116.115 16.9867 116.029 17.2661 115.857 17.4972C115.686 17.7282 115.454 17.8883 115.161 17.9773V18.0227C115.528 18.0833 115.815 18.2396 116.021 18.4915C116.228 18.7415 116.331 19.0511 116.331 19.4205C116.331 19.7367 116.245 20.0208 116.072 20.2727C115.902 20.5227 115.669 20.7197 115.374 20.8636C115.078 21.0076 114.742 21.0795 114.365 21.0795ZM119.391 21.0795C118.963 21.0795 118.598 20.9631 118.297 20.7301C117.996 20.4953 117.766 20.1553 117.607 19.7102C117.447 19.2633 117.368 18.7235 117.368 18.0909C117.368 17.4621 117.447 16.9252 117.607 16.4801C117.768 16.0331 117.999 15.6922 118.3 15.4574C118.603 15.2206 118.966 15.1023 119.391 15.1023C119.815 15.1023 120.178 15.2206 120.479 15.4574C120.782 15.6922 121.013 16.0331 121.172 16.4801C121.333 16.9252 121.413 17.4621 121.413 18.0909C121.413 18.7235 121.334 19.2633 121.175 19.7102C121.016 20.1553 120.786 20.4953 120.484 20.7301C120.183 20.9631 119.819 21.0795 119.391 21.0795ZM119.391 20.4545C119.815 20.4545 120.144 20.25 120.379 19.8409C120.614 19.4318 120.732 18.8485 120.732 18.0909C120.732 17.5871 120.678 17.1581 120.57 16.804C120.464 16.4498 120.31 16.1799 120.109 15.9943C119.911 15.8087 119.671 15.7159 119.391 15.7159C118.97 15.7159 118.642 15.9233 118.405 16.3381C118.168 16.7509 118.05 17.3352 118.05 18.0909C118.05 18.5947 118.103 19.0227 118.209 19.375C118.315 19.7273 118.467 19.9953 118.666 20.179C118.867 20.3627 119.108 20.4545 119.391 20.4545ZM122.357 19.8068V19.2273L124.913 15.1818H125.334V16.0795H125.05L123.118 19.1364V19.1818H126.561V19.8068H122.357ZM125.095 21V19.6307V19.3608V15.1818H125.766V21H125.095Z" fill="black"/>
<rect id="Escaleras-m3-2-3" y="192" width="194" height="31" fill="#EF9A9A"/>
<rect id="Escaleras-m3-3-4" x="82" y="70" width="132" height="19" fill="#EF9A9A"/>
<rect id="Rectangle 88" y="154" width="139" height="38" fill="#F5F0E8"/>
<rect id="Rectangle 89" y="26" width="82" height="129" fill="#F5F0E8"/>
<g id="Group 16">
<rect id="Rectangle 63_2" width="82" height="26" fill="#B0C4DE"/>
<path id="&#226;&#154;&#165;_2" d="M41.0225 17.5862V15.9662H39.2525V15.2612H41.0225V13.9412C40.5125 13.8712 40.0525 13.6912 39.6425 13.4012C39.2325 13.1112 38.9075 12.7412 38.6675 12.2912C38.4275 11.8412 38.3075 11.3562 38.3075 10.8362C38.3075 10.2762 38.4475 9.76621 38.7275 9.30621C39.0175 8.83621 39.3975 8.46121 39.8675 8.18121C40.3475 7.90121 40.8675 7.76121 41.4275 7.76121C41.7775 7.76121 42.1075 7.81621 42.4175 7.92621C42.7275 8.02621 43.0175 8.17621 43.2875 8.37621L44.6825 6.81621L43.4975 6.23121L46.0175 5.94621L46.0325 8.48121L45.2975 7.35621L43.8725 8.94621C44.1025 9.21621 44.2725 9.51121 44.3825 9.83121C44.4925 10.1412 44.5475 10.4762 44.5475 10.8362C44.5475 11.3462 44.4275 11.8262 44.1875 12.2762C43.9475 12.7262 43.6225 13.1012 43.2125 13.4012C42.8125 13.6912 42.3525 13.8712 41.8325 13.9412V15.2612H43.4975V15.9662H41.8325V17.5862H41.0225ZM41.4275 13.2062C41.8575 13.2062 42.2525 13.1012 42.6125 12.8912C42.9725 12.6712 43.2575 12.3812 43.4675 12.0212C43.6875 11.6612 43.7975 11.2662 43.7975 10.8362C43.7975 10.4162 43.6875 10.0312 43.4675 9.68121C43.2575 9.33121 42.9725 9.05121 42.6125 8.84121C42.2525 8.62121 41.8575 8.51121 41.4275 8.51121C40.9975 8.51121 40.6025 8.62121 40.2425 8.84121C39.8825 9.05121 39.5925 9.33121 39.3725 9.68121C39.1625 10.0312 39.0575 10.4162 39.0575 10.8362C39.0575 11.2662 39.1625 11.6612 39.3725 12.0212C39.5925 12.3812 39.8825 12.6712 40.2425 12.8912C40.6025 13.1012 40.9975 13.2062 41.4275 13.2062Z" fill="black"/>
</g>
</g>
<defs>
<clipPath id="clip0_3_42">
<rect width="181" height="223" fill="white"/>
</clipPath>
</defs>
</svg>
